<?xml version="1.0" standalone="no"?>
<!DOCTYPE svg PUBLIC "-//W3C//DTD SVG 1.1//EN" "http://www.w3.org/Graphics/SVG/1.1/DTD/svg11.dtd" >
<svg xmlns="http://www.w3.org/2000/svg">
    <defs>
        <font id="Apercu-Italic">
            <font-face font-family="Apercu-Italic"
                       units-per-em="1000"
                       ascent="1153"
                       descent="-294"
                       bbox="-113 -285 1930 1153"
                    />
            <missing-glyph horiz-adv-x="0" />
            
            <glyph glyph-name="!" unicode="&#x21;" horiz-adv-x="309" d=" M122,200 L195,700 L309,700 L188,200 M60,65 Q60,95 80,115.5 Q100,136 130,136 Q160,136 180,115.5 Q200,95 200,65 Q200,36 180,16.5 Q160,-3 130,-3 Q100,-3 80,16.5 Q60,36 60,65"/> 
            <glyph glyph-name="&quot;" unicode="&#x22;" horiz-adv-x="415" d=" M192,476 L130,476 L150,708 L262,708 M345,476 L283,476 L303,708 L415,708"/> 
            <glyph glyph-name="#" unicode="&#x23;" horiz-adv-x="652" d=" M225,424 L105,424 L113,492 L247,492 L315,700 L391,700 L323,492 L460,492 L528,700 L603,700 L535,492 L652,492 L644,424 L513,424 L464,276 L585,276 L577,208 L442,208 L375,0 L300,0 L367,208 L230,208 L164,0 L87,0 L154,208 L38,208 L46,276 L176,276 M438,424 L301,424 L252,276 L389,276"/> 
            <glyph glyph-name="$" unicode="&#x24;" horiz-adv-x="487" d=" M487,584 L411,542 Q381,625 315,625 Q270,625 244,598.5 Q218,572 218,527 Q218,486 242.5,460 Q267,434 329,402 Q398,365 430,329 Q461,294 461,223 Q461,116 396,57 Q335,-1 244,-7 L228,-90 L148,-90 L165,-2 Q103,15 63,66 Q22,119 22,184 L102,227 Q107,158 140,117 Q173,76 230,76 Q292,76 331,111 Q370,146 370,207 Q370,253 346.5,279.5 Q323,306 263,335 Q126,403 126,514 Q126,596 174,647 Q222,698 302,706 L319,790 L399,790 L381,700 Q421,686 449,655 Q477,624 487,584"/> 
            <glyph glyph-name="%" unicode="&#x25;" horiz-adv-x="786" d=" M77,526 Q77,608 135,660 Q188,708 266,708 Q323,708 361.5,669.5 Q400,631 400,570 Q400,488 342,436 Q290,388 211,388 Q154,388 115.5,426.5 Q77,465 77,526 M254,638 Q213,638 184,612 Q151,582 151,536 Q151,499 170.5,478.5 Q190,458 223,458 Q264,458 293,484 Q326,514 326,560 Q326,597 306.5,617.5 Q287,638 254,638 M447,130 Q447,212 505,264 Q558,312 636,312 Q693,312 731.5,273.5 Q770,235 770,174 Q770,92 712,40 Q660,-8 581,-8 Q524,-8 485.5,30.5 Q447,69 447,130 M624,242 Q583,242 554,216 Q521,186 521,140 Q521,103 540.5,82.5 Q560,62 593,62 Q634,62 663,88 Q696,118 696,164 Q696,201 676.5,221.5 Q657,242 624,242 M64,15 L740,733 L786,690 L109,-29"/> 
            <glyph glyph-name="&amp;" unicode="&#x26;" horiz-adv-x="552" d=" M210,-8 Q132,-8 82,41 Q31,91 31,171 Q31,331 216,418 Q177,480 177,537 Q177,617 225,662.5 Q273,708 357,708 Q422,708 459,671 Q496,634 496,576 Q496,518 452.5,475 Q409,432 322,390 L429,208 Q458,250 501,330 L548,260 Q507,186 471,137 L552,0 L458,0 L415,74 Q327,-8 210,-8 M225,68 Q306,68 375,141 L251,355 Q115,285 115,182 Q115,127 145,97.5 Q175,68 225,68 M350,636 Q310,636 284,610.5 Q258,585 258,541 Q258,496 285,450 Q414,508 414,570 Q414,636 350,636"/> 
            <glyph glyph-name="'" unicode="&#x27;" horiz-adv-x="262" d=" M192,476 L130,476 L150,708 L262,708"/> 
            <glyph glyph-name="(" unicode="&#x28;" horiz-adv-x="341" d=" M252,750 L341,750 Q139,503 139,194 Q139,58 186,-50 L97,-50 Q50,58 50,193 Q50,520 252,750"/> 
            <glyph glyph-name=")" unicode="&#x29;" horiz-adv-x="225" d=" M24,-50 L-65,-50 Q136,197 136,506 Q136,642 89,750 L178,750 Q225,642 225,507 Q225,180 24,-50"/> 
            <glyph glyph-name="*" unicode="&#x2A;" horiz-adv-x="461" d=" M268,708 L336,708 L309,570 L448,613 L461,549 L318,505 L377,394 L314,355 L255,466 L156,355 L105,394 L206,505 L85,548 L118,613 L241,570"/> 
            <glyph glyph-name="+" unicode="&#x2B;" horiz-adv-x="502" d=" M245,356 L280,539 L355,539 L320,356 L502,356 L487,282 L305,282 L270,99 L195,99 L230,282 L48,282 L63,356"/> 
            <glyph glyph-name="," unicode="&#x2C;" horiz-adv-x="215" d=" M59,-107 L-4,-107 L98,110 L215,110"/> 
            <glyph glyph-name="-" unicode="&#x2D;" horiz-adv-x="409" d=" M394,280 L55,280 L70,354 L409,354"/> 
            <glyph glyph-name="." unicode="&#x2E;" horiz-adv-x="151" d=" M25,59 Q25,85 43,103.5 Q61,122 88,122 Q114,122 132.5,103.5 Q151,85 151,59 Q151,32 132.5,14 Q114,-4 88,-4 Q61,-4 43,14 Q25,32 25,59"/> 
            <glyph glyph-name="/" unicode="&#x2F;" horiz-adv-x="583" d=" M-95,-50 L494,750 L583,750 L-6,-50"/> 
            <glyph glyph-name="0" unicode="&#x30;" horiz-adv-x="547" d=" M356,708 Q447,708 497,643.5 Q547,579 547,457 Q547,232 442,99 Q358,-8 226,-8 Q135,-8 85,57 Q35,122 35,243 Q35,468 140,601 Q224,708 356,708 M344,628 Q288,628 242.5,590 Q197,552 172,490 Q124,370 124,254 Q124,160 152,116 Q180,72 238,72 Q296,72 341.5,110.5 Q387,149 411,209 Q435,269 447,330 Q459,391 458,446 Q458,540 430,584 Q402,628 344,628"/> 
            <glyph glyph-name="1" unicode="&#x31;" horiz-adv-x="321" d=" M90,592 L289,700 L321,700 L184,0 L101,0 L213,574 L72,500"/> 
            <glyph glyph-name="2" unicode="&#x32;" horiz-adv-x="497" d=" M408,0 L-7,0 L0,39 L322,381 Q328,388 365,428 Q408,480 408,531 Q408,628 318,628 Q274,628 239,595.5 Q204,563 188,508 L103,524 Q125,608 182.5,658 Q240,708 325,708 Q402,708 449.5,664.5 Q497,621 497,553 Q497,496 476.5,453 Q456,410 406,357 L146,80 L423,80"/> 
            <glyph glyph-name="3" unicode="&#x33;" horiz-adv-x="499" d=" M10,184 L10,192 L94,203 L94,197 Q94,141 127.5,106.5 Q161,72 218,72 Q363,72 363,245 Q363,304 333,336 Q303,368 248,368 Q212,368 183,355 L157,402 L346,620 L103,620 L118,700 L499,700 L494,673 L272,432 Q283,435 298,435 Q371,435 411.5,386 Q452,337 452,247 Q452,133 387,62 Q323,-8 208,-8 Q121,-8 65,49 Q10,105 10,184"/> 
            <glyph glyph-name="4" unicode="&#x34;" horiz-adv-x="500" d=" M363,0 L274,0 L303,149 L10,149 L17,184 L403,700 L500,700 L408,229 L491,229 L475,149 L392,149 M381,554 L140,229 L319,229"/> 
            <glyph glyph-name="5" unicode="&#x35;" horiz-adv-x="506" d=" M21,173 L21,184 L103,199 L103,191 Q103,137 131.5,104.5 Q160,72 211,72 Q283,72 328,123 Q374,175 374,258 Q374,384 267,384 Q228,384 186,363 Q144,342 111,306 L58,318 L163,700 L506,700 L491,620 L224,620 L164,417 Q217,464 288,464 Q371,464 417,415 Q463,366 463,271 Q463,145 392,68 Q322,-8 200,-8 Q125,-8 72,42 Q21,93 21,173"/> 
            <glyph glyph-name="6" unicode="&#x36;" horiz-adv-x="475" d=" M300,448 Q381,448 428,399 Q475,350 475,260 Q475,144 402,68 Q329,-8 214,-8 Q130,-8 82,42.5 Q34,93 34,178 Q34,273 100,360 L366,708 L468,708 L264,441 Q279,448 300,448 M278,369 Q210,369 166,316 Q123,264 123,191 Q123,72 226,72 Q295,72 340,123 Q386,175 386,248 Q386,307 357.5,338 Q329,369 278,369"/> 
            <glyph glyph-name="7" unicode="&#x37;" horiz-adv-x="527" d=" M519,663 L121,0 L25,0 L401,620 L81,620 L97,700 L527,700"/> 
            <glyph glyph-name="8" unicode="&#x38;" horiz-adv-x="507" d=" M344,708 Q420,708 463.5,664.5 Q507,621 507,547 Q507,488 475.5,443.5 Q444,399 389,375 Q424,357 445.5,319.5 Q467,282 467,231 Q467,123 404,60 Q336,-8 210,-8 Q131,-8 78,42 Q25,92 25,171 Q25,240 61.5,293.5 Q98,347 167,377 Q112,417 112,498 Q112,594 184,655 Q249,708 344,708 M271,330 Q206,330 160,288 Q114,248 114,185 Q114,133 143.5,102.5 Q173,72 224,72 Q291,72 334.5,113 Q378,154 378,220 Q378,272 350,301 Q322,330 271,330 M329,632 Q273,632 235,595 Q197,557 197,503 Q197,460 221,435 Q245,410 286,410 Q340,410 381,445 Q422,480 422,535 Q422,581 398,606.5 Q374,632 329,632"/> 
            <glyph glyph-name="9" unicode="&#x39;" horiz-adv-x="522" d=" M256,252 Q175,252 128,301 Q81,350 81,440 Q81,556 154,632 Q227,708 342,708 Q426,708 474,657.5 Q522,607 522,522 Q522,427 456,340 L190,-8 L88,-8 L292,259 Q277,252 256,252 M278,331 Q346,331 390,384 Q433,436 433,509 Q433,628 330,628 Q261,628 215,576 Q170,525 170,452 Q170,393 198.5,362 Q227,331 278,331"/> 
            <glyph glyph-name=":" unicode="&#x3A;" horiz-adv-x="232" d=" M40,59 Q40,85 58,103.5 Q76,122 103,122 Q129,122 147.5,103.5 Q166,85 166,59 Q166,32 147.5,14 Q129,-4 103,-4 Q76,-4 58,14 Q40,32 40,59 M106,403 Q106,429 124,447.5 Q142,466 169,466 Q195,466 213.5,447.5 Q232,429 232,403 Q232,376 213.5,358 Q195,340 169,340 Q142,340 124,358 Q106,376 106,403"/> 
            <glyph glyph-name=";" unicode="&#x3B;" horiz-adv-x="232" d=" M29,-107 L-34,-107 L68,110 L185,110 M106,403 Q106,429 124,447.5 Q142,466 169,466 Q195,466 213.5,447.5 Q232,429 232,403 Q232,376 213.5,358 Q195,340 169,340 Q142,340 124,358 Q106,376 106,403"/> 
            <glyph glyph-name="&lt;" unicode="&#x3C;" horiz-adv-x="387" d=" M387,80 L38,266 L38,354 L387,540 L387,453 L120,310 L387,167"/> 
            <glyph glyph-name="=" unicode="&#x3D;" horiz-adv-x="481" d=" M481,356 L82,356 L82,430 L481,430 M481,190 L82,190 L82,264 L481,264"/> 
            <glyph glyph-name="&gt;" unicode="&#x3E;" horiz-adv-x="419" d=" M70,540 L419,354 L419,266 L70,80 L70,167 L337,310 L70,453"/> 
            <glyph glyph-name="?" unicode="&#x3F;" horiz-adv-x="430" d=" M276,336 L341,307 Q310,247 278.5,224 Q247,201 196,201 Q142,201 109,232.5 Q76,264 76,315 Q76,365 103,396.5 Q130,428 188,453 L286,496 Q347,524 347,573 Q347,603 326.5,620.5 Q306,638 273,638 Q197,638 157,541 L80,562 Q104,629 157,668.5 Q210,708 283,708 Q351,708 390.5,673 Q430,638 430,578 Q430,530 406,498.5 Q382,467 332,443 L213,386 Q181,370 166.5,354.5 Q152,339 152,316 Q152,296 165,283.5 Q178,271 197,271 Q222,271 239,286 Q256,301 276,336 M91,63 Q91,92 110,111.5 Q129,131 157,131 Q186,131 205.5,111.5 Q225,92 225,63 Q225,35 205.5,16 Q186,-3 157,-3 Q129,-3 110,16 Q91,35 91,63"/> 
            <glyph glyph-name="@" unicode="&#x40;" horiz-adv-x="847" d=" M588,459 L605,509 L670,509 L616,257 Q610,227 610,224 Q610,180 652,180 Q691,181 717.5,212 Q744,243 754.5,288.5 Q765,334 764,389 Q764,514 696.5,580 Q629,646 500,646 Q342,646 244,542 Q146,438 146,268 Q146,133 227,55 Q309,-22 434,-22 Q564,-22 696,43 L717,-27 Q628,-66 569,-79 Q508,-94 426,-94 Q265,-94 162,4 Q60,102 60,262 Q60,471 184,594 Q308,718 513,718 Q662,718 754,633 Q847,549 847,398 Q847,319 829,256 Q810,191 762,149.5 Q714,108 647,108 Q609,108 580,127 Q551,146 541,176 Q488,108 395,108 Q322,108 280.5,154.5 Q239,201 239,277 Q239,382 301,449 Q362,516 472,516 Q512,516 543,500.5 Q574,485 588,459 M465,444 Q403,444 362,397 Q322,351 322,283 Q322,236 345.5,208 Q369,180 412,180 Q472,180 513,228 Q553,277 553,340 Q553,444 465,444"/> 
            <glyph glyph-name="A" unicode="&#x41;" horiz-adv-x="506" d=" M-57,0 L315,700 L400,700 L506,0 L417,0 L392,187 L131,187 L32,0 M380,271 L335,586 L175,271"/> 
            <glyph glyph-name="B" unicode="&#x42;" horiz-adv-x="567" d=" M35,0 L172,700 L394,700 Q478,700 522.5,659.5 Q567,619 567,544 Q567,487 537,444.5 Q507,402 456,381 Q496,363 520.5,326.5 Q545,290 545,239 Q545,123 472,62 Q398,0 282,0 M334,331 L189,331 L141,84 L286,84 Q363,84 408,119.5 Q453,155 453,222 Q453,275 422,303 Q391,331 334,331 M382,616 L244,616 L205,415 L345,415 Q403,415 440.5,444.5 Q478,474 478,528 Q478,616 382,616"/> 
            <glyph glyph-name="C" unicode="&#x43;" horiz-adv-x="654" d=" M517,229 L595,204 Q497,-8 293,-8 Q179,-8 109,65 Q39,138 39,272 Q39,386 84,483 Q129,581 219,644 Q308,708 427,708 Q525,708 587,646 Q648,585 654,496 L569,473 Q545,624 411,624 Q322,624 257,572 Q131,474 131,282 Q131,182 175,129 Q219,76 304,76 Q373,76 423.5,112 Q474,148 517,229"/> 
            <glyph glyph-name="D" unicode="&#x44;" horiz-adv-x="628" d=" M35,0 L172,700 L352,700 Q480,700 554,627.5 Q628,555 628,421 Q628,242 516,121 Q405,0 229,0 M333,616 L244,616 L141,84 L230,84 Q368,84 450,177 Q533,272 533,412 Q533,513 482,564.5 Q431,616 333,616"/> 
            <glyph glyph-name="E" unicode="&#x45;" horiz-adv-x="568" d=" M35,0 L172,700 L568,700 L551,616 L244,616 L205,415 L455,415 L439,331 L189,331 L141,84 L458,84 L441,0"/> 
            <glyph glyph-name="F" unicode="&#x46;" horiz-adv-x="571" d=" M35,0 L172,700 L571,700 L554,616 L244,616 L204,407 L454,407 L437,323 L187,323 L124,0"/> 
            <glyph glyph-name="G" unicode="&#x47;" horiz-adv-x="656" d=" M527,269 L383,269 L399,353 L635,353 L566,0 L490,0 L499,96 Q457,41 407,16.5 Q357,-8 286,-8 Q183,-8 111,65 Q39,138 39,277 Q39,389 83,488 Q127,584 218,646 Q309,708 426,708 Q526,708 588,649 Q651,590 656,497 L568,474 Q548,624 410,624 Q287,624 209,525 Q131,426 131,290 Q131,186 175.5,131 Q220,76 303,76 Q384,76 443,127.5 Q502,179 527,269"/> 
            <glyph glyph-name="H" unicode="&#x48;" horiz-adv-x="660" d=" M515,414 L571,700 L660,700 L523,0 L434,0 L499,330 L189,330 L124,0 L35,0 L172,700 L261,700 L205,414"/> 
            <glyph glyph-name="I" unicode="&#x49;" horiz-adv-x="261" d=" M35,0 L172,700 L261,700 L124,0"/> 
            <glyph glyph-name="J" unicode="&#x4A;" horiz-adv-x="511" d=" M329,219 L422,700 L511,700 L411,185 Q393,91 333.5,41.5 Q274,-8 183,-8 Q103,-8 54,47 Q5,102 5,175 L94,194 Q94,76 193,76 Q300,76 329,219"/> 
            <glyph glyph-name="K" unicode="&#x4B;" horiz-adv-x="624" d=" M283,382 L507,0 L399,0 L193,353 L124,0 L35,0 L172,700 L261,700 L206,419 L504,700 L624,700"/> 
            <glyph glyph-name="L" unicode="&#x4C;" horiz-adv-x="449" d=" M35,0 L172,700 L261,700 L141,84 L449,84 L432,0"/> 
            <glyph glyph-name="M" unicode="&#x4D;" horiz-adv-x="755" d=" M35,0 L172,700 L276,700 L368,207 L647,700 L755,700 L618,0 L529,0 L629,510 L375,64 L309,64 L224,510 L124,0"/> 
            <glyph glyph-name="N" unicode="&#x4E;" horiz-adv-x="671" d=" M475,153 L582,700 L671,700 L534,0 L435,0 L230,545 L124,0 L35,0 L172,700 L271,700"/> 
            <glyph glyph-name="O" unicode="&#x4F;" horiz-adv-x="672" d=" M425,708 Q536,708 603,632 Q672,557 672,425 Q672,206 521,77 Q423,-8 286,-8 Q176,-8 107,67 Q39,144 39,275 Q39,494 190,623 Q288,708 425,708 M410,624 Q305,624 229,542 Q131,438 131,283 Q131,183 174.5,129.5 Q218,76 301,76 Q406,76 482,158 Q580,262 580,417 Q580,517 536.5,570.5 Q493,624 410,624"/> 
            <glyph glyph-name="P" unicode="&#x50;" horiz-adv-x="583" d=" M325,300 L183,300 L124,0 L35,0 L172,700 L396,700 Q481,700 532,655 Q583,610 583,534 Q583,421 514.5,360.5 Q446,300 325,300 M199,384 L352,384 Q415,384 452.5,419.5 Q490,455 490,518 Q490,565 464.5,590.5 Q439,616 390,616 L244,616"/> 
            <glyph glyph-name="Q" unicode="&#x51;" horiz-adv-x="672" d=" M425,708 Q536,708 603,632 Q672,557 672,425 Q672,239 560,115 L612,51 L541,-8 L491,53 Q405,-8 286,-8 Q176,-8 107,67 Q39,144 39,275 Q39,494 190,623 Q288,708 425,708 M410,624 Q305,624 229,542 Q131,438 131,283 Q131,183 174.5,129.5 Q218,76 301,76 Q377,76 438,119 L373,200 L445,259 L504,185 Q580,285 580,417 Q580,517 536.5,570.5 Q493,624 410,624"/> 
            <glyph glyph-name="R" unicode="&#x52;" horiz-adv-x="572" d=" M530,0 L431,0 L292,330 L189,330 L124,0 L35,0 L172,700 L394,700 Q477,700 524.5,658 Q572,616 572,543 Q572,456 523,401.5 Q474,347 387,336 M380,616 L244,616 L205,414 L344,414 Q409,414 444.5,443 Q480,472 480,527 Q480,616 380,616"/> 
            <glyph glyph-name="S" unicode="&#x53;" horiz-adv-x="487" d=" M487,584 L411,542 Q381,624 315,624 Q269,624 243.5,598 Q218,572 218,527 Q218,486 242.5,460 Q267,434 329,402 Q391,370 425,335 Q462,297 462,223 Q462,117 396,57 Q357,21 314.5,6.5 Q272,-8 211,-8 Q137,-8 79,48 Q22,105 22,184 L102,227 Q107,158 140,117 Q173,76 230,76 Q292,76 331,111 Q370,146 370,207 Q370,253 346.5,279.5 Q323,306 263,335 Q126,403 126,514 Q126,605 182.5,656.5 Q239,708 331,708 Q389,708 431.5,672.5 Q474,637 487,584"/> 
            <glyph glyph-name="T" unicode="&#x54;" horiz-adv-x="561" d=" M258,616 L61,616 L78,700 L561,700 L544,616 L347,616 L227,0 L138,0"/> 
            <glyph glyph-name="U" unicode="&#x55;" horiz-adv-x="647" d=" M76,238 L165,700 L254,700 L163,232 Q159,209 159,192 Q159,76 281,76 Q356,76 404.5,116.5 Q453,157 467,232 L558,700 L647,700 L558,238 Q512,-8 270,-8 Q180,-8 125,41 Q70,90 70,171 Q70,206 76,238"/> 
            <glyph glyph-name="V" unicode="&#x56;" horiz-adv-x="621" d=" M226,125 L526,700 L621,700 L247,0 L158,0 L61,700 L154,700"/> 
            <glyph glyph-name="W" unicode="&#x57;" horiz-adv-x="920" d=" M577,130 L826,700 L920,700 L601,0 L512,0 L457,480 L231,0 L142,0 L90,700 L183,700 L211,130 L444,626 L527,626"/> 
            <glyph glyph-name="X" unicode="&#x58;" horiz-adv-x="574" d=" M237,384 L119,700 L213,700 L299,466 L476,700 L574,700 L331,379 L473,0 L381,0 L269,297 L47,0 L-54,0"/> 
            <glyph glyph-name="Y" unicode="&#x59;" horiz-adv-x="550" d=" M123,0 L182,302 L56,700 L150,700 L241,390 L451,700 L550,700 L271,302 L212,0"/> 
            <glyph glyph-name="Z" unicode="&#x5A;" horiz-adv-x="553" d=" M411,616 L101,616 L118,700 L553,700 L544,658 L120,84 L451,84 L434,0 L-21,0 L-13,42"/> 
            <glyph glyph-name="[" unicode="&#x5B;" horiz-adv-x="365" d=" M210,-50 L22,-50 L176,750 L365,750 L350,674 L242,674 L117,26 L225,26"/> 
            <glyph glyph-name="\" unicode="&#x5C;" horiz-adv-x="434" d=" M350,-50 L69,750 L153,750 L434,-50"/> 
            <glyph glyph-name="]" unicode="&#x5D;" horiz-adv-x="300" d=" M96,674 L111,750 L300,750 L145,-50 L-43,-50 L-29,26 L79,26 L204,674"/> 
            <glyph glyph-name="^" unicode="&#x5E;" horiz-adv-x="510" d=" M70,421 L256,700 L324,700 L510,421 L427,421 L290,624 L153,421"/> 
            <glyph glyph-name="_" unicode="&#x5F;" horiz-adv-x="370" d=" M355,-74 L-44,-74 L-29,0 L370,0"/> 
            <glyph glyph-name="`" unicode="&#x60;" horiz-adv-x="224" d=" M55,704 L176,704 L224,560 L156,560"/> 
            <glyph glyph-name="a" unicode="&#x61;" horiz-adv-x="530" d=" M530,504 L433,0 L348,0 L360,62 Q297,-8 211,-8 Q122,-8 74.5,48 Q27,104 27,197 Q27,328 99,420 Q171,512 300,512 Q347,512 385.5,491 Q424,470 434,444 L445,504 M235,68 Q292,68 333,106 Q409,177 409,304 Q409,366 379,401 Q349,436 293,436 Q208,436 162,370 Q116,305 116,220 Q116,150 147.5,109 Q179,68 235,68"/> 
            <glyph glyph-name="b" unicode="&#x62;" horiz-adv-x="531" d=" M531,300 Q531,169 461,81 Q390,-8 260,-8 Q220,-8 179,13 Q140,36 128,62 L115,0 L30,0 L168,708 L253,708 L202,444 Q227,473 268,492.5 Q309,512 352,512 Q435,512 483,457.5 Q531,403 531,300 M267,68 Q348,68 395,134 Q442,201 442,288 Q442,436 329,436 Q254,436 203,367 Q152,298 152,211 Q152,143 183,105.5 Q214,68 267,68"/> 
            <glyph glyph-name="c" unicode="&#x63;" horiz-adv-x="495" d=" M380,170 L451,133 Q398,54 346,22 Q294,-8 214,-8 Q129,-8 78,50 Q27,108 27,203 Q27,324 104,418 Q182,512 314,512 Q460,512 495,372 L419,343 Q394,436 299,436 Q218,436 167,369 Q116,303 116,212 Q116,145 146.5,106.5 Q177,68 229,68 Q277,68 312,92 Q347,116 380,170"/> 
            <glyph glyph-name="d" unicode="&#x64;" horiz-adv-x="577" d=" M302,512 Q348,512 385.5,493.5 Q423,475 441,444 L492,708 L577,708 L439,0 L354,0 L367,62 Q303,-8 209,-8 Q123,-8 75,44 Q27,96 27,186 Q27,320 102,416 Q177,512 302,512 M116,208 Q116,143 146.5,105.5 Q177,68 232,68 Q290,68 334,107 Q416,181 416,306 Q416,369 383.5,402.5 Q351,436 295,436 Q238,436 195,399 Q116,330 116,208"/> 
            <glyph glyph-name="e" unicode="&#x65;" horiz-adv-x="503" d=" M498,273 L490,234 L117,234 Q114,214 114,198 Q114,137 144.5,102.5 Q175,68 231,68 Q283,68 319,91.5 Q355,115 388,167 L460,132 Q410,57 353,24.5 Q296,-8 216,-8 Q129,-8 77,50 Q25,108 25,204 Q25,322 109,417 Q193,512 317,512 Q403,512 453,461 Q503,410 503,323 Q503,305 498,273 M302,436 Q248,436 203,401.5 Q158,367 136,310 L414,310 Q414,436 302,436"/> 
            <glyph glyph-name="f" unicode="&#x66;" horiz-adv-x="393" d=" M113,428 L41,428 L56,504 L128,504 L134,537 Q150,626 195,667 Q240,708 321,708 Q356,708 393,690 L362,618 Q336,632 309,632 Q272,632 251.5,612 Q231,592 221,544 L213,504 L325,504 L310,428 L198,428 L115,0 L30,0"/> 
            <glyph glyph-name="g" unicode="&#x67;" horiz-adv-x="504" d=" M84,311 Q84,399 140,455 Q197,512 289,512 Q339,512 380,489 L474,537 L504,471 L429,433 Q440,406 440,369 Q440,285 381,229 Q323,174 234,174 Q191,174 153,194 Q106,176 106,139 Q106,123 118.5,112 Q131,101 151,101 L266,101 Q407,101 407,-20 Q407,-114 334,-163 Q263,-212 157,-212 Q78,-212 28,-172 Q-23,-133 -23,-68 Q-23,6 43,59 Q22,82 22,122 Q22,192 106,235 Q84,267 84,311 M241,29 L144,29 Q134,29 108,31 Q62,7 62,-50 Q62,-91 89.5,-115.5 Q117,-140 172,-140 Q231,-140 274,-115 Q318,-89 318,-35 Q318,29 241,29 M279,440 Q231,440 199.5,408 Q168,376 168,326 Q168,288 188.5,267 Q209,246 245,246 Q293,246 324.5,276.5 Q356,307 356,357 Q356,397 335.5,418.5 Q315,440 279,440"/> 
            <glyph glyph-name="h" unicode="&#x68;" horiz-adv-x="507" d=" M502,350 L434,0 L349,0 L413,333 Q416,351 416,369 Q416,436 347,436 Q291,436 232,374 Q176,313 156,214 L115,0 L30,0 L167,708 L252,708 L194,410 Q268,512 384,512 Q441,512 474,482.5 Q507,453 507,400 Q507,382 502,350"/> 
            <glyph glyph-name="i" unicode="&#x69;" horiz-adv-x="258" d=" M30,0 L128,504 L213,504 L115,0 M132,644 Q132,671 150,689.5 Q168,708 195,708 Q222,708 240,689.5 Q258,671 258,644 Q258,618 240,600 Q222,582 195,582 Q168,582 150,600 Q132,618 132,644"/> 
            <glyph glyph-name="j" unicode="&#x6A;" horiz-adv-x="258" d=" M-80,-212 L-88,-130 Q-34,-117 -8,-93 Q18,-69 27,-18 L128,504 L213,504 L110,-26 Q93,-113 48.5,-156 Q4,-199 -80,-212 M132,644 Q132,671 150,689.5 Q168,708 195,708 Q222,708 240,689.5 Q258,671 258,644 Q258,618 240,600 Q222,582 195,582 Q168,582 150,600 Q132,618 132,644"/> 
            <glyph glyph-name="k" unicode="&#x6B;" horiz-adv-x="503" d=" M30,0 L167,708 L252,708 L172,293 L388,504 L503,504 L254,268 L425,0 L322,0 L164,253 L115,0"/> 
            <glyph glyph-name="l" unicode="&#x6C;" horiz-adv-x="271" d=" M49,0 L186,708 L271,708 L134,0"/> 
            <glyph glyph-name="m" unicode="&#x6D;" horiz-adv-x="778" d=" M774,355 L705,0 L620,0 L685,337 Q689,358 689,375 Q689,436 625,436 Q573,436 522,374 Q471,313 450,207 L410,0 L325,0 L390,337 Q393,355 393,375 Q393,436 330,436 Q278,436 227,374 Q176,313 155,207 L115,0 L30,0 L128,504 L213,504 L195,411 Q266,512 366,512 Q418,512 448.5,484 Q479,456 482,407 Q558,512 661,512 Q778,512 778,399 Q778,374 774,355"/> 
            <glyph glyph-name="n" unicode="&#x6E;" horiz-adv-x="499" d=" M496,355 L427,0 L342,0 L406,333 Q410,354 410,368 Q410,436 343,436 Q289,436 232,373 Q176,311 156,211 L115,0 L30,0 L128,504 L213,504 L195,411 Q272,512 377,512 Q435,512 467,483 Q499,454 499,402 Q499,378 496,355"/> 
            <glyph glyph-name="o" unicode="&#x6F;" horiz-adv-x="508" d=" M27,204 Q27,328 96,414 Q176,512 309,512 Q402,512 455,456 Q508,400 508,300 Q508,176 439,90 Q359,-8 226,-8 Q133,-8 80,48 Q27,104 27,204 M301,436 Q217,436 161,365 Q116,308 116,216 Q116,146 146.5,107 Q177,68 234,68 Q318,68 374,139 Q419,196 419,288 Q419,358 388.5,397 Q358,436 301,436"/> 
            <glyph glyph-name="p" unicode="&#x70;" horiz-adv-x="540" d=" M265,-8 Q171,-8 126,60 L75,-204 L-10,-204 L128,504 L213,504 L200,442 Q228,474 270,493 Q312,512 358,512 Q444,512 492,460 Q540,408 540,318 Q540,184 465,88 Q390,-8 265,-8 M451,296 Q451,361 420.5,398.5 Q390,436 335,436 Q276,436 233,396 Q151,324 151,198 Q151,135 182,101.5 Q213,68 272,68 Q330,68 371,105 Q451,174 451,296"/> 
            <glyph glyph-name="q" unicode="&#x71;" horiz-adv-x="528" d=" M27,204 Q27,335 97,423 Q168,512 298,512 Q340,512 378,490 Q418,469 430,442 L443,504 L528,504 L390,-204 L305,-204 L356,60 Q331,31 290,11.5 Q249,-8 206,-8 Q123,-8 75,46.5 Q27,101 27,204 M291,436 Q208,436 162,370 Q116,305 116,216 Q116,68 229,68 Q304,68 355,137 Q406,206 406,293 Q406,361 375,398.5 Q344,436 291,436"/> 
            <glyph glyph-name="r" unicode="&#x72;" horiz-adv-x="428" d=" M428,497 L397,422 Q371,436 344,436 Q288,436 234,385 Q182,334 159,223 L115,0 L30,0 L128,504 L213,504 L196,418 Q256,512 359,512 Q404,512 428,497"/> 
            <glyph glyph-name="s" unicode="&#x73;" horiz-adv-x="404" d=" M259,512 Q306,512 345,489.5 Q384,467 404,428 L338,379 Q300,436 249,436 Q219,436 200,419 Q181,402 181,373 Q181,348 198,331 Q215,314 250,298 Q302,276 333,250 Q376,219 376,158 Q376,82 325.5,37 Q275,-8 194,-8 Q120,-8 72,34 Q23,78 16,135 L90,171 Q111,68 204,68 Q242,68 264.5,88.5 Q287,109 287,142 Q287,180 261,199 Q242,213 195,234 Q96,278 96,368 Q96,434 140,473 Q184,512 259,512"/> 
            <glyph glyph-name="t" unicode="&#x74;" horiz-adv-x="341" d=" M116,428 L29,428 L43,504 L130,504 L160,655 L254,708 L214,504 L341,504 L327,428 L200,428 L148,160 Q143,132 143,124 Q143,68 197,68 Q229,68 257,84 L263,11 Q226,-8 177,-8 Q120,-8 89,22 Q58,52 58,109 Q58,128 65,167"/> 
            <glyph glyph-name="u" unicode="&#x75;" horiz-adv-x="521" d=" M55,149 L124,504 L209,504 L145,171 Q141,150 141,136 Q141,68 208,68 Q262,68 319,131 Q375,193 395,293 L436,504 L521,504 L423,0 L338,0 L356,93 Q279,-8 174,-8 Q116,-8 84,21 Q52,50 52,102 Q52,126 55,149"/> 
            <glyph glyph-name="v" unicode="&#x76;" horiz-adv-x="449" d=" M160,107 L360,504 L449,504 L188,0 L99,0 L28,504 L113,504"/> 
            <glyph glyph-name="w" unicode="&#x77;" horiz-adv-x="715" d=" M450,113 L626,504 L715,504 L470,0 L388,0 L366,381 L195,0 L113,0 L55,504 L141,504 L172,113 L345,504 L431,504"/> 
            <glyph glyph-name="x" unicode="&#x78;" horiz-adv-x="464" d=" M179,275 L81,504 L173,504 L240,344 L366,504 L464,504 L272,266 L379,0 L290,0 L214,190 L65,0 L-36,0"/> 
            <glyph glyph-name="y" unicode="&#x79;" horiz-adv-x="471" d=" M188,140 L382,504 L471,504 L86,-204 L-3,-204 L122,32 L41,504 L130,504"/> 
            <glyph glyph-name="z" unicode="&#x7A;" horiz-adv-x="443" d=" M309,428 L82,428 L96,504 L443,504 L436,468 L126,76 L374,76 L360,0 L-5,0 L2,36"/> 
            <glyph glyph-name="{" unicode="&#x7B;" horiz-adv-x="347" d=" M62,50 L98,232 Q102,253 102,263 Q102,290 86,301 Q70,312 33,312 L48,388 Q93,388 113.5,405.5 Q134,423 143,468 L179,650 Q188,696 219.5,723 Q251,750 299,750 L347,750 L332,674 L309,674 Q264,674 256,629 L221,448 Q212,403 191,381.5 Q170,360 132,350 Q185,336 185,284 Q185,270 182,252 L147,71 Q147,68 146.5,64.5 Q146,61 145.5,59 Q145,57 145,56 Q145,40 154,33 Q163,26 184,26 L207,26 L192,-50 L144,-50 Q103,-50 81.5,-29.5 Q60,-9 60,28"/> 
            <glyph glyph-name="|" unicode="&#x7C;" horiz-adv-x="180" d=" M100,-50 L100,750 L180,750 L180,-50"/> 
            <glyph glyph-name="}" unicode="&#x7D;" horiz-adv-x="280" d=" M170,232 L134,50 Q125,3 94,-23.5 Q63,-50 15,-50 L-32,-50 L-18,26 L5,26 Q50,26 58,71 L93,252 Q102,297 123.5,318.5 Q145,340 183,350 Q129,364 129,415 Q129,430 132,448 L167,629 Q167,632 167.5,635.5 Q168,639 168.5,641 Q169,643 169,644 Q169,674 130,674 L107,674 L122,750 L170,750 Q253,750 253,673 Q253,664 251,650 L215,468 Q211,447 211,437 Q211,410 227,399 Q243,388 280,388 L265,312 Q220,312 199,294.5 Q178,277 170,232"/> 
            <glyph glyph-name="~" unicode="&#x7E;" horiz-adv-x="533" d=" M100,268 L60,322 Q123,407 209,407 Q254,407 305,382 Q356,357 392,357 Q446,357 493,402 L533,347 Q471,263 384,263 Q339,263 288,288 Q237,313 201,313 Q146,313 100,268"/> 
            <glyph glyph-name="¡" unicode="&#xA1;" horiz-adv-x="259" d=" M197,294 L124,-206 L10,-206 L131,294 M259,429 Q259,399 239,378.5 Q219,358 189,358 Q159,358 139,378.5 Q119,399 119,429 Q119,458 139,477.5 Q159,497 189,497 Q219,497 239,477.5 Q259,458 259,429"/> 
            <glyph glyph-name="¢" unicode="&#xA2;" horiz-adv-x="528" d=" M413,268 L484,231 Q439,160 393,128.5 Q347,97 283,91 L256,-50 L175,-50 L203,94 Q136,108 97.5,163.5 Q59,219 59,301 Q59,410 124,501 Q190,591 302,607 L330,750 L411,750 L384,607 Q496,594 528,470 L452,441 Q426,534 332,534 Q251,534 199,467 Q148,401 148,310 Q148,244 179,205 Q210,166 262,166 Q310,166 345,190 Q380,214 413,268"/> 
            <glyph glyph-name="£" unicode="&#xA3;" horiz-adv-x="532" d=" M142,324 L62,324 L78,404 L131,404 Q127,431 127,471 Q127,581 191,644.5 Q255,708 365,708 Q428,708 474,669 Q522,629 532,570 L454,539 Q440,587 416,607.5 Q392,628 350,628 Q284,628 247,582.5 Q210,537 210,456 Q210,422 213,404 L382,404 L366,324 L223,324 L223,304 Q223,230 195,186 Q169,144 109,90 Q148,111 197,111 Q225,111 260,91 Q294,72 312,72 Q341,72 360,88 Q383,107 415,148 L472,96 Q431,40 391,16 Q351,-8 302,-8 Q263,-8 223,12 Q185,32 156,32 Q96,32 35,-8 L-9,54 Q56,109 93,156 Q143,218 143,297 Q143,318 142,324"/> 
            <glyph glyph-name="¤" unicode="&#xA4;" horiz-adv-x="520" d=" M106,422 L18,489 L87,558 L154,471 Q205,509 269,509 Q333,509 384,471 L451,558 L520,489 L432,422 Q467,371 467,307 Q467,243 432,192 L520,125 L451,56 L384,143 Q333,105 269,105 Q205,105 154,143 L87,56 L18,125 L106,192 Q71,243 71,307 Q71,371 106,422 M216,433 Q152,363 152,307 Q152,251 184,216 Q216,181 269,181 Q322,181 354,216 Q386,251 386,307 Q386,363 354,398 Q322,433 216,433"/> 
            <glyph glyph-name="¥" unicode="&#xA5;" horiz-adv-x="606" d=" M222,387 L125,700 L221,700 L303,398 L506,700 L606,700 L388,387 L504,387 L488,307 L332,307 L317,227 L473,227 L457,147 L301,147 L272,0 L183,0 L212,147 L56,147 L72,227 L228,227 L243,307 L87,307 L103,387"/> 
            <glyph glyph-name="¦" unicode="&#xA6;" horiz-adv-x="180" d=" M100,-50 L100,299 L180,299 L180,-50 M180,750 L180,401 L100,401 L100,750"/> 
            <glyph glyph-name="§" unicode="&#xA7;" horiz-adv-x="513" d=" M63,260 Q63,363 177,414 Q144,459 144,509 Q144,597 202,652 Q261,708 355,708 Q422,708 465.5,668 Q509,628 513,560 L433,537 Q424,628 339,628 Q292,628 262.5,600 Q233,572 233,526 Q233,493 246.5,467 Q260,441 277,430 Q293,419 332,400 Q364,385 391,368 Q434,343 455,312.5 Q476,282 476,236 Q476,135 360,82 Q393,37 393,-13 Q393,-101 335,-156 Q276,-212 182,-212 Q115,-212 71.5,-172 Q28,-132 24,-64 L104,-41 Q113,-132 198,-132 Q245,-132 274.5,-104 Q304,-76 304,-30 Q304,3 290.5,29 Q277,55 260,66 Q244,77 205,96 Q173,111 146,128 Q104,153 83.5,183.5 Q63,214 63,260 M228,367 Q143,336 143,272 Q143,226 181,200 Q194,191 218,177 Q304,132 309,129 Q394,160 394,224 Q394,270 356,296 Q339,307 318,319 Q317,320 279.5,338.5 Q242,357 228,367"/> 
            <glyph glyph-name="¨" unicode="&#xA8;" horiz-adv-x="337" d=" M114,708 Q139,708 155,691.5 Q171,675 171,651 Q171,627 155,611 Q139,595 114,595 Q91,595 74.5,611 Q58,627 58,651 Q58,675 74.5,691.5 Q91,708 114,708 M280,708 Q305,708 321,691.5 Q337,675 337,651 Q337,627 321,611 Q305,595 280,595 Q257,595 240.5,611 Q224,627 224,651 Q224,675 240.5,691.5 Q257,708 280,708"/> 
            <glyph glyph-name="©" unicode="&#xA9;" horiz-adv-x="830" d=" M178,71 Q70,184 70,350 Q70,517 178,628 Q287,740 450,740 Q613,740 721,628 Q830,518 830,350 Q830,183 721,71 Q613,-40 450,-40 Q288,-40 178,71 M233,574 Q150,483 150,350 Q150,217 233,126 Q316,36 450,36 Q584,36 667,126 Q750,217 750,350 Q750,483 667,574 Q584,664 450,664 Q316,664 233,574 M553,282 L623,265 Q611,205 563.5,169.5 Q516,134 450,134 Q371,134 313,189 Q254,245 254,350 Q254,454 313,510 Q372,566 450,566 Q516,566 563.5,530.5 Q611,495 623,435 L553,418 Q528,496 450,496 Q395,496 362.5,459 Q330,422 330,350 Q330,278 362.5,241 Q395,204 450,204 Q528,204 553,282"/> 
            <glyph glyph-name="ª" unicode="&#xAA;" horiz-adv-x="373" d=" M373,561 L373,300 L317,300 L306,354 Q263,296 183,296 Q125,296 91.5,326 Q58,356 58,414 Q58,478 109,511 Q160,544 252,544 L302,544 L302,562 Q302,642 218,642 Q153,642 137,581 L72,597 Q85,648 122.5,676 Q160,704 218,704 Q373,704 373,561 M131,414 Q131,357 193,357 Q238,357 270,386.5 Q302,416 302,468 L302,486 L261,486 Q131,486 131,414"/> 
            <glyph glyph-name="«" unicode="&#xAB;" horiz-adv-x="594" d=" M274,80 L35,279 L48,341 L364,545 L343,438 L121,303 L291,168 M504,80 L265,279 L278,341 L594,545 L573,438 L351,303 L521,168"/> 
            <glyph glyph-name="¬" unicode="&#xAC;" horiz-adv-x="475" d=" M391,313 L42,313 L42,389 L475,389 L475,142 L391,142"/> 
            <glyph glyph-name="­" unicode="&#xAD;" horiz-adv-x="409" d=" M394,280 L55,280 L70,354 L409,354"/> 
            <glyph glyph-name="®" unicode="&#xAE;" horiz-adv-x="830" d=" M178,71 Q70,184 70,350 Q70,517 178,628 Q287,740 450,740 Q613,740 721,628 Q830,518 830,350 Q830,183 721,71 Q613,-40 450,-40 Q288,-40 178,71 M233,574 Q150,483 150,350 Q150,217 233,126 Q316,36 450,36 Q584,36 667,126 Q750,217 750,350 Q750,483 667,574 Q584,664 450,664 Q316,664 233,574 M628,137 L546,137 L420,319 L382,319 L382,137 L310,137 L310,563 L463,563 Q526,563 560.5,530.5 Q595,498 595,441 Q595,396 569,363.5 Q543,331 501,323 M462,493 L382,493 L382,389 L462,389 Q523,389 523,441 Q523,493 462,493"/> 
            <glyph glyph-name="¯" unicode="&#xAF;" horiz-adv-x="331" d=" M316,632 L67,632 L82,708 L331,708"/> 
            <glyph glyph-name="°" unicode="&#xB0;" horiz-adv-x="324" d=" M162,482 Q100,544 100,593 Q100,641 131,672 Q163,704 212,704 Q260,704 292,672 Q324,640 324,593 Q324,545 292,513 Q261,482 212,482 M177,628 Q164,615 164,593 Q164,571 177,557 Q190,544 212,544 Q234,544 247,557 Q260,571 260,593 Q260,615 247,628 Q234,642 212,642 Q190,642 177,628"/> 
            <glyph glyph-name="±" unicode="&#xB1;" horiz-adv-x="506" d=" M249,436 L249,619 L323,619 L323,436 L506,436 L506,362 L323,362 L323,179 L249,179 L249,362 L66,362 L66,436 M506,0 L66,0 L66,74 L506,74"/> 
            <glyph glyph-name="²" unicode="&#xB2;" horiz-adv-x="381" d=" M197,575 L136,592 Q149,644 186.5,674 Q224,704 278,704 Q323,704 352,679 Q381,654 381,613 Q381,573 368.5,544.5 Q356,516 321,481 L201,360 L347,360 L335,300 L80,300 L85,325 L264,509 Q285,530 290,537 Q314,563 314,597 Q314,644 269,644 Q245,644 225.5,625.5 Q206,607 197,575"/> 
            <glyph glyph-name="³" unicode="&#xB3;" horiz-adv-x="394" d=" M96,415 L162,424 Q162,391 178,373.5 Q194,356 221,356 Q257,356 278.5,380.5 Q300,405 300,444 Q300,502 246,502 Q226,502 207,491 L184,532 L283,640 L155,640 L167,700 L394,700 L389,677 L271,551 Q316,551 341.5,524.5 Q367,498 367,451 Q367,382 323,339 Q279,296 210,296 Q158,296 127,328.5 Q96,361 96,415"/> 
            <glyph glyph-name="´" unicode="&#xB4;" horiz-adv-x="268" d=" M120,560 L48,560 L145,704 L268,704"/> 
            <glyph glyph-name="µ" unicode="&#xB5;" horiz-adv-x="474" d=" M159,3 L159,-204 L75,-204 L75,504 L159,504 L159,171 Q159,68 246,68 Q305,68 347,130 Q390,191 390,293 L390,504 L474,504 L474,0 L390,0 L390,93 Q333,-8 223,-8 Q189,-8 159,3"/> 
            <glyph glyph-name="¶" unicode="&#xB6;" horiz-adv-x="665" d=" M80,480 Q80,584 147,642 Q214,700 314,700 L665,700 L651,624 L589,624 L428,-204 L343,-204 L504,624 L385,624 L224,-204 L139,-204 L239,314 Q173,314 126,361 Q80,408 80,480"/> 
            <glyph glyph-name="·" unicode="&#xB7;" horiz-adv-x="206" d=" M80,349 Q80,375 98,393.5 Q116,412 143,412 Q169,412 187.5,393.5 Q206,375 206,349 Q206,322 187.5,304 Q169,286 143,286 Q116,286 98,304 Q80,322 80,349"/> 
            <glyph glyph-name="¸" unicode="&#xB8;" horiz-adv-x="140" d=" M66,-60 L140,-60 L29,-235 L-60,-190"/> 
            <glyph glyph-name="¹" unicode="&#xB9;" horiz-adv-x="272" d=" M110,639 L247,700 L272,700 L195,300 L130,300 L190,607 L96,566"/> 
            <glyph glyph-name="º" unicode="&#xBA;" horiz-adv-x="422" d=" M422,500 Q422,414 370,355 Q317,296 230,296 Q142,296 89,355 Q38,415 38,500 Q38,586 90,644 Q143,704 230,704 Q318,704 370,644 Q422,585 422,500 M141,602 Q111,562 111,500 Q111,438 141,398 Q172,358 230,358 Q288,358 318,398 Q348,438 348,500 Q348,562 318,602 Q288,643 230,643 Q173,643 141,602"/> 
            <glyph glyph-name="»" unicode="&#xBB;" horiz-adv-x="577" d=" M338,545 L577,346 L564,284 L248,80 L269,187 L491,322 L321,457 M108,545 L347,346 L334,284 L18,80 L39,187 L261,322 L91,457"/> 
            <glyph glyph-name="¼" unicode="&#xBC;" horiz-adv-x="802" d=" M149,639 L286,700 L311,700 L234,300 L169,300 L229,607 L135,566 M80,15 L756,733 L802,690 L125,-29 M667,0 L603,0 L618,77 L441,77 L446,103 L663,400 L744,400 L693,137 L744,137 L733,77 L682,77 M662,307 L541,137 L629,137"/> 
            <glyph glyph-name="½" unicode="&#xBD;" horiz-adv-x="810" d=" M149,639 L286,700 L311,700 L234,300 L169,300 L229,607 L135,566 M626,275 L565,292 Q578,344 615.5,374 Q653,404 707,404 Q752,404 781,379 Q810,354 810,313 Q810,273 797.5,244.5 Q785,216 750,181 L630,60 L776,60 L764,0 L509,0 L514,25 L693,209 Q714,230 719,237 Q743,263 743,297 Q743,344 698,344 Q674,344 654.5,325.5 Q635,307 626,275 M80,15 L756,733 L802,690 L125,-29"/> 
            <glyph glyph-name="¾" unicode="&#xBE;" horiz-adv-x="873" d=" M151,15 L827,733 L873,690 L196,-29 M96,415 L162,424 Q162,391 178,373.5 Q194,356 221,356 Q257,356 278.5,380.5 Q300,405 300,444 Q300,502 246,502 Q226,502 207,491 L184,532 L283,640 L155,640 L167,700 L394,700 L389,677 L271,551 Q316,551 341.5,524.5 Q367,498 367,451 Q367,382 323,339 Q279,296 210,296 Q158,296 127,328.5 Q96,361 96,415 M735,0 L671,0 L686,77 L509,77 L514,103 L731,400 L812,400 L761,137 L812,137 L801,77 L750,77 M730,307 L609,137 L697,137"/> 
            <glyph glyph-name="¿" unicode="&#xBF;" horiz-adv-x="344" d=" M144,158 L79,187 Q110,247 141.5,270 Q173,293 224,293 Q278,293 311,261 Q344,229 344,179 Q344,129 317,97.5 Q290,66 232,41 L134,-2 Q73,-30 73,-79 Q73,-109 93.5,-126.5 Q114,-144 147,-144 Q223,-144 263,-47 L340,-68 Q316,-135 263,-174.5 Q210,-214 137,-214 Q69,-214 29.5,-179 Q-10,-144 -10,-84 Q-10,-36 14,-4.5 Q38,27 88,51 L207,108 Q239,124 253.5,139.5 Q268,155 268,178 Q268,198 255,210.5 Q242,223 223,223 Q198,223 181,208 Q164,193 144,158 M329,431 Q329,402 310,382.5 Q291,363 263,363 Q234,363 214.5,382.5 Q195,402 195,431 Q195,459 214.5,478 Q234,497 263,497 Q291,497 310,478 Q329,459 329,431"/> 
            <glyph glyph-name="À" unicode="&#xC0;" horiz-adv-x="506" d=" M-57,0 L315,700 L400,700 L506,0 L417,0 L392,187 L131,187 L32,0 M380,271 L335,586 L175,271 M229,900 L350,900 L398,756 L330,756"/> 
            <glyph glyph-name="Á" unicode="&#xC1;" horiz-adv-x="519" d=" M-57,0 L315,700 L400,700 L506,0 L417,0 L392,187 L131,187 L32,0 M380,271 L335,586 L175,271 M371,756 L299,756 L396,900 L519,900"/> 
            <glyph glyph-name="Â" unicode="&#xC2;" horiz-adv-x="531" d=" M-57,0 L315,700 L400,700 L506,0 L417,0 L392,187 L131,187 L32,0 M380,271 L335,586 L175,271 M295,762 L197,762 L376,926 L407,926 L531,762 L442,762 L381,842"/> 
            <glyph glyph-name="Ã" unicode="&#xC3;" horiz-adv-x="540" d=" M-57,0 L315,700 L400,700 L506,0 L417,0 L392,187 L131,187 L32,0 M380,271 L335,586 L175,271 M226,781 L185,823 Q239,896 306,896 Q341,896 372,876 Q404,856 426,856 Q464,856 499,891 L540,848 Q486,776 419,776 Q384,776 352,796 Q321,816 299,816 Q261,816 226,781"/> 
            <glyph glyph-name="Ä" unicode="&#xC4;" horiz-adv-x="525" d=" M-57,0 L315,700 L400,700 L506,0 L417,0 L392,187 L131,187 L32,0 M380,271 L335,586 L175,271 M302,904 Q327,904 343,887.5 Q359,871 359,847 Q359,823 343,807 Q327,791 302,791 Q279,791 262.5,807 Q246,823 246,847 Q246,871 262.5,887.5 Q279,904 302,904 M468,904 Q493,904 509,887.5 Q525,871 525,847 Q525,823 509,807 Q493,791 468,791 Q445,791 428.5,807 Q412,823 412,847 Q412,871 428.5,887.5 Q445,904 468,904"/> 
            <glyph glyph-name="Å" unicode="&#xC5;" horiz-adv-x="506" d=" M-57,0 L315,700 L400,700 L506,0 L417,0 L392,187 L131,187 L32,0 M380,271 L335,586 L175,271 M289,849 Q289,891 317.5,920 Q346,949 388,949 Q430,949 458.5,920 Q487,891 487,849 Q487,808 459,780.5 Q431,753 388,753 Q346,753 317.5,780.5 Q289,808 289,849 M345,850 Q343,823 365.5,812 Q388,801 410.5,812 Q433,823 431,850 Q433,878 410.5,890 Q388,902 365.5,890 Q343,878 345,850"/> 
            <glyph glyph-name="Æ" unicode="&#xC6;" horiz-adv-x="841" d=" M-58,0 L386,700 L841,700 L824,616 L517,616 L478,415 L728,415 L712,331 L462,331 L414,84 L731,84 L714,0 L308,0 L345,187 L158,187 L41,0 M422,585 L406,585 L210,271 L361,271"/> 
            <glyph glyph-name="Ç" unicode="&#xC7;" horiz-adv-x="654" d=" M517,229 L595,204 Q497,-8 293,-8 Q179,-8 109,65 Q39,138 39,272 Q39,386 84,483 Q129,581 219,644 Q308,708 427,708 Q525,708 587,646 Q648,585 654,496 L569,473 Q545,624 411,624 Q322,624 257,572 Q131,474 131,282 Q131,182 175,129 Q219,76 304,76 Q373,76 423.5,112 Q474,148 517,229 M248,-60 L322,-60 L211,-235 L122,-190"/> 
            <glyph glyph-name="È" unicode="&#xC8;" horiz-adv-x="568" d=" M35,0 L172,700 L568,700 L551,616 L244,616 L205,415 L455,415 L439,331 L189,331 L141,84 L458,84 L441,0 M293,900 L414,900 L462,756 L394,756"/> 
            <glyph glyph-name="É" unicode="&#xC9;" horiz-adv-x="568" d=" M35,0 L172,700 L568,700 L551,616 L244,616 L205,415 L455,415 L439,331 L189,331 L141,84 L458,84 L441,0 M372,756 L300,756 L397,900 L520,900"/> 
            <glyph glyph-name="Ê" unicode="&#xCA;" horiz-adv-x="568" d=" M35,0 L172,700 L568,700 L551,616 L244,616 L205,415 L455,415 L439,331 L189,331 L141,84 L458,84 L441,0 M310,762 L212,762 L391,926 L422,926 L546,762 L457,762 L396,842"/> 
            <glyph glyph-name="Ë" unicode="&#xCB;" horiz-adv-x="568" d=" M35,0 L172,700 L568,700 L551,616 L244,616 L205,415 L455,415 L439,331 L189,331 L141,84 L458,84 L441,0 M299,904 Q324,904 340,887.5 Q356,871 356,847 Q356,823 340,807 Q324,791 299,791 Q276,791 259.5,807 Q243,823 243,847 Q243,871 259.5,887.5 Q276,904 299,904 M465,904 Q490,904 506,887.5 Q522,871 522,847 Q522,823 506,807 Q490,791 465,791 Q442,791 425.5,807 Q409,823 409,847 Q409,871 425.5,887.5 Q442,904 465,904"/> 
            <glyph glyph-name="Ì" unicode="&#xCC;" horiz-adv-x="283" d=" M35,0 L172,700 L261,700 L124,0 M114,900 L235,900 L283,756 L215,756"/> 
            <glyph glyph-name="Í" unicode="&#xCD;" horiz-adv-x="385" d=" M35,0 L172,700 L261,700 L124,0 M237,756 L165,756 L262,900 L385,900"/> 
            <glyph glyph-name="Î" unicode="&#xCE;" horiz-adv-x="389" d=" M35,0 L172,700 L261,700 L124,0 M153,762 L55,762 L234,926 L265,926 L389,762 L300,762 L239,842"/> 
            <glyph glyph-name="Ï" unicode="&#xCF;" horiz-adv-x="379" d=" M35,0 L172,700 L261,700 L124,0 M156,904 Q181,904 197,887.5 Q213,871 213,847 Q213,823 197,807 Q181,791 156,791 Q133,791 116.5,807 Q100,823 100,847 Q100,871 116.5,887.5 Q133,904 156,904 M322,904 Q347,904 363,887.5 Q379,871 379,847 Q379,823 363,807 Q347,791 322,791 Q299,791 282.5,807 Q266,823 266,847 Q266,871 282.5,887.5 Q299,904 322,904"/> 
            <glyph glyph-name="Ð" unicode="&#xD0;" horiz-adv-x="628" d=" M95,308 L37,308 L54,392 L111,392 L172,700 L352,700 Q480,700 554,627.5 Q628,555 628,421 Q628,242 516,121 Q405,0 229,0 L35,0 M333,616 L244,616 L200,392 L330,392 L313,308 L184,308 L141,84 L230,84 Q368,84 450,177 Q533,272 533,412 Q533,513 482,564.5 Q431,616 333,616"/> 
            <glyph glyph-name="Ñ" unicode="&#xD1;" horiz-adv-x="671" d=" M475,153 L582,700 L671,700 L534,0 L435,0 L230,545 L124,0 L35,0 L172,700 L271,700 M304,781 L263,823 Q317,896 384,896 Q419,896 450,876 Q482,856 504,856 Q542,856 577,891 L618,848 Q564,776 497,776 Q462,776 430,796 Q399,816 377,816 Q339,816 304,781"/> 
            <glyph glyph-name="Ò" unicode="&#xD2;" horiz-adv-x="672" d=" M425,708 Q536,708 603,632 Q672,557 672,425 Q672,206 521,77 Q423,-8 286,-8 Q176,-8 107,67 Q39,144 39,275 Q39,494 190,623 Q288,708 425,708 M410,624 Q305,624 229,542 Q131,438 131,283 Q131,183 174.5,129.5 Q218,76 301,76 Q406,76 482,158 Q580,262 580,417 Q580,517 536.5,570.5 Q493,624 410,624 M314,900 L435,900 L483,756 L415,756"/> 
            <glyph glyph-name="Ó" unicode="&#xD3;" horiz-adv-x="672" d=" M425,708 Q536,708 603,632 Q672,557 672,425 Q672,206 521,77 Q423,-8 286,-8 Q176,-8 107,67 Q39,144 39,275 Q39,494 190,623 Q288,708 425,708 M410,624 Q305,624 229,542 Q131,438 131,283 Q131,183 174.5,129.5 Q218,76 301,76 Q406,76 482,158 Q580,262 580,417 Q580,517 536.5,570.5 Q493,624 410,624 M427,756 L355,756 L452,900 L575,900"/> 
            <glyph glyph-name="Ô" unicode="&#xD4;" horiz-adv-x="672" d=" M425,708 Q536,708 603,632 Q672,557 672,425 Q672,206 521,77 Q423,-8 286,-8 Q176,-8 107,67 Q39,144 39,275 Q39,494 190,623 Q288,708 425,708 M410,624 Q305,624 229,542 Q131,438 131,283 Q131,183 174.5,129.5 Q218,76 301,76 Q406,76 482,158 Q580,262 580,417 Q580,517 536.5,570.5 Q493,624 410,624 M357,762 L259,762 L438,926 L469,926 L593,762 L504,762 L443,842"/> 
            <glyph glyph-name="Õ" unicode="&#xD5;" horiz-adv-x="672" d=" M425,708 Q536,708 603,632 Q672,557 672,425 Q672,206 521,77 Q423,-8 286,-8 Q176,-8 107,67 Q39,144 39,275 Q39,494 190,623 Q288,708 425,708 M410,624 Q305,624 229,542 Q131,438 131,283 Q131,183 174.5,129.5 Q218,76 301,76 Q406,76 482,158 Q580,262 580,417 Q580,517 536.5,570.5 Q493,624 410,624 M308,781 L267,823 Q321,896 388,896 Q423,896 454,876 Q486,856 508,856 Q546,856 581,891 L622,848 Q568,776 501,776 Q466,776 434,796 Q403,816 381,816 Q343,816 308,781"/> 
            <glyph glyph-name="Ö" unicode="&#xD6;" horiz-adv-x="672" d=" M425,708 Q536,708 603,632 Q672,557 672,425 Q672,206 521,77 Q423,-8 286,-8 Q176,-8 107,67 Q39,144 39,275 Q39,494 190,623 Q288,708 425,708 M410,624 Q305,624 229,542 Q131,438 131,283 Q131,183 174.5,129.5 Q218,76 301,76 Q406,76 482,158 Q580,262 580,417 Q580,517 536.5,570.5 Q493,624 410,624 M361,904 Q386,904 402,887.5 Q418,871 418,847 Q418,823 402,807 Q386,791 361,791 Q338,791 321.5,807 Q305,823 305,847 Q305,871 321.5,887.5 Q338,904 361,904 M527,904 Q552,904 568,887.5 Q584,871 584,847 Q584,823 568,807 Q552,791 527,791 Q504,791 487.5,807 Q471,823 471,847 Q471,871 487.5,887.5 Q504,904 527,904"/> 
            <glyph glyph-name="×" unicode="&#xD7;" horiz-adv-x="486" d=" M276,371 L434,529 L486,477 L328,319 L486,161 L434,109 L276,267 L118,109 L66,161 L224,319 L66,477 L118,529"/> 
            <glyph glyph-name="Ø" unicode="&#xD8;" horiz-adv-x="724" d=" M426,708 Q527,708 593,645 L674,729 L724,681 L635,589 Q673,518 673,425 Q673,206 522,77 Q424,-8 287,-8 Q186,-8 120,55 L39,-29 L-11,19 L77,111 Q40,178 40,275 Q40,494 191,623 Q289,708 426,708 M581,417 Q581,471 566,517 L183,120 Q227,76 302,76 Q407,76 483,158 Q581,262 581,417 M411,624 Q306,624 230,542 Q132,438 132,283 Q132,224 147,182 L529,579 Q487,624 411,624"/> 
            <glyph glyph-name="Ù" unicode="&#xD9;" horiz-adv-x="647" d=" M76,238 L165,700 L254,700 L163,232 Q159,209 159,192 Q159,76 281,76 Q356,76 404.5,116.5 Q453,157 467,232 L558,700 L647,700 L558,238 Q512,-8 270,-8 Q180,-8 125,41 Q70,90 70,171 Q70,206 76,238 M306,900 L427,900 L475,756 L407,756"/> 
            <glyph glyph-name="Ú" unicode="&#xDA;" horiz-adv-x="647" d=" M76,238 L165,700 L254,700 L163,232 Q159,209 159,192 Q159,76 281,76 Q356,76 404.5,116.5 Q453,157 467,232 L558,700 L647,700 L558,238 Q512,-8 270,-8 Q180,-8 125,41 Q70,90 70,171 Q70,206 76,238 M412,756 L340,756 L437,900 L560,900"/> 
            <glyph glyph-name="Û" unicode="&#xDB;" horiz-adv-x="647" d=" M76,238 L165,700 L254,700 L163,232 Q159,209 159,192 Q159,76 281,76 Q356,76 404.5,116.5 Q453,157 467,232 L558,700 L647,700 L558,238 Q512,-8 270,-8 Q180,-8 125,41 Q70,90 70,171 Q70,206 76,238 M342,762 L244,762 L423,926 L454,926 L578,762 L489,762 L428,842"/> 
            <glyph glyph-name="Ü" unicode="&#xDC;" horiz-adv-x="647" d=" M76,238 L165,700 L254,700 L163,232 Q159,209 159,192 Q159,76 281,76 Q356,76 404.5,116.5 Q453,157 467,232 L558,700 L647,700 L558,238 Q512,-8 270,-8 Q180,-8 125,41 Q70,90 70,171 Q70,206 76,238 M344,904 Q369,904 385,887.5 Q401,871 401,847 Q401,823 385,807 Q369,791 344,791 Q321,791 304.5,807 Q288,823 288,847 Q288,871 304.5,887.5 Q321,904 344,904 M510,904 Q535,904 551,887.5 Q567,871 567,847 Q567,823 551,807 Q535,791 510,791 Q487,791 470.5,807 Q454,823 454,847 Q454,871 470.5,887.5 Q487,904 510,904"/> 
            <glyph glyph-name="Ý" unicode="&#xDD;" horiz-adv-x="550" d=" M123,0 L182,302 L56,700 L150,700 L241,390 L451,700 L550,700 L271,302 L212,0 M309,756 L237,756 L334,900 L457,900"/> 
            <glyph glyph-name="Þ" unicode="&#xDE;" horiz-adv-x="553" d=" M124,0 L35,0 L171,700 L260,700 L231,550 L366,550 Q451,550 502,505 Q553,460 553,384 Q553,271 484.5,210.5 Q416,150 295,150 L153,150 M169,234 L322,234 Q385,234 422.5,269.5 Q460,305 460,368 Q460,415 434.5,440.5 Q409,466 360,466 L214,466"/> 
            <glyph glyph-name="ß" unicode="&#xDF;" horiz-adv-x="519" d=" M105,344 L55,344 L69,420 L119,420 L136,505 Q156,603 218,655 Q282,708 364,708 Q436,708 477.5,667 Q519,626 519,556 Q519,427 403,385 Q448,371 476.5,330.5 Q505,290 505,227 Q505,116 434,54 Q363,-8 256,-8 Q200,-8 173,-1 L188,75 Q219,68 258,68 Q336,68 378,106 Q420,144 420,215 Q420,277 386.5,310.5 Q353,344 294,344 L267,344 L281,420 L316,420 Q371,420 404.5,452 Q438,484 438,538 Q438,583 414.5,607.5 Q391,632 349,632 Q300,632 265.5,598 Q231,564 219,502 L121,0 L38,0"/> 
            <glyph glyph-name="à" unicode="&#xE0;" horiz-adv-x="530" d=" M348,0 L360,62 Q297,-8 211,-8 Q122,-8 74.5,48 Q27,104 27,197 Q27,328 99,420 Q171,512 300,512 Q347,512 385.5,491 Q424,470 434,444 L445,504 L530,504 L433,0 M235,68 Q289,68 331.5,105 Q374,142 392,197 Q409,251 409,304 Q409,366 379,401 Q349,436 293,436 Q208,436 162,370 Q116,305 116,220 Q116,150 147.5,109 Q179,68 235,68 M211,704 L332,704 L380,560 L312,560"/> 
            <glyph glyph-name="á" unicode="&#xE1;" horiz-adv-x="530" d=" M348,0 L360,62 Q297,-8 211,-8 Q122,-8 74.5,48 Q27,104 27,197 Q27,328 99,420 Q171,512 300,512 Q347,512 385.5,491 Q424,470 434,444 L445,504 L530,504 L433,0 M235,68 Q289,68 331.5,105 Q374,142 392,197 Q409,251 409,304 Q409,366 379,401 Q349,436 293,436 Q208,436 162,370 Q116,305 116,220 Q116,150 147.5,109 Q179,68 235,68 M322,560 L250,560 L347,704 L470,704"/> 
            <glyph glyph-name="â" unicode="&#xE2;" horiz-adv-x="530" d=" M348,0 L360,62 Q297,-8 211,-8 Q122,-8 74.5,48 Q27,104 27,197 Q27,328 99,420 Q171,512 300,512 Q347,512 385.5,491 Q424,470 434,444 L445,504 L530,504 L433,0 M235,68 Q289,68 331.5,105 Q374,142 392,197 Q409,251 409,304 Q409,366 379,401 Q349,436 293,436 Q208,436 162,370 Q116,305 116,220 Q116,150 147.5,109 Q179,68 235,68 M268,566 L170,566 L349,730 L380,730 L504,566 L415,566 L354,646"/> 
            <glyph glyph-name="ã" unicode="&#xE3;" horiz-adv-x="530" d=" M348,0 L360,62 Q297,-8 211,-8 Q122,-8 74.5,48 Q27,104 27,197 Q27,328 99,420 Q171,512 300,512 Q347,512 385.5,491 Q424,470 434,444 L445,504 L530,504 L433,0 M235,68 Q289,68 331.5,105 Q374,142 392,197 Q409,251 409,304 Q409,366 379,401 Q349,436 293,436 Q208,436 162,370 Q116,305 116,220 Q116,150 147.5,109 Q179,68 235,68 M214,585 L173,627 Q227,700 294,700 Q329,700 360,680 Q392,660 414,660 Q452,660 487,695 L528,652 Q474,580 407,580 Q372,580 340,600 Q309,620 287,620 Q249,620 214,585"/> 
            <glyph glyph-name="ä" unicode="&#xE4;" horiz-adv-x="530" d=" M348,0 L360,62 Q297,-8 211,-8 Q122,-8 74.5,48 Q27,104 27,197 Q27,328 99,420 Q171,512 300,512 Q347,512 385.5,491 Q424,470 434,444 L445,504 L530,504 L433,0 M235,68 Q289,68 331.5,105 Q374,142 392,197 Q409,251 409,304 Q409,366 379,401 Q349,436 293,436 Q208,436 162,370 Q116,305 116,220 Q116,150 147.5,109 Q179,68 235,68 M271,708 Q296,708 312,691.5 Q328,675 328,651 Q328,627 312,611 Q296,595 271,595 Q248,595 231.5,611 Q215,627 215,651 Q215,675 231.5,691.5 Q248,708 271,708 M437,708 Q462,708 478,691.5 Q494,675 494,651 Q494,627 478,611 Q462,595 437,595 Q414,595 397.5,611 Q381,627 381,651 Q381,675 397.5,691.5 Q414,708 437,708"/> 
            <glyph glyph-name="å" unicode="&#xE5;" horiz-adv-x="530" d=" M348,0 L360,62 Q297,-8 211,-8 Q122,-8 74.5,48 Q27,104 27,197 Q27,328 99,420 Q171,512 300,512 Q347,512 385.5,491 Q424,470 434,444 L445,504 L530,504 L433,0 M235,68 Q289,68 331.5,105 Q374,142 392,197 Q409,251 409,304 Q409,366 379,401 Q349,436 293,436 Q208,436 162,370 Q116,305 116,220 Q116,150 147.5,109 Q179,68 235,68 M253,653 Q253,695 281.5,724 Q310,753 352,753 Q394,753 422.5,724 Q451,695 451,653 Q451,612 423,584.5 Q395,557 352,557 Q310,557 281.5,584.5 Q253,612 253,653 M309,654 Q307,627 329.5,616 Q352,605 374.5,616 Q397,627 395,654 Q397,682 374.5,694 Q352,706 329.5,694 Q307,682 309,654"/> 
            <glyph glyph-name="æ" unicode="&#xE6;" horiz-adv-x="832" d=" M827,273 L819,234 L445,234 Q442,214 442,198 Q442,137 473,102.5 Q504,68 560,68 Q612,68 648,91.5 Q684,115 717,167 L789,132 Q739,57 682,24.5 Q625,-8 545,-8 Q485,-8 440.5,21 Q396,50 374,101 Q307,-8 187,-8 Q112,-8 69.5,30 Q27,68 27,131 Q27,221 87,265.5 Q147,310 251,310 L373,310 L378,332 Q380,346 380,356 Q380,436 287,436 Q208,436 174,355 L98,374 Q122,440 175,476 Q228,512 302,512 Q354,512 393.5,490 Q433,468 451,429 Q534,512 646,512 Q732,512 782,461 Q832,410 832,323 Q832,305 827,273 M197,68 Q255,68 297.5,106.5 Q340,145 354,222 L356,234 L233,234 Q179,234 147.5,210.5 Q116,187 116,143 Q116,108 138,88 Q160,68 197,68 M631,436 Q577,436 532,401.5 Q487,367 465,310 L743,310 Q743,436 631,436"/> 
            <glyph glyph-name="ç" unicode="&#xE7;" horiz-adv-x="495" d=" M380,170 L451,133 Q398,54 346,22 Q294,-8 214,-8 Q129,-8 78,50 Q27,108 27,203 Q27,324 104,418 Q182,512 314,512 Q460,512 495,372 L419,343 Q394,436 299,436 Q218,436 167,369 Q116,303 116,212 Q116,145 146.5,106.5 Q177,68 229,68 Q277,68 312,92 Q347,116 380,170 M201,-60 L275,-60 L164,-235 L75,-190"/> 
            <glyph glyph-name="è" unicode="&#xE8;" horiz-adv-x="503" d=" M498,273 L490,234 L117,234 Q114,214 114,198 Q114,137 144.5,102.5 Q175,68 231,68 Q283,68 319,91.5 Q355,115 388,167 L460,132 Q410,57 353,24.5 Q296,-8 216,-8 Q129,-8 77,50 Q25,108 25,204 Q25,322 109,417 Q193,512 317,512 Q403,512 453,461 Q503,410 503,323 Q503,305 498,273 M302,436 Q248,436 203,401.5 Q158,367 136,310 L414,310 Q414,436 302,436 M225,704 L346,704 L394,560 L326,560"/> 
            <glyph glyph-name="é" unicode="&#xE9;" horiz-adv-x="503" d=" M498,273 L490,234 L117,234 Q114,214 114,198 Q114,137 144.5,102.5 Q175,68 231,68 Q283,68 319,91.5 Q355,115 388,167 L460,132 Q410,57 353,24.5 Q296,-8 216,-8 Q129,-8 77,50 Q25,108 25,204 Q25,322 109,417 Q193,512 317,512 Q403,512 453,461 Q503,410 503,323 Q503,305 498,273 M302,436 Q248,436 203,401.5 Q158,367 136,310 L414,310 Q414,436 302,436 M330,560 L258,560 L355,704 L478,704"/> 
            <glyph glyph-name="ê" unicode="&#xEA;" horiz-adv-x="503" d=" M498,273 L490,234 L117,234 Q114,214 114,198 Q114,137 144.5,102.5 Q175,68 231,68 Q283,68 319,91.5 Q355,115 388,167 L460,132 Q410,57 353,24.5 Q296,-8 216,-8 Q129,-8 77,50 Q25,108 25,204 Q25,322 109,417 Q193,512 317,512 Q403,512 453,461 Q503,410 503,323 Q503,305 498,273 M302,436 Q248,436 203,401.5 Q158,367 136,310 L414,310 Q414,436 302,436 M267,566 L169,566 L348,730 L379,730 L503,566 L414,566 L353,646"/> 
            <glyph glyph-name="ë" unicode="&#xEB;" horiz-adv-x="503" d=" M498,273 L490,234 L117,234 Q114,214 114,198 Q114,137 144.5,102.5 Q175,68 231,68 Q283,68 319,91.5 Q355,115 388,167 L460,132 Q410,57 353,24.5 Q296,-8 216,-8 Q129,-8 77,50 Q25,108 25,204 Q25,322 109,417 Q193,512 317,512 Q403,512 453,461 Q503,410 503,323 Q503,305 498,273 M302,436 Q248,436 203,401.5 Q158,367 136,310 L414,310 Q414,436 302,436 M254,708 Q279,708 295,691.5 Q311,675 311,651 Q311,627 295,611 Q279,595 254,595 Q231,595 214.5,611 Q198,627 198,651 Q198,675 214.5,691.5 Q231,708 254,708 M420,708 Q445,708 461,691.5 Q477,675 477,651 Q477,627 461,611 Q445,595 420,595 Q397,595 380.5,611 Q364,627 364,651 Q364,675 380.5,691.5 Q397,708 420,708"/> 
            <glyph glyph-name="ì" unicode="&#xEC;" horiz-adv-x="244" d=" M30,0 L128,504 L213,504 L115,0 M75,704 L196,704 L244,560 L176,560"/> 
            <glyph glyph-name="í" unicode="&#xED;" horiz-adv-x="345" d=" M30,0 L128,504 L213,504 L115,0 M197,560 L125,560 L222,704 L345,704"/> 
            <glyph glyph-name="î" unicode="&#xEE;" horiz-adv-x="345" d=" M30,0 L128,504 L213,504 L115,0 M109,566 L11,566 L190,730 L221,730 L345,566 L256,566 L195,646"/> 
            <glyph glyph-name="ï" unicode="&#xEF;" horiz-adv-x="333" d=" M30,0 L128,504 L213,504 L115,0 M110,708 Q135,708 151,691.5 Q167,675 167,651 Q167,627 151,611 Q135,595 110,595 Q87,595 70.5,611 Q54,627 54,651 Q54,675 70.5,691.5 Q87,708 110,708 M276,708 Q301,708 317,691.5 Q333,675 333,651 Q333,627 317,611 Q301,595 276,595 Q253,595 236.5,611 Q220,627 220,651 Q220,675 236.5,691.5 Q253,708 276,708"/> 
            <glyph glyph-name="ð" unicode="&#xF0;" horiz-adv-x="510" d=" M333,604 L280,542 L229,584 L280,644 Q247,666 209,682 L258,740 Q302,720 330,701 L378,755 L427,713 L384,662 Q444,617 477,538.5 Q510,460 510,370 Q510,205 436,98 Q363,-8 215,-8 Q125,-8 76,53 Q27,114 27,207 Q27,334 103,422 Q180,512 304,512 Q338,512 369.5,500 Q401,488 415,468 Q400,553 333,604 M296,436 Q214,436 164,367 Q116,298 116,208 Q116,143 145,105.5 Q174,68 230,68 Q313,68 364,135 Q415,202 415,291 Q415,436 296,436"/> 
            <glyph glyph-name="ñ" unicode="&#xF1;" horiz-adv-x="521" d=" M496,355 L427,0 L342,0 L406,333 Q410,354 410,368 Q410,436 343,436 Q289,436 232,373 Q176,311 156,211 L115,0 L30,0 L128,504 L213,504 L195,411 Q272,512 377,512 Q435,512 467,483 Q499,454 499,402 Q499,378 496,355 M207,585 L166,627 Q220,700 287,700 Q322,700 353,680 Q385,660 407,660 Q445,660 480,695 L521,652 Q467,580 400,580 Q365,580 333,600 Q302,620 280,620 Q242,620 207,585"/> 
            <glyph glyph-name="ò" unicode="&#xF2;" horiz-adv-x="508" d=" M27,204 Q27,328 96,414 Q176,512 309,512 Q402,512 455,456 Q508,400 508,300 Q508,176 439,90 Q359,-8 226,-8 Q133,-8 80,48 Q27,104 27,204 M301,436 Q217,436 161,365 Q116,308 116,216 Q116,146 146.5,107 Q177,68 234,68 Q318,68 374,139 Q419,196 419,288 Q419,358 388.5,397 Q358,436 301,436 M224,704 L345,704 L393,560 L325,560"/> 
            <glyph glyph-name="ó" unicode="&#xF3;" horiz-adv-x="508" d=" M27,204 Q27,328 96,414 Q176,512 309,512 Q402,512 455,456 Q508,400 508,300 Q508,176 439,90 Q359,-8 226,-8 Q133,-8 80,48 Q27,104 27,204 M301,436 Q217,436 161,365 Q116,308 116,216 Q116,146 146.5,107 Q177,68 234,68 Q318,68 374,139 Q419,196 419,288 Q419,358 388.5,397 Q358,436 301,436 M332,560 L260,560 L357,704 L480,704"/> 
            <glyph glyph-name="ô" unicode="&#xF4;" horiz-adv-x="508" d=" M27,204 Q27,328 96,414 Q176,512 309,512 Q402,512 455,456 Q508,400 508,300 Q508,176 439,90 Q359,-8 226,-8 Q133,-8 80,48 Q27,104 27,204 M301,436 Q217,436 161,365 Q116,308 116,216 Q116,146 146.5,107 Q177,68 234,68 Q318,68 374,139 Q419,196 419,288 Q419,358 388.5,397 Q358,436 301,436 M247,566 L149,566 L328,730 L359,730 L483,566 L394,566 L333,646"/> 
            <glyph glyph-name="õ" unicode="&#xF5;" horiz-adv-x="514" d=" M27,204 Q27,328 96,414 Q176,512 309,512 Q402,512 455,456 Q508,400 508,300 Q508,176 439,90 Q359,-8 226,-8 Q133,-8 80,48 Q27,104 27,204 M301,436 Q217,436 161,365 Q116,308 116,216 Q116,146 146.5,107 Q177,68 234,68 Q318,68 374,139 Q419,196 419,288 Q419,358 388.5,397 Q358,436 301,436 M200,585 L159,627 Q213,700 280,700 Q315,700 346,680 Q378,660 400,660 Q438,660 473,695 L514,652 Q460,580 393,580 Q358,580 326,600 Q295,620 273,620 Q235,620 200,585"/> 
            <glyph glyph-name="ö" unicode="&#xF6;" horiz-adv-x="508" d=" M27,204 Q27,328 96,414 Q176,512 309,512 Q402,512 455,456 Q508,400 508,300 Q508,176 439,90 Q359,-8 226,-8 Q133,-8 80,48 Q27,104 27,204 M301,436 Q217,436 161,365 Q116,308 116,216 Q116,146 146.5,107 Q177,68 234,68 Q318,68 374,139 Q419,196 419,288 Q419,358 388.5,397 Q358,436 301,436 M263,708 Q288,708 304,691.5 Q320,675 320,651 Q320,627 304,611 Q288,595 263,595 Q240,595 223.5,611 Q207,627 207,651 Q207,675 223.5,691.5 Q240,708 263,708 M429,708 Q454,708 470,691.5 Q486,675 486,651 Q486,627 470,611 Q454,595 429,595 Q406,595 389.5,611 Q373,627 373,651 Q373,675 389.5,691.5 Q406,708 429,708"/> 
            <glyph glyph-name="÷" unicode="&#xF7;" horiz-adv-x="510" d=" M227,128 Q227,154 245,172.5 Q263,191 290,191 Q316,191 334.5,172.5 Q353,154 353,128 Q353,101 334.5,83 Q316,65 290,65 Q263,65 245,83 Q227,101 227,128 M227,502 Q227,528 245,546.5 Q263,565 290,565 Q316,565 334.5,546.5 Q353,528 353,502 Q353,475 334.5,457 Q316,439 290,439 Q263,439 245,457 Q227,475 227,502 M510,280 L70,280 L70,354 L510,354"/> 
            <glyph glyph-name="ø" unicode="&#xF8;" horiz-adv-x="561" d=" M27,204 Q27,328 96,414 Q176,512 309,512 Q385,512 436,473 L510,549 L561,501 L481,419 Q508,371 508,300 Q508,176 440,90 Q360,-8 226,-8 Q150,-8 101,31 L27,-45 L-24,3 L55,84 Q27,133 27,204 M301,436 Q217,436 161,365 Q116,308 116,216 Q116,170 122,152 L376,411 Q348,436 301,436 M419,288 Q419,328 413,350 L160,91 Q189,68 234,68 Q318,68 374,139 Q419,196 419,288"/> 
            <glyph glyph-name="ù" unicode="&#xF9;" horiz-adv-x="521" d=" M55,149 L124,504 L209,504 L145,171 Q141,150 141,136 Q141,68 208,68 Q262,68 319,131 Q375,193 395,293 L436,504 L521,504 L423,0 L338,0 L356,93 Q279,-8 174,-8 Q116,-8 84,21 Q52,50 52,102 Q52,126 55,149 M236,704 L357,704 L405,560 L337,560"/> 
            <glyph glyph-name="ú" unicode="&#xFA;" horiz-adv-x="521" d=" M55,149 L124,504 L209,504 L145,171 Q141,150 141,136 Q141,68 208,68 Q262,68 319,131 Q375,193 395,293 L436,504 L521,504 L423,0 L338,0 L356,93 Q279,-8 174,-8 Q116,-8 84,21 Q52,50 52,102 Q52,126 55,149 M327,560 L255,560 L352,704 L475,704"/> 
            <glyph glyph-name="û" unicode="&#xFB;" horiz-adv-x="521" d=" M55,149 L124,504 L209,504 L145,171 Q141,150 141,136 Q141,68 208,68 Q262,68 319,131 Q375,193 395,293 L436,504 L521,504 L423,0 L338,0 L356,93 Q279,-8 174,-8 Q116,-8 84,21 Q52,50 52,102 Q52,126 55,149 M273,566 L175,566 L354,730 L385,730 L509,566 L420,566 L359,646"/> 
            <glyph glyph-name="ü" unicode="&#xFC;" horiz-adv-x="521" d=" M55,149 L124,504 L209,504 L145,171 Q141,150 141,136 Q141,68 208,68 Q262,68 319,131 Q375,193 395,293 L436,504 L521,504 L423,0 L338,0 L356,93 Q279,-8 174,-8 Q116,-8 84,21 Q52,50 52,102 Q52,126 55,149 M258,708 Q283,708 299,691.5 Q315,675 315,651 Q315,627 299,611 Q283,595 258,595 Q235,595 218.5,611 Q202,627 202,651 Q202,675 218.5,691.5 Q235,708 258,708 M424,708 Q449,708 465,691.5 Q481,675 481,651 Q481,627 465,611 Q449,595 424,595 Q401,595 384.5,611 Q368,627 368,651 Q368,675 384.5,691.5 Q401,708 424,708"/> 
            <glyph glyph-name="ý" unicode="&#xFD;" horiz-adv-x="471" d=" M188,140 L382,504 L471,504 L86,-204 L-3,-204 L122,32 L41,504 L130,504 M259,560 L187,560 L284,704 L407,704"/> 
            <glyph glyph-name="þ" unicode="&#xFE;" horiz-adv-x="529" d=" M529,300 Q529,169 459,81 Q388,-8 258,-8 Q218,-8 177,13 Q138,36 126,62 L74,-204 L-10,-204 L166,708 L251,708 L200,444 Q225,473 266,492.5 Q307,512 350,512 Q433,512 481,457.5 Q529,403 529,300 M265,68 Q346,68 393,134 Q440,201 440,288 Q440,436 327,436 Q252,436 201,367 Q150,298 150,211 Q150,143 181,105.5 Q212,68 265,68"/> 
            <glyph glyph-name="ÿ" unicode="&#xFF;" horiz-adv-x="471" d=" M188,140 L382,504 L471,504 L86,-204 L-3,-204 L122,32 L41,504 L130,504 M189,708 Q214,708 230,691.5 Q246,675 246,651 Q246,627 230,611 Q214,595 189,595 Q166,595 149.5,611 Q133,627 133,651 Q133,675 149.5,691.5 Q166,708 189,708 M355,708 Q380,708 396,691.5 Q412,675 412,651 Q412,627 396,611 Q380,595 355,595 Q332,595 315.5,611 Q299,627 299,651 Q299,675 315.5,691.5 Q332,708 355,708"/> 
            <glyph glyph-name="Ā" unicode="&#x100;" horiz-adv-x="510" d=" M495,768 L246,768 L261,844 L510,844 M-57,0 L315,700 L400,700 L506,0 L417,0 L392,187 L131,187 L32,0 M380,271 L335,586 L175,271"/> 
            <glyph glyph-name="ā" unicode="&#x101;" horiz-adv-x="530" d=" M436,572 L187,572 L202,648 L451,648 M530,504 L433,0 L348,0 L360,62 Q297,-8 211,-8 Q122,-8 74.5,48 Q27,104 27,197 Q27,328 99,420 Q171,512 300,512 Q347,512 385.5,491 Q424,470 434,444 L445,504 M235,68 Q292,68 333,106 Q409,177 409,304 Q409,366 379,401 Q349,436 293,436 Q208,436 162,370 Q116,305 116,220 Q116,150 147.5,109 Q179,68 235,68"/> 
            <glyph glyph-name="Ă" unicode="&#x102;" horiz-adv-x="506" d=" M436,877 L503,877 Q490,826 455,797 Q420,768 371,768 Q331,768 305,792 Q279,816 279,855 Q279,859 281,877 L348,877 Q347,874 347,867 Q347,851 357,841.5 Q367,832 383,832 Q427,832 436,877 M-57,0 L315,700 L400,700 L506,0 L417,0 L392,187 L131,187 L32,0 M380,271 L335,586 L175,271"/> 
            <glyph glyph-name="ă" unicode="&#x103;" horiz-adv-x="530" d=" M377,681 L444,681 Q431,630 396,601 Q361,572 312,572 Q272,572 246,596 Q220,620 220,659 Q220,663 222,681 L289,681 Q288,678 288,671 Q288,655 298,645.5 Q308,636 324,636 Q368,636 377,681 M530,504 L433,0 L348,0 L360,62 Q297,-8 211,-8 Q122,-8 74.5,48 Q27,104 27,197 Q27,328 99,420 Q171,512 300,512 Q347,512 385.5,491 Q424,470 434,444 L445,504 M235,68 Q292,68 333,106 Q409,177 409,304 Q409,366 379,401 Q349,436 293,436 Q208,436 162,370 Q116,305 116,220 Q116,150 147.5,109 Q179,68 235,68"/> 
            <glyph glyph-name="Ą" unicode="&#x104;" horiz-adv-x="506" d=" M193,6 L255,6 Q182,-43 182,-79 Q182,-104 207,-104 Q233,-104 270,-63 L306,-98 Q275,-136 247,-152.5 Q219,-169 184,-169 Q152,-169 132.5,-151 Q113,-133 113,-102 Q113,-45 193,6 M-57,0 L315,700 L400,700 L506,0 L417,0 L392,187 L131,187 L32,0 M380,271 L335,586 L175,271"/> 
            <glyph glyph-name="ą" unicode="&#x105;" horiz-adv-x="530" d=" M179,-2 L241,-2 Q168,-51 168,-87 Q168,-112 193,-112 Q219,-112 256,-71 L292,-106 Q261,-144 233,-160.5 Q205,-177 170,-177 Q138,-177 118.5,-159 Q99,-141 99,-110 Q99,-53 179,-2 M530,504 L433,0 L348,0 L360,62 Q297,-8 211,-8 Q122,-8 74.5,48 Q27,104 27,197 Q27,328 99,420 Q171,512 300,512 Q347,512 385.5,491 Q424,470 434,444 L445,504 M235,68 Q292,68 333,106 Q409,177 409,304 Q409,366 379,401 Q349,436 293,436 Q208,436 162,370 Q116,305 116,220 Q116,150 147.5,109 Q179,68 235,68"/> 
            <glyph glyph-name="Ć" unicode="&#x106;" horiz-adv-x="654" d=" M475,768 L403,768 L500,912 L623,912 M517,229 L595,204 Q497,-8 293,-8 Q179,-8 109,65 Q39,138 39,272 Q39,386 84,483 Q129,581 219,644 Q308,708 427,708 Q525,708 587,646 Q648,585 654,496 L569,473 Q545,624 411,624 Q322,624 257,572 Q131,474 131,282 Q131,182 175,129 Q219,76 304,76 Q373,76 423.5,112 Q474,148 517,229"/> 
            <glyph glyph-name="ć" unicode="&#x107;" horiz-adv-x="510" d=" M362,572 L290,572 L387,716 L510,716 M380,170 L451,133 Q398,54 346,22 Q294,-8 214,-8 Q129,-8 78,50 Q27,108 27,203 Q27,324 104,418 Q182,512 314,512 Q460,512 495,372 L419,343 Q394,436 299,436 Q218,436 167,369 Q116,303 116,212 Q116,145 146.5,106.5 Q177,68 229,68 Q277,68 312,92 Q347,116 380,170"/> 
            <glyph glyph-name="Ĉ" unicode="&#x108;" horiz-adv-x="654" d=" M370,768 L272,768 L451,932 L482,932 L606,768 L517,768 L456,848 M517,229 L595,204 Q497,-8 293,-8 Q179,-8 109,65 Q39,138 39,272 Q39,386 84,483 Q129,581 219,644 Q308,708 427,708 Q525,708 587,646 Q648,585 654,496 L569,473 Q545,624 411,624 Q322,624 257,572 Q131,474 131,282 Q131,182 175,129 Q219,76 304,76 Q373,76 423.5,112 Q474,148 517,229"/> 
            <glyph glyph-name="ĉ" unicode="&#x109;" horiz-adv-x="495" d=" M257,572 L159,572 L338,736 L369,736 L493,572 L404,572 L343,652 M380,170 L451,133 Q398,54 346,22 Q294,-8 214,-8 Q129,-8 78,50 Q27,108 27,203 Q27,324 104,418 Q182,512 314,512 Q460,512 495,372 L419,343 Q394,436 299,436 Q218,436 167,369 Q116,303 116,212 Q116,145 146.5,106.5 Q177,68 229,68 Q277,68 312,92 Q347,116 380,170"/> 
            <glyph glyph-name="Ċ" unicode="&#x10A;" horiz-adv-x="654" d=" M388,830 Q388,857 406.5,875.5 Q425,894 451,894 Q478,894 496,875.5 Q514,857 514,830 Q514,804 496,786 Q478,768 451,768 Q425,768 406.5,786 Q388,804 388,830 M517,229 L595,204 Q497,-8 293,-8 Q179,-8 109,65 Q39,138 39,272 Q39,386 84,483 Q129,581 219,644 Q308,708 427,708 Q525,708 587,646 Q648,585 654,496 L569,473 Q545,624 411,624 Q322,624 257,572 Q131,474 131,282 Q131,182 175,129 Q219,76 304,76 Q373,76 423.5,112 Q474,148 517,229"/> 
            <glyph glyph-name="ċ" unicode="&#x10B;" horiz-adv-x="495" d=" M275,634 Q275,661 293.5,679.5 Q312,698 338,698 Q365,698 383,679.5 Q401,661 401,634 Q401,608 383,590 Q365,572 338,572 Q312,572 293.5,590 Q275,608 275,634 M380,170 L451,133 Q398,54 346,22 Q294,-8 214,-8 Q129,-8 78,50 Q27,108 27,203 Q27,324 104,418 Q182,512 314,512 Q460,512 495,372 L419,343 Q394,436 299,436 Q218,436 167,369 Q116,303 116,212 Q116,145 146.5,106.5 Q177,68 229,68 Q277,68 312,92 Q347,116 380,170"/> 
            <glyph glyph-name="Č" unicode="&#x10C;" horiz-adv-x="654" d=" M540,932 L638,932 L459,768 L428,768 L304,932 L393,932 L454,852 M517,229 L595,204 Q497,-8 293,-8 Q179,-8 109,65 Q39,138 39,272 Q39,386 84,483 Q129,581 219,644 Q308,708 427,708 Q525,708 587,646 Q648,585 654,496 L569,473 Q545,624 411,624 Q322,624 257,572 Q131,474 131,282 Q131,182 175,129 Q219,76 304,76 Q373,76 423.5,112 Q474,148 517,229"/> 
            <glyph glyph-name="č" unicode="&#x10D;" horiz-adv-x="525" d=" M427,736 L525,736 L346,572 L315,572 L191,736 L280,736 L341,656 M380,170 L451,133 Q398,54 346,22 Q294,-8 214,-8 Q129,-8 78,50 Q27,108 27,203 Q27,324 104,418 Q182,512 314,512 Q460,512 495,372 L419,343 Q394,436 299,436 Q218,436 167,369 Q116,303 116,212 Q116,145 146.5,106.5 Q177,68 229,68 Q277,68 312,92 Q347,116 380,170"/> 
            <glyph glyph-name="Ď" unicode="&#x10E;" horiz-adv-x="639" d=" M541,932 L639,932 L460,768 L429,768 L305,932 L394,932 L455,852 M35,0 L172,700 L352,700 Q480,700 554,627.5 Q628,555 628,421 Q628,242 516,121 Q405,0 229,0 M333,616 L244,616 L141,84 L230,84 Q368,84 450,177 Q533,272 533,412 Q533,513 482,564.5 Q431,616 333,616"/> 
            <glyph glyph-name="ď" unicode="&#x10F;" horiz-adv-x="844" d=" M688,491 L625,491 L727,708 L844,708 M302,512 Q348,512 385.5,493.5 Q423,475 441,444 L492,708 L577,708 L439,0 L354,0 L367,62 Q303,-8 209,-8 Q123,-8 75,44 Q27,96 27,186 Q27,320 102,416 Q177,512 302,512 M116,208 Q116,143 146.5,105.5 Q177,68 232,68 Q290,68 334,107 Q416,181 416,306 Q416,369 383.5,402.5 Q351,436 295,436 Q238,436 195,399 Q116,330 116,208"/> 
            <glyph glyph-name="Đ" unicode="&#x110;" horiz-adv-x="628" d=" M95,308 L37,308 L54,392 L111,392 L172,700 L352,700 Q480,700 554,627.5 Q628,555 628,421 Q628,242 516,121 Q405,0 229,0 L35,0 M333,616 L244,616 L200,392 L330,392 L313,308 L184,308 L141,84 L230,84 Q368,84 450,177 Q533,272 533,412 Q533,513 482,564.5 Q431,616 333,616"/> 
            <glyph glyph-name="Ē" unicode="&#x112;" horiz-adv-x="568" d=" M508,768 L259,768 L274,844 L523,844 M35,0 L172,700 L568,700 L551,616 L244,616 L205,415 L455,415 L439,331 L189,331 L141,84 L458,84 L441,0"/> 
            <glyph glyph-name="ē" unicode="&#x113;" horiz-adv-x="503" d=" M453,572 L204,572 L219,648 L468,648 M498,273 L490,234 L117,234 Q114,214 114,198 Q114,137 144.5,102.5 Q175,68 231,68 Q283,68 319,91.5 Q355,115 388,167 L460,132 Q410,57 353,24.5 Q296,-8 216,-8 Q129,-8 77,50 Q25,108 25,204 Q25,322 109,417 Q193,512 317,512 Q403,512 453,461 Q503,410 503,323 Q503,305 498,273 M302,436 Q248,436 203,401.5 Q158,367 136,310 L414,310 Q414,436 302,436"/> 
            <glyph glyph-name="Ĕ" unicode="&#x114;" horiz-adv-x="568" d=" M449,877 L516,877 Q503,826 468,797 Q433,768 384,768 Q344,768 318,792 Q292,816 292,855 Q292,859 294,877 L361,877 Q360,874 360,867 Q360,851 370,841.5 Q380,832 396,832 Q440,832 449,877 M35,0 L172,700 L568,700 L551,616 L244,616 L205,415 L455,415 L439,331 L189,331 L141,84 L458,84 L441,0"/> 
            <glyph glyph-name="ĕ" unicode="&#x115;" horiz-adv-x="503" d=" M394,681 L461,681 Q448,630 413,601 Q378,572 329,572 Q289,572 263,596 Q237,620 237,659 Q237,663 239,681 L306,681 Q305,678 305,671 Q305,655 315,645.5 Q325,636 341,636 Q385,636 394,681 M498,273 L490,234 L117,234 Q114,214 114,198 Q114,137 144.5,102.5 Q175,68 231,68 Q283,68 319,91.5 Q355,115 388,167 L460,132 Q410,57 353,24.5 Q296,-8 216,-8 Q129,-8 77,50 Q25,108 25,204 Q25,322 109,417 Q193,512 317,512 Q403,512 453,461 Q503,410 503,323 Q503,305 498,273 M302,436 Q248,436 203,401.5 Q158,367 136,310 L414,310 Q414,436 302,436"/> 
            <glyph glyph-name="Ė" unicode="&#x116;" horiz-adv-x="568" d=" M333,830 Q333,857 351.5,875.5 Q370,894 396,894 Q423,894 441,875.5 Q459,857 459,830 Q459,804 441,786 Q423,768 396,768 Q370,768 351.5,786 Q333,804 333,830 M35,0 L172,700 L568,700 L551,616 L244,616 L205,415 L455,415 L439,331 L189,331 L141,84 L458,84 L441,0"/> 
            <glyph glyph-name="ė" unicode="&#x117;" horiz-adv-x="503" d=" M278,634 Q278,661 296.5,679.5 Q315,698 341,698 Q368,698 386,679.5 Q404,661 404,634 Q404,608 386,590 Q368,572 341,572 Q315,572 296.5,590 Q278,608 278,634 M498,273 L490,234 L117,234 Q114,214 114,198 Q114,137 144.5,102.5 Q175,68 231,68 Q283,68 319,91.5 Q355,115 388,167 L460,132 Q410,57 353,24.5 Q296,-8 216,-8 Q129,-8 77,50 Q25,108 25,204 Q25,322 109,417 Q193,512 317,512 Q403,512 453,461 Q503,410 503,323 Q503,305 498,273 M302,436 Q248,436 203,401.5 Q158,367 136,310 L414,310 Q414,436 302,436"/> 
            <glyph glyph-name="Ę" unicode="&#x118;" horiz-adv-x="568" d=" M206,6 L268,6 Q195,-43 195,-79 Q195,-104 220,-104 Q246,-104 283,-63 L319,-98 Q288,-136 260,-152.5 Q232,-169 197,-169 Q165,-169 145.5,-151 Q126,-133 126,-102 Q126,-45 206,6 M35,0 L172,700 L568,700 L551,616 L244,616 L205,415 L455,415 L439,331 L189,331 L141,84 L458,84 L441,0"/> 
            <glyph glyph-name="ę" unicode="&#x119;" horiz-adv-x="503" d=" M153,-2 L215,-2 Q142,-51 142,-87 Q142,-112 167,-112 Q193,-112 230,-71 L266,-106 Q235,-144 207,-160.5 Q179,-177 144,-177 Q112,-177 92.5,-159 Q73,-141 73,-110 Q73,-53 153,-2 M498,273 L490,234 L117,234 Q114,214 114,198 Q114,137 144.5,102.5 Q175,68 231,68 Q283,68 319,91.5 Q355,115 388,167 L460,132 Q410,57 353,24.5 Q296,-8 216,-8 Q129,-8 77,50 Q25,108 25,204 Q25,322 109,417 Q193,512 317,512 Q403,512 453,461 Q503,410 503,323 Q503,305 498,273 M302,436 Q248,436 203,401.5 Q158,367 136,310 L414,310 Q414,436 302,436"/> 
            <glyph glyph-name="Ě" unicode="&#x11A;" horiz-adv-x="583" d=" M485,932 L583,932 L404,768 L373,768 L249,932 L338,932 L399,852 M35,0 L172,700 L568,700 L551,616 L244,616 L205,415 L455,415 L439,331 L189,331 L141,84 L458,84 L441,0"/> 
            <glyph glyph-name="ě" unicode="&#x11B;" horiz-adv-x="528" d=" M430,736 L528,736 L349,572 L318,572 L194,736 L283,736 L344,656 M498,273 L490,234 L117,234 Q114,214 114,198 Q114,137 144.5,102.5 Q175,68 231,68 Q283,68 319,91.5 Q355,115 388,167 L460,132 Q410,57 353,24.5 Q296,-8 216,-8 Q129,-8 77,50 Q25,108 25,204 Q25,322 109,417 Q193,512 317,512 Q403,512 453,461 Q503,410 503,323 Q503,305 498,273 M302,436 Q248,436 203,401.5 Q158,367 136,310 L414,310 Q414,436 302,436"/> 
            <glyph glyph-name="Ĝ" unicode="&#x11C;" horiz-adv-x="656" d=" M369,768 L271,768 L450,932 L481,932 L605,768 L516,768 L455,848 M527,269 L383,269 L399,353 L635,353 L566,0 L490,0 L499,96 Q457,41 407,16.5 Q357,-8 286,-8 Q183,-8 111,65 Q39,138 39,277 Q39,389 83,488 Q127,584 218,646 Q309,708 426,708 Q526,708 588,649 Q651,590 656,497 L568,474 Q548,624 410,624 Q287,624 209,525 Q131,426 131,290 Q131,186 175.5,131 Q220,76 303,76 Q384,76 443,127.5 Q502,179 527,269"/> 
            <glyph glyph-name="ĝ" unicode="&#x11D;" horiz-adv-x="653" d=" M417,597 L319,597 L498,761 L529,761 L653,597 L564,597 L503,677 M84,311 Q84,399 140,455 Q197,512 289,512 Q339,512 380,489 L474,537 L504,471 L429,433 Q440,406 440,369 Q440,285 381,229 Q323,174 234,174 Q191,174 153,194 Q106,176 106,139 Q106,123 118.5,112 Q131,101 151,101 L266,101 Q407,101 407,-20 Q407,-114 334,-163 Q263,-212 157,-212 Q78,-212 28,-172 Q-23,-133 -23,-68 Q-23,6 43,59 Q22,82 22,122 Q22,192 106,235 Q84,267 84,311 M241,29 L144,29 Q134,29 108,31 Q62,7 62,-50 Q62,-91 89.5,-115.5 Q117,-140 172,-140 Q231,-140 274,-115 Q318,-89 318,-35 Q318,29 241,29 M279,440 Q231,440 199.5,408 Q168,376 168,326 Q168,288 188.5,267 Q209,246 245,246 Q293,246 324.5,276.5 Q356,307 356,357 Q356,397 335.5,418.5 Q315,440 279,440"/> 
            <glyph glyph-name="Ğ" unicode="&#x11E;" horiz-adv-x="656" d=" M503,877 L570,877 Q557,826 522,797 Q487,768 438,768 Q398,768 372,792 Q346,816 346,855 Q346,859 348,877 L415,877 Q414,874 414,867 Q414,851 424,841.5 Q434,832 450,832 Q494,832 503,877 M527,269 L383,269 L399,353 L635,353 L566,0 L490,0 L499,96 Q457,41 407,16.5 Q357,-8 286,-8 Q183,-8 111,65 Q39,138 39,277 Q39,389 83,488 Q127,584 218,646 Q309,708 426,708 Q526,708 588,649 Q651,590 656,497 L568,474 Q548,624 410,624 Q287,624 209,525 Q131,426 131,290 Q131,186 175.5,131 Q220,76 303,76 Q384,76 443,127.5 Q502,179 527,269"/> 
            <glyph glyph-name="ğ" unicode="&#x11F;" horiz-adv-x="618" d=" M551,706 L618,706 Q605,655 570,626 Q535,597 486,597 Q446,597 420,621 Q394,645 394,684 Q394,688 396,706 L463,706 Q462,703 462,696 Q462,680 472,670.5 Q482,661 498,661 Q542,661 551,706 M84,311 Q84,399 140,455 Q197,512 289,512 Q339,512 380,489 L474,537 L504,471 L429,433 Q440,406 440,369 Q440,285 381,229 Q323,174 234,174 Q191,174 153,194 Q106,176 106,139 Q106,123 118.5,112 Q131,101 151,101 L266,101 Q407,101 407,-20 Q407,-114 334,-163 Q263,-212 157,-212 Q78,-212 28,-172 Q-23,-133 -23,-68 Q-23,6 43,59 Q22,82 22,122 Q22,192 106,235 Q84,267 84,311 M241,29 L144,29 Q134,29 108,31 Q62,7 62,-50 Q62,-91 89.5,-115.5 Q117,-140 172,-140 Q231,-140 274,-115 Q318,-89 318,-35 Q318,29 241,29 M279,440 Q231,440 199.5,408 Q168,376 168,326 Q168,288 188.5,267 Q209,246 245,246 Q293,246 324.5,276.5 Q356,307 356,357 Q356,397 335.5,418.5 Q315,440 279,440"/> 
            <glyph glyph-name="Ġ" unicode="&#x120;" horiz-adv-x="656" d=" M387,830 Q387,857 405.5,875.5 Q424,894 450,894 Q477,894 495,875.5 Q513,857 513,830 Q513,804 495,786 Q477,768 450,768 Q424,768 405.5,786 Q387,804 387,830 M527,269 L383,269 L399,353 L635,353 L566,0 L490,0 L499,96 Q457,41 407,16.5 Q357,-8 286,-8 Q183,-8 111,65 Q39,138 39,277 Q39,389 83,488 Q127,584 218,646 Q309,708 426,708 Q526,708 588,649 Q651,590 656,497 L568,474 Q548,624 410,624 Q287,624 209,525 Q131,426 131,290 Q131,186 175.5,131 Q220,76 303,76 Q384,76 443,127.5 Q502,179 527,269"/> 
            <glyph glyph-name="ġ" unicode="&#x121;" horiz-adv-x="561" d=" M435,659 Q435,686 453.5,704.5 Q472,723 498,723 Q525,723 543,704.5 Q561,686 561,659 Q561,633 543,615 Q525,597 498,597 Q472,597 453.5,615 Q435,633 435,659 M84,311 Q84,399 140,455 Q197,512 289,512 Q339,512 380,489 L474,537 L504,471 L429,433 Q440,406 440,369 Q440,285 381,229 Q323,174 234,174 Q191,174 153,194 Q106,176 106,139 Q106,123 118.5,112 Q131,101 151,101 L266,101 Q407,101 407,-20 Q407,-114 334,-163 Q263,-212 157,-212 Q78,-212 28,-172 Q-23,-133 -23,-68 Q-23,6 43,59 Q22,82 22,122 Q22,192 106,235 Q84,267 84,311 M241,29 L144,29 Q134,29 108,31 Q62,7 62,-50 Q62,-91 89.5,-115.5 Q117,-140 172,-140 Q231,-140 274,-115 Q318,-89 318,-35 Q318,29 241,29 M279,440 Q231,440 199.5,408 Q168,376 168,326 Q168,288 188.5,267 Q209,246 245,246 Q293,246 324.5,276.5 Q356,307 356,357 Q356,397 335.5,418.5 Q315,440 279,440"/> 
            <glyph glyph-name="Ģ" unicode="&#x122;" horiz-adv-x="656" d=" M207,-285 L144,-285 L246,-68 L363,-68 M527,269 L383,269 L399,353 L635,353 L566,0 L490,0 L499,96 Q457,41 407,16.5 Q357,-8 286,-8 Q183,-8 111,65 Q39,138 39,277 Q39,389 83,488 Q127,584 218,646 Q309,708 426,708 Q526,708 588,649 Q651,590 656,497 L568,474 Q548,624 410,624 Q287,624 209,525 Q131,426 131,290 Q131,186 175.5,131 Q220,76 303,76 Q384,76 443,127.5 Q502,179 527,269"/> 
            <glyph glyph-name="Ĥ" unicode="&#x124;" horiz-adv-x="660" d=" M361,768 L263,768 L442,932 L473,932 L597,768 L508,768 L447,848 M515,414 L571,700 L660,700 L523,0 L434,0 L499,330 L189,330 L124,0 L35,0 L172,700 L261,700 L205,414"/> 
            <glyph glyph-name="ĥ" unicode="&#x125;" horiz-adv-x="549" d=" M313,768 L215,768 L394,932 L425,932 L549,768 L460,768 L399,848 M502,350 L434,0 L349,0 L413,333 Q416,351 416,369 Q416,436 347,436 Q291,436 232,374 Q176,313 156,214 L115,0 L30,0 L167,708 L252,708 L194,410 Q268,512 384,512 Q441,512 474,482.5 Q507,453 507,400 Q507,382 502,350"/> 
            <glyph glyph-name="Ĩ" unicode="&#x128;" horiz-adv-x="419" d=" M105,773 L64,815 Q118,888 185,888 Q220,888 251,868 Q283,848 305,848 Q343,848 378,883 L419,840 Q365,768 298,768 Q263,768 231,788 Q200,808 178,808 Q140,808 105,773 M35,0 L172,700 L261,700 L124,0"/> 
            <glyph glyph-name="ĩ" unicode="&#x129;" horiz-adv-x="373" d=" M59,577 L18,619 Q72,692 139,692 Q174,692 205,672 Q237,652 259,652 Q297,652 332,687 L373,644 Q319,572 252,572 Q217,572 185,592 Q154,612 132,612 Q94,612 59,577 M30,0 L128,504 L213,504 L115,0"/> 
            <glyph glyph-name="Ī" unicode="&#x12A;" horiz-adv-x="369" d=" M354,768 L105,768 L120,844 L369,844 M35,0 L172,700 L261,700 L124,0"/> 
            <glyph glyph-name="ī" unicode="&#x12B;" horiz-adv-x="323" d=" M308,572 L59,572 L74,648 L323,648 M30,0 L128,504 L213,504 L115,0"/> 
            <glyph glyph-name="Ĭ" unicode="&#x12C;" horiz-adv-x="362" d=" M295,877 L362,877 Q349,826 314,797 Q279,768 230,768 Q190,768 164,792 Q138,816 138,855 Q138,859 140,877 L207,877 Q206,874 206,867 Q206,851 216,841.5 Q226,832 242,832 Q286,832 295,877 M35,0 L172,700 L261,700 L124,0"/> 
            <glyph glyph-name="ĭ" unicode="&#x12D;" horiz-adv-x="316" d=" M249,681 L316,681 Q303,630 268,601 Q233,572 184,572 Q144,572 118,596 Q92,620 92,659 Q92,663 94,681 L161,681 Q160,678 160,671 Q160,655 170,645.5 Q180,636 196,636 Q240,636 249,681 M30,0 L128,504 L213,504 L115,0"/> 
            <glyph glyph-name="Į" unicode="&#x12E;" horiz-adv-x="261" d=" M17,6 L79,6 Q6,-43 6,-79 Q6,-104 31,-104 Q57,-104 94,-63 L130,-98 Q99,-136 71,-152.5 Q43,-169 8,-169 Q-24,-169 -43.5,-151 Q-63,-133 -63,-102 Q-63,-45 17,6 M35,0 L172,700 L261,700 L124,0"/> 
            <glyph glyph-name="į" unicode="&#x12F;" horiz-adv-x="258" d=" M10,6 L72,6 Q-1,-43 -1,-79 Q-1,-104 24,-104 Q50,-104 87,-63 L123,-98 Q92,-136 64,-152.5 Q36,-169 1,-169 Q-31,-169 -50.5,-151 Q-70,-133 -70,-102 Q-70,-45 10,6 M30,0 L128,504 L213,504 L115,0 M132,644 Q132,671 150,689.5 Q168,708 195,708 Q222,708 240,689.5 Q258,671 258,644 Q258,618 240,600 Q222,582 195,582 Q168,582 150,600 Q132,618 132,644"/> 
            <glyph glyph-name="İ" unicode="&#x130;" horiz-adv-x="305" d=" M179,830 Q179,857 197.5,875.5 Q216,894 242,894 Q269,894 287,875.5 Q305,857 305,830 Q305,804 287,786 Q269,768 242,768 Q216,768 197.5,786 Q179,804 179,830 M35,0 L172,700 L261,700 L124,0"/> 
            <glyph glyph-name="ı" unicode="&#x131;" horiz-adv-x="213" d=" M30,0 L128,504 L213,504 L115,0"/> 
            <glyph glyph-name="Ĳ" unicode="&#x132;" horiz-adv-x="807" d=" M625,219 L718,700 L807,700 L707,185 Q689,91 629.5,41.5 Q570,-8 479,-8 Q399,-8 350,47 Q301,102 301,175 L390,194 Q390,76 489,76 Q596,76 625,219 M35,0 L172,700 L261,700 L124,0"/> 
            <glyph glyph-name="ĳ" unicode="&#x133;" horiz-adv-x="534" d=" M196,-212 L188,-130 Q242,-117 268,-93 Q294,-69 303,-18 L404,504 L489,504 L386,-26 Q369,-113 324.5,-156 Q280,-199 196,-212 M408,644 Q408,671 426,689.5 Q444,708 471,708 Q498,708 516,689.5 Q534,671 534,644 Q534,618 516,600 Q498,582 471,582 Q444,582 426,600 Q408,618 408,644 M30,0 L128,504 L213,504 L115,0 M132,644 Q132,671 150,689.5 Q168,708 195,708 Q222,708 240,689.5 Q258,671 258,644 Q258,618 240,600 Q222,582 195,582 Q168,582 150,600 Q132,618 132,644"/> 
            <glyph glyph-name="Ĵ" unicode="&#x134;" horiz-adv-x="647" d=" M411,768 L313,768 L492,932 L523,932 L647,768 L558,768 L497,848 M329,219 L422,700 L511,700 L411,185 Q393,91 333.5,41.5 Q274,-8 183,-8 Q103,-8 54,47 Q5,102 5,175 L94,194 Q94,76 193,76 Q300,76 329,219"/> 
            <glyph glyph-name="ĵ" unicode="&#x135;" horiz-adv-x="374" d=" M138,768 L40,768 L219,932 L250,932 L374,768 L285,768 L224,848 M-80,-212 L-88,-130 Q-34,-117 -8,-93 Q18,-69 27,-18 L128,504 L213,504 L110,-26 Q93,-113 48.5,-156 Q4,-199 -80,-212 M132,644 Q132,671 150,689.5 Q168,708 195,708 Q222,708 240,689.5 Q258,671 258,644 Q258,618 240,600 Q222,582 195,582 Q168,582 150,600 Q132,618 132,644"/> 
            <glyph glyph-name="Ķ" unicode="&#x136;" horiz-adv-x="624" d=" M192,-277 L129,-277 L231,-60 L348,-60 M283,382 L507,0 L399,0 L193,353 L124,0 L35,0 L172,700 L261,700 L206,419 L504,700 L624,700"/> 
            <glyph glyph-name="ķ" unicode="&#x137;" horiz-adv-x="503" d=" M148,-277 L85,-277 L187,-60 L304,-60 M30,0 L167,708 L252,708 L172,293 L388,504 L503,504 L254,268 L425,0 L322,0 L164,253 L115,0"/> 
            <glyph glyph-name="Ĺ" unicode="&#x139;" horiz-adv-x="568" d=" M420,768 L348,768 L445,912 L568,912 M35,0 L172,700 L261,700 L141,84 L449,84 L432,0"/> 
            <glyph glyph-name="ĺ" unicode="&#x13A;" horiz-adv-x="424" d=" M276,768 L204,768 L301,912 L424,912 M49,0 L186,708 L271,708 L134,0"/> 
            <glyph glyph-name="Ļ" unicode="&#x13B;" horiz-adv-x="449" d=" M154,-277 L91,-277 L193,-60 L310,-60 M35,0 L172,700 L261,700 L141,84 L449,84 L432,0"/> 
            <glyph glyph-name="ļ" unicode="&#x13C;" horiz-adv-x="271" d=" M12,-277 L-51,-277 L51,-60 L168,-60 M49,0 L186,708 L271,708 L134,0"/> 
            <glyph glyph-name="Ľ" unicode="&#x13D;" horiz-adv-x="836" d=" M680,491 L617,491 L719,708 L836,708 M35,0 L172,700 L261,700 L141,84 L449,84 L432,0"/> 
            <glyph glyph-name="ľ" unicode="&#x13E;" horiz-adv-x="538" d=" M382,491 L319,491 L421,708 L538,708 M49,0 L186,708 L271,708 L134,0"/> 
            <glyph glyph-name="Ŀ" unicode="&#x13F;" horiz-adv-x="449" d=" M239,354 Q239,380 257,398.5 Q275,417 302,417 Q328,417 346.5,398.5 Q365,380 365,354 Q365,327 346.5,309 Q328,291 302,291 Q275,291 257,309 Q239,327 239,354 M35,0 L172,700 L261,700 L141,84 L449,84 L432,0"/> 
            <glyph glyph-name="ŀ" unicode="&#x140;" horiz-adv-x="512" d=" M386,349 Q386,375 404,393.5 Q422,412 449,412 Q475,412 493.5,393.5 Q512,375 512,349 Q512,322 493.5,304 Q475,286 449,286 Q422,286 404,304 Q386,322 386,349 M49,0 L186,708 L271,708 L134,0"/> 
            <glyph glyph-name="Ł" unicode="&#x141;" horiz-adv-x="449" d=" M103,349 L172,700 L261,700 L202,398 L331,463 L355,398 L185,313 L141,84 L449,84 L432,0 L35,0 L87,264 L15,228 L-8,293"/> 
            <glyph glyph-name="ł" unicode="&#x142;" horiz-adv-x="320" d=" M130,380 L193,708 L278,708 L223,426 L297,463 L320,398 L207,342 L141,0 L56,0 L113,295 L40,259 L18,324"/> 
            <glyph glyph-name="Ń" unicode="&#x143;" horiz-adv-x="671" d=" M471,768 L399,768 L496,912 L619,912 M475,153 L582,700 L671,700 L534,0 L435,0 L230,545 L124,0 L35,0 L172,700 L271,700"/> 
            <glyph glyph-name="ń" unicode="&#x144;" horiz-adv-x="524" d=" M376,572 L304,572 L401,716 L524,716 M496,355 L427,0 L342,0 L406,333 Q410,354 410,368 Q410,436 343,436 Q289,436 232,373 Q176,311 156,211 L115,0 L30,0 L128,504 L213,504 L195,411 Q272,512 377,512 Q435,512 467,483 Q499,454 499,402 Q499,378 496,355"/> 
            <glyph glyph-name="Ņ" unicode="&#x145;" horiz-adv-x="671" d=" M205,-277 L142,-277 L244,-60 L361,-60 M475,153 L582,700 L671,700 L534,0 L435,0 L230,545 L124,0 L35,0 L172,700 L271,700"/> 
            <glyph glyph-name="ņ" unicode="&#x146;" horiz-adv-x="499" d=" M149,-277 L86,-277 L188,-60 L305,-60 M496,355 L427,0 L342,0 L406,333 Q410,354 410,368 Q410,436 343,436 Q289,436 232,373 Q176,311 156,211 L115,0 L30,0 L128,504 L213,504 L195,411 Q272,512 377,512 Q435,512 467,483 Q499,454 499,402 Q499,378 496,355"/> 
            <glyph glyph-name="Ň" unicode="&#x147;" horiz-adv-x="671" d=" M536,932 L634,932 L455,768 L424,768 L300,932 L389,932 L450,852 M475,153 L582,700 L671,700 L534,0 L435,0 L230,545 L124,0 L35,0 L172,700 L271,700"/> 
            <glyph glyph-name="ň" unicode="&#x148;" horiz-adv-x="539" d=" M441,736 L539,736 L360,572 L329,572 L205,736 L294,736 L355,656 M496,355 L427,0 L342,0 L406,333 Q410,354 410,368 Q410,436 343,436 Q289,436 232,373 Q176,311 156,211 L115,0 L30,0 L128,504 L213,504 L195,411 Q272,512 377,512 Q435,512 467,483 Q499,454 499,402 Q499,378 496,355"/> 
            <glyph glyph-name="Ō" unicode="&#x14C;" horiz-adv-x="672" d=" M561,768 L312,768 L327,844 L576,844 M425,708 Q536,708 603,632 Q672,557 672,425 Q672,206 521,77 Q423,-8 286,-8 Q176,-8 107,67 Q39,144 39,275 Q39,494 190,623 Q288,708 425,708 M410,624 Q305,624 229,542 Q131,438 131,283 Q131,183 174.5,129.5 Q218,76 301,76 Q406,76 482,158 Q580,262 580,417 Q580,517 536.5,570.5 Q493,624 410,624"/> 
            <glyph glyph-name="ō" unicode="&#x14D;" horiz-adv-x="508" d=" M445,572 L196,572 L211,648 L460,648 M27,204 Q27,328 96,414 Q176,512 309,512 Q402,512 455,456 Q508,400 508,300 Q508,176 439,90 Q359,-8 226,-8 Q133,-8 80,48 Q27,104 27,204 M301,436 Q217,436 161,365 Q116,308 116,216 Q116,146 146.5,107 Q177,68 234,68 Q318,68 374,139 Q419,196 419,288 Q419,358 388.5,397 Q358,436 301,436"/> 
            <glyph glyph-name="Ŏ" unicode="&#x14E;" horiz-adv-x="672" d=" M502,877 L569,877 Q556,826 521,797 Q486,768 437,768 Q397,768 371,792 Q345,816 345,855 Q345,859 347,877 L414,877 Q413,874 413,867 Q413,851 423,841.5 Q433,832 449,832 Q493,832 502,877 M425,708 Q536,708 603,632 Q672,557 672,425 Q672,206 521,77 Q423,-8 286,-8 Q176,-8 107,67 Q39,144 39,275 Q39,494 190,623 Q288,708 425,708 M410,624 Q305,624 229,542 Q131,438 131,283 Q131,183 174.5,129.5 Q218,76 301,76 Q406,76 482,158 Q580,262 580,417 Q580,517 536.5,570.5 Q493,624 410,624"/> 
            <glyph glyph-name="ŏ" unicode="&#x14F;" horiz-adv-x="508" d=" M386,681 L453,681 Q440,630 405,601 Q370,572 321,572 Q281,572 255,596 Q229,620 229,659 Q229,663 231,681 L298,681 Q297,678 297,671 Q297,655 307,645.5 Q317,636 333,636 Q377,636 386,681 M27,204 Q27,328 96,414 Q176,512 309,512 Q402,512 455,456 Q508,400 508,300 Q508,176 439,90 Q359,-8 226,-8 Q133,-8 80,48 Q27,104 27,204 M301,436 Q217,436 161,365 Q116,308 116,216 Q116,146 146.5,107 Q177,68 234,68 Q318,68 374,139 Q419,196 419,288 Q419,358 388.5,397 Q358,436 301,436"/> 
            <glyph glyph-name="Ő" unicode="&#x150;" horiz-adv-x="711" d=" M383,768 L311,768 L408,912 L531,912 M563,768 L491,768 L588,912 L711,912 M425,708 Q536,708 603,632 Q672,557 672,425 Q672,206 521,77 Q423,-8 286,-8 Q176,-8 107,67 Q39,144 39,275 Q39,494 190,623 Q288,708 425,708 M410,624 Q305,624 229,542 Q131,438 131,283 Q131,183 174.5,129.5 Q218,76 301,76 Q406,76 482,158 Q580,262 580,417 Q580,517 536.5,570.5 Q493,624 410,624"/> 
            <glyph glyph-name="ő" unicode="&#x151;" horiz-adv-x="595" d=" M267,572 L195,572 L292,716 L415,716 M447,572 L375,572 L472,716 L595,716 M27,204 Q27,328 96,414 Q176,512 309,512 Q402,512 455,456 Q508,400 508,300 Q508,176 439,90 Q359,-8 226,-8 Q133,-8 80,48 Q27,104 27,204 M301,436 Q217,436 161,365 Q116,308 116,216 Q116,146 146.5,107 Q177,68 234,68 Q318,68 374,139 Q419,196 419,288 Q419,358 388.5,397 Q358,436 301,436"/> 
            <glyph glyph-name="Œ" unicode="&#x152;" horiz-adv-x="1043" d=" M627,600 L647,700 L1043,700 L1026,616 L719,616 L680,415 L930,415 L914,331 L664,331 L616,84 L933,84 L916,0 L510,0 L526,81 L521,77 Q423,-8 286,-8 Q176,-8 107,67 Q39,144 39,275 Q39,494 190,623 Q288,708 425,708 Q561,708 627,600 M410,624 Q305,624 229,542 Q131,438 131,283 Q131,183 174.5,129.5 Q218,76 301,76 Q408,76 484,157 Q580,259 580,417 Q580,517 536.5,570.5 Q493,624 410,624"/> 
            <glyph glyph-name="œ" unicode="&#x153;" horiz-adv-x="891" d=" M886,273 L878,234 L504,234 Q501,214 501,198 Q501,137 532,102.5 Q563,68 619,68 Q671,68 707,91.5 Q743,115 776,167 L848,132 Q798,57 741,24.5 Q684,-8 604,-8 Q488,-8 439,89 Q360,-8 226,-8 Q136,-8 81.5,49 Q27,106 27,204 Q27,328 96,414 Q176,512 309,512 Q442,512 488,404 Q576,512 705,512 Q791,512 841,461 Q891,410 891,323 Q891,305 886,273 M301,436 Q217,436 161,365 Q116,308 116,216 Q116,145 146.5,106.5 Q177,68 234,68 Q319,68 375,139 Q419,195 419,288 Q419,359 388.5,397.5 Q358,436 301,436 M690,436 Q636,436 591,401.5 Q546,367 524,310 L802,310 Q802,436 690,436"/> 
            <glyph glyph-name="Ŕ" unicode="&#x154;" horiz-adv-x="572" d=" M333,768 L261,768 L358,912 L481,912 M530,0 L431,0 L292,330 L189,330 L124,0 L35,0 L172,700 L394,700 Q477,700 524.5,658 Q572,616 572,543 Q572,456 523,401.5 Q474,347 387,336 M380,616 L244,616 L205,414 L344,414 Q409,414 444.5,443 Q480,472 480,527 Q480,616 380,616"/> 
            <glyph glyph-name="ŕ" unicode="&#x155;" horiz-adv-x="476" d=" M328,572 L256,572 L353,716 L476,716 M428,497 L397,422 Q371,436 344,436 Q288,436 234,385 Q182,334 159,223 L115,0 L30,0 L128,504 L213,504 L196,418 Q256,512 359,512 Q404,512 428,497"/> 
            <glyph glyph-name="Ŗ" unicode="&#x156;" horiz-adv-x="572" d=" M203,-277 L140,-277 L242,-60 L359,-60 M530,0 L431,0 L292,330 L189,330 L124,0 L35,0 L172,700 L394,700 Q477,700 524.5,658 Q572,616 572,543 Q572,456 523,401.5 Q474,347 387,336 M380,616 L244,616 L205,414 L344,414 Q409,414 444.5,443 Q480,472 480,527 Q480,616 380,616"/> 
            <glyph glyph-name="ŗ" unicode="&#x157;" horiz-adv-x="428" d=" M-7,-277 L-70,-277 L32,-60 L149,-60 M428,497 L397,422 Q371,436 344,436 Q288,436 234,385 Q182,334 159,223 L115,0 L30,0 L128,504 L213,504 L196,418 Q256,512 359,512 Q404,512 428,497"/> 
            <glyph glyph-name="Ř" unicode="&#x158;" horiz-adv-x="572" d=" M398,932 L496,932 L317,768 L286,768 L162,932 L251,932 L312,852 M530,0 L431,0 L292,330 L189,330 L124,0 L35,0 L172,700 L394,700 Q477,700 524.5,658 Q572,616 572,543 Q572,456 523,401.5 Q474,347 387,336 M380,616 L244,616 L205,414 L344,414 Q409,414 444.5,443 Q480,472 480,527 Q480,616 380,616"/> 
            <glyph glyph-name="ř" unicode="&#x159;" horiz-adv-x="491" d=" M393,736 L491,736 L312,572 L281,572 L157,736 L246,736 L307,656 M428,497 L397,422 Q371,436 344,436 Q288,436 234,385 Q182,334 159,223 L115,0 L30,0 L128,504 L213,504 L196,418 Q256,512 359,512 Q404,512 428,497"/> 
            <glyph glyph-name="Ś" unicode="&#x15A;" horiz-adv-x="527" d=" M379,768 L307,768 L404,912 L527,912 M487,584 L411,542 Q381,624 315,624 Q269,624 243.5,598 Q218,572 218,527 Q218,486 242.5,460 Q267,434 329,402 Q391,370 425,335 Q462,297 462,223 Q462,117 396,57 Q357,21 314.5,6.5 Q272,-8 211,-8 Q137,-8 79,48 Q22,105 22,184 L102,227 Q107,158 140,117 Q173,76 230,76 Q292,76 331,111 Q370,146 370,207 Q370,253 346.5,279.5 Q323,306 263,335 Q126,403 126,514 Q126,605 182.5,656.5 Q239,708 331,708 Q389,708 431.5,672.5 Q474,637 487,584"/> 
            <glyph glyph-name="ś" unicode="&#x15B;" horiz-adv-x="455" d=" M307,572 L235,572 L332,716 L455,716 M259,512 Q306,512 345,489.5 Q384,467 404,428 L338,379 Q300,436 249,436 Q219,436 200,419 Q181,402 181,373 Q181,348 198,331 Q215,314 250,298 Q302,276 333,250 Q376,219 376,158 Q376,82 325.5,37 Q275,-8 194,-8 Q120,-8 72,34 Q23,78 16,135 L90,171 Q111,68 204,68 Q242,68 264.5,88.5 Q287,109 287,142 Q287,180 261,199 Q242,213 195,234 Q96,278 96,368 Q96,434 140,473 Q184,512 259,512"/> 
            <glyph glyph-name="Ŝ" unicode="&#x15C;" horiz-adv-x="510" d=" M274,768 L176,768 L355,932 L386,932 L510,768 L421,768 L360,848 M487,584 L411,542 Q381,624 315,624 Q269,624 243.5,598 Q218,572 218,527 Q218,486 242.5,460 Q267,434 329,402 Q391,370 425,335 Q462,297 462,223 Q462,117 396,57 Q357,21 314.5,6.5 Q272,-8 211,-8 Q137,-8 79,48 Q22,105 22,184 L102,227 Q107,158 140,117 Q173,76 230,76 Q292,76 331,111 Q370,146 370,207 Q370,253 346.5,279.5 Q323,306 263,335 Q126,403 126,514 Q126,605 182.5,656.5 Q239,708 331,708 Q389,708 431.5,672.5 Q474,637 487,584"/> 
            <glyph glyph-name="ŝ" unicode="&#x15D;" horiz-adv-x="438" d=" M202,572 L104,572 L283,736 L314,736 L438,572 L349,572 L288,652 M259,512 Q306,512 345,489.5 Q384,467 404,428 L338,379 Q300,436 249,436 Q219,436 200,419 Q181,402 181,373 Q181,348 198,331 Q215,314 250,298 Q302,276 333,250 Q376,219 376,158 Q376,82 325.5,37 Q275,-8 194,-8 Q120,-8 72,34 Q23,78 16,135 L90,171 Q111,68 204,68 Q242,68 264.5,88.5 Q287,109 287,142 Q287,180 261,199 Q242,213 195,234 Q96,278 96,368 Q96,434 140,473 Q184,512 259,512"/> 
            <glyph glyph-name="Ş" unicode="&#x15E;" horiz-adv-x="487" d=" M142,-2 L216,-2 L105,-177 L16,-132 M487,584 L411,542 Q381,624 315,624 Q269,624 243.5,598 Q218,572 218,527 Q218,486 242.5,460 Q267,434 329,402 Q391,370 425,335 Q462,297 462,223 Q462,117 396,57 Q357,21 314.5,6.5 Q272,-8 211,-8 Q137,-8 79,48 Q22,105 22,184 L102,227 Q107,158 140,117 Q173,76 230,76 Q292,76 331,111 Q370,146 370,207 Q370,253 346.5,279.5 Q323,306 263,335 Q126,403 126,514 Q126,605 182.5,656.5 Q239,708 331,708 Q389,708 431.5,672.5 Q474,637 487,584"/> 
            <glyph glyph-name="ş" unicode="&#x15F;" horiz-adv-x="404" d=" M125,-2 L199,-2 L88,-177 L-1,-132 M259,512 Q306,512 345,489.5 Q384,467 404,428 L338,379 Q300,436 249,436 Q219,436 200,419 Q181,402 181,373 Q181,348 198,331 Q215,314 250,298 Q302,276 333,250 Q376,219 376,158 Q376,82 325.5,37 Q275,-8 194,-8 Q120,-8 72,34 Q23,78 16,135 L90,171 Q111,68 204,68 Q242,68 264.5,88.5 Q287,109 287,142 Q287,180 261,199 Q242,213 195,234 Q96,278 96,368 Q96,434 140,473 Q184,512 259,512"/> 
            <glyph glyph-name="Š" unicode="&#x160;" horiz-adv-x="528" d=" M487,584 L411,542 Q381,624 315,624 Q269,624 243.5,598 Q218,572 218,527 Q218,486 242.5,460 Q267,434 329,402 Q391,370 425,335 Q462,297 462,223 Q462,117 396,57 Q357,21 314.5,6.5 Q272,-8 211,-8 Q137,-8 79,48 Q22,105 22,184 L102,227 Q107,158 140,117 Q173,76 230,76 Q292,76 331,111 Q370,146 370,207 Q370,253 346.5,279.5 Q323,306 263,335 Q126,403 126,514 Q126,605 182.5,656.5 Q239,708 331,708 Q389,708 431.5,672.5 Q474,637 487,584 M430,926 L528,926 L349,762 L318,762 L194,926 L283,926 L344,846"/> 
            <glyph glyph-name="š" unicode="&#x161;" horiz-adv-x="475" d=" M259,512 Q306,512 345,489.5 Q384,467 404,428 L338,379 Q300,436 249,436 Q219,436 200,419 Q181,402 181,373 Q181,348 198,331 Q215,314 250,298 Q302,276 333,250 Q376,219 376,158 Q376,82 325.5,37 Q275,-8 194,-8 Q120,-8 72,34 Q23,78 16,135 L90,171 Q111,68 204,68 Q242,68 264.5,88.5 Q287,109 287,142 Q287,180 261,199 Q242,213 195,234 Q96,278 96,368 Q96,434 140,473 Q184,512 259,512 M377,730 L475,730 L296,566 L265,566 L141,730 L230,730 L291,650"/> 
            <glyph glyph-name="Ţ" unicode="&#x162;" horiz-adv-x="561" d=" M114,6 L188,6 L77,-169 L-12,-124 M258,616 L61,616 L78,700 L561,700 L544,616 L347,616 L227,0 L138,0"/> 
            <glyph glyph-name="ţ" unicode="&#x163;" horiz-adv-x="341" d=" M108,-2 L182,-2 L71,-177 L-18,-132 M116,428 L29,428 L43,504 L130,504 L160,655 L254,708 L214,504 L341,504 L327,428 L200,428 L148,160 Q143,132 143,124 Q143,68 197,68 Q229,68 257,84 L263,11 Q226,-8 177,-8 Q120,-8 89,22 Q58,52 58,109 Q58,128 65,167"/> 
            <glyph glyph-name="Ť" unicode="&#x164;" horiz-adv-x="561" d=" M434,932 L532,932 L353,768 L322,768 L198,932 L287,932 L348,852 M258,616 L61,616 L78,700 L561,700 L544,616 L347,616 L227,0 L138,0"/> 
            <glyph glyph-name="ť" unicode="&#x165;" horiz-adv-x="521" d=" M365,491 L302,491 L404,708 L521,708 M116,428 L29,428 L43,504 L130,504 L160,655 L254,708 L214,504 L341,504 L327,428 L200,428 L148,160 Q143,132 143,124 Q143,68 197,68 Q229,68 257,84 L263,11 Q226,-8 177,-8 Q120,-8 89,22 Q58,52 58,109 Q58,128 65,167"/> 
            <glyph glyph-name="Ũ" unicode="&#x168;" horiz-adv-x="647" d=" M295,773 L254,815 Q308,888 375,888 Q410,888 441,868 Q473,848 495,848 Q533,848 568,883 L609,840 Q555,768 488,768 Q453,768 421,788 Q390,808 368,808 Q330,808 295,773 M76,238 L165,700 L254,700 L163,232 Q159,209 159,192 Q159,76 281,76 Q356,76 404.5,116.5 Q453,157 467,232 L558,700 L647,700 L558,238 Q512,-8 270,-8 Q180,-8 125,41 Q70,90 70,171 Q70,206 76,238"/> 
            <glyph glyph-name="ũ" unicode="&#x169;" horiz-adv-x="525" d=" M211,577 L170,619 Q224,692 291,692 Q326,692 357,672 Q389,652 411,652 Q449,652 484,687 L525,644 Q471,572 404,572 Q369,572 337,592 Q306,612 284,612 Q246,612 211,577 M55,149 L124,504 L209,504 L145,171 Q141,150 141,136 Q141,68 208,68 Q262,68 319,131 Q375,193 395,293 L436,504 L521,504 L423,0 L338,0 L356,93 Q279,-8 174,-8 Q116,-8 84,21 Q52,50 52,102 Q52,126 55,149"/> 
            <glyph glyph-name="Ū" unicode="&#x16A;" horiz-adv-x="647" d=" M544,768 L295,768 L310,844 L559,844 M76,238 L165,700 L254,700 L163,232 Q159,209 159,192 Q159,76 281,76 Q356,76 404.5,116.5 Q453,157 467,232 L558,700 L647,700 L558,238 Q512,-8 270,-8 Q180,-8 125,41 Q70,90 70,171 Q70,206 76,238"/> 
            <glyph glyph-name="ū" unicode="&#x16B;" horiz-adv-x="521" d=" M460,572 L211,572 L226,648 L475,648 M55,149 L124,504 L209,504 L145,171 Q141,150 141,136 Q141,68 208,68 Q262,68 319,131 Q375,193 395,293 L436,504 L521,504 L423,0 L338,0 L356,93 Q279,-8 174,-8 Q116,-8 84,21 Q52,50 52,102 Q52,126 55,149"/> 
            <glyph glyph-name="Ŭ" unicode="&#x16C;" horiz-adv-x="647" d=" M485,877 L552,877 Q539,826 504,797 Q469,768 420,768 Q380,768 354,792 Q328,816 328,855 Q328,859 330,877 L397,877 Q396,874 396,867 Q396,851 406,841.5 Q416,832 432,832 Q476,832 485,877 M76,238 L165,700 L254,700 L163,232 Q159,209 159,192 Q159,76 281,76 Q356,76 404.5,116.5 Q453,157 467,232 L558,700 L647,700 L558,238 Q512,-8 270,-8 Q180,-8 125,41 Q70,90 70,171 Q70,206 76,238"/> 
            <glyph glyph-name="ŭ" unicode="&#x16D;" horiz-adv-x="521" d=" M401,681 L468,681 Q455,630 420,601 Q385,572 336,572 Q296,572 270,596 Q244,620 244,659 Q244,663 246,681 L313,681 Q312,678 312,671 Q312,655 322,645.5 Q332,636 348,636 Q392,636 401,681 M55,149 L124,504 L209,504 L145,171 Q141,150 141,136 Q141,68 208,68 Q262,68 319,131 Q375,193 395,293 L436,504 L521,504 L423,0 L338,0 L356,93 Q279,-8 174,-8 Q116,-8 84,21 Q52,50 52,102 Q52,126 55,149"/> 
            <glyph glyph-name="Ů" unicode="&#x16E;" horiz-adv-x="647" d=" M339,864 Q339,906 367.5,935 Q396,964 438,964 Q480,964 508.5,935 Q537,906 537,864 Q537,823 509,795.5 Q481,768 438,768 Q396,768 367.5,795.5 Q339,823 339,864 M395,865 Q393,838 415.5,827 Q438,816 460.5,827 Q483,838 481,865 Q483,893 460.5,905 Q438,917 415.5,905 Q393,893 395,865 M76,238 L165,700 L254,700 L163,232 Q159,209 159,192 Q159,76 281,76 Q356,76 404.5,116.5 Q453,157 467,232 L558,700 L647,700 L558,238 Q512,-8 270,-8 Q180,-8 125,41 Q70,90 70,171 Q70,206 76,238"/> 
            </font>
</defs>
</svg>
