<?xml version="1.0" standalone="no"?>
<!DOCTYPE svg PUBLIC "-//W3C//DTD SVG 1.1//EN" "http://www.w3.org/Graphics/SVG/1.1/DTD/svg11.dtd" >
<svg xmlns="http://www.w3.org/2000/svg">
    <defs>
        <font id="BaskervilleMTStd-Regular">
            <font-face font-family="BaskervilleMTStd-Regular"
                       units-per-em="1000"
                       ascent="682"
                       descent="-318"
                       bbox="-160 -255 1169 902"
                    />
            <missing-glyph horiz-adv-x="0" />
            
            <glyph glyph-name="!" unicode="&#x21;" horiz-adv-x="178" d=" M136,189 L115,189 L88,526 Q83,579 83,595 Q83,626 96.5,641 Q110,656 126,656 Q142,656 155.5,640.5 Q169,625 169,594 Q169,584 164,524 M73,37 Q73,58 88,73.5 Q103,89 125,89 Q147,89 162.5,74 Q178,59 178,37 Q178,15 162.5,-0.5 Q147,-16 125,-16 Q104,-16 88.5,-0.5 Q73,15 73,37"/> 
            <glyph glyph-name="&quot;" unicode="&#x22;" horiz-adv-x="341" d=" M304,388 L282,388 L249,572 Q245,595 245,614 Q245,675 293,675 Q341,675 341,614 Q341,595 337,572 M126,388 L104,388 L71,572 Q67,595 67,614 Q67,675 115,675 Q163,675 163,614 Q163,595 159,572"/> 
            <glyph glyph-name="#" unicode="&#x23;" horiz-adv-x="622" d=" M45,468 L205,468 L249,669 L299,669 L255,468 L471,468 L514,669 L564,669 L521,468 L622,468 L622,418 L512,418 L472,228 L622,228 L622,178 L462,178 L420,-23 L370,-23 L412,178 L196,178 L155,-23 L105,-23 L146,178 L45,178 L45,228 L156,228 L196,418 L45,418 M462,418 L246,418 L206,228 L422,228"/> 
            <glyph glyph-name="$" unicode="&#x24;" horiz-adv-x="444" d=" M170,16 L170,331 Q150,341 137,349 Q124,357 101,376.5 Q78,396 65.5,425.5 Q53,455 53,492 Q53,548 85.5,587 Q118,626 170,643 L170,676 L195,676 L195,651 Q198,652 204,652.5 Q210,653 213,653 Q221,654 239,654 Q259,654 284,649 L284,676 L309,676 L309,643 Q361,627 395.5,592 Q430,557 430,524 Q430,507 420.5,498.5 Q411,490 402,490 Q390,490 382,499 Q374,508 371,517.5 Q368,527 365,545 Q356,597 309,618 L309,348 Q444,289 444,173 Q444,111 408.5,63 Q373,15 309,-4 L309,-102 L284,-102 L284,-10 Q283,-10 276,-11.5 Q269,-13 264,-14 Q248,-16 242,-16 Q203,-16 195,-15 L195,-102 L170,-102 L170,-9 Q116,4 81,37.5 Q46,71 46,97 Q46,114 55,122.5 Q64,131 75,131 Q99,131 109,88 Q112,74 116,64.5 Q120,55 134,40.5 Q148,26 170,16 M170,407 L170,622 Q143,610 120,580.5 Q97,551 97,510 Q97,446 170,407 M284,358 L284,627 Q266,632 234,632 Q215,632 195,627 L195,395 Q239,376 284,358 M284,12 L284,281 Q280,285 275,285 Q268,288 240.5,299.5 Q213,311 195,319 L195,9 Q208,6 234,6 Q266,6 284,12 M309,270 L309,22 Q395,59 395,150 Q395,197 372.5,224 Q350,251 309,270"/> 
            <glyph glyph-name="%" unicode="&#x25;" horiz-adv-x="779" d=" M361,483 Q361,409 324,359 Q287,309 228,309 Q168,309 131.5,360 Q95,411 95,483 Q95,555 131.5,605.5 Q168,656 228,656 Q287,656 324,606 Q361,556 361,483 M297,483 Q297,638 228,638 Q159,638 159,483 Q159,327 228,327 Q297,327 297,483 M779,232 Q779,84 742,34 Q705,-16 646,-16 Q586,-16 550,35 Q514,86 514,158 Q514,230 550,281 Q586,332 646,332 Q705,332 779,232 M715,2 Q715,314 646,314 Q577,314 577,158 Q577,2 715,2 M283,0 L253,0 L592,640 L622,640"/> 
            <glyph glyph-name="&amp;" unicode="&#x26;" horiz-adv-x="696" d=" M426,400 L635,400 L635,378 Q603,371 572.5,344 Q542,317 524,274 Q487,185 458,144 Q502,82 532,56 Q562,30 603,30 Q649,30 674,73 L696,73 Q684,31 650.5,7.5 Q617,-16 575,-16 Q482,-16 407,79 Q406,78 396,67.5 Q386,57 379.5,51 Q373,45 359.5,33.5 Q346,22 333,14.5 Q320,7 303,-0.5 Q286,-8 266.5,-12 Q247,-16 226,-16 Q154,-16 97,34 Q40,84 40,165 Q40,229 76,271.5 Q112,314 201,373 Q144,453 144,516 Q144,568 183,608 Q222,648 282,648 Q336,648 377.5,617.5 Q419,587 419,541 Q419,528 415.5,516 Q412,504 405,492.5 Q398,481 390.5,471.5 Q383,462 371,452.5 Q359,443 350.5,436.5 Q342,430 329,422.5 Q316,415 309.5,411 Q303,407 291.5,401 Q280,395 278,394 Q333,321 444,165 Q464,190 483,234.5 Q502,279 502,313 Q502,333 493.5,346.5 Q485,360 471,366.5 Q457,373 446.5,375 Q436,377 426,378 M393,99 Q310,228 216,353 Q180,332 145,291.5 Q110,251 110,200 Q110,139 158,86 Q206,33 267,33 Q338,33 393,99 M265,413 Q363,470 363,536 Q363,575 341.5,600 Q320,625 284,625 Q246,625 226,600.5 Q206,576 206,543 Q206,490 265,413"/> 
            <glyph glyph-name="'" unicode="&#x27;" horiz-adv-x="137" d=" M100,388 L78,388 L45,572 Q41,595 41,614 Q41,675 89,675 Q137,675 137,614 Q137,595 133,572"/> 
            <glyph glyph-name="(" unicode="&#x28;" horiz-adv-x="245" d=" M245,-239 L211,-239 Q48,-41 48,223 Q48,476 206,669 L240,669 Q169,584 126.5,469.5 Q84,355 84,222 Q84,138 101,59.5 Q118,-19 145.5,-77 Q173,-135 196.5,-172.5 Q220,-210 245,-239"/> 
            <glyph glyph-name=")" unicode="&#x29;" horiz-adv-x="192" d=" M-5,669 L29,669 Q192,471 192,207 Q192,-46 34,-239 L0,-239 Q71,-154 113.5,-39.5 Q156,75 156,208 Q156,292 139,370.5 Q122,449 94.5,507 Q67,565 43.5,602.5 Q20,640 -5,669"/> 
            <glyph glyph-name="*" unicode="&#x2A;" horiz-adv-x="391" d=" M137,533 Q147,521 200,471 Q193,514 178,562 Q165,601 165,616 Q165,642 178,654 Q191,666 204,666 Q218,666 232.5,654 Q247,642 247,616 Q247,605 231,557 Q217,515 214,471 Q244,491 279,532 Q324,583 353,583 Q369,583 380,573 Q391,563 391,546 Q391,501 315,489 Q272,482 222,459 Q250,447 310,434 Q391,415 391,372 Q391,358 380.5,348 Q370,338 354,338 Q324,338 279,385 Q237,431 214,446 Q219,398 229,368 Q232,360 237.5,345 Q243,330 245.5,321.5 Q248,313 248,305 Q248,282 235.5,268 Q223,254 207,254 Q192,254 179.5,267.5 Q167,281 167,304 Q167,310 172,328 Q177,346 183,366 Q189,386 190,389 Q198,423 200,446 Q166,424 126,375 Q101,345 85,340 Q77,337 67,337 Q48,337 37,347.5 Q26,358 26,374 Q26,381 28,387.5 Q30,394 34,399 Q38,404 41.5,408 Q45,412 51.5,415.5 Q58,419 62.5,421 Q67,423 75,425 Q83,427 86,428 Q89,429 97,430.5 Q105,432 106,432 Q180,448 194,459 Q145,481 104,489 Q27,504 27,545 Q27,560 39,571 Q51,582 66,582 Q98,582 137,533"/> 
            <glyph glyph-name="+" unicode="&#x2B;" horiz-adv-x="597" d=" M69,346 L307,346 L307,584 L359,584 L359,346 L597,346 L597,294 L359,294 L359,56 L307,56 L307,294 L69,294"/> 
            <glyph glyph-name="," unicode="&#x2C;" horiz-adv-x="194" d=" M54,-191 L54,-166 Q112,-148 138,-109 Q164,-70 164,-37 Q164,-5 143,-5 Q139,-5 131,-7 Q125,-10 117,-10 Q98,-10 82,1.5 Q66,13 66,37 Q66,61 80.5,75 Q95,89 116,89 Q152,89 173,56 Q194,23 194,-19 Q194,-70 160.5,-120.5 Q127,-171 54,-191"/> 
            <glyph glyph-name="-" unicode="&#x2D;" horiz-adv-x="276" d=" M37,262 L276,262 L276,196 L37,196"/> 
            <glyph glyph-name="." unicode="&#x2E;" horiz-adv-x="177" d=" M72,37 Q72,58 87,73.5 Q102,89 124,89 Q146,89 161.5,74 Q177,59 177,37 Q177,15 161.5,-0.5 Q146,-16 124,-16 Q103,-16 87.5,-0.5 Q72,15 72,37"/> 
            <glyph glyph-name="/" unicode="&#x2F;" horiz-adv-x="460" d=" M401,674 L460,674 L119,-16 L60,-16"/> 
            <glyph glyph-name="0" unicode="&#x30;" horiz-adv-x="460" d=" M41,165 Q41,475 99.5,565.5 Q158,656 251,656 Q344,656 402,565 Q460,474 460,320 Q460,165 402,74.5 Q344,-16 251,-16 Q158,-16 41,165 M122,320 Q122,259 124,218 Q126,177 133.5,134 Q141,91 155,65.5 Q169,40 193,24 Q217,8 251,8 Q293,8 319.5,30 Q346,52 358.5,98.5 Q371,145 375,194 Q379,243 379,320 Q379,370 377.5,405.5 Q376,441 372,479.5 Q368,518 359,543.5 Q350,569 336,590.5 Q322,612 301,622 Q280,632 251,632 Q209,632 182,610 Q155,588 142.5,541.5 Q130,495 126,446 Q122,397 122,320"/> 
            <glyph glyph-name="1" unicode="&#x31;" horiz-adv-x="368" d=" M268,656 L289,656 L289,91 Q289,54 298.5,38 Q308,22 338,22 L368,22 L368,0 L148,0 L148,22 L178,22 Q207,22 215,37.5 Q223,53 223,91 L223,485 Q223,566 215,583 Q207,600 164,600 L143,600 L143,622 Q226,622 268,656"/> 
            <glyph glyph-name="2" unicode="&#x32;" horiz-adv-x="439" d=" M57,0 L57,30 Q135,93 247,225 Q358,356 358,468 Q358,546 321.5,588 Q285,630 225,630 Q168,630 138.5,594 Q109,558 109,517 Q109,471 148,443 Q163,433 163,427 Q163,418 146.5,403 Q130,388 119,388 Q102,388 82.5,420 Q63,452 63,494 Q63,513 71.5,537 Q80,561 98.5,589.5 Q117,618 156,637 Q195,656 248,656 Q340,656 389.5,607 Q439,558 439,474 Q439,413 408.5,361 Q378,309 286,216 Q191,118 121,59 L431,59 L404,-51 L380,-51 Q385,-29 385,-19 Q385,-6 377,-3 Q369,0 350,0 Q346,0 344,0"/> 
            <glyph glyph-name="3" unicode="&#x33;" horiz-adv-x="442" d=" M257,355 Q281,361 288,361 Q365,361 403.5,308.5 Q442,256 442,188 Q442,96 380,40 Q318,-16 225,-16 Q158,-16 112,14 Q66,44 66,76 Q66,90 75,100 Q84,110 98,110 Q115,110 122,100 Q129,90 136,69 Q155,6 223,6 Q262,6 290,23.5 Q318,41 331.5,62 Q345,83 352,114 Q359,145 360,159.5 Q361,174 361,190 Q361,272 330.5,305.5 Q300,339 265,339 Q236,339 210,317 Q208,315 200.5,307 Q193,299 187,295 Q181,291 176,291 Q162,291 162,306 Q162,310 164.5,314.5 Q167,319 170,322 Q173,325 179,329.5 Q185,334 188.5,337 Q192,340 200.5,345 Q209,350 212,352 Q278,395 308.5,431.5 Q339,468 339,527 Q339,580 311.5,606 Q284,632 244,632 Q202,632 167.5,605 Q133,578 133,533 Q133,498 150,481 Q166,465 166,462 Q166,455 150,448 Q134,441 126,441 Q111,441 97.5,464 Q84,487 84,514 Q84,563 128,609.5 Q172,656 259,656 Q331,656 375.5,621.5 Q420,587 420,536 Q420,493 388,456.5 Q356,420 308,389 Q260,358 257,355"/> 
            <glyph glyph-name="4" unicode="&#x34;" horiz-adv-x="480" d=" M273,220 L33,220 L33,250 L312,656 L343,656 L343,250 L413,250 Q423,250 429,251 Q435,252 439.5,257 Q444,262 445.5,264 Q447,266 451.5,278.5 Q456,291 458,296 L480,296 L469,220 L343,220 L343,96 Q343,48 354,35 Q365,22 397,22 L410,22 L410,0 L197,0 L197,22 L227,22 Q257,22 265,39 Q273,56 273,94 M60,250 L273,250 L273,563"/> 
            <glyph glyph-name="5" unicode="&#x35;" horiz-adv-x="437" d=" M132,336 L106,336 L121,640 L374,640 Q355,593 345.5,584 Q336,575 311,575 L141,575 L131,369 Q146,388 156,398.5 Q166,409 193,422 Q220,435 253,435 Q327,435 382,375.5 Q437,316 437,221 Q437,190 430.5,159 Q424,128 407,95.5 Q390,63 364.5,39 Q339,15 298,-0.5 Q257,-16 206,-16 Q129,-16 87,19 Q45,54 45,84 Q45,97 53.5,106 Q62,115 76,115 Q94,115 102,104 Q110,93 120,66 Q126,50 131.5,40 Q137,30 157.5,18 Q178,6 208,6 Q221,6 233.5,7.5 Q246,9 270,21 Q294,33 311.5,53 Q329,73 342.5,115.5 Q356,158 356,216 Q356,278 342.5,319.5 Q329,361 307.5,378 Q286,395 270,400.5 Q254,406 238,406 Q169,406 132,336"/> 
            <glyph glyph-name="6" unicode="&#x36;" horiz-adv-x="456" d=" M127,331 Q187,404 263,404 Q342,404 399,343.5 Q456,283 456,194 Q456,113 402,48.5 Q348,-16 257,-16 Q158,-16 100.5,68 Q43,152 43,291 Q43,380 68,460.5 Q93,541 152,598.5 Q211,656 294,656 Q347,656 388.5,633 Q430,610 430,580 Q430,566 421.5,559.5 Q413,553 402,553 Q394,553 387.5,555 Q381,557 376,562.5 Q371,568 368.5,572 Q366,576 361,584.5 Q356,593 355,595 Q333,630 279,630 Q226,630 194,598 Q162,566 150,528 Q122,438 127,331 M125,201 Q125,118 158.5,62 Q192,6 252,6 Q375,6 375,207 Q375,296 341,336 Q305,378 251,378 Q200,378 165,341 Q125,298 125,201"/> 
            <glyph glyph-name="7" unicode="&#x37;" horiz-adv-x="433" d=" M75,521 L116,656 L133,656 Q135,647 138,644 Q146,640 161,640 L433,640 L245,68 Q236,41 230.5,27 Q225,13 212,-1.5 Q199,-16 183,-16 Q170,-16 162,-7.5 Q154,1 154,14 Q154,29 180,88 L390,575 L163,575 Q135,575 124,568.5 Q113,562 103,536 L97,521"/> 
            <glyph glyph-name="8" unicode="&#x38;" horiz-adv-x="455" d=" M290,333 Q355,327 405,282 Q455,237 455,163 Q455,74 392,29 Q329,-16 247,-16 Q162,-16 103,34 Q44,84 44,161 Q44,225 86,272 Q128,319 204,333 Q144,348 104.5,391 Q65,434 65,494 Q65,567 118.5,611.5 Q172,656 248,656 Q319,656 377,613 Q435,570 435,494 Q435,430 396,389.5 Q357,349 290,333 M143,503 Q143,344 245,344 Q357,344 357,491 Q357,634 248,634 Q207,634 175,605 Q143,576 143,503 M125,167 Q125,146 126,131.5 Q127,117 133,90.5 Q139,64 151,48 Q163,32 187.5,19 Q212,6 246,6 Q282,6 307.5,18 Q333,30 345.5,45.5 Q358,61 365,85.5 Q372,110 373,125 Q374,140 374,161 Q374,322 245,322 Q125,322 125,167"/> 
            <glyph glyph-name="9" unicode="&#x39;" horiz-adv-x="457" d=" M373,309 Q313,236 237,236 Q158,236 101,296.5 Q44,357 44,446 Q44,527 98,591.5 Q152,656 243,656 Q342,656 399.5,572 Q457,488 457,349 Q457,260 432,179.5 Q407,99 348,41.5 Q289,-16 206,-16 Q153,-16 111.5,7 Q70,30 70,60 Q70,74 78.5,80.5 Q87,87 98,87 Q106,87 112.5,85 Q119,83 124,77.5 Q129,72 131.5,68 Q134,64 139,55.5 Q144,47 145,45 Q167,10 221,10 Q274,10 306,42 Q338,74 350,112 Q378,202 373,309 M375,439 Q375,522 341.5,578 Q308,634 248,634 Q125,634 125,433 Q125,344 159,304 Q195,262 249,262 Q300,262 335,299 Q375,342 375,439"/> 
            <glyph glyph-name=":" unicode="&#x3A;" horiz-adv-x="177" d=" M72,37 Q72,58 87,73.5 Q102,89 124,89 Q146,89 161.5,74 Q177,59 177,37 Q177,15 161.5,-0.5 Q146,-16 124,-16 Q103,-16 87.5,-0.5 Q72,15 72,37 M72,353 Q72,397 87,412.5 Q102,428 124,428 Q146,428 161.5,412.5 Q177,397 177,375 Q177,353 161.5,338 Q146,323 124,323 Q103,323 72,353"/> 
            <glyph glyph-name=";" unicode="&#x3B;" horiz-adv-x="194" d=" M54,-191 L54,-166 Q112,-148 138,-109 Q164,-70 164,-37 Q164,-5 143,-5 Q139,-5 131,-7 Q125,-10 117,-10 Q98,-10 82,1.5 Q66,13 66,37 Q66,61 80.5,75 Q95,89 116,89 Q152,89 173,56 Q194,23 194,-19 Q194,-70 160.5,-120.5 Q127,-171 54,-191 M72,353 Q72,397 87,412.5 Q102,428 124,428 Q146,428 161.5,412.5 Q177,397 177,375 Q177,353 161.5,338 Q146,323 124,323 Q103,323 72,353"/> 
            <glyph glyph-name="&lt;" unicode="&#x3C;" horiz-adv-x="597" d=" M597,76 L70,299 L70,346 L597,568 L597,511 L140,322 L597,133"/> 
            <glyph glyph-name="=" unicode="&#x3D;" horiz-adv-x="597" d=" M69,460 L597,460 L597,408 L69,408 M69,232 L597,232 L597,180 L69,180"/> 
            <glyph glyph-name="&gt;" unicode="&#x3E;" horiz-adv-x="597" d=" M70,568 L597,345 L597,298 L70,76 L70,133 L526,321 L70,510"/> 
            <glyph glyph-name="?" unicode="&#x3F;" horiz-adv-x="346" d=" M142,185 L120,185 L120,391 L142,391 Q165,354 195,354 Q271,354 271,501 Q271,555 247.5,595 Q224,635 171,635 Q149,635 134,626.5 Q119,618 113.5,610 Q108,602 101,587 Q90,562 70,562 Q47,562 47,587 Q47,615 86,635.5 Q125,656 176,656 Q224,656 260,636 Q296,616 313.5,586 Q331,556 338.5,528 Q346,500 346,476 Q346,412 307.5,368.5 Q269,325 214,325 Q169,325 142,352 M187,59 Q187,15 172,0 Q157,-15 135,-15 Q113,-15 97.5,0 Q82,15 82,37 Q82,59 97.5,74 Q113,89 135,89 Q156,89 187,59"/> 
            <glyph glyph-name="@" unicode="&#x40;" horiz-adv-x="896" d=" M688,447 L600,142 Q586,90 585,67 Q585,55 593.5,42 Q602,29 622,29 Q694,29 761.5,124 Q829,219 829,347 Q829,477 741,562.5 Q653,648 512,648 Q418,648 338,607.5 Q258,567 205.5,501 Q153,435 123.5,352 Q94,269 94,183 Q94,9 201.5,-99 Q309,-207 476,-207 Q552,-207 621,-183.5 Q690,-160 758.5,-97 Q827,-34 868,63 L896,63 Q865,-34 796.5,-103.5 Q728,-173 645,-205 Q562,-237 473,-237 Q291,-237 169,-115 Q47,7 47,196 Q47,400 183,537 Q319,674 509,674 Q595,674 663,645.5 Q731,617 773,569.5 Q815,522 836.5,463 Q858,404 858,339 Q858,260 828.5,183 Q799,106 735.5,50 Q672,-6 589,-6 Q514,-6 514,62 Q514,80 518.5,105 Q523,130 523,134 Q410,-6 331,-6 Q288,-6 265,30 Q242,66 242,108 Q242,181 285.5,262.5 Q329,344 392.5,397 Q456,450 511,450 Q579,450 595,379 L611,436 M516,427 Q472,427 424.5,368 Q377,309 348,237.5 Q319,166 319,123 Q319,95 335,74 Q351,53 376,53 Q444,53 524,174 Q545,206 561,263 Q577,320 577,355 Q577,386 560.5,406.5 Q544,427 516,427"/> 
            <glyph glyph-name="A" unicode="&#x41;" horiz-adv-x="681" d=" M429,244 L177,244 L138,147 Q122,104 122,84 Q122,58 140.5,40 Q159,22 194,22 L194,0 L-3,0 L-3,22 Q59,24 92,101 L330,672 L349,672 L592,97 Q601,75 610,61 Q619,47 637.5,34.5 Q656,22 681,22 L681,0 L420,0 L420,22 Q444,22 453.5,22.5 Q463,23 477.5,26 Q492,29 497,37 Q502,45 502,58 Q502,69 489,99 M187,266 L420,266 L303,548"/> 
            <glyph glyph-name="B" unicode="&#x42;" horiz-adv-x="571" d=" M327,0 L24,0 L24,22 L49,22 Q109,22 121,46 Q133,70 133,172 L133,495 Q133,537 133,556.5 Q133,576 128,596.5 Q123,617 119.5,622.5 Q116,628 101,634 Q86,640 73.5,640 Q61,640 31,640 L31,662 Q197,669 264,669 Q535,669 535,511 Q535,382 344,356 Q440,351 505.5,309.5 Q571,268 571,182 Q571,130 550,92.5 Q529,55 492,36 Q455,17 414.5,8.5 Q374,0 327,0 M229,342 L229,194 Q229,75 240,49 Q251,23 309,23 Q464,23 464,183 Q464,270 413.5,309.5 Q363,349 229,342 M229,644 L229,366 Q281,365 315,369.5 Q349,374 377.5,388.5 Q406,403 419,432 Q432,461 432,506 Q432,593 382.5,623 Q333,653 229,644"/> 
            <glyph glyph-name="C" unicode="&#x43;" horiz-adv-x="646" d=" M626,248 L646,248 L646,17 L626,17 Q616,58 594,87 Q509,-12 371,-12 Q228,-12 136.5,78.5 Q45,169 45,319 Q45,385 64.5,446.5 Q84,508 121.5,559.5 Q159,611 223.5,642.5 Q288,674 369,674 Q450,674 508.5,642 Q567,610 594,576 Q615,619 619,662 L641,662 L646,411 L626,411 Q616,481 589,530.5 Q562,580 526,604.5 Q490,629 455.5,639.5 Q421,650 385,650 Q323,650 276.5,621.5 Q230,593 205,544 Q180,495 168.5,440 Q157,385 157,323 Q157,169 225,92.5 Q293,16 390,16 Q448,16 493,38 Q538,60 564.5,96 Q591,132 606,170 Q621,208 626,248"/> 
            <glyph glyph-name="D" unicode="&#x44;" horiz-adv-x="709" d=" M23,657 Q205,669 315,669 Q504,669 601,586 Q709,495 709,325 Q709,159 607,73 Q576,47 541,31 Q506,15 462,8.5 Q418,2 391.5,1 Q365,0 314,0 L20,0 L20,22 L47,22 Q108,22 120,46 Q132,70 132,172 L132,492 Q132,531 131.5,549.5 Q131,568 127.5,588 Q124,608 120,614 Q116,620 104,626.5 Q92,633 79.5,633.5 Q67,634 42,634 L23,634 M228,643 L228,201 Q228,79 237,55 Q246,28 284,25 Q298,23 332,23 Q449,23 507,68 Q602,142 602,318 Q602,460 540,548 Q516,582 484.5,604 Q453,626 416,633.5 Q379,641 359,643 Q339,645 309,645 Q272,645 228,643"/> 
            <glyph glyph-name="E" unicode="&#x45;" horiz-adv-x="594" d=" M571,206 L594,206 L580,0 L32,0 L32,22 L45,22 Q107,22 119,46 Q131,70 131,172 L131,497 Q131,598 119,619 Q107,640 45,640 L45,662 L519,662 L534,497 L511,497 Q499,549 484.5,578.5 Q470,608 443.5,621.5 Q417,635 393.5,637.5 Q370,640 319,640 L227,640 L227,361 L298,361 Q364,361 380.5,380 Q397,399 397,461 L420,461 L420,234 L397,234 Q397,264 393.5,283 Q390,302 384.5,314 Q379,326 365.5,331 Q352,336 338.5,337.5 Q325,339 299,339 L227,339 L227,182 Q227,140 227.5,117 Q228,94 232,73.5 Q236,53 241,45 Q246,37 259,30.5 Q272,24 285,23 Q298,22 324,22 L373,22 Q397,22 411.5,23 Q426,24 453.5,34 Q481,44 499.5,61.5 Q518,79 538,116 Q558,153 571,206"/> 
            <glyph glyph-name="F" unicode="&#x46;" horiz-adv-x="548" d=" M542,662 L548,497 L525,497 Q519,538 506.5,565.5 Q494,593 480,607.5 Q466,622 442.5,629.5 Q419,637 402.5,638.5 Q386,640 357,640 L228,640 L228,359 L290,359 Q347,359 368.5,377 Q390,395 390,460 L414,460 L414,227 L390,227 Q390,259 384.5,280.5 Q379,302 372.5,313 Q366,324 350.5,329.5 Q335,335 324,336 Q313,337 290,337 L228,337 L228,172 Q228,70 240,46 Q252,22 313,22 L335,22 L335,0 L28,0 L28,22 L48,22 Q108,22 120,46.5 Q132,71 132,172 L132,534 Q132,575 129.5,594.5 Q127,614 114.5,625.5 Q102,637 86,638.5 Q70,640 32,640 L32,662"/> 
            <glyph glyph-name="G" unicode="&#x47;" horiz-adv-x="748" d=" M462,283 L748,283 L748,259 L724,259 Q681,259 668.5,235 Q656,211 656,150 L656,40 Q644,42 635,42 Q600,42 526,15 Q452,-12 383,-12 Q240,-12 146,81 Q52,174 52,318 Q52,469 144,571.5 Q236,674 386,674 Q519,674 606,577 Q623,612 626,651 L650,651 L650,429 L626,429 Q611,537 546.5,593.5 Q482,650 397,650 Q288,650 226,574.5 Q164,499 164,335 Q164,166 228,89 Q292,12 397,12 Q471,12 515.5,49.5 Q560,87 560,144 L560,180 Q560,226 545,242.5 Q530,259 496,259 L462,259"/> 
            <glyph glyph-name="H" unicode="&#x48;" horiz-adv-x="769" d=" M574,332 L229,332 L229,172 Q229,70 241,46 Q253,22 313,22 L330,22 L330,0 L32,0 L32,22 L49,22 Q109,22 121,46 Q133,70 133,172 L133,497 Q133,529 133,544.5 Q133,560 131,579 Q129,598 127.5,605.5 Q126,613 119,622 Q112,631 107.5,633 Q103,635 89,637.5 Q75,640 65,640 Q55,640 32,640 L32,662 L330,662 L330,640 Q300,640 288,640 Q276,640 261,634 Q246,628 242.5,622.5 Q239,617 234,597 Q229,577 229,557.5 Q229,538 229,497 L229,366 L574,366 L574,497 Q574,537 574,554.5 Q574,572 570.5,593 Q567,614 563,619.5 Q559,625 547.5,632 Q536,639 523,639.5 Q510,640 486,640 L468,640 L468,662 L769,662 L769,640 Q740,640 727.5,640 Q715,640 701,634 Q687,628 683,622 Q679,616 674.5,596 Q670,576 670,557 Q670,538 670,497 L670,172 Q670,70 682,46 Q694,22 754,22 L769,22 L769,0 L468,0 L468,22 L491,22 Q551,22 562.5,46 Q574,70 574,172"/> 
            <glyph glyph-name="I" unicode="&#x49;" horiz-adv-x="328" d=" M26,640 L26,662 L328,662 L328,640 L314,640 Q290,640 277,639.5 Q264,639 252.5,632.5 Q241,626 236.5,620 Q232,614 229,593.5 Q226,573 225.5,555 Q225,537 225,497 L225,172 Q225,70 237,46 Q249,22 309,22 L328,22 L328,0 L26,0 L26,22 L45,22 Q105,22 117,46 Q129,70 129,172 L129,497 Q129,536 128.5,554.5 Q128,573 125,593 Q122,613 117.5,619.5 Q113,626 101.5,632.5 Q90,639 77,639.5 Q64,640 40,640"/> 
            <glyph glyph-name="J" unicode="&#x4A;" horiz-adv-x="343" d=" M35,662 L343,662 L343,640 L327,640 Q303,640 290,639.5 Q277,639 265,632.5 Q253,626 249,619.5 Q245,613 241.5,593.5 Q238,574 237.5,555 Q237,536 237,497 L237,65 Q237,7 235.5,-21 Q234,-49 224.5,-84 Q215,-119 196,-147 Q134,-236 -4,-236 Q-85,-236 -122.5,-206.5 Q-160,-177 -160,-142 Q-160,-119 -146,-104 Q-132,-89 -111,-89 Q-89,-89 -74.5,-103 Q-60,-117 -60,-137 Q-60,-150 -66,-162 Q-72,-174 -72,-180 Q-72,-212 -7,-212 Q89,-212 125,-119 Q136,-92 138.5,-54.5 Q141,-17 141,64 L141,497 Q141,536 140.5,554.5 Q140,573 137,593 Q134,613 129.5,619.5 Q125,626 113,632.5 Q101,639 88,639.5 Q75,640 51,640 L35,640"/> 
            <glyph glyph-name="K" unicode="&#x4B;" horiz-adv-x="781" d=" M228,325 L435,511 Q501,570 501,597 Q501,637 431,640 L431,662 L680,662 L680,640 Q663,639 655.5,638 Q648,637 626,630.5 Q604,624 577.5,605 Q551,586 518,556 L344,396 L640,97 Q667,70 682,57.5 Q697,45 723.5,33.5 Q750,22 781,22 L781,0 L437,0 L437,22 Q462,22 474.5,22.5 Q487,23 503.5,26 Q520,29 526.5,36 Q533,43 533,55 Q533,76 465,144 L276,335 L228,293 L228,172 Q228,130 228.5,113 Q229,96 232,73.5 Q235,51 240,45 Q245,39 257.5,31.5 Q270,24 285,23 Q300,22 326,22 L326,0 L28,0 L28,22 L49,22 Q109,22 120.5,46 Q132,70 132,172 L132,497 Q132,538 132,556.5 Q132,575 128,595 Q124,615 120,621 Q116,627 102.5,633 Q89,639 76.5,639.5 Q64,640 37,640 L37,662 L330,662 L330,640 Q300,640 287.5,640 Q275,640 260,634 Q245,628 241.5,622.5 Q238,617 233,597 Q228,577 228,557.5 Q228,538 228,497"/> 
            <glyph glyph-name="L" unicode="&#x4C;" horiz-adv-x="595" d=" M595,195 L591,0 L28,0 L28,22 L48,22 Q108,22 120,46 Q132,70 132,172 L132,497 Q132,536 131.5,554.5 Q131,573 128,593 Q125,613 120.5,619.5 Q116,626 104.5,632.5 Q93,639 80,639.5 Q67,640 43,640 L28,640 L28,662 L346,662 L346,640 L317,640 Q293,640 280,639.5 Q267,639 255.5,632.5 Q244,626 239.5,620 Q235,614 232,593.5 Q229,573 228.5,555 Q228,537 228,497 L228,151 Q228,115 228.5,100.5 Q229,86 232,67 Q235,48 240,42.5 Q245,37 257.5,30.5 Q270,24 285.5,23 Q301,22 327,22 L377,22 Q465,22 502,53 Q539,84 573,195"/> 
            <glyph glyph-name="M" unicode="&#x4D;" horiz-adv-x="908" d=" M463,114 L704,662 L908,662 L908,640 L883,640 Q859,640 846,639.5 Q833,639 821.5,632.5 Q810,626 805.5,620 Q801,614 798,593.5 Q795,573 794.5,555 Q794,537 794,497 L794,172 Q794,70 806,46 Q818,22 878,22 L908,22 L908,0 L591,0 L591,22 L614,22 Q674,22 686,46 Q698,70 698,172 L698,598 L436,0 L413,0 L149,598 L149,153 Q149,86 173.5,56.5 Q198,27 255,22 L255,0 L19,0 L19,22 Q72,27 98.5,54.5 Q125,82 125,159 L125,497 Q125,537 125,554.5 Q125,572 121.5,593 Q118,614 114,619.5 Q110,625 98.5,632 Q87,639 74,639.5 Q61,640 37,640 L19,640 L19,662 L220,662"/> 
            <glyph glyph-name="N" unicode="&#x4E;" horiz-adv-x="737" d=" M613,-15 L145,608 L145,134 Q145,76 167.5,50 Q190,24 261,22 L261,0 L14,0 L14,22 Q53,25 76,33 Q99,41 108,57.5 Q117,74 119,86.5 Q121,99 121,125 Q121,131 121,134 L121,497 Q121,534 120.5,554.5 Q120,575 115.5,593.5 Q111,612 106,619.5 Q101,627 88.5,632.5 Q76,638 62,639 Q48,640 23,640 L23,662 L218,662 L610,141 L610,540 Q610,565 607,580 Q604,595 593.5,610 Q583,625 559,632.5 Q535,640 497,640 L497,662 L737,662 L737,640 Q670,634 652,610.5 Q634,587 634,533 L634,-15"/> 
            <glyph glyph-name="O" unicode="&#x4F;" horiz-adv-x="772" d=" M51,336 Q51,444 103.5,522.5 Q156,601 235.5,637.5 Q315,674 408,674 Q478,674 541.5,653.5 Q605,633 657.5,592.5 Q710,552 741,485 Q772,418 772,332 Q772,179 673.5,83.5 Q575,-12 411,-12 Q255,-12 153,81.5 Q51,175 51,336 M163,332 Q163,12 415,12 Q477,12 523.5,35 Q570,58 595.5,91.5 Q621,125 636,171 Q651,217 655.5,254 Q660,291 660,331 Q660,368 656.5,402 Q653,436 638,484 Q623,532 598,566 Q573,600 524.5,625 Q476,650 411,650 Q352,650 306.5,630 Q261,610 234.5,578.5 Q208,547 191.5,503.5 Q175,460 169,419 Q163,378 163,332"/> 
            <glyph glyph-name="P" unicode="&#x50;" horiz-adv-x="555" d=" M230,643 L230,336 L277,336 Q301,336 316.5,337 Q332,338 360.5,346 Q389,354 406.5,368.5 Q424,383 438,413 Q452,443 452,486 Q452,531 438.5,563 Q425,595 408,610.5 Q391,626 362.5,634.5 Q334,643 317.5,644 Q301,645 275,645 Q252,645 230,643 M266,669 Q294,669 313.5,668.5 Q333,668 366,664.5 Q399,661 421.5,654.5 Q444,648 471.5,634.5 Q499,621 515.5,602.5 Q532,584 543.5,555 Q555,526 555,490 Q555,443 535,404.5 Q515,366 487,348 Q432,312 302,312 L230,312 L230,172 Q230,70 242,46 Q254,22 314,22 L336,22 L336,0 L33,0 L33,22 L50,22 Q110,22 122,46 Q134,70 134,172 L134,497 Q134,538 134,557.5 Q134,577 129,597 Q124,617 120.5,622.5 Q117,628 102,634 Q87,640 75,640 Q63,640 33,640 L33,662 Q148,669 266,669"/> 
            <glyph glyph-name="Q" unicode="&#x51;" horiz-adv-x="967" d=" M540,7 L393,-73 Q402,-72 421,-72 Q532,-72 642,-111 L699,-131 Q783,-159 842,-159 Q930,-159 947,-92 L967,-92 Q957,-166 908,-204.5 Q859,-243 788,-243 Q735,-243 693.5,-226 Q652,-209 591,-170 Q472,-95 397,-95 Q365,-95 345.5,-104.5 Q326,-114 305,-132 Q276,-157 264,-157 Q247,-157 247,-141 Q247,-132 251.5,-127.5 Q256,-123 271,-115 Q276,-112 278,-111 L469,-8 Q464,-9 447,-11 Q442,-11 430.5,-11.5 Q419,-12 412,-12 Q252,-12 151.5,83 Q51,178 51,334 Q51,443 103.5,522 Q156,601 235,637.5 Q314,674 407,674 Q477,674 540.5,653.5 Q604,633 656.5,592.5 Q709,552 740.5,484.5 Q772,417 772,332 Q772,302 767.5,271 Q763,240 748,199 Q733,158 709,123.5 Q685,89 641,57 Q597,25 540,7 M163,332 Q163,12 414,12 Q476,12 523,35 Q570,58 595,91.5 Q620,125 635.5,171 Q651,217 655.5,254 Q660,291 660,331 Q660,360 657,388.5 Q654,417 646,456 Q638,495 620.5,527 Q603,559 577,588 Q551,617 508,633.5 Q465,650 410,650 Q351,650 305.5,630 Q260,610 233.5,578.5 Q207,547 190.5,503.5 Q174,460 168.5,419 Q163,378 163,332"/> 
            <glyph glyph-name="R" unicode="&#x52;" horiz-adv-x="727" d=" M227,645 L227,343 L282,343 Q372,343 413.5,379.5 Q455,416 455,493 Q455,581 409,614 Q363,647 268,647 Q253,647 227,645 M275,671 Q294,671 305,671 Q316,671 350,668 Q384,665 407,659 Q430,653 462,640.5 Q494,628 513.5,610.5 Q533,593 547.5,564.5 Q562,536 562,500 Q562,430 508.5,385.5 Q455,341 364,333 Q384,332 415,300.5 Q446,269 467,241 L551,131 Q634,22 727,22 L727,0 L549,0 Q506,33 461,95 L357,238 Q329,277 308,295 Q287,313 275.5,316 Q264,319 241,319 L227,319 L227,172 Q227,70 238.5,46 Q250,22 310,22 L342,22 L342,0 L25,0 L25,22 L46,22 Q107,22 119,46 Q131,70 131,172 L131,497 Q131,527 131,545 Q131,563 128,580.5 Q125,598 124.5,606.5 Q124,615 115.5,623 Q107,631 104,633.5 Q101,636 85,638 Q69,640 61.5,640 Q54,640 30,640 L30,662 Q158,671 275,671"/> 
            <glyph glyph-name="S" unicode="&#x53;" horiz-adv-x="496" d=" M58,7 L58,220 L82,220 Q123,12 279,12 Q344,12 385,50 Q426,88 426,141 Q426,155 423,167.5 Q420,180 416,190.5 Q412,201 402.5,211.5 Q393,222 387,229 Q381,236 368,244.5 Q355,253 348.5,257.5 Q342,262 326,269.5 Q310,277 305,279.5 Q300,282 283,289.5 Q266,297 263,298 Q230,313 212,321.5 Q194,330 166.5,345.5 Q139,361 124,375.5 Q109,390 93,410 Q77,430 70,455 Q63,480 63,510 Q63,578 111,626 Q159,674 238,674 Q278,674 311.5,660.5 Q345,647 359.5,635 Q374,623 391,604 Q412,629 417,662 L438,662 L438,489 L417,489 Q396,572 347,611 Q298,650 241,650 Q188,650 157.5,620.5 Q127,591 127,549 Q127,521 139.5,498 Q152,475 179,456.5 Q206,438 227.5,427 Q249,416 286,400 Q332,380 358,367.5 Q384,355 414.5,335 Q445,315 460,294.5 Q475,274 485.5,245 Q496,216 496,179 Q496,99 443.5,43.5 Q391,-12 288,-12 Q178,-12 106,71 Q90,47 82,7"/> 
            <glyph glyph-name="T" unicode="&#x54;" horiz-adv-x="674" d=" M47,503 L25,503 L28,662 L670,662 L674,503 L653,503 Q647,537 640,561 Q633,585 621.5,599.5 Q610,614 600.5,622.5 Q591,631 572,635 Q553,639 541,639.5 Q529,640 503,640 L397,640 L397,172 Q397,70 409,46 Q421,22 481,22 L514,22 L514,0 L183,0 L183,22 L217,22 Q278,22 289.5,46 Q301,70 301,172 L301,640 L163,640 Q106,640 86,611.5 Q66,583 47,503"/> 
            <glyph glyph-name="U" unicode="&#x55;" horiz-adv-x="750" d=" M528,662 L750,662 L750,640 Q722,638 703,630 Q684,622 674,612.5 Q664,603 659,582 Q654,561 653.5,546.5 Q653,532 653,500 L653,280 Q653,204 649,169.5 Q645,135 627,102 Q599,51 537,19.5 Q475,-12 385,-12 Q294,-12 238.5,17.5 Q183,47 157,85 Q134,119 129,157.5 Q124,196 124,292 L124,495 Q124,598 112,619 Q100,640 35,640 L20,640 L20,662 L322,662 L322,640 Q292,640 279.5,640 Q267,640 252,634 Q237,628 233.5,622.5 Q230,617 225,597 Q220,577 220,557.5 Q220,538 220,497 L220,289 Q220,230 221,204 Q222,178 227.5,148.5 Q233,119 245,99 Q264,66 306,43.5 Q348,21 408,21 Q464,21 517.5,43 Q571,65 601,111 Q614,132 620.5,159 Q627,186 628,209 Q629,232 629,284 L629,509 Q629,540 628,553.5 Q627,567 622.5,586.5 Q618,606 607.5,614.5 Q597,623 577.5,630.5 Q558,638 528,640"/> 
            <glyph glyph-name="V" unicode="&#x56;" horiz-adv-x="725" d=" M390,-16 L359,-16 L108,565 Q96,592 87,605.5 Q78,619 57,629.5 Q36,640 3,640 L3,662 L288,662 L288,640 Q241,640 219.5,633.5 Q198,627 198,602 Q198,590 221,536 L411,96 L564,462 Q603,555 603,581 Q603,640 523,640 L523,662 L725,662 L725,640 Q691,640 667.5,614.5 Q644,589 625,544"/> 
            <glyph glyph-name="W" unicode="&#x57;" horiz-adv-x="946" d=" M691,-16 L669,-16 L470,529 L292,-16 L268,-16 L94,546 Q76,605 56.5,622.5 Q37,640 1,640 L1,662 L249,662 L249,640 Q210,640 194.5,627 Q179,614 179,599 Q179,584 192,543 L318,128 L489,662 L518,662 L713,128 L819,500 Q840,585 826.5,612.5 Q813,640 765,640 L765,662 L946,662 L946,640 Q882,635 846,513"/> 
            <glyph glyph-name="X" unicode="&#x58;" horiz-adv-x="768" d=" M415,367 L586,159 Q621,116 647,89 Q673,62 687.5,48 Q702,34 719.5,28.5 Q737,23 742,22.5 Q747,22 768,22 L768,0 L439,0 L439,22 Q460,22 468.5,22.5 Q477,23 495,26 Q513,29 520.5,38 Q528,47 528,61 Q528,76 517.5,92.5 Q507,109 473,150 L354,295 L236,151 Q191,96 191,73 Q191,25 267,22 L267,0 L11,0 L11,22 Q74,27 112.5,57 Q151,87 228,180 L339,313 L141,551 Q96,605 72.5,622.5 Q49,640 11,640 L11,662 L294,662 L294,640 Q265,640 249.5,634.5 Q234,629 231.5,624 Q229,619 229,610 Q229,591 276,534 L398,385 L527,547 L535,558 Q543,568 546.5,573 Q550,578 554.5,587 Q559,596 559,603 Q559,640 473,640 L473,662 L721,662 L721,640 Q669,640 627,612 Q585,584 519,499"/> 
            <glyph glyph-name="Y" unicode="&#x59;" horiz-adv-x="677" d=" M377,290 L518,528 Q539,561 539,585 Q539,640 461,640 L461,662 L677,662 L677,640 Q652,636 633,627 Q614,618 596,598 Q578,578 567,561 Q556,544 535,509 L387,260 L387,172 Q387,171 387,168 Q387,66 399.5,44 Q412,22 479,22 L479,0 L197,0 L197,22 Q212,22 222.5,22 Q233,22 243,25 Q253,28 259,28.5 Q265,29 271,36 Q277,43 280,46 Q283,49 285.5,61.5 Q288,74 289,79.5 Q290,85 290.5,104.5 Q291,124 291,134.5 Q291,145 291,172 L291,254 L117,539 Q76,606 58,623 Q40,640 0,640 L0,662 L268,662 L268,640 Q193,640 193,606 Q193,592 218,551"/> 
            <glyph glyph-name="Z" unicode="&#x5A;" horiz-adv-x="588" d=" M30,0 L30,17 L458,640 L252,640 Q248,640 240,640 Q203,640 187,638 Q171,636 149,624 Q127,612 111,585 Q95,558 77,510 L57,510 L78,662 L570,662 L570,640 L148,22 L349,22 Q394,22 417.5,24 Q441,26 465.5,33.5 Q490,41 505,57.5 Q520,74 535,100.5 Q550,127 566,171 L588,171 L566,0"/> 
            <glyph glyph-name="[" unicode="&#x5B;" horiz-adv-x="363" d=" M363,-233 L131,-233 L131,662 L363,662 L363,640 L250,640 Q214,640 203.5,627.5 Q193,615 193,575 L193,-146 Q193,-188 204.5,-199.5 Q216,-211 250,-211 L363,-211"/> 
            <glyph glyph-name="\" unicode="&#x5C;" horiz-adv-x="460" d=" M119,674 L460,-16 L401,-16 L60,674"/> 
            <glyph glyph-name="]" unicode="&#x5D;" horiz-adv-x="213" d=" M-19,-233 L-19,-211 L94,-211 Q128,-211 139.5,-199.5 Q151,-188 151,-146 L151,575 Q151,615 140.5,627.5 Q130,640 94,640 L-19,640 L-19,662 L213,662 L213,-233"/> 
            <glyph glyph-name="^" unicode="&#x5E;" horiz-adv-x="453" d=" M244,662 L453,312 L397,312 L234,585 L72,312 L16,312 L225,662"/> 
            <glyph glyph-name="_" unicode="&#x5F;" horiz-adv-x="506" d=" M506,-125 L-7,-125 L-7,-75 L506,-75"/> 
            <glyph glyph-name="`" unicode="&#x60;" horiz-adv-x="241" d=" M222,474 L126,553 Q92,582 92,599 Q92,611 101.5,619.5 Q111,628 123,628 Q140,628 152.5,615.5 Q165,603 185,570 L241,474"/> 
            <glyph glyph-name="a" unicode="&#x61;" horiz-adv-x="459" d=" M441,73 L459,73 Q457,37 436.5,13.5 Q416,-10 377,-10 Q354,-10 338.5,-3.5 Q323,3 315,16.5 Q307,30 304.5,38 Q302,46 299,60 Q201,-10 138,-10 Q100,-10 69.5,12.5 Q39,35 39,75 Q39,119 81,157 Q123,195 223,236 L299,267 L299,287 Q299,340 281.5,367 Q264,394 208,394 Q135,394 126,351 Q124,338 122.5,332.5 Q121,327 116.5,316.5 Q112,306 104,301 Q96,296 84,296 Q72,296 63,303.5 Q54,311 54,324 Q54,353 95,384.5 Q136,416 217,416 Q260,416 291,405.5 Q322,395 336.5,381.5 Q351,368 359,345.5 Q367,323 368,310 Q369,297 369,276 L369,114 Q369,87 369.5,75 Q370,63 373,49 Q376,35 382.5,30.5 Q389,26 400,26 Q433,26 441,73 M299,86 L299,244 L246,222 Q120,171 120,94 Q120,66 135,45.5 Q150,25 178,25 Q225,25 299,86"/> 
            <glyph glyph-name="b" unicode="&#x62;" horiz-adv-x="485" d=" M96,-16 L77,-16 L77,519 Q77,592 68,610.5 Q59,629 13,629 L13,651 Q60,651 140,672 L147,672 L147,355 Q216,416 288,416 Q365,416 425,361 Q485,306 485,203 Q485,111 429.5,47.5 Q374,-16 281,-16 Q193,-16 147,58 Q117,28 96,-16 M147,326 L147,138 Q147,93 180.5,50.5 Q214,8 264,8 Q334,8 369,61.5 Q404,115 404,208 Q404,294 371,342.5 Q338,391 276,391 Q212,391 147,326"/> 
            <glyph glyph-name="c" unicode="&#x63;" horiz-adv-x="404" d=" M382,98 L404,98 Q370,-16 238,-16 Q151,-16 93,43.5 Q35,103 35,196 Q35,290 96,353 Q157,416 247,416 Q308,416 347,393 Q386,370 386,338 Q386,323 377.5,313.5 Q369,304 355,304 Q337,304 328.5,314.5 Q320,325 315,347 Q309,371 295,381.5 Q281,392 248,392 Q116,392 116,213 Q116,178 121.5,147.5 Q127,117 140.5,83.5 Q154,50 184.5,30 Q215,10 259,10 Q356,10 382,98"/> 
            <glyph glyph-name="d" unicode="&#x64;" horiz-adv-x="512" d=" M376,357 L376,514 Q376,598 367,613.5 Q358,629 306,629 L306,651 Q360,651 439,672 L446,672 L446,134 Q446,51 454.5,35 Q463,19 512,19 L512,-3 Q433,-6 386,-16 Q380,8 380,56 Q305,-16 226,-16 Q152,-16 94,43.5 Q36,103 36,198 Q36,295 93,355.5 Q150,416 231,416 Q311,416 376,357 M376,83 L376,329 Q306,386 245,386 Q209,386 183,369 Q157,352 145,330.5 Q133,309 126,278.5 Q119,248 118,233 Q117,218 117,202 Q117,146 130.5,106 Q144,66 165.5,47.5 Q187,29 207,21 Q227,13 248,13 Q322,13 376,83"/> 
            <glyph glyph-name="e" unicode="&#x65;" horiz-adv-x="399" d=" M399,264 L120,264 Q118,236 118,217 Q118,10 249,10 Q338,10 376,90 L399,90 Q397,82 388.5,67 Q380,52 362.5,32 Q345,12 311.5,-2 Q278,-16 236,-16 Q161,-16 99,40 Q37,96 37,197 Q37,291 92.5,353.5 Q148,416 232,416 Q306,416 351.5,370.5 Q397,325 399,264 M122,284 L313,284 Q315,296 315,304 Q315,350 289,372 Q263,394 228,394 Q139,394 122,284"/> 
            <glyph glyph-name="f" unicode="&#x66;" horiz-adv-x="388" d=" M242,400 L242,378 L159,378 L159,94 Q159,48 170,35 Q181,22 218,22 L239,22 L239,0 L23,0 L23,22 Q68,22 78.5,35 Q89,48 89,98 L89,378 L15,378 L15,400 L89,400 L89,475 Q89,557 131.5,614.5 Q174,672 261,672 Q321,672 354.5,647.5 Q388,623 388,599 Q388,585 378,575.5 Q368,566 355,566 Q329,566 308,606 Q283,650 246,650 Q159,650 159,513 L159,400"/> 
            <glyph glyph-name="g" unicode="&#x67;" horiz-adv-x="476" d=" M343,365 Q385,412 427,412 Q451,412 463.5,399 Q476,386 476,371 Q476,358 468,348.5 Q460,339 447,339 Q430,339 419,359 Q407,378 397,378 Q379,378 355,352 Q381,312 381,267 Q381,206 336,161 Q294,119 197,115 Q94,111 94,73 Q94,52 121.5,45.5 Q149,39 230,35 Q256,34 271,32.5 Q286,31 314,26 Q342,21 359.5,12 Q377,3 395.5,-11.5 Q414,-26 423.5,-49.5 Q433,-73 433,-103 Q433,-164 382.5,-205 Q332,-246 230,-246 Q136,-246 82,-211 Q28,-176 28,-121 Q28,-96 42.5,-75 Q57,-54 88,-54 Q96,-54 103,-57 Q72,-91 72,-127 Q72,-178 120,-202 Q168,-226 233,-226 Q308,-226 346,-196.5 Q384,-167 384,-124 Q384,-100 373.5,-82.5 Q363,-65 349.5,-56 Q336,-47 310,-41.5 Q284,-36 267.5,-34.5 Q251,-33 221,-32 Q185,-31 160.5,-28 Q136,-25 109,-17 Q82,-9 68,7 Q54,23 54,48 Q54,113 143,128 Q50,182 50,270 Q50,331 97.5,373.5 Q145,416 213,416 Q294,416 343,365 M123,259 Q123,239 126.5,220.5 Q130,202 138.5,181.5 Q147,161 166.5,149 Q186,137 214,137 Q236,137 253.5,145 Q271,153 280,168.5 Q289,184 295,196.5 Q301,209 302.5,228.5 Q304,248 304.5,252.5 Q305,257 305,267 Q305,392 213,392 Q123,392 123,259"/> 
            <glyph glyph-name="h" unicode="&#x68;" horiz-adv-x="510" d=" M442,278 L442,137 Q442,53 451,37.5 Q460,22 510,22 L510,0 L303,0 L303,22 Q354,22 363,37.5 Q372,53 372,137 L372,266 Q372,334 351.5,360 Q331,386 285,386 Q232,386 163,298 L163,137 Q163,55 171.5,38.5 Q180,22 226,22 L226,0 L23,0 L23,22 Q75,22 84,37.5 Q93,53 93,137 L93,536 Q93,562 92.5,573 Q92,584 89,598 Q86,612 79,617 Q72,622 59.5,625.5 Q47,629 27,629 L27,651 Q100,651 156,672 L163,672 L163,333 Q241,416 308,416 Q442,416 442,278"/> 
            <glyph glyph-name="i" unicode="&#x69;" horiz-adv-x="243" d=" M173,416 L173,137 Q173,60 177,47 Q187,22 228,22 L243,22 L243,0 L27,0 L27,22 L44,22 Q80,22 91.5,35 Q103,48 103,98 L103,258 Q103,303 102,322.5 Q101,342 90.5,354 Q80,366 69,367 Q58,368 27,368 L27,390 Q78,392 163,416 M77,599 Q77,641 92,656.5 Q107,672 128,672 Q149,672 163.5,656.5 Q178,641 178,620 Q178,599 163.5,583.5 Q149,568 128,568 Q107,568 77,599"/> 
            <glyph glyph-name="j" unicode="&#x6A;" horiz-adv-x="178" d=" M173,416 L173,-14 Q173,-60 171,-85.5 Q169,-111 157,-146.5 Q145,-182 120,-205 Q76,-246 1,-246 Q-41,-246 -72.5,-230 Q-104,-214 -104,-185 Q-104,-170 -95,-161.5 Q-86,-153 -74,-153 Q-63,-153 -55,-159.5 Q-47,-166 -44,-172 Q-41,-178 -35,-191 Q-20,-224 15,-224 Q34,-224 57.5,-212.5 Q81,-201 92,-172 Q103,-144 103,-50 L103,259 Q103,303 102,322.5 Q101,342 91,354 Q81,366 70,367 Q59,368 29,368 L29,390 Q92,393 163,416 M77,599 Q77,641 92,656.5 Q107,672 128,672 Q149,672 163.5,656.5 Q178,641 178,620 Q178,599 163.5,583.5 Q149,568 128,568 Q107,568 77,599"/> 
            <glyph glyph-name="k" unicode="&#x6B;" horiz-adv-x="463" d=" M264,400 L425,400 L425,378 Q409,378 389.5,369 Q370,360 358.5,351.5 Q347,343 327.5,327 Q308,311 305,309 L232,251 L377,81 Q406,47 423,35 Q440,23 463,22 L463,0 L264,0 L264,22 Q281,21 297.5,26 Q314,31 314,44 Q314,53 281,91 L178,210 L157,195 L157,137 Q157,56 165,39 Q173,22 216,22 L216,0 L13,0 L13,22 L28,22 Q71,22 79,40 Q87,58 87,137 L87,538 Q87,595 77,612 Q67,629 23,629 L23,651 Q92,651 150,672 L157,672 L157,221 L200,251 Q302,321 302,355 Q302,365 295,370.5 Q288,376 282.5,376.5 Q277,377 264,378"/> 
            <glyph glyph-name="l" unicode="&#x6C;" horiz-adv-x="226" d=" M155,672 L155,137 Q155,52 164,37 Q173,22 226,22 L226,0 L12,0 L12,22 L25,22 Q68,22 76.5,39.5 Q85,57 85,137 L85,533 Q85,594 75,611.5 Q65,629 18,629 L18,651 Q92,653 148,672"/> 
            <glyph glyph-name="m" unicode="&#x6D;" horiz-adv-x="783" d=" M367,256 Q367,258 367,270 Q367,282 367,286 Q367,290 366.5,302 Q366,314 364.5,319.5 Q363,325 360,335 Q357,345 353,350.5 Q349,356 343,363 Q337,370 329,373.5 Q321,377 310,379.5 Q299,382 286,382 Q214,382 157,296 L157,137 Q157,54 165.5,38 Q174,22 223,22 L223,0 L21,0 L21,22 Q70,22 78.5,38 Q87,54 87,137 L87,256 Q87,339 78.5,355 Q70,371 21,371 L21,393 Q66,398 131,416 L144,416 Q154,386 157,333 Q227,416 312,416 Q372,416 400,389 Q428,362 433,329 Q508,416 592,416 Q717,416 717,286 L717,137 Q717,55 726,38.5 Q735,22 783,22 L783,0 L578,0 L578,22 Q629,22 638,37.5 Q647,53 647,137 L647,262 Q647,280 646.5,289.5 Q646,299 644,316 Q642,333 637,342.5 Q632,352 623.5,362.5 Q615,373 600.5,377.5 Q586,382 566,382 Q494,382 437,296 L437,137 Q437,54 445.5,38 Q454,22 503,22 L503,0 L301,0 L301,22 Q349,22 358,38.5 Q367,55 367,137"/> 
            <glyph glyph-name="n" unicode="&#x6E;" horiz-adv-x="508" d=" M137,416 L150,416 Q160,386 163,333 Q239,416 317,416 Q381,416 411.5,378.5 Q442,341 442,285 L442,137 Q442,54 450.5,38 Q459,22 508,22 L508,0 L303,0 L303,22 Q354,22 363,38 Q372,54 372,137 L372,266 Q372,386 291,386 Q281,386 270.5,383.5 Q260,381 252.5,378.5 Q245,376 234,368.5 Q223,361 218.5,358 Q214,355 203,343.5 Q192,332 189.5,330 Q187,328 175.5,314.5 Q164,301 163,300 L163,137 Q163,54 171.5,38 Q180,22 229,22 L229,0 L27,0 L27,22 Q76,22 84.5,38 Q93,54 93,137 L93,256 Q93,339 84.5,355 Q76,371 27,371 L27,393 Q111,405 137,416"/> 
            <glyph glyph-name="o" unicode="&#x6F;" horiz-adv-x="464" d=" M37,201 Q37,293 98.5,354.5 Q160,416 250,416 Q340,416 402,355 Q464,294 464,200 Q464,99 400.5,41.5 Q337,-16 250,-16 Q166,-16 101.5,40.5 Q37,97 37,201 M118,198 Q118,169 120,146.5 Q122,124 130,96.5 Q138,69 151.5,51 Q165,33 190.5,20.5 Q216,8 250,8 Q284,8 309.5,20 Q335,32 348.5,50 Q362,68 370,94.5 Q378,121 380.5,144.5 Q383,168 383,197 Q383,288 353.5,340 Q324,392 250,392 Q177,392 147.5,340.5 Q118,289 118,198"/> 
            <glyph glyph-name="p" unicode="&#x70;" horiz-adv-x="485" d=" M127,416 L140,416 Q150,384 148,350 Q212,416 292,416 Q374,416 429.5,358 Q485,300 485,206 Q485,113 430.5,48.5 Q376,-16 283,-16 Q239,-16 209.5,-1 Q180,14 148,43 L148,-109 Q148,-192 156.5,-208 Q165,-224 214,-224 L214,-246 L5,-246 L5,-224 L19,-224 Q58,-224 68,-207.5 Q78,-191 78,-131 L78,293 Q78,340 68,354.5 Q58,369 19,369 L5,369 L5,392 Q35,395 127,416 M148,319 L148,75 Q201,10 266,10 Q280,10 294,13 Q308,16 329,28 Q350,40 365.5,60 Q381,80 392.5,118.5 Q404,157 404,209 Q404,255 392.5,289.5 Q381,324 365.5,342 Q350,360 329.5,370.5 Q309,381 295.5,383.5 Q282,386 270,386 Q205,386 148,319"/> 
            <glyph glyph-name="q" unicode="&#x71;" horiz-adv-x="514" d=" M428,416 L444,416 L444,-109 Q444,-194 453,-209 Q462,-224 514,-224 L514,-246 L299,-246 L299,-224 L315,-224 Q356,-224 365,-209.5 Q374,-195 374,-145 L374,34 Q303,-16 230,-16 Q148,-16 92,40 Q36,96 36,193 Q36,298 99.5,357 Q163,416 236,416 Q264,416 291,407 Q318,398 332,390 Q346,382 374,364 Q402,382 428,416 M374,57 L374,334 Q316,386 252,386 Q220,386 195.5,374.5 Q171,363 157,342 Q143,321 134,301 Q125,281 122,254.5 Q119,228 118,216 Q117,204 117,188 Q117,175 118,164 Q119,153 122,129 Q125,105 133.5,87 Q142,69 155.5,50 Q169,31 192.5,20.5 Q216,10 247,10 Q314,10 374,57"/> 
            <glyph glyph-name="r" unicode="&#x72;" horiz-adv-x="357" d=" M164,231 L164,137 Q164,57 172,39.5 Q180,22 223,22 L237,22 L237,0 L25,0 L25,22 Q76,22 85,37.5 Q94,53 94,137 L94,250 Q94,334 85,349.5 Q76,365 25,365 L25,387 Q71,393 138,414 L145,416 Q159,371 159,311 Q180,362 217.5,389 Q255,416 287,416 Q319,416 338,396 Q357,376 357,355 Q357,341 347.5,331 Q338,321 324,321 Q301,321 289,351 Q275,381 261,381 Q233,381 198.5,340 Q164,299 164,231"/> 
            <glyph glyph-name="s" unicode="&#x73;" horiz-adv-x="300" d=" M41,-12 L41,119 L60,119 Q69,76 99.5,41 Q130,6 178,6 Q220,6 236,30 Q252,54 252,77 Q252,96 245.5,110 Q239,124 222.5,136.5 Q206,149 193.5,156 Q181,163 155,176 Q135,186 124.5,192 Q114,198 95.5,210.5 Q77,223 67.5,235 Q58,247 50,265.5 Q42,284 42,305 Q42,346 71,381 Q100,416 149,416 Q200,416 236,374 Q239,378 255,409 L273,409 L273,285 L255,285 Q247,323 220.5,358.5 Q194,394 151,394 Q121,394 103.5,375.5 Q86,357 86,333 Q86,317 93.5,303.5 Q101,290 117,278.5 Q133,267 145,261 Q157,255 180,244 Q207,232 222.5,223 Q238,214 259,197.5 Q280,181 290,157 Q300,133 300,102 Q300,51 266,17.5 Q232,-16 179,-16 Q155,-16 135,-8.5 Q115,-1 106,6.5 Q97,14 81,29 Q65,12 60,-12"/> 
            <glyph glyph-name="t" unicode="&#x74;" horiz-adv-x="290" d=" M275,378 L154,378 L154,136 Q154,108 155,93 Q156,78 161,57.5 Q166,37 179.5,27.5 Q193,18 214,18 Q247,18 275,58 L290,49 Q279,27 262.5,12 Q246,-3 228,-8 Q210,-13 201.5,-14.5 Q193,-16 186,-16 Q158,-16 134,-2.5 Q110,11 99,33 Q89,51 86.5,73 Q84,95 84,151 L84,378 L26,378 L26,400 Q65,402 96.5,431.5 Q128,461 138,525 L154,525 L154,400 L275,400"/> 
            <glyph glyph-name="u" unicode="&#x75;" horiz-adv-x="496" d=" M435,400 L435,138 Q435,56 443,39 Q451,22 496,22 L496,0 Q422,0 389,-16 L382,-16 Q365,15 365,80 Q343,41 302.5,12.5 Q262,-16 212,-16 Q88,-16 88,118 L88,263 Q88,346 79.5,362 Q71,378 22,378 L22,400 L158,400 L158,123 Q158,101 159.5,88 Q161,75 167.5,56 Q174,37 191,27.5 Q208,18 235,18 Q245,18 259,21 Q273,24 292,34 Q311,44 327,59 Q343,74 354,100.5 Q365,127 365,161 L365,263 Q365,347 356,362.5 Q347,378 295,378 L295,400"/> 
            <glyph glyph-name="v" unicode="&#x76;" horiz-adv-x="460" d=" M241,-16 L213,-16 L71,304 Q51,349 38,363 Q25,377 -2,378 L-2,400 L178,400 L178,378 Q165,378 158.5,377.5 Q152,377 143.5,375 Q135,373 131,368 Q127,363 127,354 Q127,345 138,320 L254,59 L351,276 Q374,329 374,343 Q374,375 325,378 L325,400 L460,400 L460,378 Q440,377 424,362 Q408,347 399.5,330 Q391,313 371,270"/> 
            <glyph glyph-name="w" unicode="&#x77;" horiz-adv-x="677" d=" M480,-16 L458,-16 L339,302 L217,-16 L196,-16 L64,326 Q50,361 40,369 Q27,378 1,378 L1,400 L184,400 L184,378 Q167,378 158,377 Q149,376 140,370 Q131,364 131,352 Q131,347 149,299 L231,81 L355,400 L374,400 L494,81 L582,308 Q596,343 596,351 Q596,376 547,378 L547,400 L677,400 L677,378 Q666,378 657.5,375.5 Q649,373 642.5,368.5 Q636,364 632,360.5 Q628,357 623.5,349 Q619,341 617.5,337.5 Q616,334 612.5,324 Q609,314 608,312"/> 
            <glyph glyph-name="x" unicode="&#x78;" horiz-adv-x="471" d=" M266,225 L376,86 Q426,22 471,22 L471,0 L271,0 L271,22 Q320,22 320,41 Q320,46 304,67 L219,173 L150,93 Q119,57 119,47 Q119,22 173,22 L173,0 L8,0 L8,22 Q62,24 120,91 L205,191 L117,303 Q80,350 58.5,364 Q37,378 14,378 L14,400 L202,400 L202,378 Q162,378 162,359 Q162,352 191,316 L252,241 L323,324 Q337,340 337,354 Q337,363 322.5,370.5 Q308,378 283,378 L283,400 L442,400 L442,378 Q399,376 348,320"/> 
            <glyph glyph-name="y" unicode="&#x79;" horiz-adv-x="461" d=" M262,75 L361,313 Q375,345 375,352 Q375,378 321,378 L321,400 L461,400 L461,378 Q426,376 411.5,358.5 Q397,341 376,290 L198,-140 Q176,-193 156,-219.5 Q136,-246 109,-246 Q96,-246 87,-238.5 Q78,-231 78,-217 Q78,-184 129,-161 Q157,-149 167.5,-139.5 Q178,-130 188,-105 L226,-10 L76,312 Q57,353 44,365 Q31,377 -2,378 L-2,400 L182,400 L182,378 Q168,377 163,376.5 Q158,376 149,374 Q140,372 136.5,368 Q133,364 133,358 Q133,352 152,309"/> 
            <glyph glyph-name="z" unicode="&#x7A;" horiz-adv-x="393" d=" M33,0 L33,15 L298,378 L153,378 Q129,378 117.5,374.5 Q106,371 91.5,351.5 Q77,332 63,289 L45,289 L51,400 L386,400 L386,382 L122,22 L231,22 Q266,22 281,23.5 Q296,25 315,35 Q334,45 346.5,66.5 Q359,88 374,127 L393,127 L381,0"/> 
            <glyph glyph-name="{" unicode="&#x7B;" horiz-adv-x="378" d=" M105,200 L105,219 Q159,229 187.5,258.5 Q216,288 216,323 Q216,336 205,395 Q193,449 193,476 Q193,541 242,599.5 Q291,658 378,669 L378,650 Q325,640 294.5,608.5 Q264,577 264,532 Q264,512 274,454 Q284,396 284,375 Q284,357 278.5,338 Q273,319 259.5,295 Q246,271 216.5,248.5 Q187,226 145,211 Q189,193 219.5,169 Q250,145 262.5,120.5 Q275,96 279.5,78.5 Q284,61 284,45 Q284,29 275,-32 Q265,-84 265,-111 Q265,-204 378,-232 L378,-249 Q294,-238 244,-181.5 Q194,-125 194,-58 Q194,-34 205.5,21 Q217,76 217,94 Q217,101 216.5,107.5 Q216,114 210,129.5 Q204,145 193,157 Q182,169 159.5,181.5 Q137,194 105,200"/> 
            <glyph glyph-name="|" unicode="&#x7C;" horiz-adv-x="275" d=" M221,674 L275,674 L275,-236 L221,-236"/> 
            <glyph glyph-name="}" unicode="&#x7D;" horiz-adv-x="375" d=" M375,220 L375,201 Q321,191 292.5,161.5 Q264,132 264,97 Q264,81 276,25 Q287,-34 287,-56 Q287,-121 238,-179.5 Q189,-238 102,-249 L102,-230 Q155,-220 185.5,-188.5 Q216,-157 216,-112 Q216,-92 206,-34 Q196,24 196,45 Q196,63 201.5,82 Q207,101 220.5,125 Q234,149 263.5,171.5 Q293,194 335,209 Q291,227 260.5,251 Q230,275 217.5,299.5 Q205,324 200.5,341.5 Q196,359 196,375 Q196,398 206,452 Q215,513 215,531 Q215,624 102,652 L102,669 Q186,658 236,601.5 Q286,545 286,478 Q286,454 274.5,399.5 Q263,345 263,326 Q263,319 263.5,312.5 Q264,306 270,290.5 Q276,275 287,263 Q298,251 320.5,238.5 Q343,226 375,220"/> 
            <glyph glyph-name="~" unicode="&#x7E;" horiz-adv-x="595" d=" M572,392 L595,392 Q594,326 558.5,289 Q523,252 473,252 Q446,252 416,261.5 Q386,271 291,311 Q215,342 185,342 Q113,342 95,253 L72,253 Q74,292 86.5,321 Q99,350 113.5,363 Q128,376 147,383.5 Q166,391 174,392 Q182,393 189,393 Q236,393 375,334 Q449,302 482,302 Q514,302 540.5,322 Q567,342 572,392"/> 
            <glyph glyph-name="¡" unicode="&#xA1;" horiz-adv-x="177" d=" M114,241 L135,241 L162,-96 Q167,-149 167,-165 Q167,-196 153.5,-211 Q140,-226 124,-226 Q108,-226 94.5,-210.5 Q81,-195 81,-164 Q81,-154 86,-94 M177,393 Q177,372 162,356.5 Q147,341 125,341 Q103,341 87.5,356 Q72,371 72,393 Q72,415 87.5,430.5 Q103,446 125,446 Q146,446 161.5,430.5 Q177,415 177,393"/> 
            <glyph glyph-name="¢" unicode="&#xA2;" horiz-adv-x="404" d=" M150,3 L84,-187 L58,-187 L128,14 Q83,42 59,90 Q35,138 35,195 Q35,296 102.5,360.5 Q170,425 269,415 L337,607 L363,607 L293,410 Q340,402 363,382.5 Q386,363 386,338 Q386,326 378.5,315 Q371,304 355,304 Q340,304 331,311.5 Q322,319 319.5,326.5 Q317,334 314,348 Q310,369 304,376.5 Q298,384 286,388 L165,46 Q203,10 260,10 Q356,10 382,98 L404,98 Q394,65 375.5,41.5 Q357,18 333,6 Q309,-6 286.5,-11 Q264,-16 239,-16 Q190,-16 150,3 M146,70 L261,392 Q116,397 116,213 Q116,122 146,70"/> 
            <glyph glyph-name="£" unicode="&#xA3;" horiz-adv-x="697" d=" M195,100 L232,231 Q352,656 569,656 Q618,656 657.5,636 Q697,616 697,584 Q697,571 689,563 Q681,555 670,555 Q652,555 630,590 Q604,631 550,631 Q433,631 376,433 L360,377 Q319,234 263,100 L445,100 L437,77 L253,77 Q234,34 173,-78 Q199,-65 229,-65 Q298,-65 354,-121 L375,-142 Q428,-195 475,-195 Q516,-195 545.5,-168 Q575,-141 575,-107 Q575,-83 557,-54 Q548,-40 548,-27 Q548,-16 557.5,-8 Q567,0 577,0 Q599,0 609,-21 Q619,-42 619,-64 Q619,-133 560,-187 Q501,-241 435,-241 Q390,-241 356,-219.5 Q322,-198 285,-159 Q226,-96 187,-96 Q181,-96 160,-103 Q155,-112 142.5,-135.5 Q130,-159 121.5,-174 Q113,-189 100.5,-206.5 Q88,-224 76,-233 Q64,-242 53,-242 Q44,-242 35,-236 Q26,-230 26,-217 Q26,-187 61.5,-151 Q97,-115 137,-90 Q168,5 188,77 L31,77 L39,100"/> 
            <glyph glyph-name="¤" unicode="&#xA4;" horiz-adv-x="469" d=" M469,174 L439,143 L373,208 Q319,167 255,167 Q192,167 138,208 L71,143 L41,174 L108,238 Q68,296 68,354 Q68,417 108,470 L41,535 L71,566 L138,501 Q196,542 255,542 Q316,542 372,501 L439,566 L469,535 L403,470 Q444,414 444,354 Q444,297 403,238 M401,355 Q401,417 356.5,458 Q312,499 256,499 Q195,499 153,456.5 Q111,414 111,355 Q111,296 153.5,252.5 Q196,209 255,209 Q315,209 358,252 Q401,295 401,355"/> 
            <glyph glyph-name="¥" unicode="&#xA5;" horiz-adv-x="549" d=" M303,289 L490,289 L490,261 L291,261 L287,245 L287,172 L490,172 L490,144 L287,144 L287,97 Q287,50 305.5,36 Q324,22 371,22 L371,0 L117,0 L117,22 Q141,22 153.5,24 Q166,26 179,33.5 Q192,41 197.5,58 Q203,75 203,104 L203,144 L-2,144 L-2,172 L203,172 L203,245 L194,261 L-2,261 L-2,289 L179,289 L54,525 Q13,603 -4.5,620.5 Q-22,638 -60,640 L-60,662 L182,662 L182,640 Q144,640 129,632 Q114,624 114,606 Q114,592 137,551 L279,290 L398,513 Q425,563 425,585 Q425,640 355,640 L355,662 L549,662 L549,640 Q519,635 496,616 Q473,597 460,576.5 Q447,556 421,508"/> 
            <glyph glyph-name="¦" unicode="&#xA6;" horiz-adv-x="275" d=" M221,127 L275,127 L275,-236 L221,-236 M221,674 L275,674 L275,311 L221,311"/> 
            <glyph glyph-name="§" unicode="&#xA7;" horiz-adv-x="360" d=" M187,354 Q130,400 98,443.5 Q66,487 66,538 Q66,593 105.5,627.5 Q145,662 201,662 Q254,662 291.5,634.5 Q329,607 329,570 Q329,556 321.5,546.5 Q314,537 300,537 Q268,537 265,581 Q261,641 195,641 Q161,641 135,621.5 Q109,602 109,565 Q109,506 215,416 Q253,384 273,364.5 Q293,345 316.5,317 Q340,289 350,260.5 Q360,232 360,200 Q360,146 326,105.5 Q292,65 235,65 Q228,65 216,67 Q270,24 300,-16.5 Q330,-57 330,-109 Q330,-166 295,-203 Q260,-240 194,-240 Q135,-240 103,-211 Q71,-182 71,-150 Q71,-130 80.5,-121.5 Q90,-113 101,-113 Q128,-113 133,-157 Q134,-167 136.5,-175 Q139,-183 145,-194.5 Q151,-206 165,-212.5 Q179,-219 200,-219 Q217,-219 234.5,-214 Q252,-209 269.5,-190 Q287,-171 287,-141 Q287,-112 269.5,-83 Q252,-54 231.5,-35 Q211,-16 169,18 Q140,41 124,56 Q108,71 83.5,99 Q59,127 47,158.5 Q35,190 35,225 Q35,281 71.5,319 Q108,357 162,357 Q169,357 187,354 M75,259 Q75,210 122,154 Q153,117 177,101.5 Q201,86 233,86 Q273,86 298,109.5 Q323,133 323,166 Q323,218 267,277 Q210,336 166,336 Q124,336 99.5,313.5 Q75,291 75,259"/> 
            <glyph glyph-name="¨" unicode="&#xA8;" horiz-adv-x="295" d=" M295,530 Q295,498 283.5,486.5 Q272,475 256,475 Q240,475 228.5,486.5 Q217,498 217,514 Q217,530 228.5,541.5 Q240,553 256,553 Q272,553 295,530 M117,530 Q117,498 105.5,486.5 Q94,475 78,475 Q62,475 50.5,486.5 Q39,498 39,514 Q39,530 50.5,541.5 Q62,553 78,553 Q94,553 117,530"/> 
            <glyph glyph-name="©" unicode="&#xA9;" horiz-adv-x="726" d=" M551,551 L561,414 L542,414 Q537,428 534,437 Q531,446 519,465.5 Q507,485 492.5,497 Q478,509 452,519 Q426,529 394,529 Q323,529 280,479 Q237,429 237,339 Q237,327 237.5,316 Q238,305 241.5,283 Q245,261 250.5,244 Q256,227 268,206 Q280,185 296.5,171 Q313,157 339.5,147.5 Q366,138 399,138 Q494,138 551,217 L569,207 Q502,108 382,108 Q283,108 219.5,172.5 Q156,237 156,325 Q156,417 223.5,484 Q291,551 400,551 Q436,551 490,533 Q500,529 508,529 Q523,529 532,551 M237,674 Q523,674 624.5,573 Q726,472 726,328 Q726,185 624.5,83.5 Q523,-18 380,-18 Q237,-18 135.5,83.5 Q34,185 34,328 Q34,472 237,674 M510,644 Q250,644 157,552 Q64,460 64,328 Q64,197 156.5,104.5 Q249,12 380,12 Q511,12 603.5,104.5 Q696,197 696,328 Q696,460 510,644"/> 
            <glyph glyph-name="ª" unicode="&#xAA;" horiz-adv-x="297" d=" M285,469 L297,469 Q295,446 281.5,432.5 Q268,419 243,419 Q224,419 212.5,427 Q201,435 198,442 Q195,449 193,461 Q130,419 88,419 Q63,419 43.5,432.5 Q24,446 24,470 Q24,497 52,519.5 Q80,542 144,567 L193,585 Q193,606 192,616 Q191,626 185.5,638.5 Q180,651 167.5,656.5 Q155,662 133,662 Q85,662 81,636 Q75,608 62,604 Q58,603 53,603 Q34,603 34,620 Q34,630 43,641.5 Q52,653 77.5,663.5 Q103,674 139,674 Q174,674 196.5,666 Q219,658 227,642.5 Q235,627 237,617 Q239,607 239,590 L239,493 Q239,477 239.5,469.5 Q240,462 241.5,454 Q243,446 247.5,443 Q252,440 259,440 Q279,440 285,469 M193,476 L193,572 L158,558 Q77,528 77,481 Q77,463 86.5,451.5 Q96,440 114,440 Q144,440 193,476"/> 
            <glyph glyph-name="«" unicode="&#xAB;" horiz-adv-x="445" d=" M29,213 L210,400 L238,400 L124,213 L238,22 L210,22 M238,213 L419,400 L445,400 L332,213 L445,22 L419,22"/> 
            <glyph glyph-name="¬" unicode="&#xAC;" horiz-adv-x="597" d=" M69,460 L597,460 L597,180 L545,180 L545,408 L69,408"/> 
            <glyph glyph-name="­" unicode="&#xAD;" horiz-adv-x="276" d=" M37,262 L276,262 L276,196 L37,196"/> 
            <glyph glyph-name="®" unicode="&#xAE;" horiz-adv-x="726" d=" M188,541 L377,541 Q444,541 483,510.5 Q522,480 522,432 Q522,351 413,323 L516,178 Q530,159 541.5,149 Q553,139 559,137.5 Q565,136 575,135 L575,118 L485,118 L341,316 L304,316 L304,201 Q304,176 304.5,169 Q305,162 310,151 Q315,140 327,137.5 Q339,135 362,135 L362,118 L183,118 L183,135 Q202,135 212.5,138 Q223,141 227.5,151 Q232,161 233,170.5 Q234,180 234,202 L234,458 Q234,487 232,498 Q230,509 220.5,516.5 Q211,524 188,524 M304,512 L304,337 L319,337 Q367,337 405,357 Q443,377 443,426 Q443,465 416,492 Q389,519 345,519 Q325,519 304,512 M237,674 Q523,674 624.5,573 Q726,472 726,328 Q726,185 624.5,83.5 Q523,-18 380,-18 Q237,-18 135.5,83.5 Q34,185 34,328 Q34,472 237,674 M510,644 Q250,644 157,552 Q64,460 64,328 Q64,197 156.5,104.5 Q249,12 380,12 Q511,12 603.5,104.5 Q696,197 696,328 Q696,460 510,644"/> 
            <glyph glyph-name="¯" unicode="&#xAF;" horiz-adv-x="316" d=" M17,519 L316,519 L316,474 L17,474"/> 
            <glyph glyph-name="°" unicode="&#xB0;" horiz-adv-x="357" d=" M135,656 Q265,656 311,610 Q357,564 357,499 Q357,434 311,388 Q265,342 200,342 Q135,342 89,388 Q43,434 43,499 Q43,564 135,656 M245,607 Q155,607 123.5,575.5 Q92,544 92,499 Q92,454 123.5,422.5 Q155,391 200,391 Q245,391 276.5,422.5 Q308,454 308,499 Q308,544 245,607"/> 
            <glyph glyph-name="±" unicode="&#xB1;" horiz-adv-x="597" d=" M69,52 L597,52 L597,0 L69,0 M69,427 L307,427 L307,665 L359,665 L359,427 L597,427 L597,375 L359,375 L359,137 L307,137 L307,375 L69,375"/> 
            <glyph glyph-name="²" unicode="&#xB2;" horiz-adv-x="269" d=" M31,315 L31,334 Q72,362 125,414 Q209,495 209,557 Q209,636 136,636 Q106,636 90,619 Q74,602 74,582 Q74,558 95,546 Q106,539 106,536 Q106,531 94.5,522 Q83,513 74,513 Q60,513 47.5,530.5 Q35,548 35,570 Q35,607 70,631.5 Q105,656 150,656 Q193,656 231,632.5 Q269,609 269,559 Q269,530 254.5,508 Q240,486 205,451 Q165,411 84,351 L265,351 L247,289 L222,289 L223,296 Q225,307 223,311 Q221,315 211,315"/> 
            <glyph glyph-name="³" unicode="&#xB3;" horiz-adv-x="270" d=" M257,592 Q257,547 171,504 Q216,504 243,480 Q270,456 270,414 Q270,364 230.5,335.5 Q191,307 137,307 Q94,307 65.5,323.5 Q37,340 37,357 Q37,377 61,377 Q81,377 89,355 Q101,324 135,324 Q210,324 210,415 Q210,454 194.5,471 Q179,488 160,488 Q141,488 126,473 Q116,463 107,463 Q93,463 93,475 Q93,482 127,501 Q164,522 180.5,540 Q197,558 197,587 Q197,637 147,637 Q125,637 106.5,624.5 Q88,612 88,590 Q88,574 97,565 Q107,555 107,554 Q107,549 95.5,544.5 Q84,540 78,540 Q65,540 56,553 Q47,566 47,580 Q47,607 75,631.5 Q103,656 156,656 Q201,656 229,637 Q257,618 257,592"/> 
            <glyph glyph-name="´" unicode="&#xB4;" horiz-adv-x="241" d=" M111,474 L92,474 L148,570 Q168,603 180.5,615.5 Q193,628 210,628 Q222,628 231.5,619.5 Q241,611 241,599 Q241,582 207,553"/> 
            <glyph glyph-name="µ" unicode="&#xB5;" horiz-adv-x="500" d=" M62,400 L132,400 L132,187 Q132,154 133,136.5 Q134,119 138,98.5 Q142,78 150.5,68.5 Q159,59 174,52.5 Q189,46 212,46 Q241,46 274.5,63.5 Q308,81 336,112 L336,400 L407,400 L407,128 Q407,102 407.5,90 Q408,78 411,63.5 Q414,49 421.5,44 Q429,39 441,39 Q472,39 480,99 L500,99 Q489,-14 403,-14 Q366,-14 352.5,10 Q339,34 336,79 Q255,-14 173,-14 Q126,-14 96,30 Q95,-51 113,-142 Q120,-180 120,-192 Q120,-214 107,-230 Q94,-246 74,-246 Q53,-246 42,-229 Q31,-212 31,-192 Q31,-175 38,-145 Q62,-44 62,34"/> 
            <glyph glyph-name="¶" unicode="&#xB6;" horiz-adv-x="474" d=" M474,662 L474,643 L453,643 Q412,643 403.5,623.5 Q395,604 395,540 L395,-236 L359,-236 L359,634 L264,634 L264,-236 L227,-236 L227,279 Q113,279 48.5,326.5 Q-16,374 -16,472 Q-16,556 42.5,609 Q101,662 212,662"/> 
            <glyph glyph-name="·" unicode="&#xB7;" horiz-adv-x="188" d=" M83,331 Q83,352 98,367.5 Q113,383 135,383 Q157,383 172.5,368 Q188,353 188,331 Q188,309 172.5,293.5 Q157,278 135,278 Q114,278 98.5,293.5 Q83,309 83,331"/> 
            <glyph glyph-name="¸" unicode="&#xB8;" horiz-adv-x="256" d=" M198,7 L228,7 L193,-43 Q256,-64 256,-114 Q256,-171 181,-199 Q149,-212 77,-212 L77,-191 Q126,-186 139.5,-183 Q153,-180 168,-169 Q191,-153 191,-128 Q191,-88 126,-85"/> 
            <glyph glyph-name="¹" unicode="&#xB9;" horiz-adv-x="226" d=" M180,656 L180,388 Q180,349 184,341 Q188,333 209,333 L226,333 L226,315 L85,315 L85,333 L100,333 Q121,333 125,341 Q129,349 129,388 L129,565 Q129,604 125,612.5 Q121,621 100,621 L82,621 L82,638 Q126,638 158,656"/> 
            <glyph glyph-name="º" unicode="&#xBA;" horiz-adv-x="300" d=" M23,545 Q23,600 63,637 Q103,674 162,674 Q220,674 260,637.5 Q300,601 300,545 Q300,483 257.5,449 Q215,415 162,415 Q109,415 66,448.5 Q23,482 23,545 M76,544 Q76,522 78.5,505 Q81,488 89,469 Q97,450 115.5,439.5 Q134,429 162,429 Q247,429 247,543 Q247,599 228.5,630 Q210,661 162,661 Q76,661 76,544"/> 
            <glyph glyph-name="»" unicode="&#xBB;" horiz-adv-x="440" d=" M440,209 L259,22 L231,22 L345,209 L231,400 L259,400 M231,209 L50,22 L24,22 L137,209 L24,400 L50,400"/> 
            <glyph glyph-name="¼" unicode="&#xBC;" horiz-adv-x="792" d=" M657,112 L515,112 L515,131 L682,341 L710,341 L710,134 L748,134 Q753,134 755,135.5 Q757,137 759,139.5 Q761,142 764,149 L768,157 L792,157 L784,112 L710,112 L710,49 Q710,30 715,24 Q720,18 734,18 L750,18 L750,0 L612,0 L612,18 L634,18 Q649,18 653,26 Q657,34 657,51 M282,0 L252,0 L592,640 L622,640 M546,134 L657,134 L657,275 M265,656 L265,388 Q265,349 269,341 Q273,333 294,333 L311,333 L311,315 L170,315 L170,333 L185,333 Q206,333 210,341 Q214,349 214,388 L214,565 Q214,604 210,612.5 Q206,621 185,621 L167,621 L167,638 Q212,638 243,656"/> 
            <glyph glyph-name="½" unicode="&#xBD;" horiz-adv-x="770" d=" M282,0 L252,0 L592,640 L622,640 M532,0 L532,19 Q573,47 626,99 Q710,180 710,242 Q710,321 637,321 Q607,321 591,304 Q575,287 575,267 Q575,243 596,231 Q607,224 607,221 Q607,216 595.5,207 Q584,198 575,198 Q561,198 548.5,215.5 Q536,233 536,255 Q536,292 571,316.5 Q606,341 651,341 Q694,341 732,317.5 Q770,294 770,244 Q770,215 755.5,193 Q741,171 706,136 Q666,96 585,36 L766,36 L748,-26 L723,-26 L724,-19 Q726,-8 724,-4 Q722,0 712,0 M265,656 L265,388 Q265,349 269,341 Q273,333 294,333 L311,333 L311,315 L170,315 L170,333 L185,333 Q206,333 210,341 Q214,349 214,388 L214,565 Q214,604 210,612.5 Q206,621 185,621 L167,621 L167,638 Q212,638 243,656"/> 
            <glyph glyph-name="¾" unicode="&#xBE;" horiz-adv-x="792" d=" M657,112 L515,112 L515,131 L682,341 L710,341 L710,134 L748,134 Q753,134 755,135.5 Q757,137 759,139.5 Q761,142 764,149 L768,157 L792,157 L784,112 L710,112 L710,49 Q710,30 715,24 Q720,18 734,18 L750,18 L750,0 L612,0 L612,18 L634,18 Q649,18 653,26 Q657,34 657,51 M282,0 L252,0 L592,640 L622,640 M546,134 L657,134 L657,275 M322,592 Q322,547 236,504 Q281,504 308,480 Q335,456 335,414 Q335,364 295.5,335.5 Q256,307 202,307 Q159,307 130.5,323.5 Q102,340 102,357 Q102,377 126,377 Q146,377 154,355 Q166,324 200,324 Q275,324 275,415 Q275,454 259.5,471 Q244,488 225,488 Q206,488 191,473 Q181,463 172,463 Q158,463 158,475 Q158,482 192,501 Q229,522 245.5,540 Q262,558 262,587 Q262,637 212,637 Q190,637 171.5,624.5 Q153,612 153,590 Q153,574 162,565 Q172,555 172,554 Q172,549 161,544.5 Q150,540 143,540 Q130,540 121,553 Q112,566 112,580 Q112,607 140,631.5 Q168,656 221,656 Q266,656 294,637 Q322,618 322,592"/> 
            <glyph glyph-name="¿" unicode="&#xBF;" horiz-adv-x="349" d=" M254,246 L276,246 L276,40 L254,40 Q231,77 201,77 Q125,77 125,-70 Q125,-124 148.5,-164 Q172,-204 225,-204 Q247,-204 262,-195.5 Q277,-187 282.5,-179 Q288,-171 295,-156 Q306,-131 326,-131 Q349,-131 349,-156 Q349,-184 310,-204.5 Q271,-225 220,-225 Q172,-225 136,-205 Q100,-185 82.5,-155 Q65,-125 57.5,-97 Q50,-69 50,-45 Q50,19 88.5,62.5 Q127,106 182,106 Q227,106 254,79 M209,372 Q209,416 224,431 Q239,446 261,446 Q283,446 298.5,431 Q314,416 314,394 Q314,372 298.5,357 Q283,342 261,342 Q240,342 209,372"/> 
            <glyph glyph-name="À" unicode="&#xC0;" horiz-adv-x="681" d=" M429,244 L177,244 L138,147 Q122,104 122,84 Q122,58 140.5,40 Q159,22 194,22 L194,0 L-3,0 L-3,22 Q59,24 92,101 L330,672 L349,672 L592,97 Q601,75 610,61 Q619,47 637.5,34.5 Q656,22 681,22 L681,0 L420,0 L420,22 Q444,22 453.5,22.5 Q463,23 477.5,26 Q492,29 497,37 Q502,45 502,58 Q502,69 489,99 M187,266 L420,266 L303,548 M394,722 L298,801 Q264,830 264,847 Q264,859 273.5,867.5 Q283,876 295,876 Q312,876 324.5,863.5 Q337,851 357,818 L413,722"/> 
            <glyph glyph-name="Á" unicode="&#xC1;" horiz-adv-x="681" d=" M429,244 L177,244 L138,147 Q122,104 122,84 Q122,58 140.5,40 Q159,22 194,22 L194,0 L-3,0 L-3,22 Q59,24 92,101 L330,672 L349,672 L592,97 Q601,75 610,61 Q619,47 637.5,34.5 Q656,22 681,22 L681,0 L420,0 L420,22 Q444,22 453.5,22.5 Q463,23 477.5,26 Q492,29 497,37 Q502,45 502,58 Q502,69 489,99 M187,266 L420,266 L303,548 M283,722 L264,722 L320,818 Q340,851 352.5,863.5 Q365,876 382,876 Q394,876 403.5,867.5 Q413,859 413,847 Q413,830 379,801"/> 
            <glyph glyph-name="Â" unicode="&#xC2;" horiz-adv-x="681" d=" M429,244 L177,244 L138,147 Q122,104 122,84 Q122,58 140.5,40 Q159,22 194,22 L194,0 L-3,0 L-3,22 Q59,24 92,101 L330,672 L349,672 L592,97 Q601,75 610,61 Q619,47 637.5,34.5 Q656,22 681,22 L681,0 L420,0 L420,22 Q444,22 453.5,22.5 Q463,23 477.5,26 Q492,29 497,37 Q502,45 502,58 Q502,69 489,99 M187,266 L420,266 L303,548 M301,866 L377,866 L480,721 L458,721 L338,816 L218,721 L198,721"/> 
            <glyph glyph-name="Ã" unicode="&#xC3;" horiz-adv-x="681" d=" M429,244 L177,244 L138,147 Q122,104 122,84 Q122,58 140.5,40 Q159,22 194,22 L194,0 L-3,0 L-3,22 Q59,24 92,101 L330,672 L349,672 L592,97 Q601,75 610,61 Q619,47 637.5,34.5 Q656,22 681,22 L681,0 L420,0 L420,22 Q444,22 453.5,22.5 Q463,23 477.5,26 Q492,29 497,37 Q502,45 502,58 Q502,69 489,99 M187,266 L420,266 L303,548 M472,829 L489,829 Q489,810 484.5,789 Q480,768 460,745 Q440,722 406,722 Q392,722 377.5,726 Q363,730 354.5,734.5 Q346,739 334,745.5 Q322,752 319,754 Q314,756 300,764.5 Q286,773 274.5,777.5 Q263,782 252,782 Q215,782 204,722 L188,722 Q196,829 273,829 Q301,829 355,800 Q359,798 371,791 Q383,784 389.5,780.5 Q396,777 406.5,773.5 Q417,770 425,770 Q447,770 459,788 Q471,806 472,829"/> 
            <glyph glyph-name="Ä" unicode="&#xC4;" horiz-adv-x="681" d=" M429,244 L177,244 L138,147 Q122,104 122,84 Q122,58 140.5,40 Q159,22 194,22 L194,0 L-3,0 L-3,22 Q59,24 92,101 L330,672 L349,672 L592,97 Q601,75 610,61 Q619,47 637.5,34.5 Q656,22 681,22 L681,0 L420,0 L420,22 Q444,22 453.5,22.5 Q463,23 477.5,26 Q492,29 497,37 Q502,45 502,58 Q502,69 489,99 M187,266 L420,266 L303,548 M467,778 Q467,746 455.5,734.5 Q444,723 428,723 Q412,723 400.5,734.5 Q389,746 389,762 Q389,778 400.5,789.5 Q412,801 428,801 Q444,801 467,778 M289,778 Q289,746 277.5,734.5 Q266,723 250,723 Q234,723 222.5,734.5 Q211,746 211,762 Q211,778 222.5,789.5 Q234,801 250,801 Q266,801 289,778"/> 
            <glyph glyph-name="Å" unicode="&#xC5;" horiz-adv-x="681" d=" M429,244 L177,244 L138,147 Q122,104 122,84 Q122,58 140.5,40 Q159,22 194,22 L194,0 L-3,0 L-3,22 Q59,24 92,101 L330,672 L349,672 L592,97 Q601,75 610,61 Q619,47 637.5,34.5 Q656,22 681,22 L681,0 L420,0 L420,22 Q444,22 453.5,22.5 Q463,23 477.5,26 Q492,29 497,37 Q502,45 502,58 Q502,69 489,99 M187,266 L420,266 L303,548 M430,849 Q430,773 403,746 Q376,719 338,719 Q300,719 273,746 Q246,773 246,811 Q246,849 273,875.5 Q300,902 338,902 Q376,902 430,849 M337,875 Q311,875 293,856 Q275,837 275,811 Q275,784 293.5,765.5 Q312,747 339,747 Q365,747 383.5,765.5 Q402,784 402,810 Q402,838 383,856.5 Q364,875 337,875"/> 
            <glyph glyph-name="Æ" unicode="&#xC6;" horiz-adv-x="853" d=" M399,324 L241,324 L156,151 Q130,99 130,77 Q130,25 209,22 L209,0 L0,0 L0,22 Q70,31 137,165 L328,554 Q353,604 353,616 Q353,632 335.5,636 Q318,640 279,640 L264,640 L264,662 L781,662 L798,499 L775,499 Q766,540 752.5,568 Q739,596 726,610 Q713,624 692,631 Q671,638 657.5,639 Q644,640 619,640 L495,640 L495,346 L570,346 Q596,346 608,348 Q620,350 634,359 Q648,368 653,389.5 Q658,411 658,449 L681,449 L681,222 L658,222 Q658,286 642,305 Q626,324 572,324 L495,324 L495,169 Q495,141 495,128.5 Q495,116 496,97 Q497,78 499,71 Q501,64 503.5,53 Q506,42 512,39 Q518,36 524.5,30.5 Q531,25 542,24.5 Q553,24 564.5,23 Q576,22 594,22 L639,22 Q671,22 687,23.5 Q703,25 728.5,34 Q754,43 769.5,61 Q785,79 802,114 Q819,149 832,201 L853,201 L845,0 L300,0 L300,22 L315,22 Q375,22 387,46 Q399,70 399,172 M252,346 L399,346 L399,644 L397,644"/> 
            <glyph glyph-name="Ç" unicode="&#xC7;" horiz-adv-x="646" d=" M361,-12 Q224,-9 134.5,80.5 Q45,170 45,319 Q45,385 64.5,446.5 Q84,508 121.5,559.5 Q159,611 223.5,642.5 Q288,674 369,674 Q450,674 508.5,642 Q567,610 594,576 Q615,619 619,662 L641,662 L646,411 L626,411 Q616,481 589,530.5 Q562,580 526,604.5 Q490,629 455.5,639.5 Q421,650 385,650 Q323,650 276.5,621.5 Q230,593 205,544 Q180,495 168.5,440 Q157,385 157,323 Q157,169 225,92.5 Q293,16 390,16 Q448,16 493,38 Q538,60 564.5,96 Q591,132 606,170 Q621,208 626,248 L646,248 L646,17 L626,17 Q616,58 594,87 Q513,-7 384,-12 L379,-66 Q428,-65 456,-90 Q484,-115 484,-147 Q484,-189 447,-212.5 Q410,-236 358,-236 Q309,-236 271,-216 L279,-195 Q316,-212 345,-212 Q375,-212 395.5,-196 Q416,-180 416,-153 Q416,-127 397,-113 Q378,-99 348,-101"/> 
            <glyph glyph-name="È" unicode="&#xC8;" horiz-adv-x="594" d=" M571,206 L594,206 L580,0 L32,0 L32,22 L45,22 Q107,22 119,46 Q131,70 131,172 L131,497 Q131,598 119,619 Q107,640 45,640 L45,662 L519,662 L534,497 L511,497 Q499,549 484.5,578.5 Q470,608 443.5,621.5 Q417,635 393.5,637.5 Q370,640 319,640 L227,640 L227,361 L298,361 Q364,361 380.5,380 Q397,399 397,461 L420,461 L420,234 L397,234 Q397,264 393.5,283 Q390,302 384.5,314 Q379,326 365.5,331 Q352,336 338.5,337.5 Q325,339 299,339 L227,339 L227,182 Q227,140 227.5,117 Q228,94 232,73.5 Q236,53 241,45 Q246,37 259,30.5 Q272,24 285,23 Q298,22 324,22 L373,22 Q397,22 411.5,23 Q426,24 453.5,34 Q481,44 499.5,61.5 Q518,79 538,116 Q558,153 571,206 M368,722 L272,801 Q238,830 238,847 Q238,859 247.5,867.5 Q257,876 269,876 Q286,876 298.5,863.5 Q311,851 331,818 L387,722"/> 
            <glyph glyph-name="É" unicode="&#xC9;" horiz-adv-x="594" d=" M571,206 L594,206 L580,0 L32,0 L32,22 L45,22 Q107,22 119,46 Q131,70 131,172 L131,497 Q131,598 119,619 Q107,640 45,640 L45,662 L519,662 L534,497 L511,497 Q499,549 484.5,578.5 Q470,608 443.5,621.5 Q417,635 393.5,637.5 Q370,640 319,640 L227,640 L227,361 L298,361 Q364,361 380.5,380 Q397,399 397,461 L420,461 L420,234 L397,234 Q397,264 393.5,283 Q390,302 384.5,314 Q379,326 365.5,331 Q352,336 338.5,337.5 Q325,339 299,339 L227,339 L227,182 Q227,140 227.5,117 Q228,94 232,73.5 Q236,53 241,45 Q246,37 259,30.5 Q272,24 285,23 Q298,22 324,22 L373,22 Q397,22 411.5,23 Q426,24 453.5,34 Q481,44 499.5,61.5 Q518,79 538,116 Q558,153 571,206 M257,722 L238,722 L294,818 Q314,851 326.5,863.5 Q339,876 356,876 Q368,876 377.5,867.5 Q387,859 387,847 Q387,830 353,801"/> 
            <glyph glyph-name="Ê" unicode="&#xCA;" horiz-adv-x="594" d=" M571,206 L594,206 L580,0 L32,0 L32,22 L45,22 Q107,22 119,46 Q131,70 131,172 L131,497 Q131,598 119,619 Q107,640 45,640 L45,662 L519,662 L534,497 L511,497 Q499,549 484.5,578.5 Q470,608 443.5,621.5 Q417,635 393.5,637.5 Q370,640 319,640 L227,640 L227,361 L298,361 Q364,361 380.5,380 Q397,399 397,461 L420,461 L420,234 L397,234 Q397,264 393.5,283 Q390,302 384.5,314 Q379,326 365.5,331 Q352,336 338.5,337.5 Q325,339 299,339 L227,339 L227,182 Q227,140 227.5,117 Q228,94 232,73.5 Q236,53 241,45 Q246,37 259,30.5 Q272,24 285,23 Q298,22 324,22 L373,22 Q397,22 411.5,23 Q426,24 453.5,34 Q481,44 499.5,61.5 Q518,79 538,116 Q558,153 571,206 M275,866 L351,866 L454,721 L432,721 L312,816 L192,721 L172,721"/> 
            <glyph glyph-name="Ë" unicode="&#xCB;" horiz-adv-x="594" d=" M571,206 L594,206 L580,0 L32,0 L32,22 L45,22 Q107,22 119,46 Q131,70 131,172 L131,497 Q131,598 119,619 Q107,640 45,640 L45,662 L519,662 L534,497 L511,497 Q499,549 484.5,578.5 Q470,608 443.5,621.5 Q417,635 393.5,637.5 Q370,640 319,640 L227,640 L227,361 L298,361 Q364,361 380.5,380 Q397,399 397,461 L420,461 L420,234 L397,234 Q397,264 393.5,283 Q390,302 384.5,314 Q379,326 365.5,331 Q352,336 338.5,337.5 Q325,339 299,339 L227,339 L227,182 Q227,140 227.5,117 Q228,94 232,73.5 Q236,53 241,45 Q246,37 259,30.5 Q272,24 285,23 Q298,22 324,22 L373,22 Q397,22 411.5,23 Q426,24 453.5,34 Q481,44 499.5,61.5 Q518,79 538,116 Q558,153 571,206 M441,778 Q441,746 429.5,734.5 Q418,723 402,723 Q386,723 374.5,734.5 Q363,746 363,762 Q363,778 374.5,789.5 Q386,801 402,801 Q418,801 441,778 M263,778 Q263,746 251.5,734.5 Q240,723 224,723 Q208,723 196.5,734.5 Q185,746 185,762 Q185,778 196.5,789.5 Q208,801 224,801 Q240,801 263,778"/> 
            <glyph glyph-name="Ì" unicode="&#xCC;" horiz-adv-x="328" d=" M26,640 L26,662 L328,662 L328,640 L314,640 Q290,640 277,639.5 Q264,639 252.5,632.5 Q241,626 236.5,620 Q232,614 229,593.5 Q226,573 225.5,555 Q225,537 225,497 L225,172 Q225,70 237,46 Q249,22 309,22 L328,22 L328,0 L26,0 L26,22 L45,22 Q105,22 117,46 Q129,70 129,172 L129,497 Q129,536 128.5,554.5 Q128,573 125,593 Q122,613 117.5,619.5 Q113,626 101.5,632.5 Q90,639 77,639.5 Q64,640 40,640 M233,722 L137,801 Q103,830 103,847 Q103,859 112.5,867.5 Q122,876 134,876 Q151,876 163.5,863.5 Q176,851 196,818 L252,722"/> 
            <glyph glyph-name="Í" unicode="&#xCD;" horiz-adv-x="328" d=" M26,640 L26,662 L328,662 L328,640 L314,640 Q290,640 277,639.5 Q264,639 252.5,632.5 Q241,626 236.5,620 Q232,614 229,593.5 Q226,573 225.5,555 Q225,537 225,497 L225,172 Q225,70 237,46 Q249,22 309,22 L328,22 L328,0 L26,0 L26,22 L45,22 Q105,22 117,46 Q129,70 129,172 L129,497 Q129,536 128.5,554.5 Q128,573 125,593 Q122,613 117.5,619.5 Q113,626 101.5,632.5 Q90,639 77,639.5 Q64,640 40,640 M122,722 L103,722 L159,818 Q179,851 191.5,863.5 Q204,876 221,876 Q233,876 242.5,867.5 Q252,859 252,847 Q252,830 218,801"/> 
            <glyph glyph-name="Î" unicode="&#xCE;" horiz-adv-x="328" d=" M26,640 L26,662 L328,662 L328,640 L314,640 Q290,640 277,639.5 Q264,639 252.5,632.5 Q241,626 236.5,620 Q232,614 229,593.5 Q226,573 225.5,555 Q225,537 225,497 L225,172 Q225,70 237,46 Q249,22 309,22 L328,22 L328,0 L26,0 L26,22 L45,22 Q105,22 117,46 Q129,70 129,172 L129,497 Q129,536 128.5,554.5 Q128,573 125,593 Q122,613 117.5,619.5 Q113,626 101.5,632.5 Q90,639 77,639.5 Q64,640 40,640 M140,866 L216,866 L319,721 L297,721 L177,816 L57,721 L37,721"/> 
            <glyph glyph-name="Ï" unicode="&#xCF;" horiz-adv-x="328" d=" M26,640 L26,662 L328,662 L328,640 L314,640 Q290,640 277,639.5 Q264,639 252.5,632.5 Q241,626 236.5,620 Q232,614 229,593.5 Q226,573 225.5,555 Q225,537 225,497 L225,172 Q225,70 237,46 Q249,22 309,22 L328,22 L328,0 L26,0 L26,22 L45,22 Q105,22 117,46 Q129,70 129,172 L129,497 Q129,536 128.5,554.5 Q128,573 125,593 Q122,613 117.5,619.5 Q113,626 101.5,632.5 Q90,639 77,639.5 Q64,640 40,640 M306,778 Q306,746 295,734.5 Q284,723 267,723 Q250,723 239,734.5 Q228,746 228,762 Q228,778 239.5,789.5 Q251,801 267,801 Q283,801 306,778 M128,778 Q128,746 116.5,734.5 Q105,723 89,723 Q72,723 61,734.5 Q50,746 50,762 Q50,778 61.5,789.5 Q73,801 89,801 Q105,801 128,778"/> 
            <glyph glyph-name="Ð" unicode="&#xD0;" horiz-adv-x="709" d=" M132,341 L132,492 Q132,531 131.5,549.5 Q131,568 127.5,588 Q124,608 120,614 Q116,620 104,626.5 Q92,633 79.5,633.5 Q67,634 42,634 L23,634 L23,657 Q205,669 315,669 Q504,669 601,586 Q709,495 709,325 Q709,159 607,73 Q576,47 541,31 Q506,15 462,8.5 Q418,2 391.5,1 Q365,0 314,0 L20,0 L20,22 L47,22 Q108,22 120,46 Q132,70 132,172 L132,314 L20,314 L20,341 M228,314 L228,199 Q228,78 237,54 Q246,28 282,24 Q296,23 332,23 Q449,23 507,68 Q602,142 602,318 Q602,460 540,548 Q516,582 484.5,604 Q453,626 416,633.5 Q379,641 359,643 Q339,645 309,645 Q266,645 228,643 L228,341 L396,341 L396,314"/> 
            <glyph glyph-name="Ñ" unicode="&#xD1;" horiz-adv-x="737" d=" M613,-15 L145,608 L145,134 Q145,76 167.5,50 Q190,24 261,22 L261,0 L14,0 L14,22 Q53,25 76,33 Q99,41 108,57.5 Q117,74 119,86.5 Q121,99 121,125 Q121,131 121,134 L121,497 Q121,534 120.5,554.5 Q120,575 115.5,593.5 Q111,612 106,619.5 Q101,627 88.5,632.5 Q76,638 62,639 Q48,640 23,640 L23,662 L218,662 L610,141 L610,540 Q610,565 607,580 Q604,595 593.5,610 Q583,625 559,632.5 Q535,640 497,640 L497,662 L737,662 L737,640 Q670,634 652,610.5 Q634,587 634,533 L634,-15 M509,829 L526,829 Q526,810 521.5,789 Q517,768 497,745 Q477,722 443,722 Q429,722 414.5,726 Q400,730 391.5,734.5 Q383,739 371,745.5 Q359,752 356,754 Q351,756 337,764.5 Q323,773 311.5,777.5 Q300,782 289,782 Q252,782 241,722 L225,722 Q233,829 310,829 Q338,829 392,800 Q396,798 408,791 Q420,784 426.5,780.5 Q433,777 443.5,773.5 Q454,770 462,770 Q484,770 496,788 Q508,806 509,829"/> 
            <glyph glyph-name="Ò" unicode="&#xD2;" horiz-adv-x="772" d=" M51,336 Q51,444 103.5,522.5 Q156,601 235.5,637.5 Q315,674 408,674 Q478,674 541.5,653.5 Q605,633 657.5,592.5 Q710,552 741,485 Q772,418 772,332 Q772,179 673.5,83.5 Q575,-12 411,-12 Q255,-12 153,81.5 Q51,175 51,336 M163,332 Q163,12 415,12 Q477,12 523.5,35 Q570,58 595.5,91.5 Q621,125 636,171 Q651,217 655.5,254 Q660,291 660,331 Q660,368 656.5,402 Q653,436 638,484 Q623,532 598,566 Q573,600 524.5,625 Q476,650 411,650 Q352,650 306.5,630 Q261,610 234.5,578.5 Q208,547 191.5,503.5 Q175,460 169,419 Q163,378 163,332 M467,722 L371,801 Q337,830 337,847 Q337,859 346.5,867.5 Q356,876 368,876 Q385,876 397.5,863.5 Q410,851 430,818 L486,722"/> 
            <glyph glyph-name="Ó" unicode="&#xD3;" horiz-adv-x="772" d=" M51,336 Q51,444 103.5,522.5 Q156,601 235.5,637.5 Q315,674 408,674 Q478,674 541.5,653.5 Q605,633 657.5,592.5 Q710,552 741,485 Q772,418 772,332 Q772,179 673.5,83.5 Q575,-12 411,-12 Q255,-12 153,81.5 Q51,175 51,336 M163,332 Q163,12 415,12 Q477,12 523.5,35 Q570,58 595.5,91.5 Q621,125 636,171 Q651,217 655.5,254 Q660,291 660,331 Q660,368 656.5,402 Q653,436 638,484 Q623,532 598,566 Q573,600 524.5,625 Q476,650 411,650 Q352,650 306.5,630 Q261,610 234.5,578.5 Q208,547 191.5,503.5 Q175,460 169,419 Q163,378 163,332 M356,722 L337,722 L393,818 Q413,851 425.5,863.5 Q438,876 455,876 Q467,876 476.5,867.5 Q486,859 486,847 Q486,830 452,801"/> 
            <glyph glyph-name="Ô" unicode="&#xD4;" horiz-adv-x="772" d=" M51,336 Q51,444 103.5,522.5 Q156,601 235.5,637.5 Q315,674 408,674 Q478,674 541.5,653.5 Q605,633 657.5,592.5 Q710,552 741,485 Q772,418 772,332 Q772,179 673.5,83.5 Q575,-12 411,-12 Q255,-12 153,81.5 Q51,175 51,336 M163,332 Q163,12 415,12 Q477,12 523.5,35 Q570,58 595.5,91.5 Q621,125 636,171 Q651,217 655.5,254 Q660,291 660,331 Q660,368 656.5,402 Q653,436 638,484 Q623,532 598,566 Q573,600 524.5,625 Q476,650 411,650 Q352,650 306.5,630 Q261,610 234.5,578.5 Q208,547 191.5,503.5 Q175,460 169,419 Q163,378 163,332 M374,866 L450,866 L553,721 L531,721 L411,816 L291,721 L271,721"/> 
            <glyph glyph-name="Õ" unicode="&#xD5;" horiz-adv-x="772" d=" M51,336 Q51,444 103.5,522.5 Q156,601 235.5,637.5 Q315,674 408,674 Q478,674 541.5,653.5 Q605,633 657.5,592.5 Q710,552 741,485 Q772,418 772,332 Q772,179 673.5,83.5 Q575,-12 411,-12 Q255,-12 153,81.5 Q51,175 51,336 M163,332 Q163,12 415,12 Q477,12 523.5,35 Q570,58 595.5,91.5 Q621,125 636,171 Q651,217 655.5,254 Q660,291 660,331 Q660,368 656.5,402 Q653,436 638,484 Q623,532 598,566 Q573,600 524.5,625 Q476,650 411,650 Q352,650 306.5,630 Q261,610 234.5,578.5 Q208,547 191.5,503.5 Q175,460 169,419 Q163,378 163,332 M545,829 L562,829 Q562,810 557.5,789 Q553,768 533,745 Q513,722 479,722 Q465,722 450.5,726 Q436,730 427.5,734.5 Q419,739 407,745.5 Q395,752 392,754 Q387,756 373,764.5 Q359,773 347.5,777.5 Q336,782 325,782 Q288,782 277,722 L261,722 Q269,829 346,829 Q374,829 428,800 Q432,798 444,791 Q456,784 462.5,780.5 Q469,777 479.5,773.5 Q490,770 498,770 Q520,770 532,788 Q544,806 545,829"/> 
            <glyph glyph-name="Ö" unicode="&#xD6;" horiz-adv-x="772" d=" M51,336 Q51,444 103.5,522.5 Q156,601 235.5,637.5 Q315,674 408,674 Q478,674 541.5,653.5 Q605,633 657.5,592.5 Q710,552 741,485 Q772,418 772,332 Q772,179 673.5,83.5 Q575,-12 411,-12 Q255,-12 153,81.5 Q51,175 51,336 M163,332 Q163,12 415,12 Q477,12 523.5,35 Q570,58 595.5,91.5 Q621,125 636,171 Q651,217 655.5,254 Q660,291 660,331 Q660,368 656.5,402 Q653,436 638,484 Q623,532 598,566 Q573,600 524.5,625 Q476,650 411,650 Q352,650 306.5,630 Q261,610 234.5,578.5 Q208,547 191.5,503.5 Q175,460 169,419 Q163,378 163,332 M540,778 Q540,746 529,734.5 Q518,723 501,723 Q484,723 473,734.5 Q462,746 462,762 Q462,778 473.5,789.5 Q485,801 501,801 Q517,801 540,778 M362,778 Q362,746 350.5,734.5 Q339,723 323,723 Q306,723 295,734.5 Q284,746 284,762 Q284,778 295.5,789.5 Q307,801 323,801 Q339,801 362,778"/> 
            <glyph glyph-name="×" unicode="&#xD7;" horiz-adv-x="575" d=" M93,525 L130,563 L334,358 L538,563 L575,525 L371,321 L573,119 L536,82 L334,284 L131,82 L94,119 L297,321"/> 
            <glyph glyph-name="Ø" unicode="&#xD8;" horiz-adv-x="772" d=" M639,607 L696,673 L714,658 L658,593 Q703,555 737.5,490 Q772,425 772,333 Q772,178 673,83 Q574,-12 412,-12 Q284,-12 193,50 L138,-14 L121,0 L175,64 Q51,161 51,334 Q51,416 81.5,482.5 Q112,549 163,590 Q214,631 277,652.5 Q340,674 408,674 Q542,674 639,607 M213,109 L601,562 Q534,650 411,650 Q351,650 305.5,629.5 Q260,609 233.5,577.5 Q207,546 190.5,501.5 Q174,457 168.5,416.5 Q163,376 163,331 Q163,264 177.5,204 Q192,144 213,109 M614,541 L227,90 Q293,12 415,12 Q479,12 526.5,36.5 Q574,61 598.5,95 Q623,129 638,177 Q653,225 656.5,259.5 Q660,294 660,332 Q660,456 614,541"/> 
            <glyph glyph-name="Ù" unicode="&#xD9;" horiz-adv-x="750" d=" M528,662 L750,662 L750,640 Q722,638 703,630 Q684,622 674,612.5 Q664,603 659,582 Q654,561 653.5,546.5 Q653,532 653,500 L653,280 Q653,204 649,169.5 Q645,135 627,102 Q599,51 537,19.5 Q475,-12 385,-12 Q294,-12 238.5,17.5 Q183,47 157,85 Q134,119 129,157.5 Q124,196 124,292 L124,495 Q124,598 112,619 Q100,640 35,640 L20,640 L20,662 L322,662 L322,640 Q292,640 279.5,640 Q267,640 252,634 Q237,628 233.5,622.5 Q230,617 225,597 Q220,577 220,557.5 Q220,538 220,497 L220,289 Q220,230 221,204 Q222,178 227.5,148.5 Q233,119 245,99 Q264,66 306,43.5 Q348,21 408,21 Q464,21 517.5,43 Q571,65 601,111 Q614,132 620.5,159 Q627,186 628,209 Q629,232 629,284 L629,509 Q629,540 628,553.5 Q627,567 622.5,586.5 Q618,606 607.5,614.5 Q597,623 577.5,630.5 Q558,638 528,640 M461,722 L365,801 Q331,830 331,847 Q331,859 340.5,867.5 Q350,876 362,876 Q379,876 391.5,863.5 Q404,851 424,818 L480,722"/> 
            <glyph glyph-name="Ú" unicode="&#xDA;" horiz-adv-x="750" d=" M528,662 L750,662 L750,640 Q722,638 703,630 Q684,622 674,612.5 Q664,603 659,582 Q654,561 653.5,546.5 Q653,532 653,500 L653,280 Q653,204 649,169.5 Q645,135 627,102 Q599,51 537,19.5 Q475,-12 385,-12 Q294,-12 238.5,17.5 Q183,47 157,85 Q134,119 129,157.5 Q124,196 124,292 L124,495 Q124,598 112,619 Q100,640 35,640 L20,640 L20,662 L322,662 L322,640 Q292,640 279.5,640 Q267,640 252,634 Q237,628 233.5,622.5 Q230,617 225,597 Q220,577 220,557.5 Q220,538 220,497 L220,289 Q220,230 221,204 Q222,178 227.5,148.5 Q233,119 245,99 Q264,66 306,43.5 Q348,21 408,21 Q464,21 517.5,43 Q571,65 601,111 Q614,132 620.5,159 Q627,186 628,209 Q629,232 629,284 L629,509 Q629,540 628,553.5 Q627,567 622.5,586.5 Q618,606 607.5,614.5 Q597,623 577.5,630.5 Q558,638 528,640 M380,722 L361,722 L417,818 Q437,851 449.5,863.5 Q462,876 479,876 Q491,876 500.5,867.5 Q510,859 510,847 Q510,830 476,801"/> 
            <glyph glyph-name="Û" unicode="&#xDB;" horiz-adv-x="750" d=" M528,662 L750,662 L750,640 Q722,638 703,630 Q684,622 674,612.5 Q664,603 659,582 Q654,561 653.5,546.5 Q653,532 653,500 L653,280 Q653,204 649,169.5 Q645,135 627,102 Q599,51 537,19.5 Q475,-12 385,-12 Q294,-12 238.5,17.5 Q183,47 157,85 Q134,119 129,157.5 Q124,196 124,292 L124,495 Q124,598 112,619 Q100,640 35,640 L20,640 L20,662 L322,662 L322,640 Q292,640 279.5,640 Q267,640 252,634 Q237,628 233.5,622.5 Q230,617 225,597 Q220,577 220,557.5 Q220,538 220,497 L220,289 Q220,230 221,204 Q222,178 227.5,148.5 Q233,119 245,99 Q264,66 306,43.5 Q348,21 408,21 Q464,21 517.5,43 Q571,65 601,111 Q614,132 620.5,159 Q627,186 628,209 Q629,232 629,284 L629,509 Q629,540 628,553.5 Q627,567 622.5,586.5 Q618,606 607.5,614.5 Q597,623 577.5,630.5 Q558,638 528,640 M388,866 L464,866 L567,721 L545,721 L425,816 L305,721 L285,721"/> 
            <glyph glyph-name="Ü" unicode="&#xDC;" horiz-adv-x="750" d=" M528,662 L750,662 L750,640 Q722,638 703,630 Q684,622 674,612.5 Q664,603 659,582 Q654,561 653.5,546.5 Q653,532 653,500 L653,280 Q653,204 649,169.5 Q645,135 627,102 Q599,51 537,19.5 Q475,-12 385,-12 Q294,-12 238.5,17.5 Q183,47 157,85 Q134,119 129,157.5 Q124,196 124,292 L124,495 Q124,598 112,619 Q100,640 35,640 L20,640 L20,662 L322,662 L322,640 Q292,640 279.5,640 Q267,640 252,634 Q237,628 233.5,622.5 Q230,617 225,597 Q220,577 220,557.5 Q220,538 220,497 L220,289 Q220,230 221,204 Q222,178 227.5,148.5 Q233,119 245,99 Q264,66 306,43.5 Q348,21 408,21 Q464,21 517.5,43 Q571,65 601,111 Q614,132 620.5,159 Q627,186 628,209 Q629,232 629,284 L629,509 Q629,540 628,553.5 Q627,567 622.5,586.5 Q618,606 607.5,614.5 Q597,623 577.5,630.5 Q558,638 528,640 M554,778 Q554,746 543,734.5 Q532,723 515,723 Q498,723 487,734.5 Q476,746 476,762 Q476,778 487.5,789.5 Q499,801 515,801 Q531,801 554,778 M376,778 Q376,746 364.5,734.5 Q353,723 337,723 Q320,723 309,734.5 Q298,746 298,762 Q298,778 309.5,789.5 Q321,801 337,801 Q353,801 376,778"/> 
            <glyph glyph-name="Ý" unicode="&#xDD;" horiz-adv-x="677" d=" M377,290 L518,528 Q539,561 539,585 Q539,640 461,640 L461,662 L677,662 L677,640 Q652,636 633,627 Q614,618 596,598 Q578,578 567,561 Q556,544 535,509 L387,260 L387,172 Q387,171 387,168 Q387,66 399.5,44 Q412,22 479,22 L479,0 L197,0 L197,22 Q212,22 222.5,22 Q233,22 243,25 Q253,28 259,28.5 Q265,29 271,36 Q277,43 280,46 Q283,49 285.5,61.5 Q288,74 289,79.5 Q290,85 290.5,104.5 Q291,124 291,134.5 Q291,145 291,172 L291,254 L117,539 Q76,606 58,623 Q40,640 0,640 L0,662 L268,662 L268,640 Q193,640 193,606 Q193,592 218,551 M333,722 L314,722 L370,818 Q390,851 402.5,863.5 Q415,876 432,876 Q444,876 453.5,867.5 Q463,859 463,847 Q463,830 429,801"/> 
            <glyph glyph-name="Þ" unicode="&#xDE;" horiz-adv-x="555" d=" M336,662 L336,640 L314,640 Q255,640 242.5,617 Q230,594 230,509 L322,509 Q343,509 366,506.5 Q389,504 425,493.5 Q461,483 488,465.5 Q515,448 535,413 Q555,378 555,332 Q555,149 312,153 Q305,153 302,153 L230,153 Q230,120 230.5,106 Q231,92 233.5,72.5 Q236,53 241,47 Q246,41 255.5,33 Q265,25 279,23.5 Q293,22 314,22 L336,22 L336,0 L33,0 L33,22 L50,22 Q110,22 122,46 Q134,70 134,172 L134,497 Q134,538 134,557.5 Q134,577 129,597 Q124,617 120.5,622.5 Q117,628 102,634 Q87,640 75,640 Q63,640 33,640 L33,662 M230,485 L230,178 L277,178 Q301,178 316.5,179 Q332,180 360.5,188 Q389,196 406.5,210.5 Q424,225 438,255 Q452,285 452,328 Q452,373 438.5,405 Q425,437 408,452.5 Q391,468 362.5,476.5 Q334,485 317.5,486 Q301,487 275,487 Q252,487 230,485"/> 
            <glyph glyph-name="ß" unicode="&#xDF;" horiz-adv-x="486" d=" M155,471 L155,93 Q155,73 155.5,65.5 Q156,58 160,45 Q164,32 174,27 Q184,22 201,22 L215,22 L215,0 L15,0 L15,22 L36,22 Q51,22 60.5,26 Q70,30 75,35 Q80,40 82,53 Q84,66 84.5,74 Q85,82 85,101 L85,415 Q85,465 86,488.5 Q87,512 94.5,541 Q102,570 118,594 Q143,632 185,652 Q227,672 275,672 Q366,672 413,625 Q460,578 460,519 Q460,456 420,419.5 Q380,383 323,370 Q397,356 441.5,309 Q486,262 486,178 Q486,148 477.5,117.5 Q469,87 452,58.5 Q435,30 402.5,12.5 Q370,-5 328,-5 Q290,-5 273,10 Q256,25 256,39 Q256,49 263,56.5 Q270,64 280,64 Q299,64 318,41 Q337,19 354,19 Q383,19 394,51 Q405,83 405,144 Q405,258 377,307.5 Q349,357 264,357 Q234,357 234,367 Q234,378 247,378 Q268,378 280.5,379 Q293,380 314,386.5 Q335,393 347.5,406 Q360,419 369.5,445 Q379,471 379,508 Q379,651 270,651 Q237,651 214,639 Q191,627 179.5,612 Q168,597 162.5,568.5 Q157,540 156,522 Q155,504 155,471"/> 
            <glyph glyph-name="à" unicode="&#xE0;" horiz-adv-x="459" d=" M441,73 L459,73 Q457,37 436.5,13.5 Q416,-10 377,-10 Q354,-10 338.5,-3.5 Q323,3 315,16.5 Q307,30 304.5,38 Q302,46 299,60 Q201,-10 138,-10 Q100,-10 69.5,12.5 Q39,35 39,75 Q39,119 81,157 Q123,195 223,236 L299,267 L299,287 Q299,340 281.5,367 Q264,394 208,394 Q135,394 126,351 Q124,338 122.5,332.5 Q121,327 116.5,316.5 Q112,306 104,301 Q96,296 84,296 Q72,296 63,303.5 Q54,311 54,324 Q54,353 95,384.5 Q136,416 217,416 Q260,416 291,405.5 Q322,395 336.5,381.5 Q351,368 359,345.5 Q367,323 368,310 Q369,297 369,276 L369,114 Q369,87 369.5,75 Q370,63 373,49 Q376,35 382.5,30.5 Q389,26 400,26 Q433,26 441,73 M299,86 L299,244 L246,222 Q120,171 120,94 Q120,66 135,45.5 Q150,25 178,25 Q225,25 299,86 M275,472 L179,551 Q145,580 145,597 Q145,609 154.5,617.5 Q164,626 176,626 Q193,626 205.5,613.5 Q218,601 238,568 L294,472"/> 
            <glyph glyph-name="á" unicode="&#xE1;" horiz-adv-x="459" d=" M441,73 L459,73 Q457,37 436.5,13.5 Q416,-10 377,-10 Q354,-10 338.5,-3.5 Q323,3 315,16.5 Q307,30 304.5,38 Q302,46 299,60 Q201,-10 138,-10 Q100,-10 69.5,12.5 Q39,35 39,75 Q39,119 81,157 Q123,195 223,236 L299,267 L299,287 Q299,340 281.5,367 Q264,394 208,394 Q135,394 126,351 Q124,338 122.5,332.5 Q121,327 116.5,316.5 Q112,306 104,301 Q96,296 84,296 Q72,296 63,303.5 Q54,311 54,324 Q54,353 95,384.5 Q136,416 217,416 Q260,416 291,405.5 Q322,395 336.5,381.5 Q351,368 359,345.5 Q367,323 368,310 Q369,297 369,276 L369,114 Q369,87 369.5,75 Q370,63 373,49 Q376,35 382.5,30.5 Q389,26 400,26 Q433,26 441,73 M299,86 L299,244 L246,222 Q120,171 120,94 Q120,66 135,45.5 Q150,25 178,25 Q225,25 299,86 M179,472 L160,472 L216,568 Q236,601 248.5,613.5 Q261,626 278,626 Q290,626 299.5,617.5 Q309,609 309,597 Q309,580 275,551"/> 
            <glyph glyph-name="â" unicode="&#xE2;" horiz-adv-x="459" d=" M441,73 L459,73 Q457,37 436.5,13.5 Q416,-10 377,-10 Q354,-10 338.5,-3.5 Q323,3 315,16.5 Q307,30 304.5,38 Q302,46 299,60 Q201,-10 138,-10 Q100,-10 69.5,12.5 Q39,35 39,75 Q39,119 81,157 Q123,195 223,236 L299,267 L299,287 Q299,340 281.5,367 Q264,394 208,394 Q135,394 126,351 Q124,338 122.5,332.5 Q121,327 116.5,316.5 Q112,306 104,301 Q96,296 84,296 Q72,296 63,303.5 Q54,311 54,324 Q54,353 95,384.5 Q136,416 217,416 Q260,416 291,405.5 Q322,395 336.5,381.5 Q351,368 359,345.5 Q367,323 368,310 Q369,297 369,276 L369,114 Q369,87 369.5,75 Q370,63 373,49 Q376,35 382.5,30.5 Q389,26 400,26 Q433,26 441,73 M299,86 L299,244 L246,222 Q120,171 120,94 Q120,66 135,45.5 Q150,25 178,25 Q225,25 299,86 M172,616 L248,616 L351,471 L329,471 L209,566 L89,471 L69,471"/> 
            <glyph glyph-name="ã" unicode="&#xE3;" horiz-adv-x="459" d=" M441,73 L459,73 Q457,37 436.5,13.5 Q416,-10 377,-10 Q354,-10 338.5,-3.5 Q323,3 315,16.5 Q307,30 304.5,38 Q302,46 299,60 Q201,-10 138,-10 Q100,-10 69.5,12.5 Q39,35 39,75 Q39,119 81,157 Q123,195 223,236 L299,267 L299,287 Q299,340 281.5,367 Q264,394 208,394 Q135,394 126,351 Q124,338 122.5,332.5 Q121,327 116.5,316.5 Q112,306 104,301 Q96,296 84,296 Q72,296 63,303.5 Q54,311 54,324 Q54,353 95,384.5 Q136,416 217,416 Q260,416 291,405.5 Q322,395 336.5,381.5 Q351,368 359,345.5 Q367,323 368,310 Q369,297 369,276 L369,114 Q369,87 369.5,75 Q370,63 373,49 Q376,35 382.5,30.5 Q389,26 400,26 Q433,26 441,73 M299,86 L299,244 L246,222 Q120,171 120,94 Q120,66 135,45.5 Q150,25 178,25 Q225,25 299,86 M348,579 L365,579 Q365,560 360.5,539 Q356,518 336,495 Q316,472 282,472 Q268,472 253.5,476 Q239,480 230.5,484.5 Q222,489 210,495.5 Q198,502 195,504 Q190,506 176,514.5 Q162,523 150.5,527.5 Q139,532 128,532 Q91,532 80,472 L64,472 Q72,579 149,579 Q177,579 231,550 Q235,548 247,541 Q259,534 265.5,530.5 Q272,527 282.5,523.5 Q293,520 301,520 Q323,520 335,538 Q347,556 348,579"/> 
            <glyph glyph-name="ä" unicode="&#xE4;" horiz-adv-x="459" d=" M441,73 L459,73 Q457,37 436.5,13.5 Q416,-10 377,-10 Q354,-10 338.5,-3.5 Q323,3 315,16.5 Q307,30 304.5,38 Q302,46 299,60 Q201,-10 138,-10 Q100,-10 69.5,12.5 Q39,35 39,75 Q39,119 81,157 Q123,195 223,236 L299,267 L299,287 Q299,340 281.5,367 Q264,394 208,394 Q135,394 126,351 Q124,338 122.5,332.5 Q121,327 116.5,316.5 Q112,306 104,301 Q96,296 84,296 Q72,296 63,303.5 Q54,311 54,324 Q54,353 95,384.5 Q136,416 217,416 Q260,416 291,405.5 Q322,395 336.5,381.5 Q351,368 359,345.5 Q367,323 368,310 Q369,297 369,276 L369,114 Q369,87 369.5,75 Q370,63 373,49 Q376,35 382.5,30.5 Q389,26 400,26 Q433,26 441,73 M299,86 L299,244 L246,222 Q120,171 120,94 Q120,66 135,45.5 Q150,25 178,25 Q225,25 299,86 M333,528 Q333,496 321.5,484.5 Q310,473 294,473 Q278,473 266.5,484.5 Q255,496 255,512 Q255,528 266.5,539.5 Q278,551 294,551 Q310,551 333,528 M155,528 Q155,496 143.5,484.5 Q132,473 116,473 Q100,473 88.5,484.5 Q77,496 77,512 Q77,528 88.5,539.5 Q100,551 116,551 Q132,551 155,528"/> 
            <glyph glyph-name="å" unicode="&#xE5;" horiz-adv-x="459" d=" M441,73 L459,73 Q457,37 436.5,13.5 Q416,-10 377,-10 Q354,-10 338.5,-3.5 Q323,3 315,16.5 Q307,30 304.5,38 Q302,46 299,60 Q201,-10 138,-10 Q100,-10 69.5,12.5 Q39,35 39,75 Q39,119 81,157 Q123,195 223,236 L299,267 L299,287 Q299,340 281.5,367 Q264,394 208,394 Q135,394 126,351 Q124,338 122.5,332.5 Q121,327 116.5,316.5 Q112,306 104,301 Q96,296 84,296 Q72,296 63,303.5 Q54,311 54,324 Q54,353 95,384.5 Q136,416 217,416 Q260,416 291,405.5 Q322,395 336.5,381.5 Q351,368 359,345.5 Q367,323 368,310 Q369,297 369,276 L369,114 Q369,87 369.5,75 Q370,63 373,49 Q376,35 382.5,30.5 Q389,26 400,26 Q433,26 441,73 M299,86 L299,244 L246,222 Q120,171 120,94 Q120,66 135,45.5 Q150,25 178,25 Q225,25 299,86 M306,602 Q306,526 279,499 Q252,472 214,472 Q176,472 149,499 Q122,526 122,564 Q122,602 149,628.5 Q176,655 214,655 Q252,655 306,602 M213,628 Q187,628 169,609 Q151,590 151,564 Q151,537 169.5,518.5 Q188,500 215,500 Q241,500 259.5,518.5 Q278,537 278,563 Q278,591 259,609.5 Q240,628 213,628"/> 
            <glyph glyph-name="æ" unicode="&#xE6;" horiz-adv-x="599" d=" M599,264 L327,264 L327,198 Q327,10 449,10 Q488,10 521,31.5 Q554,53 571,89 L590,82 Q547,-16 430,-16 Q323,-16 270,77 Q207,-16 132,-16 Q90,-16 60.5,13.5 Q31,43 31,82 Q31,139 85.5,181 Q140,223 259,264 L259,285 Q259,345 243.5,369.5 Q228,394 183,394 Q169,394 158.5,392 Q148,390 140.5,386 Q133,382 128,379 Q123,376 119.5,369.5 Q116,363 114.5,360 Q113,357 110.5,350 Q108,343 108,342 Q108,341 106.5,336 Q105,331 103.5,327.5 Q102,324 98.5,318.5 Q95,313 91.5,309.5 Q88,306 82,303.5 Q76,301 69,301 Q38,301 38,329 Q38,360 83.5,388 Q129,416 188,416 Q200,416 211.5,415 Q223,414 232.5,411.5 Q242,409 250,407 Q258,405 266,400.5 Q274,396 279,393.5 Q284,391 290.5,386 Q297,381 299.5,379 Q302,377 307.5,372.5 Q313,368 314,367 Q365,416 430,416 Q493,416 539.5,378.5 Q586,341 599,264 M327,284 L515,284 Q514,298 511.5,312 Q509,326 501,347 Q493,368 473.5,381 Q454,394 425,394 Q381,394 356,363 Q331,332 327,284 M259,98 L259,243 Q208,226 174.5,207 Q141,188 127,169 Q113,150 108.5,136.5 Q104,123 104,106 Q104,68 124.5,48 Q145,28 169,28 Q210,28 259,98"/> 
            <glyph glyph-name="ç" unicode="&#xE7;" horiz-adv-x="403" d=" M240,-16 L233,-58 Q279,-59 305.5,-82 Q332,-105 332,-141 Q332,-178 300.5,-207 Q269,-236 205,-236 Q161,-236 128,-224 L135,-205 Q164,-214 194,-214 Q237,-214 255.5,-195.5 Q274,-177 274,-155 Q274,-133 256,-116 Q238,-99 202,-99 L218,-16 Q141,-11 88,46.5 Q35,104 35,195 Q35,290 96.5,353 Q158,416 246,416 Q309,416 347.5,393.5 Q386,371 386,337 Q386,322 377.5,313 Q369,304 355,304 Q336,304 328,313.5 Q320,323 315,346 Q310,370 295.5,381 Q281,392 248,392 Q116,392 116,213 Q116,179 121.5,147.5 Q127,116 141,83 Q155,50 185.5,30 Q216,10 260,10 Q356,10 382,97 L403,97 Q372,-14 240,-16"/> 
            <glyph glyph-name="è" unicode="&#xE8;" horiz-adv-x="399" d=" M399,264 L120,264 Q118,236 118,217 Q118,10 249,10 Q338,10 376,90 L399,90 Q397,82 388.5,67 Q380,52 362.5,32 Q345,12 311.5,-2 Q278,-16 236,-16 Q161,-16 99,40 Q37,96 37,197 Q37,291 92.5,353.5 Q148,416 232,416 Q306,416 351.5,370.5 Q397,325 399,264 M122,284 L313,284 Q315,296 315,304 Q315,350 289,372 Q263,394 228,394 Q139,394 122,284 M275,472 L179,551 Q145,580 145,597 Q145,609 154.5,617.5 Q164,626 176,626 Q193,626 205.5,613.5 Q218,601 238,568 L294,472"/> 
            <glyph glyph-name="é" unicode="&#xE9;" horiz-adv-x="399" d=" M399,264 L120,264 Q118,236 118,217 Q118,10 249,10 Q338,10 376,90 L399,90 Q397,82 388.5,67 Q380,52 362.5,32 Q345,12 311.5,-2 Q278,-16 236,-16 Q161,-16 99,40 Q37,96 37,197 Q37,291 92.5,353.5 Q148,416 232,416 Q306,416 351.5,370.5 Q397,325 399,264 M122,284 L313,284 Q315,296 315,304 Q315,350 289,372 Q263,394 228,394 Q139,394 122,284 M184,472 L165,472 L221,568 Q241,601 253.5,613.5 Q266,626 283,626 Q295,626 304.5,617.5 Q314,609 314,597 Q314,580 280,551"/> 
            <glyph glyph-name="ê" unicode="&#xEA;" horiz-adv-x="399" d=" M399,264 L120,264 Q118,236 118,217 Q118,10 249,10 Q338,10 376,90 L399,90 Q397,82 388.5,67 Q380,52 362.5,32 Q345,12 311.5,-2 Q278,-16 236,-16 Q161,-16 99,40 Q37,96 37,197 Q37,291 92.5,353.5 Q148,416 232,416 Q306,416 351.5,370.5 Q397,325 399,264 M122,284 L313,284 Q315,296 315,304 Q315,350 289,372 Q263,394 228,394 Q139,394 122,284 M202,616 L278,616 L381,471 L359,471 L239,566 L119,471 L99,471"/> 
            <glyph glyph-name="ë" unicode="&#xEB;" horiz-adv-x="399" d=" M399,264 L120,264 Q118,236 118,217 Q118,10 249,10 Q338,10 376,90 L399,90 Q397,82 388.5,67 Q380,52 362.5,32 Q345,12 311.5,-2 Q278,-16 236,-16 Q161,-16 99,40 Q37,96 37,197 Q37,291 92.5,353.5 Q148,416 232,416 Q306,416 351.5,370.5 Q397,325 399,264 M122,284 L313,284 Q315,296 315,304 Q315,350 289,372 Q263,394 228,394 Q139,394 122,284 M368,528 Q368,496 357,484.5 Q346,473 329,473 Q312,473 301,484.5 Q290,496 290,512 Q290,528 301.5,539.5 Q313,551 329,551 Q345,551 368,528 M190,528 Q190,496 178.5,484.5 Q167,473 151,473 Q134,473 123,484.5 Q112,496 112,512 Q112,528 123.5,539.5 Q135,551 151,551 Q167,551 190,528"/> 
            <glyph glyph-name="ì" unicode="&#xEC;" horiz-adv-x="231" d=" M161,416 L161,137 Q161,60 165,47 Q175,22 216,22 L231,22 L231,0 L15,0 L15,22 L32,22 Q68,22 79.5,35 Q91,48 91,98 L91,258 Q91,303 90,322.5 Q89,342 78.5,354 Q68,366 57,367 Q46,368 15,368 L15,390 Q66,392 151,416 M161,472 L65,551 Q31,580 31,597 Q31,609 40.5,617.5 Q50,626 62,626 Q79,626 91.5,613.5 Q104,601 124,568 L180,472"/> 
            <glyph glyph-name="í" unicode="&#xED;" horiz-adv-x="231" d=" M161,416 L161,137 Q161,60 165,47 Q175,22 216,22 L231,22 L231,0 L15,0 L15,22 L32,22 Q68,22 79.5,35 Q91,48 91,98 L91,258 Q91,303 90,322.5 Q89,342 78.5,354 Q68,366 57,367 Q46,368 15,368 L15,390 Q66,392 151,416 M70,472 L51,472 L107,568 Q127,601 139.5,613.5 Q152,626 169,626 Q181,626 190.5,617.5 Q200,609 200,597 Q200,580 166,551"/> 
            <glyph glyph-name="î" unicode="&#xEE;" horiz-adv-x="267" d=" M161,416 L161,137 Q161,60 165,47 Q175,22 216,22 L231,22 L231,0 L15,0 L15,22 L32,22 Q68,22 79.5,35 Q91,48 91,98 L91,258 Q91,303 90,322.5 Q89,342 78.5,354 Q68,366 57,367 Q46,368 15,368 L15,390 Q66,392 151,416 M88,616 L164,616 L267,471 L245,471 L125,566 L5,471 L-15,471"/> 
            <glyph glyph-name="ï" unicode="&#xEF;" horiz-adv-x="254" d=" M161,416 L161,137 Q161,60 165,47 Q175,22 216,22 L231,22 L231,0 L15,0 L15,22 L32,22 Q68,22 79.5,35 Q91,48 91,98 L91,258 Q91,303 90,322.5 Q89,342 78.5,354 Q68,366 57,367 Q46,368 15,368 L15,390 Q66,392 151,416 M254,528 Q254,496 243,484.5 Q232,473 215,473 Q198,473 187,484.5 Q176,496 176,512 Q176,528 187.5,539.5 Q199,551 215,551 Q231,551 254,528 M76,528 Q76,496 64.5,484.5 Q53,473 37,473 Q20,473 9,484.5 Q-2,496 -2,512 Q-2,528 9.5,539.5 Q21,551 37,551 Q53,551 76,528"/> 
            <glyph glyph-name="ð" unicode="&#xF0;" horiz-adv-x="464" d=" M284,597 L362,646 L373,627 L301,582 Q464,410 464,226 Q464,163 443,114 Q422,65 388,38 Q354,11 318,-2.5 Q282,-16 247,-16 Q163,-16 100,41.5 Q37,99 37,198 Q37,301 102.5,358.5 Q168,416 245,416 Q313,416 358,367 Q340,430 320.5,466 Q301,502 259,556 L166,498 L154,516 L245,573 Q207,619 159,651 L180,672 Q232,643 284,597 M118,198 Q118,159 123,128.5 Q128,98 141.5,69 Q155,40 182.5,24 Q210,8 250,8 Q284,8 309.5,20 Q335,32 348.5,50 Q362,68 370,94.5 Q378,121 380.5,144.5 Q383,168 383,197 Q383,288 353.5,340 Q324,392 250,392 Q178,392 148,342 Q118,292 118,198"/> 
            <glyph glyph-name="ñ" unicode="&#xF1;" horiz-adv-x="508" d=" M137,416 L150,416 Q160,386 163,333 Q239,416 317,416 Q381,416 411.5,378.5 Q442,341 442,285 L442,137 Q442,54 450.5,38 Q459,22 508,22 L508,0 L303,0 L303,22 Q354,22 363,38 Q372,54 372,137 L372,266 Q372,386 291,386 Q281,386 270.5,383.5 Q260,381 252.5,378.5 Q245,376 234,368.5 Q223,361 218.5,358 Q214,355 203,343.5 Q192,332 189.5,330 Q187,328 175.5,314.5 Q164,301 163,300 L163,137 Q163,54 171.5,38 Q180,22 229,22 L229,0 L27,0 L27,22 Q76,22 84.5,38 Q93,54 93,137 L93,256 Q93,339 84.5,355 Q76,371 27,371 L27,393 Q111,405 137,416 M399,579 L416,579 Q416,560 411.5,539 Q407,518 387,495 Q367,472 333,472 Q319,472 304.5,476 Q290,480 281.5,484.5 Q273,489 261,495.5 Q249,502 246,504 Q241,506 227,514.5 Q213,523 201.5,527.5 Q190,532 179,532 Q142,532 131,472 L115,472 Q123,579 200,579 Q228,579 282,550 Q286,548 298,541 Q310,534 316.5,530.5 Q323,527 333.5,523.5 Q344,520 352,520 Q374,520 386,538 Q398,556 399,579"/> 
            <glyph glyph-name="ò" unicode="&#xF2;" horiz-adv-x="464" d=" M37,201 Q37,293 98.5,354.5 Q160,416 250,416 Q340,416 402,355 Q464,294 464,200 Q464,99 400.5,41.5 Q337,-16 250,-16 Q166,-16 101.5,40.5 Q37,97 37,201 M118,198 Q118,169 120,146.5 Q122,124 130,96.5 Q138,69 151.5,51 Q165,33 190.5,20.5 Q216,8 250,8 Q284,8 309.5,20 Q335,32 348.5,50 Q362,68 370,94.5 Q378,121 380.5,144.5 Q383,168 383,197 Q383,288 353.5,340 Q324,392 250,392 Q177,392 147.5,340.5 Q118,289 118,198 M306,472 L210,551 Q176,580 176,597 Q176,609 185.5,617.5 Q195,626 207,626 Q224,626 236.5,613.5 Q249,601 269,568 L325,472"/> 
            </font>
</defs>
</svg>
