<?xml version="1.0" standalone="no"?>
<!DOCTYPE svg PUBLIC "-//W3C//DTD SVG 1.1//EN" "http://www.w3.org/Graphics/SVG/1.1/DTD/svg11.dtd" >
<svg xmlns="http://www.w3.org/2000/svg">
    <defs>
        <font id="BaskervilleMTStd-Bold">
            <font-face font-family="BaskervilleMTStd-Bold"
                       units-per-em="1000"
                       ascent="682"
                       descent="-318"
                       bbox="-157 -255 1295 890"
                    />
            <missing-glyph horiz-adv-x="0" />
            
            <glyph glyph-name="!" unicode="&#x21;" horiz-adv-x="255" d=" M78,36 Q78,110 104,135.5 Q130,161 167,161 Q203,161 229,135.5 Q255,110 255,73 Q255,36 229,10 Q203,-16 167,-16 Q131,-16 78,36 M139,218 L96,516 Q88,572 88,599 Q88,613 89.5,622.5 Q91,632 97.5,645.5 Q104,659 121.5,666.5 Q139,674 166,674 Q192,674 209,666.5 Q226,659 232.5,645.5 Q239,632 241,622.5 Q243,613 243,599 Q243,589 234,526 L193,218"/> 
            <glyph glyph-name="&quot;" unicode="&#x22;" horiz-adv-x="466" d=" M406,349 L382,349 L331,536 Q321,574 321,599 Q321,631 342,652.5 Q363,674 393,674 Q426,674 446,652.5 Q466,631 466,601 Q466,584 454,536 M171,349 L147,349 L96,536 Q86,574 86,599 Q86,631 107,652.5 Q128,674 158,674 Q191,674 211,652.5 Q231,631 231,601 Q231,584 219,536"/> 
            <glyph glyph-name="#" unicode="&#x23;" horiz-adv-x="629" d=" M38,497 L189,497 L229,684 L321,684 L281,497 L454,497 L494,684 L586,684 L546,497 L629,497 L629,404 L529,404 L499,257 L629,257 L629,164 L480,164 L440,-21 L348,-21 L388,164 L213,164 L174,-21 L82,-21 L121,164 L38,164 L38,257 L140,257 L171,404 L38,404 M436,404 L263,404 L232,257 L407,257"/> 
            <glyph glyph-name="$" unicode="&#x24;" horiz-adv-x="482" d=" M219,43 L219,265 L197,276 Q128,310 102,333 Q46,383 46,463 Q46,476 48.5,491.5 Q51,507 61,532.5 Q71,558 88,578.5 Q105,599 139.5,617.5 Q174,636 219,642 L219,688 L276,688 L276,644 Q361,641 409.5,602.5 Q458,564 458,523 Q458,499 441.5,483 Q425,467 405,467 Q363,467 340,536 Q333,558 319,571 Q305,584 276,590 L276,405 Q324,385 356,367.5 Q388,350 419.5,324 Q451,298 466.5,264 Q482,230 482,187 Q482,121 433,61 Q384,1 276,-12 L276,-102 L219,-102 L219,-14 Q135,-9 87.5,22 Q40,53 40,93 Q40,113 53.5,131 Q67,149 96,149 Q122,149 134,136 Q146,123 160,92 Q178,50 219,43 M219,429 L219,589 Q189,583 171.5,563.5 Q154,544 154,515 Q154,462 219,429 M276,238 L276,42 Q306,46 326,58.5 Q346,71 353.5,88 Q361,105 363,114.5 Q365,124 365,133 Q365,172 343,193.5 Q321,215 276,238"/> 
            <glyph glyph-name="%" unicode="&#x25;" horiz-adv-x="908" d=" M704,163 Q704,89 711.5,54.5 Q719,20 745,20 Q783,20 783,141 Q783,211 776.5,248 Q770,285 762,292.5 Q754,300 741,300 Q718,300 711,271 Q704,242 704,163 M579,157 Q579,239 622,286.5 Q665,334 741,334 Q786,334 819,318.5 Q852,303 868.5,282 Q885,261 894.5,233.5 Q904,206 906,190 Q908,174 908,160 Q908,91 867.5,38.5 Q827,-14 743,-14 Q696,-14 661.5,4 Q627,22 610.5,50 Q594,78 586.5,104.5 Q579,131 579,157 M297,0 L636,662 L707,662 L367,0 M82,497 Q82,579 125,626.5 Q168,674 244,674 Q289,674 322,658.5 Q355,643 371.5,622 Q388,601 397.5,573.5 Q407,546 409,530 Q411,514 411,500 Q411,431 370.5,378.5 Q330,326 246,326 Q199,326 164.5,344 Q130,362 113.5,390 Q97,418 89.5,444.5 Q82,471 82,497 M207,503 Q207,429 214.5,394.5 Q222,360 248,360 Q286,360 286,481 Q286,551 279.5,588 Q273,625 265,632.5 Q257,640 244,640 Q221,640 214,611 Q207,582 207,503"/> 
            <glyph glyph-name="&amp;" unicode="&#x26;" horiz-adv-x="745" d=" M359,385 L494,209 Q547,286 547,317 Q547,351 504,351 L504,403 L703,403 L703,351 Q672,344 651.5,327.5 Q631,311 596,255 Q562,201 531,161 Q569,113 590.5,94.5 Q612,76 635,76 Q683,76 690,144 L745,144 Q745,97 728.5,63.5 Q712,30 686,14.5 Q660,-1 636.5,-7 Q613,-13 589,-13 Q505,-13 432,60 Q332,-14 241,-14 Q160,-14 102.5,39 Q45,92 45,163 Q45,227 90.5,278 Q136,329 198,361 Q180,391 172,406.5 Q164,422 156.5,447.5 Q149,473 149,500 Q149,569 194.5,609 Q240,649 313,649 Q383,649 423.5,616 Q464,583 464,529 Q464,441 359,385 M389,104 L232,309 Q184,281 184,232 Q184,186 223,131 Q262,76 317,76 Q356,76 389,104 M321,436 Q380,476 380,523 Q380,553 364,574 Q348,595 316,595 Q293,595 279,580 Q265,565 265,544 Q265,502 321,436"/> 
            <glyph glyph-name="'" unicode="&#x27;" horiz-adv-x="213" d=" M153,349 L129,349 L78,536 Q68,574 68,599 Q68,631 89,652.5 Q110,674 140,674 Q173,674 193,652.5 Q213,631 213,601 Q213,584 201,536"/> 
            <glyph glyph-name="(" unicode="&#x28;" horiz-adv-x="320" d=" M320,-243 L244,-243 Q95,-46 95,213 Q95,327 129.5,451 Q164,575 244,674 L320,674 Q290,629 273,598 Q256,567 229,507 Q202,447 188.5,373 Q175,299 175,214 Q175,133 188.5,60.5 Q202,-12 227.5,-70.5 Q253,-129 269.5,-160 Q286,-191 312,-231"/> 
            <glyph glyph-name=")" unicode="&#x29;" horiz-adv-x="249" d=" M24,674 L100,674 Q249,477 249,218 Q249,104 214.5,-20 Q180,-144 100,-243 L24,-243 Q54,-198 71,-167 Q88,-136 115,-76 Q142,-16 155.5,58 Q169,132 169,217 Q169,298 155.5,371 Q142,444 117.5,501.5 Q93,559 75,592 Q57,625 32,662"/> 
            <glyph glyph-name="*" unicode="&#x2A;" horiz-adv-x="505" d=" M265,395 Q241,344 224,273 Q208,206 161,206 Q134,206 111,226.5 Q88,247 88,272 Q88,289 99.5,304.5 Q111,320 123.5,328.5 Q136,337 158,349 Q197,370 240,412 Q204,418 173,418 Q167,418 135.5,415.5 Q104,413 99,413 Q26,413 26,474 Q26,501 43.5,523 Q61,545 86,545 Q105,545 119.5,536.5 Q134,528 170,497 Q196,475 249,443 Q241,499 223,545 Q200,602 200,616 Q200,638 215.5,656 Q231,674 264,674 Q294,674 311,657.5 Q328,641 328,617 Q328,596 309,550 Q292,511 281,443 Q314,459 360,499 Q380,517 385.5,522 Q391,527 403,535.5 Q415,544 423,546 Q431,548 442,548 Q470,548 487.5,525 Q505,502 505,475 Q505,445 484.5,430 Q464,415 440,415 Q434,415 402.5,417 Q371,419 366,419 Q332,419 290,413 Q325,381 340.5,369.5 Q356,358 398,334 Q442,309 442,273 Q442,247 418.5,226.5 Q395,206 369,206 Q347,206 332,222.5 Q317,239 312,254 Q307,269 302,293 Q291,345 265,395"/> 
            <glyph glyph-name="+" unicode="&#x2B;" horiz-adv-x="604" d=" M62,381 L282,381 L282,601 L384,601 L384,381 L604,381 L604,279 L384,279 L384,59 L282,59 L282,279 L62,279"/> 
            <glyph glyph-name="," unicode="&#x2C;" horiz-adv-x="270" d=" M74,-194 L74,-136 Q134,-131 166.5,-100.5 Q199,-70 199,-36 Q199,-11 179,-11 L161,-14 Q149,-18 140,-18 Q113,-18 89,4 Q65,26 65,64 Q65,99 88.5,127 Q112,155 157,155 Q209,155 239.5,115.5 Q270,76 270,9 Q270,-44 251,-85 Q232,-126 201.5,-148.5 Q171,-171 139,-182 Q107,-193 74,-194"/> 
            <glyph glyph-name="-" unicode="&#x2D;" horiz-adv-x="317" d=" M28,133 L28,265 L317,265 L317,133"/> 
            <glyph glyph-name="." unicode="&#x2E;" horiz-adv-x="255" d=" M78,36 Q78,110 104,135.5 Q130,161 167,161 Q203,161 229,135.5 Q255,110 255,73 Q255,36 229,10 Q203,-16 167,-16 Q131,-16 78,36"/> 
            <glyph glyph-name="/" unicode="&#x2F;" horiz-adv-x="557" d=" M418,662 L557,662 L208,-16 L68,-16"/> 
            <glyph glyph-name="0" unicode="&#x30;" horiz-adv-x="502" d=" M39,336 Q39,506 105.5,589 Q172,672 270,672 Q301,672 330.5,664 Q360,656 392,632.5 Q424,609 447.5,572.5 Q471,536 486.5,473.5 Q502,411 502,330 Q502,154 437.5,70 Q373,-14 270,-14 Q254,-14 237.5,-12 Q221,-10 197,-1.5 Q173,7 152.5,21.5 Q132,36 110.5,62.5 Q89,89 74,124.5 Q59,160 49,214.5 Q39,269 39,336 M203,334 Q203,171 216,106.5 Q229,42 274,42 Q314,42 326,99 Q338,156 338,308 Q338,488 325.5,552 Q313,616 269,616 Q254,616 242.5,607 Q231,598 224,577.5 Q217,557 212.5,535 Q208,513 206,476.5 Q204,440 203.5,410.5 Q203,381 203,334"/> 
            <glyph glyph-name="1" unicode="&#x31;" horiz-adv-x="441" d=" M113,0 L113,54 L138,54 Q175,54 187,67.5 Q199,81 199,113 L199,482 Q199,536 184,548.5 Q169,561 104,561 L104,613 Q233,620 306,672 L357,672 L357,116 Q357,99 358,91 Q359,83 364,72.5 Q369,62 382,58 Q395,54 416,54 L441,54 L441,0"/> 
            <glyph glyph-name="2" unicode="&#x32;" horiz-adv-x="492" d=" M59,0 L59,46 Q184,160 251,269 Q322,385 322,489 Q322,540 300.5,577 Q279,614 235,614 Q202,614 179,590 Q156,566 156,536 Q156,516 166,490 Q167,487 170,481.5 Q173,476 175.5,471 Q178,466 178,465 Q178,460 173.5,457.5 Q169,455 149,447 L114,433 Q94,425 88,425 Q77,425 67,454 Q57,483 57,510 Q57,584 120.5,628 Q184,672 271,672 Q364,672 425,623.5 Q486,575 486,495 Q486,464 478.5,437 Q471,410 451,379 Q431,348 416,329 Q401,310 368,271 Q285,173 213,100 L492,100 L467,-40 L416,-40 Q422,-13 415,-6.5 Q408,0 382,0"/> 
            <glyph glyph-name="3" unicode="&#x33;" horiz-adv-x="483" d=" M324,389 Q385,392 434,350.5 Q483,309 483,225 Q483,116 398.5,51 Q314,-14 199,-14 Q122,-14 76,15 Q30,44 30,87 Q30,116 50,133 Q70,150 93,150 Q121,150 135,133 Q149,116 158,88 Q174,42 216,42 Q256,42 291,77 Q319,106 319,201 Q319,258 312,288 Q305,318 295.5,325.5 Q286,333 269,333 Q250,333 230,316 Q227,313 222,308.5 Q217,304 215.5,302.5 Q214,301 210.5,298.5 Q207,296 205,295 Q203,294 199.5,293.5 Q196,293 193,293 Q181,293 173.5,303.5 Q166,314 166,324 Q166,337 174,344.5 Q182,352 228,383 Q314,441 314,524 Q314,572 289.5,592.5 Q265,613 238,613 Q209,613 185,594 Q161,575 161,547 Q161,524 176,507 Q186,495 186,492 Q186,487 143.5,469 Q101,451 91,451 Q76,451 66.5,475.5 Q57,500 57,521 Q57,587 126.5,629.5 Q196,672 280,672 Q323,672 363,661 Q403,650 434.5,621.5 Q466,593 466,551 Q466,524 452.5,497.5 Q439,471 421,453.5 Q403,436 381,421 Q359,406 345.5,399 Q332,392 324,389"/> 
            <glyph glyph-name="4" unicode="&#x34;" horiz-adv-x="503" d=" M258,226 L34,226 L34,300 L333,669 L416,669 L416,294 L502,294 L502,226 L416,226 L416,122 Q416,104 417,96.5 Q418,89 423.5,76.5 Q429,64 443.5,59 Q458,54 482,54 L503,54 L503,0 L169,0 L169,54 L194,54 Q238,54 248,69 Q258,84 258,124 M97,294 L258,294 L258,494"/> 
            <glyph glyph-name="5" unicode="&#x35;" horiz-adv-x="480" d=" M88,333 L99,664 L429,664 L398,595 Q389,576 377,569 Q365,562 336,562 L149,562 L145,406 Q164,424 196,435 Q229,446 262,446 Q295,446 330.5,434.5 Q366,423 401,399.5 Q436,376 458,331.5 Q480,287 480,229 Q480,178 462.5,136 Q445,94 417,66.5 Q389,39 352.5,20.5 Q316,2 279,-6 Q242,-14 205,-14 Q135,-14 81,14 Q27,42 27,90 Q27,113 45.5,130 Q64,147 87,147 Q112,147 126,131.5 Q140,116 155,85 Q162,70 180,56.5 Q198,43 223,43 Q249,43 267,56.5 Q285,70 293.5,87 Q302,104 307,134 Q312,164 312.5,181.5 Q313,199 313,229 Q313,254 312.5,268.5 Q312,283 307.5,308 Q303,333 294.5,347 Q286,361 268,372.5 Q250,384 225,384 Q203,384 187,375 Q171,366 164.5,357.5 Q158,349 149,333"/> 
            <glyph glyph-name="6" unicode="&#x36;" horiz-adv-x="499" d=" M210,398 Q258,422 300,422 Q329,422 360,412.5 Q391,403 424,381.5 Q457,360 478,316.5 Q499,273 499,213 Q499,105 430.5,45.5 Q362,-14 276,-14 Q236,-14 197.5,1 Q159,16 123,47 Q87,78 65,137 Q43,196 43,275 Q43,375 70,454 Q97,533 142,579 Q187,625 240,648.5 Q293,672 351,672 Q410,672 447,649 Q484,626 484,594 Q484,573 468,555 Q452,537 428,537 Q411,537 397.5,546.5 Q384,556 365,582 Q342,613 311,613 Q282,613 262,591.5 Q242,570 231.5,530.5 Q221,491 217,464 Q213,437 210,398 M201,206 Q201,124 218,83 Q235,42 274,42 Q311,42 323,77 Q335,112 335,186 Q335,231 333,259.5 Q331,288 324,314.5 Q317,341 303,353.5 Q289,366 267,366 Q243,366 229,353.5 Q215,341 209,313.5 Q203,286 202,265.5 Q201,245 201,206"/> 
            <glyph glyph-name="7" unicode="&#x37;" horiz-adv-x="499" d=" M398,541 L171,541 Q153,541 145,540 Q137,539 127,534.5 Q117,530 111,519 Q105,508 100,489 L47,489 L112,690 L166,690 Q161,676 165.5,670 Q170,664 192,664 L499,664 L314,76 Q298,27 280.5,6.5 Q263,-14 231,-14 Q202,-14 181.5,2 Q161,18 161,44 Q161,68 195,136"/> 
            <glyph glyph-name="8" unicode="&#x38;" horiz-adv-x="505" d=" M205,351 Q185,355 173,358.5 Q161,362 135.5,373.5 Q110,385 95,399.5 Q80,414 67.5,441 Q55,468 55,502 Q55,550 75.5,585 Q96,620 129.5,638 Q163,656 198,664 Q233,672 270,672 Q310,672 346.5,663 Q383,654 415.5,635.5 Q448,617 467.5,582.5 Q487,548 487,502 Q487,463 471,433 Q455,403 428.5,386.5 Q402,370 382.5,362.5 Q363,355 343,351 Q362,347 374,344 Q386,341 408,333.5 Q430,326 444.5,314 Q459,302 474.5,284.5 Q490,267 497.5,239.5 Q505,212 505,178 Q505,127 484,88 Q463,49 428,27.5 Q393,6 354,-4 Q315,-14 273,-14 Q236,-14 199.5,-6 Q163,2 124.5,21.5 Q86,41 62,81 Q38,121 38,176 Q38,326 205,351 M202,191 Q202,162 202.5,149.5 Q203,137 204.5,115 Q206,93 210.5,83 Q215,73 222.5,61 Q230,49 242.5,44.5 Q255,40 272,40 Q292,40 305.5,48.5 Q319,57 326,68 Q333,79 336.5,100.5 Q340,122 340.5,135.5 Q341,149 341,175 Q341,258 328,289.5 Q315,321 269,321 Q249,321 236,313 Q223,305 216,295.5 Q209,286 206,265 Q203,244 202.5,231.5 Q202,219 202,191 M210,508 Q210,483 210.5,471 Q211,459 212.5,440 Q214,421 218,412 Q222,403 228.5,393 Q235,383 246,379 Q257,375 272,375 Q308,375 320,405.5 Q332,436 332,505 Q332,539 329,560.5 Q326,582 311.5,600 Q297,618 270,618 Q256,618 245,613.5 Q234,609 227.5,599.5 Q221,590 217.5,581.5 Q214,573 212.5,558 Q211,543 210.5,534 Q210,525 210,508"/> 
            <glyph glyph-name="9" unicode="&#x39;" horiz-adv-x="499" d=" M332,260 Q284,236 242,236 Q213,236 182,245.5 Q151,255 118,276.5 Q85,298 64,341.5 Q43,385 43,445 Q43,553 111.5,612.5 Q180,672 266,672 Q306,672 344.5,657 Q383,642 419,611 Q455,580 477,521 Q499,462 499,383 Q499,283 472,204 Q445,125 400,79 Q355,33 302,9.5 Q249,-14 191,-14 Q132,-14 95,9 Q58,32 58,64 Q58,85 74,103 Q90,121 114,121 Q131,121 144.5,111.5 Q158,102 177,76 Q200,45 231,45 Q260,45 280,66.5 Q300,88 310.5,127.5 Q321,167 325,194 Q329,221 332,260 M341,452 Q341,534 324,575 Q307,616 268,616 Q231,616 219,581 Q207,546 207,472 Q207,427 209,398.5 Q211,370 218,343.5 Q225,317 239,304.5 Q253,292 275,292 Q299,292 313,304.5 Q327,317 333,344.5 Q339,372 340,392.5 Q341,413 341,452"/> 
            <glyph glyph-name=":" unicode="&#x3A;" horiz-adv-x="255" d=" M78,291 Q78,365 104,390.5 Q130,416 167,416 Q203,416 229,390.5 Q255,365 255,328 Q255,291 229,265 Q203,239 167,239 Q131,239 78,291 M78,36 Q78,110 104,135.5 Q130,161 167,161 Q203,161 229,135.5 Q255,110 255,73 Q255,36 229,10 Q203,-16 167,-16 Q131,-16 78,36"/> 
            <glyph glyph-name=";" unicode="&#x3B;" horiz-adv-x="270" d=" M74,-194 L74,-136 Q134,-131 166.5,-100.5 Q199,-70 199,-36 Q199,-11 179,-11 L161,-14 Q149,-18 140,-18 Q113,-18 89,4 Q65,26 65,64 Q65,99 88.5,127 Q112,155 157,155 Q209,155 239.5,115.5 Q270,76 270,9 Q270,-44 251,-85 Q232,-126 201.5,-148.5 Q171,-171 139,-182 Q107,-193 74,-194 M78,291 Q78,365 104,390.5 Q130,416 167,416 Q203,416 229,390.5 Q255,365 255,328 Q255,291 229,265 Q203,239 167,239 Q131,239 78,291"/> 
            <glyph glyph-name="&lt;" unicode="&#x3C;" horiz-adv-x="605" d=" M605,57 L62,283 L62,376 L605,602 L605,492 L202,330 L605,168"/> 
            <glyph glyph-name="=" unicode="&#x3D;" horiz-adv-x="604" d=" M62,497 L604,497 L604,395 L62,395 M62,265 L604,265 L604,163 L62,163"/> 
            <glyph glyph-name="&gt;" unicode="&#x3E;" horiz-adv-x="605" d=" M62,602 L605,376 L605,283 L62,57 L62,167 L465,329 L62,491"/> 
            <glyph glyph-name="?" unicode="&#x3F;" horiz-adv-x="437" d=" M142,220 L142,382 L189,382 Q202,365 223,365 Q243,365 256,377.5 Q269,390 274,410 Q279,430 280,441 Q281,452 281,463 Q281,619 204,619 Q163,619 152,575 Q142,536 124,525 Q112,518 94,518 Q75,518 57.5,531.5 Q40,545 40,566 Q40,605 89,639.5 Q138,674 218,674 Q322,674 379.5,616.5 Q437,559 437,474 Q437,389 383.5,344 Q330,299 266,299 Q236,299 203,310 L203,220 M84,36 Q84,110 110,135.5 Q136,161 173,161 Q209,161 235,135.5 Q261,110 261,73 Q261,36 235,10 Q209,-16 173,-16 Q137,-16 84,36"/> 
            <glyph glyph-name="@" unicode="&#x40;" horiz-adv-x="908" d=" M576,449 L695,454 L602,137 Q591,97 591,72 Q591,56 602,44 Q613,32 631,32 Q656,32 691,53 Q726,74 760,111 Q794,148 817.5,208 Q841,268 841,335 Q841,417 806.5,486 Q772,555 699.5,599.5 Q627,644 528,644 Q395,644 294.5,577.5 Q194,511 145,410 Q96,309 96,193 Q96,19 205.5,-86.5 Q315,-192 478,-192 Q553,-192 626.5,-167.5 Q700,-143 771.5,-79.5 Q843,-16 878,78 L908,78 Q880,9 840.5,-44 Q801,-97 757.5,-127.5 Q714,-158 674,-178 Q634,-198 591,-206 Q548,-214 524.5,-216.5 Q501,-219 478,-219 Q292,-219 168.5,-99.5 Q45,20 45,210 Q45,332 99,436 Q153,540 262.5,607 Q372,674 517,674 Q606,674 675,646 Q744,618 785,571 Q826,524 847,466 Q868,408 868,344 Q868,208 787.5,102.5 Q707,-3 576,-3 Q476,-3 476,84 Q476,94 488,154 Q469,121 458.5,105 Q448,89 423.5,58 Q399,27 373,12 Q347,-3 319,-3 Q276,-3 256.5,29.5 Q237,62 237,107 Q237,177 264,245.5 Q291,314 330,361 Q369,408 412.5,437.5 Q456,467 489,467 Q552,467 559,387 M503,432 Q469,432 435,367 Q401,302 382,232.5 Q363,163 363,132 Q363,109 372,97.5 Q381,86 392,86 Q418,86 452,131 Q486,176 511.5,243.5 Q537,311 537,366 Q537,400 526,416 Q515,432 503,432"/> 
            <glyph glyph-name="A" unicode="&#x41;" horiz-adv-x="654" d=" M153,179 L141,148 Q127,113 127,97 Q127,77 140,67 Q153,57 164.5,55.5 Q176,54 196,54 L196,0 L-23,0 L-23,54 Q14,54 41,89.5 Q68,125 82,161 L286,674 L343,674 L550,161 Q560,136 567,122 Q574,108 586.5,89.5 Q599,71 616,62.5 Q633,54 654,54 L654,0 L326,0 L326,54 Q346,54 357,55 Q368,56 379.5,63 Q391,70 391,84 Q391,92 388.5,99.5 Q386,107 381.5,116 Q377,125 376,129 L357,179 M253,433 L174,235 L335,235"/> 
            <glyph glyph-name="B" unicode="&#x42;" horiz-adv-x="642" d=" M372,0 L25,0 L25,54 Q80,54 95.5,71.5 Q111,89 111,135 L111,524 Q111,568 96,586 Q81,604 25,604 L25,658 Q241,666 279,666 Q408,666 461,656 Q530,643 571,605.5 Q612,568 612,507 Q612,475 598,448.5 Q584,422 565.5,406.5 Q547,391 520.5,378.5 Q494,366 478,361 Q462,356 445,352 Q465,349 485.5,344 Q506,339 536,326 Q566,313 588,294.5 Q610,276 626,244.5 Q642,213 642,173 Q642,0 372,0 M284,610 L284,380 L318,380 Q374,380 399,407 Q424,434 424,493 Q424,527 414.5,550.5 Q405,574 392.5,585.5 Q380,597 358.5,603 Q337,609 322.5,609.5 Q308,610 284,610 M316,321 L284,321 L284,133 Q284,118 285.5,109 Q287,100 293,86.5 Q299,73 315,66 Q331,59 357,59 Q451,59 451,189 Q451,216 446.5,237.5 Q442,259 435.5,273 Q429,287 417,296.5 Q405,306 395.5,310.5 Q386,315 369,317.5 Q352,320 343,320.5 Q334,321 316,321"/> 
            <glyph glyph-name="C" unicode="&#x43;" horiz-adv-x="685" d=" M685,255 L685,6 L630,6 Q620,44 602,70 Q586,53 564,37.5 Q542,22 492,4 Q442,-14 386,-14 Q303,-14 236,16.5 Q169,47 128.5,96.5 Q88,146 66.5,205 Q45,264 45,325 Q45,374 58,422.5 Q71,471 99,516.5 Q127,562 167,597 Q207,632 264.5,653 Q322,674 390,674 Q509,674 595,594 Q608,628 615,653 L669,653 L675,409 L622,409 Q619,433 606,464 Q593,495 569.5,529.5 Q546,564 505,587 Q464,610 414,610 Q368,610 334.5,590.5 Q301,571 284,543 Q267,515 257,470.5 Q247,426 245,391.5 Q243,357 243,308 Q243,182 284,116 Q325,50 420,50 Q491,50 549,101.5 Q607,153 630,255"/> 
            <glyph glyph-name="D" unicode="&#x44;" horiz-adv-x="751" d=" M29,0 L29,54 Q84,54 100,72 Q116,90 116,135 L116,527 Q116,573 100.5,590.5 Q85,608 29,608 L29,662 Q31,663 79.5,664 Q128,665 193,666.5 Q258,668 297,668 Q418,668 487.5,655 Q557,642 615,601 Q751,504 751,327 Q751,220 697.5,141.5 Q644,63 553,27 Q513,11 455.5,5.5 Q398,0 268,0 M289,611 L289,154 Q289,130 289.5,119.5 Q290,109 294,94.5 Q298,80 306.5,74 Q315,68 330.5,63.5 Q346,59 370,59 Q553,59 553,328 Q553,386 542.5,432.5 Q532,479 516.5,508 Q501,537 475.5,558 Q450,579 430,589 Q410,599 379,604.5 Q348,610 332,610.5 Q316,611 289,611"/> 
            <glyph glyph-name="E" unicode="&#x45;" horiz-adv-x="632" d=" M287,317 L287,153 Q287,122 288.5,109.5 Q290,97 300,82.5 Q310,68 332,63.5 Q354,59 393,59 Q418,59 432,60 Q446,61 472,69 Q498,77 514.5,92.5 Q531,108 549,140 Q567,172 578,217 L632,217 L628,0 L23,0 L23,54 Q80,54 97,70.5 Q114,87 114,135 L114,527 Q114,575 97.5,591.5 Q81,608 23,608 L23,662 L586,662 L596,491 L542,491 Q529,532 515,556 Q501,580 482.5,589.5 Q464,599 451,601 Q438,603 411,603 L287,603 L287,376 L349,376 Q369,376 379.5,378 Q390,380 402,387 Q414,394 419,411.5 Q424,429 424,457 L479,457 L479,233 L424,233 Q424,287 407,302 Q390,317 351,317"/> 
            <glyph glyph-name="F" unicode="&#x46;" horiz-adv-x="583" d=" M287,317 L287,135 Q287,93 302,73.5 Q317,54 368,54 L381,54 L381,0 L25,0 L25,54 Q81,54 97.5,71 Q114,88 114,135 L114,527 Q114,575 97.5,591.5 Q81,608 23,608 L23,662 L578,662 L583,487 L527,487 Q518,521 505.5,544 Q493,567 482,578.5 Q471,590 453,596 Q435,602 425,602.5 Q415,603 394,603 L287,603 L287,376 L339,376 Q376,376 390.5,391 Q405,406 409,456 L463,456 L463,229 L409,229 Q406,278 393,297.5 Q380,317 338,317"/> 
            <glyph glyph-name="G" unicode="&#x47;" horiz-adv-x="771" d=" M461,252 L461,306 L771,306 L771,252 Q732,245 722,228.5 Q712,212 712,166 L712,28 Q654,31 566,13 Q561,12 529,5 Q497,-2 481.5,-4.5 Q466,-7 437.5,-10.5 Q409,-14 384,-14 Q282,-14 203.5,35.5 Q125,85 86,161 Q47,237 47,322 Q47,412 88.5,491.5 Q130,571 210,622.5 Q290,674 391,674 Q504,674 598,598 Q613,629 617,667 L669,667 L675,436 L622,436 Q569,604 425,604 Q384,604 352.5,591 Q321,578 302,553.5 Q283,529 271,502.5 Q259,476 253.5,439.5 Q248,403 246.5,377 Q245,351 245,317 Q245,274 247,244 Q249,214 258.5,174 Q268,134 284.5,109.5 Q301,85 333.5,67.5 Q366,50 412,50 Q448,50 473.5,59 Q499,68 511.5,80 Q524,92 530.5,110.5 Q537,129 538,139.5 Q539,150 539,165 L539,189 Q539,222 519,236 Q499,250 461,252"/> 
            <glyph glyph-name="H" unicode="&#x48;" horiz-adv-x="818" d=" M286,317 L286,135 Q286,91 301,72.5 Q316,54 371,54 L371,0 L26,0 L26,54 Q81,54 97,72 Q113,90 113,135 L113,527 Q113,572 97.5,590 Q82,608 26,608 L26,662 L371,662 L371,608 Q316,608 301,589.5 Q286,571 286,527 L286,379 L558,379 L558,527 Q558,549 556,560.5 Q554,572 546.5,584.5 Q539,597 521,602.5 Q503,608 474,608 L474,662 L818,662 L818,608 Q762,608 746.5,590.5 Q731,573 731,527 L731,135 Q731,90 746.5,72 Q762,54 818,54 L818,0 L474,0 L474,54 Q528,54 543,72.5 Q558,91 558,135 L558,317"/> 
            <glyph glyph-name="I" unicode="&#x49;" horiz-adv-x="378" d=" M27,608 L27,662 L378,662 L378,608 Q321,608 304.5,591 Q288,574 288,527 L288,135 Q288,88 304,71 Q320,54 378,54 L378,0 L27,0 L27,54 Q83,54 99,71.5 Q115,89 115,135 L115,527 Q115,572 99.5,590 Q84,608 27,608"/> 
            <glyph glyph-name="J" unicode="&#x4A;" horiz-adv-x="369" d=" M12,608 L12,662 L369,662 L369,608 Q313,608 297,590.5 Q281,573 281,527 L281,56 Q281,52 281,43 Q282,18 281.5,2 Q281,-14 276,-46.5 Q271,-79 262,-101 Q253,-123 233,-150.5 Q213,-178 185.5,-195 Q158,-212 113.5,-224 Q69,-236 13,-236 Q-61,-236 -109,-208.5 Q-157,-181 -157,-137 Q-157,-108 -133,-87 Q-109,-66 -71,-66 Q-39,-66 -18.5,-81 Q2,-96 2,-126 Q2,-134 -1,-145 Q-4,-156 -4,-159 Q-4,-182 33,-182 Q58,-182 73.5,-170.5 Q89,-159 96.5,-132.5 Q104,-106 106,-75.5 Q108,-45 108,7 L108,527 Q108,547 106.5,557.5 Q105,568 98.5,582 Q92,596 74.5,602 Q57,608 29,608"/> 
            <glyph glyph-name="K" unicode="&#x4B;" horiz-adv-x="813" d=" M284,262 L284,135 Q284,88 299.5,71 Q315,54 366,54 L366,0 L21,0 L21,54 Q77,54 94,69.5 Q111,85 111,135 L111,527 Q111,576 94.5,592 Q78,608 21,608 L21,662 L374,662 L374,608 Q348,608 330,603 Q312,598 303,592 Q294,586 289.5,572.5 Q285,559 284.5,551 Q284,543 284,524 L284,342 L463,507 Q510,551 510,578 Q510,608 451,608 L451,662 L744,662 L744,608 Q707,608 668,589.5 Q629,571 602.5,550 Q576,529 535,492 L475,437 L657,166 Q701,101 731.5,77.5 Q762,54 813,54 L813,0 L433,0 L433,54 Q507,54 507,84 Q507,90 506.5,94 Q506,98 503.5,103 Q501,108 498.5,111 Q496,114 489.5,123.5 Q483,133 477,141 L351,324"/> 
            <glyph glyph-name="L" unicode="&#x4C;" horiz-adv-x="628" d=" M628,220 L625,0 L22,0 L22,54 Q76,54 93.5,68 Q111,82 111,135 L111,527 Q111,574 95,591 Q79,608 22,608 L22,662 L377,662 L377,608 Q319,608 301.5,592 Q284,576 284,527 L284,149 Q284,120 285.5,108 Q287,96 296.5,82 Q306,68 327.5,63.5 Q349,59 387,59 Q407,59 421,60 Q435,61 462,69.5 Q489,78 508,93.5 Q527,109 546.5,141.5 Q566,174 576,220"/> 
            <glyph glyph-name="M" unicode="&#x4D;" horiz-adv-x="967" d=" M415,0 L169,520 L169,174 Q169,154 170,140 Q171,126 176.5,108.5 Q182,91 191.5,80 Q201,69 218.5,61.5 Q236,54 261,54 L261,0 L23,0 L23,54 Q37,54 48.5,56.5 Q60,59 68.5,63 Q77,67 84,74 Q91,81 95,87 Q99,93 102.5,102.5 Q106,112 107.5,118 Q109,124 109.5,135 Q110,146 110,150 Q110,154 110,164 Q110,174 110,175 L110,525 Q110,548 108.5,559 Q107,570 99.5,583.5 Q92,597 73,602.5 Q54,608 23,608 L23,662 L289,662 L493,227 L699,662 L965,662 L965,608 L951,608 Q923,608 906,602 Q889,596 882,582.5 Q875,569 873.5,558.5 Q872,548 872,527 L872,135 Q872,115 873.5,104.5 Q875,94 881.5,80 Q888,66 905.5,60 Q923,54 951,54 L967,54 L967,0 L606,0 L606,54 Q664,54 681.5,70 Q699,86 699,135 L699,529 L453,0"/> 
            <glyph glyph-name="N" unicode="&#x4E;" horiz-adv-x="757" d=" M181,474 L181,169 Q181,150 181.5,139.5 Q182,129 187,110.5 Q192,92 201.5,81.5 Q211,71 230,62.5 Q249,54 276,54 L276,0 L27,0 L27,54 Q122,54 119,165 Q119,168 119,169 L119,507 Q119,608 24,608 L24,662 L247,662 L611,257 L611,499 Q611,608 519,608 L519,662 L757,662 L757,608 Q673,608 673,498 L673,-11 L610,-11"/> 
            <glyph glyph-name="O" unicode="&#x4F;" horiz-adv-x="787" d=" M46,333 Q46,391 68,449.5 Q90,508 133,559 Q176,610 249,642 Q322,674 413,674 Q492,674 557.5,652 Q623,630 664.5,594.5 Q706,559 734.5,512.5 Q763,466 775,420 Q787,374 787,328 Q787,266 765,207 Q743,148 699.5,97.5 Q656,47 583,16.5 Q510,-14 418,-14 Q246,-14 146,83.5 Q46,181 46,333 M248,338 Q248,50 413,50 Q502,50 543,114.5 Q584,179 584,329 Q584,482 540.5,546 Q497,610 415,610 Q248,610 248,338"/> 
            <glyph glyph-name="P" unicode="&#x50;" horiz-adv-x="632" d=" M283,293 L283,135 Q283,115 284.5,104.5 Q286,94 293,80 Q300,66 317,60 Q334,54 363,54 L378,54 L378,0 L19,0 L19,54 Q76,54 93,70.5 Q110,87 110,135 L110,527 Q110,547 108.5,557.5 Q107,568 100.5,582 Q94,596 76.5,602 Q59,608 31,608 L15,608 L15,662 L283,668 Q416,671 479,655 Q525,644 557,622.5 Q589,601 604.5,575 Q620,549 626,526 Q632,503 632,479 Q632,420 597,375.5 Q562,331 496,310 Q443,293 332,293 M283,609 L283,352 L316,352 Q335,352 348.5,353 Q362,354 382,361 Q402,368 414.5,380.5 Q427,393 436,417.5 Q445,442 445,476 Q445,514 434,540.5 Q423,567 409.5,580.5 Q396,594 370,600.5 Q344,607 328.5,608 Q313,609 283,609"/> 
            <glyph glyph-name="Q" unicode="&#x51;" horiz-adv-x="949" d=" M524,-2 L444,-49 Q494,-39 601,-86 Q696,-128 770,-128 Q852,-128 896,-70 L949,-70 Q936,-153 881,-204 Q826,-255 731,-255 Q699,-255 670,-248 Q641,-241 625.5,-236 Q610,-231 585,-212 Q560,-193 555.5,-188.5 Q551,-184 525,-160 Q462,-101 408,-101 Q365,-101 329,-137 Q317,-149 313.5,-152.5 Q310,-156 302,-162 Q294,-168 288.5,-170 Q283,-172 276,-172 Q262,-172 253.5,-162 Q245,-152 245,-139 Q245,-102 363,-36 Q382,-25 403,-12 Q326,-10 263.5,13 Q201,36 161.5,70.5 Q122,105 95,149.5 Q68,194 57,238.5 Q46,283 46,327 Q46,391 69,451.5 Q92,512 136,562.5 Q180,613 253,643.5 Q326,674 417,674 Q491,674 553.5,653.5 Q616,633 658.5,598.5 Q701,564 730.5,519 Q760,474 773.5,425.5 Q787,377 787,328 Q787,280 773,232.5 Q759,185 730,137.5 Q701,90 648,53 Q595,16 524,-2 M248,338 Q248,50 413,50 Q502,50 543,114.5 Q584,179 584,329 Q584,482 540.5,546 Q497,610 415,610 Q248,610 248,338"/> 
            <glyph glyph-name="R" unicode="&#x52;" horiz-adv-x="754" d=" M285,292 L285,135 Q285,88 301.5,71 Q318,54 376,54 L376,0 L19,0 L19,54 Q77,54 94.5,70 Q112,86 112,135 L112,527 Q112,575 95,591.5 Q78,608 19,608 L19,662 L374,662 Q458,662 496,652 Q575,631 607,582.5 Q639,534 639,484 Q639,367 505,324 Q530,305 547,283.5 Q564,262 595,215 L662,115 Q702,54 754,54 L754,0 L547,0 Q513,44 425,203 Q390,267 369,279 Q348,291 285,292 M285,603 L285,352 Q312,348 342,351 Q372,354 398,362 Q424,370 441,400 Q458,430 458,479 Q458,514 448.5,538.5 Q439,563 425,576 Q411,589 386.5,595.5 Q362,602 340.5,603 Q319,604 285,603"/> 
            <glyph glyph-name="S" unicode="&#x53;" horiz-adv-x="529" d=" M55,11 L55,238 L114,238 Q121,206 133.5,175.5 Q146,145 167,115.5 Q188,86 220.5,68 Q253,50 292,50 Q336,50 360,75.5 Q384,101 384,133 Q384,190 295,234 Q245,259 221,271.5 Q197,284 163,304 Q129,324 114,339 Q99,354 82.5,376 Q66,398 60.5,422 Q55,446 55,476 Q55,560 117,617 Q179,674 258,674 Q343,674 401,617 Q415,640 418,662 L473,662 L473,467 L418,467 Q401,541 358.5,578 Q316,615 271,615 Q226,615 206.5,591 Q187,567 187,541 Q187,500 216,478 Q245,456 347,408 Q435,367 482,318 Q529,269 529,191 Q529,100 462.5,43 Q396,-14 309,-14 Q264,-14 215,5 Q166,24 130,65 Q119,41 114,11"/> 
            <glyph glyph-name="T" unicode="&#x54;" horiz-adv-x="691" d=" M273,603 L215,603 Q194,603 182,602 Q170,601 150,594.5 Q130,588 118.5,575.5 Q107,563 96.5,537 Q86,511 83,474 L28,474 L28,662 L691,662 L691,474 L636,474 Q628,510 617,535 Q606,560 594.5,573 Q583,586 566,593 Q549,600 536,601.5 Q523,603 501,603 L446,603 L446,135 Q446,114 447.5,104 Q449,94 455.5,80 Q462,66 479,60 Q496,54 525,54 L542,54 L542,0 L177,0 L177,54 L193,54 Q221,54 238,60 Q255,66 262.5,79.5 Q270,93 271.5,104 Q273,115 273,135"/> 
            <glyph glyph-name="U" unicode="&#x55;" horiz-adv-x="753" d=" M17,608 L17,662 L367,662 L367,608 Q310,608 293.5,591 Q277,574 277,527 L277,266 Q277,180 295,139 Q312,99 350.5,77 Q389,55 435,55 Q484,55 527.5,79 Q571,103 587,143 Q606,190 606,284 L606,506 Q606,608 508,608 L508,662 L753,662 L753,608 Q668,608 668,508 L668,282 Q668,234 666,207.5 Q664,181 650.5,141.5 Q637,102 610,71 Q575,31 515,8.5 Q455,-14 390,-14 Q358,-14 324,-8 Q290,-2 252,11.5 Q214,25 181.5,52.5 Q149,80 131,119 Q118,146 112,173 Q106,200 105,216.5 Q104,233 104,266 L104,527 Q104,572 88.5,590 Q73,608 17,608"/> 
            <glyph glyph-name="V" unicode="&#x56;" horiz-adv-x="722" d=" M332,-14 L107,491 Q72,568 62,582 Q35,607 -14,608 L-14,662 L338,662 L338,608 Q316,608 301,604.5 Q286,601 279,597 Q272,593 268.5,586.5 Q265,580 265,578 Q265,576 265,572 Q265,554 280,519 L421,205 L542,488 Q563,536 563,562 Q563,608 489,608 L489,662 L722,662 L722,608 Q679,608 656.5,581 Q634,554 593,457 L392,-14"/> 
            <glyph glyph-name="W" unicode="&#x57;" horiz-adv-x="949" d=" M237,-14 L76,511 Q57,574 42,591 Q27,608 -11,608 L-11,662 L290,662 L290,608 Q236,608 236,575 Q236,554 247,519 L337,231 L476,662 L552,662 L720,232 L784,465 Q802,533 802,551 Q802,581 783,594.5 Q764,608 737,608 L737,662 L949,662 L949,608 Q909,608 889,576.5 Q869,545 846,462 L713,-14 L637,-14 L464,434 L316,-14"/> 
            <glyph glyph-name="X" unicode="&#x58;" horiz-adv-x="799" d=" M357,256 L254,143 Q227,113 227,94 Q227,54 304,54 L304,0 L13,0 L13,54 Q58,54 93.5,76.5 Q129,99 173,146 L320,304 L171,496 Q138,539 125,554.5 Q112,570 92.5,586 Q73,602 56.5,605 Q40,608 12,608 L12,662 L386,662 L386,608 Q365,608 355.5,607 Q346,606 337.5,600.5 Q329,595 329,583 Q329,564 352,535 L437,426 L529,528 Q558,560 558,579 Q558,608 494,608 L494,662 L759,662 L759,608 Q719,605 689,590.5 Q659,576 642,559.5 Q625,543 588,503 L475,379 L630,176 Q668,127 685.5,107 Q703,87 733,70.5 Q763,54 799,54 L799,0 L395,0 L395,54 Q438,54 456.5,60.5 Q475,67 475,88 Q475,95 465,114 Q455,133 445,145"/> 
            <glyph glyph-name="Y" unicode="&#x59;" horiz-adv-x="686" d=" M257,271 L107,521 Q77,571 56.5,589.5 Q36,608 1,608 L1,662 L333,662 L333,608 Q279,608 279,579 Q279,562 299,530 L408,350 L499,502 Q523,543 523,563 Q523,608 459,608 L459,662 L686,662 L686,608 Q658,608 633.5,588 Q609,568 577,518 L430,282 L430,135 Q430,89 446,71.5 Q462,54 521,54 L521,0 L166,0 L166,54 Q226,54 241.5,72 Q257,90 257,134"/> 
            <glyph glyph-name="Z" unicode="&#x5A;" horiz-adv-x="640" d=" M34,0 L34,43 L405,603 L298,603 Q202,603 163.5,583 Q125,563 106,486 L52,486 L62,662 L620,662 L620,618 L245,59 L397,59 Q427,59 443.5,60.5 Q460,62 484.5,69 Q509,76 524.5,90 Q540,104 556.5,131 Q573,158 585,197 L640,197 L629,0"/> 
            <glyph glyph-name="[" unicode="&#x5B;" horiz-adv-x="406" d=" M124,-233 L124,662 L406,662 L406,610 L329,610 Q307,610 293.5,606 Q280,602 274.5,592 Q269,582 268,574.5 Q267,567 267,551 L267,-129 Q267,-142 268.5,-149.5 Q270,-157 276,-165.5 Q282,-174 296.5,-177.5 Q311,-181 334,-181 L406,-181 L406,-233"/> 
            <glyph glyph-name="\" unicode="&#x5C;" horiz-adv-x="557" d=" M207,662 L557,-16 L417,-16 L68,662"/> 
            <glyph glyph-name="]" unicode="&#x5D;" horiz-adv-x="303" d=" M303,-233 L21,-233 L21,-181 L93,-181 Q116,-181 130.5,-177.5 Q145,-174 151,-166 Q157,-158 158.5,-150.5 Q160,-143 160,-130 L160,552 Q160,568 159,575.5 Q158,583 152.5,592.5 Q147,602 133.5,606 Q120,610 98,610 L21,610 L21,662 L303,662"/> 
            <glyph glyph-name="^" unicode="&#x5E;" horiz-adv-x="517" d=" M67,311 L267,662 L319,662 L517,311 L398,311 L292,502 L183,311"/> 
            <glyph glyph-name="_" unicode="&#x5F;" horiz-adv-x="506" d=" M-6,-75 L506,-75 L506,-125 L-6,-125"/> 
            <glyph glyph-name="`" unicode="&#x60;" horiz-adv-x="259" d=" M259,482 L217,482 L-10,637 L-10,639 L188,639"/> 
            <glyph glyph-name="a" unicode="&#x61;" horiz-adv-x="559" d=" M307,264 L307,300 L307,304 Q307,309 307,312 Q307,315 306.5,320.5 Q306,326 304.5,330 Q303,334 300,339.5 Q297,345 292.5,349 Q288,353 281.5,356 Q275,359 265.5,361 Q256,363 245,363 Q223,363 208.5,358 Q194,353 188,343 Q182,333 180,328.5 Q178,324 177,315 Q168,257 112,257 Q82,257 66.5,272.5 Q51,288 51,307 Q51,353 110,384.5 Q169,416 279,416 Q341,416 381,406 Q421,396 438,375.5 Q455,355 460,336.5 Q465,318 465,289 L465,104 Q465,61 491,61 Q513,61 518,89 L559,89 Q556,33 513,9 Q482,-9 437,-9 Q352,-9 316,42 Q244,-9 161,-9 Q97,-9 72.5,19 Q48,47 48,79 Q48,102 56.5,121.5 Q65,141 85,158 Q105,175 124,187.5 Q143,200 178.5,215 Q214,230 238.5,239 Q263,248 307,264 M307,95 L307,209 Q253,186 225.5,163.5 Q198,141 198,111 Q198,93 209.5,77.5 Q221,62 243,62 Q276,62 307,95"/> 
            <glyph glyph-name="b" unicode="&#x62;" horiz-adv-x="579" d=" M207,60 L120,-11 L79,-11 L79,523 Q79,542 77.5,551.5 Q76,561 70,571 Q64,581 50,584.5 Q36,588 13,588 L13,640 L237,674 L237,366 Q302,416 376,416 Q461,416 520,357.5 Q579,299 579,203 Q579,104 517.5,46 Q456,-12 372,-12 Q279,-12 207,60 M237,299 L237,110 Q279,56 327,56 Q411,56 411,201 Q411,347 329,347 Q278,347 237,299"/> 
            <glyph glyph-name="c" unicode="&#x63;" horiz-adv-x="468" d=" M418,123 L468,101 Q453,62 424.5,36 Q396,10 362.5,0 Q329,-10 308,-13 Q287,-16 267,-16 Q167,-16 100,40.5 Q33,97 33,191 Q33,293 108,354.5 Q183,416 296,416 Q323,416 349,411.5 Q375,407 400.5,397 Q426,387 442,367 Q458,347 458,319 Q458,294 442,275 Q426,256 398,256 Q344,256 329,331 Q321,364 286,364 Q200,364 200,225 Q200,131 226,89.5 Q252,48 308,48 Q334,48 355,56.5 Q376,65 389.5,81 Q403,97 407.5,103.5 Q412,110 418,123"/> 
            <glyph glyph-name="d" unicode="&#x64;" horiz-adv-x="598" d=" M373,363 L373,521 Q373,539 371.5,548.5 Q370,558 364,568 Q358,578 344,582 Q330,586 307,586 L307,638 L531,674 L531,128 Q531,109 532.5,99 Q534,89 540.5,79.5 Q547,70 561,66 Q575,62 598,62 L598,7 Q465,3 384,-12 Q373,13 373,52 Q351,33 337.5,23 Q324,13 290.5,0.5 Q257,-12 219,-12 Q131,-12 83.5,46.5 Q36,105 36,195 Q36,254 53.5,297.5 Q71,341 94,363 Q117,385 148,398 Q179,411 197.5,413.5 Q216,416 234,416 Q322,416 373,363 M373,120 L373,305 Q335,343 288,343 Q261,343 243,332 Q225,321 217,299.5 Q209,278 206,257 Q203,236 203,207 Q203,61 280,61 Q302,61 329,74.5 Q356,88 373,120"/> 
            <glyph glyph-name="e" unicode="&#x65;" horiz-adv-x="488" d=" M429,103 L475,76 Q445,34 393.5,9 Q342,-16 280,-16 Q180,-16 113,44.5 Q46,105 46,202 Q46,301 112.5,358.5 Q179,416 274,416 Q309,416 343,406.5 Q377,397 411.5,375.5 Q446,354 467,310 Q488,266 488,205 L213,205 Q213,45 324,45 Q382,45 429,103 M213,254 L338,254 Q335,362 275,362 Q213,362 213,254"/> 
            <glyph glyph-name="f" unicode="&#x66;" horiz-adv-x="482" d=" M257,348 L257,117 Q257,99 258,90.5 Q259,82 264.5,71.5 Q270,61 283.5,56.5 Q297,52 320,52 L346,52 L346,0 L19,0 L19,52 L36,52 Q78,52 88.5,67 Q99,82 99,117 L99,348 L19,348 L19,400 L99,400 Q99,509 113,550 Q126,588 153,615 Q180,642 213,653.5 Q246,665 273,669.5 Q300,674 326,674 Q388,674 435,652 Q482,630 482,581 Q482,552 461,530.5 Q440,509 410,509 Q383,509 363,527 Q343,545 336,575 Q332,589 329.5,596.5 Q327,604 318.5,612 Q310,620 298,620 Q257,620 257,518 L257,400 L346,400 L346,348"/> 
            <glyph glyph-name="g" unicode="&#x67;" horiz-adv-x="554" d=" M164,142 L164,144 Q127,154 102,173 Q77,192 67.5,214 Q58,236 55,249.5 Q52,263 52,275 Q52,341 108,378 Q164,415 265,415 Q365,415 420,373 Q472,416 506,416 Q528,416 541,403 Q554,390 554,368 Q554,329 521,329 Q506,329 493,342 Q481,354 471,354 Q461,354 449,342 Q468,311 468,274 Q468,229 447.5,198.5 Q427,168 390.5,154 Q354,140 323,134.5 Q292,129 252,127 Q229,126 220.5,125 Q212,124 194.5,120.5 Q177,117 169.5,109 Q162,101 162,89 Q162,63 226,63 Q239,63 279,64.5 Q319,66 337,66 Q374,66 402.5,61 Q431,56 461.5,42.5 Q492,29 508.5,-1 Q525,-31 525,-75 Q525,-147 461.5,-197.5 Q398,-248 259,-248 Q238,-248 220,-247.5 Q202,-247 165.5,-241 Q129,-235 104,-225 Q79,-215 59,-193.5 Q39,-172 39,-142 Q39,-117 56,-101 Q73,-85 94,-85 Q114,-85 136,-96 Q129,-115 129,-128 Q129,-196 266,-196 Q435,-196 435,-113 Q435,-87 413.5,-75.5 Q392,-64 326,-64 Q285,-64 263.5,-63.5 Q242,-63 209.5,-61 Q177,-59 159.5,-55.5 Q142,-52 120.5,-44.5 Q99,-37 88.5,-26 Q78,-15 70.5,1.5 Q63,18 63,40 Q63,119 164,142 M204,278 Q204,184 262,184 Q291,184 305,206 Q319,228 319,279 Q319,363 261,363 Q204,363 204,278"/> 
            <glyph glyph-name="h" unicode="&#x68;" horiz-adv-x="595" d=" M241,270 L241,117 Q241,52 290,52 L290,0 L18,0 L18,52 Q61,52 72,66.5 Q83,81 83,117 L83,519 Q83,537 81.5,545.5 Q80,554 74.5,564.5 Q69,575 55,579 Q41,583 18,583 L18,635 L241,674 L241,345 Q304,416 387,416 Q452,416 492,379.5 Q532,343 532,274 L532,117 Q532,82 546,67 Q560,52 595,52 L595,0 L323,0 L323,52 Q353,52 363.5,68 Q374,84 374,118 L374,271 Q374,333 326,333 Q289,333 241,270"/> 
            <glyph glyph-name="i" unicode="&#x69;" horiz-adv-x="316" d=" M250,416 L250,117 Q250,92 253,80.5 Q256,69 270.5,60.5 Q285,52 316,52 L316,0 L18,0 L18,52 Q65,52 78.5,64 Q92,76 92,117 L92,262 Q92,302 79,314.5 Q66,327 18,327 L18,379 M85,586 Q85,622 111,648 Q137,674 173,674 Q210,674 235.5,648 Q261,622 261,586 Q261,547 235,522.5 Q209,498 173,498 Q134,498 109.5,525.5 Q85,553 85,586"/> 
            <glyph glyph-name="j" unicode="&#x6A;" horiz-adv-x="271" d=" M267,416 L267,18 Q267,-42 265,-70 Q263,-98 251.5,-130.5 Q240,-163 216,-185 Q150,-245 38,-245 Q-15,-245 -50.5,-226.5 Q-86,-208 -86,-174 Q-86,-149 -68.5,-132 Q-51,-115 -25,-115 Q18,-115 34,-160 Q38,-169 40,-174 Q42,-179 49.5,-184.5 Q57,-190 67,-190 Q82,-190 91,-180.5 Q100,-171 103.5,-149 Q107,-127 108,-110.5 Q109,-94 109,-61 L109,261 Q109,279 108,287.5 Q107,296 101.5,306.5 Q96,317 82.5,321.5 Q69,326 46,326 L31,326 L31,378 M95,586 Q95,622 121,648 Q147,674 183,674 Q220,674 245.5,648 Q271,622 271,586 Q271,547 245,522.5 Q219,498 183,498 Q144,498 119.5,525.5 Q95,553 95,586"/> 
            <glyph glyph-name="k" unicode="&#x6B;" horiz-adv-x="592" d=" M241,159 L241,117 Q241,101 242,92.5 Q243,84 247.5,73.5 Q252,63 263.5,58 Q275,53 294,52 L294,0 L16,0 L16,52 Q60,52 71.5,65.5 Q83,79 83,117 L83,522 Q83,547 80,559 Q77,571 62,579 Q47,587 16,587 L16,639 L241,674 L241,223 L341,296 Q375,320 375,332 Q375,338 372.5,341.5 Q370,345 363,346 Q356,347 351,347.5 Q346,348 334,348 L334,400 L557,400 L557,348 Q524,348 498,337.5 Q472,327 435,300 L397,272 L499,136 Q522,105 533,91.5 Q544,78 560.5,65 Q577,52 592,52 L592,0 L334,0 L334,52 Q366,52 366,70 Q366,78 345,105 L283,189"/> 
            <glyph glyph-name="l" unicode="&#x6C;" horiz-adv-x="305" d=" M237,674 L237,117 Q237,80 248.5,66 Q260,52 305,52 L305,0 L8,0 L8,52 Q54,52 66.5,65 Q79,78 79,117 L79,521 Q79,560 66.5,573 Q54,586 8,586 L8,638"/> 
            <glyph glyph-name="m" unicode="&#x6D;" horiz-adv-x="953" d=" M240,269 L240,116 Q240,99 241,90.5 Q242,82 247.5,71.5 Q253,61 266,56.5 Q279,52 301,52 L301,0 L6,0 L6,52 Q55,52 68.5,63.5 Q82,75 82,116 L82,253 Q82,272 80.5,281.5 Q79,291 73,300.5 Q67,310 53,313.5 Q39,317 15,317 L15,369 L231,405 Q240,382 240,341 Q305,416 408,416 Q519,416 552,331 Q612,416 718,416 Q757,416 794.5,401 Q832,386 853,358 Q867,340 873.5,319.5 Q880,299 881,285.5 Q882,272 882,245 L882,116 Q882,78 894.5,65 Q907,52 953,52 L953,0 L665,0 L665,52 Q693,52 706.5,62 Q720,72 722,83 Q724,94 724,116 L724,256 Q724,338 663,338 Q637,338 614,323.5 Q591,309 582.5,298.5 Q574,288 561,269 L561,116 Q561,99 562,90.5 Q563,82 568.5,71.5 Q574,61 587,56.5 Q600,52 622,52 L622,0 L344,0 L344,52 Q365,52 378,56.5 Q391,61 396,71.5 Q401,82 402,90.5 Q403,99 403,116 L403,255 Q403,336 343,336 Q289,336 240,269"/> 
            <glyph glyph-name="n" unicode="&#x6E;" horiz-adv-x="592" d=" M237,275 L237,116 Q237,98 239.5,86 Q242,74 253.5,63 Q265,52 287,52 L287,0 L13,0 L13,52 Q57,52 68,65.5 Q79,79 79,116 L79,253 Q79,272 77.5,281 Q76,290 70,300 Q64,310 50,313.5 Q36,317 13,317 L13,369 L230,405 Q238,383 240,346 Q306,416 381,416 Q451,416 489.5,377 Q528,338 528,275 L528,116 Q528,98 529,89.5 Q530,81 535.5,70.5 Q541,60 555,56 Q569,52 592,52 L592,0 L320,0 L320,52 Q343,52 354.5,63 Q366,74 368,85 Q370,96 370,116 L370,262 Q370,332 325,332 Q284,332 237,275"/> 
            <glyph glyph-name="o" unicode="&#x6F;" horiz-adv-x="525" d=" M37,201 Q37,246 52,283.5 Q67,321 91.5,345 Q116,369 148.5,385.5 Q181,402 214,409 Q247,416 280,416 Q318,416 357.5,405.5 Q397,395 436,372 Q475,349 500,304.5 Q525,260 525,201 Q525,130 487,79 Q449,28 395,6 Q341,-16 281,-16 Q256,-16 228,-11.5 Q200,-7 164.5,7.5 Q129,22 102,44.5 Q75,67 56,108 Q37,149 37,201 M204,206 Q204,177 204.5,161 Q205,145 209,118 Q213,91 220.5,76 Q228,61 244,49.5 Q260,38 282,38 Q308,38 324.5,52.5 Q341,67 348,95.5 Q355,124 356.5,145.5 Q358,167 358,200 Q358,223 357.5,236 Q357,249 355,271.5 Q353,294 348,307 Q343,320 335,334.5 Q327,349 313.5,355.5 Q300,362 281,362 Q259,362 243.5,350.5 Q228,339 220.5,324.5 Q213,310 209,284.5 Q205,259 204.5,244.5 Q204,230 204,206"/> 
            <glyph glyph-name="p" unicode="&#x70;" horiz-adv-x="579" d=" M238,40 L238,-119 Q238,-137 239,-145.5 Q240,-154 245.5,-164.5 Q251,-175 264.5,-179.5 Q278,-184 301,-184 L317,-184 L317,-236 L13,-236 L13,-184 Q56,-184 68,-170 Q80,-156 80,-119 L80,264 Q80,283 78.5,292.5 Q77,302 70.5,311.5 Q64,321 50,325 Q36,329 13,329 L13,380 L225,416 Q235,378 235,346 Q302,416 388,416 Q465,416 522,359 Q579,302 579,205 Q579,105 519,44.5 Q459,-16 378,-16 Q305,-16 238,40 M238,280 L238,99 Q277,57 324,57 Q412,57 412,197 Q412,343 330,343 Q302,343 277,325 Q252,307 238,280"/> 
            <glyph glyph-name="q" unicode="&#x71;" horiz-adv-x="601" d=" M402,346 L491,416 L533,416 L533,-119 Q533,-156 544.5,-170 Q556,-184 601,-184 L601,-236 L298,-236 L298,-184 L312,-184 Q354,-184 364.5,-169 Q375,-154 375,-119 L375,36 Q308,-16 235,-16 Q146,-16 91,42 Q36,100 36,194 Q36,303 97,359 Q158,415 241,415 Q281,415 316.5,401 Q352,387 367,376 Q382,365 402,346 M375,101 L375,293 Q331,349 285,349 Q203,349 203,200 Q203,54 283,54 Q332,54 375,101"/> 
            <glyph glyph-name="r" unicode="&#x72;" horiz-adv-x="470" d=" M248,160 L248,117 Q248,78 261,65 Q274,52 321,52 L321,0 L25,0 L25,52 Q68,52 79,66.5 Q90,81 90,117 L90,256 Q90,293 78.5,307 Q67,321 24,321 L24,373 L226,416 Q241,371 241,312 Q301,416 386,416 Q429,416 449.5,389.5 Q470,363 470,333 Q470,306 454,284.5 Q438,263 405,263 Q393,263 382.5,268 Q372,273 367,278 Q362,283 350,296 Q333,316 312,316 Q248,316 248,160"/> 
            <glyph glyph-name="s" unicode="&#x73;" horiz-adv-x="444" d=" M50,-16 L47,117 L94,117 Q132,34 234,34 Q275,34 303.5,48.5 Q332,63 332,82 Q332,100 313.5,108.5 Q295,117 247,126 Q209,133 186,138.5 Q163,144 130.5,156.5 Q98,169 79.5,183.5 Q61,198 47.5,223 Q34,248 34,279 Q34,340 83,378 Q132,416 219,416 Q280,416 349,391 Q363,405 367,416 L408,416 L412,295 L373,295 Q354,333 313,351.5 Q272,370 223,370 Q188,370 164,358.5 Q140,347 140,327 Q140,316 145,308.5 Q150,301 167,295 Q184,289 199,285.5 Q214,282 250,275 Q286,268 305,263.5 Q324,259 355,247.5 Q386,236 402,222 Q418,208 431,184 Q444,160 444,129 Q444,62 385.5,23 Q327,-16 249,-16 Q187,-16 113,11 Q100,1 94,-16"/> 
            <glyph glyph-name="t" unicode="&#x74;" horiz-adv-x="371" d=" M236,348 L236,139 Q236,90 242.5,71 Q249,52 271,52 Q305,52 323,93 L371,77 Q350,25 305,4.5 Q260,-16 215,-16 Q78,-16 78,114 L78,348 L20,348 L20,400 Q90,397 132.5,436.5 Q175,476 184,533 L236,533 L236,400 L356,400 L356,348"/> 
            <glyph glyph-name="u" unicode="&#x75;" horiz-adv-x="593" d=" M77,130 L77,283 Q77,300 76,308.5 Q75,317 70,328 Q65,339 52,343.5 Q39,348 17,348 L17,400 L235,400 L235,139 Q235,125 236,116.5 Q237,108 241,95 Q245,82 256,75 Q267,68 284,68 Q322,68 368,130 L368,283 Q368,301 366.5,310 Q365,319 359.5,329.5 Q354,340 340,344 Q326,348 302,348 L302,400 L526,400 L526,117 Q526,98 527.5,88.5 Q529,79 535,69 Q541,59 555,55.5 Q569,52 593,52 L593,0 Q472,0 368,-16 L368,55 Q303,-16 220,-16 Q195,-16 172,-9.5 Q149,-3 126.5,12 Q104,27 90.5,57 Q77,87 77,130"/> 
            <glyph glyph-name="v" unicode="&#x76;" horiz-adv-x="515" d=" M210,-8 L71,270 Q44,324 31,336 Q18,348 -6,348 L-6,400 L255,400 L255,348 Q210,348 210,329 Q210,319 233,278 L307,129 L381,277 Q403,321 403,328 Q403,348 362,348 L362,400 L515,400 L515,348 Q490,348 476,331.5 Q462,315 433,256 L300,-8"/> 
            <glyph glyph-name="w" unicode="&#x77;" horiz-adv-x="788" d=" M189,-8 L63,282 Q44,325 32,336.5 Q20,348 -7,348 L-7,400 L261,400 L261,348 Q248,348 242,347.5 Q236,347 227.5,345.5 Q219,344 215,340 Q211,336 211,329 Q211,319 221,294 L284,144 L401,400 L484,400 L603,144 L653,267 Q671,314 671,323 Q671,348 614,348 L614,400 L788,400 L788,348 Q762,348 748,332.5 Q734,317 719,281 L597,-8 L511,-8 L390,247 L275,-8"/> 
            <glyph glyph-name="x" unicode="&#x78;" horiz-adv-x="525" d=" M229,139 L182,98 Q153,74 153,65 Q153,56 161.5,54 Q170,52 192,52 L192,0 L8,0 L8,52 Q65,63 121,110 L195,174 L101,275 Q33,348 6,348 L6,400 L284,400 L284,348 Q249,348 249,335 Q249,330 268,309 L304,269 L345,305 Q368,326 368,336 Q368,348 342,348 L334,348 L334,400 L502,400 L502,348 Q488,348 468.5,338 Q449,328 436,317.5 Q423,307 394,284 L334,234 L454,105 Q486,71 498,63 Q510,55 525,52 L525,0 L241,0 L241,52 Q288,52 288,67 Q288,72 272,90"/> 
            <glyph glyph-name="y" unicode="&#x79;" horiz-adv-x="521" d=" M321,138 L380,263 Q403,309 403,323 Q403,333 393,341 Q383,349 361,348 L361,400 L521,400 L521,348 Q496,346 482,331.5 Q468,317 440,258 L270,-96 Q248,-142 237,-163 Q226,-184 208,-208 Q190,-232 171,-240.5 Q152,-249 126,-249 Q93,-249 73,-229.5 Q53,-210 53,-183 Q53,-136 119,-120 Q141,-115 151.5,-112 Q162,-109 178.5,-101.5 Q195,-94 206,-82.5 Q217,-71 226,-53 L244,-18 L68,284 Q39,334 32,340 Q21,347 -1,348 L-1,400 L259,400 L259,348 Q245,347 238.5,346 Q232,345 226,340.5 Q220,336 220,328 Q220,322 236,293"/> 
            <glyph glyph-name="z" unicode="&#x7A;" horiz-adv-x="459" d=" M28,0 L28,41 L252,348 L160,348 Q138,348 127.5,337 Q117,326 95,277 L42,277 L52,400 L452,400 L452,354 L229,52 L318,52 Q336,52 346.5,55 Q357,58 373.5,77.5 Q390,97 406,137 L459,137 L446,0"/> 
            <glyph glyph-name="{" unicode="&#x7B;" horiz-adv-x="334" d=" M334,674 L334,651 Q239,632 239,554 Q239,528 250.5,468 Q262,408 262,382 Q262,328 222.5,278.5 Q183,229 99,213 Q172,195 217.5,151.5 Q263,108 263,43 Q263,21 251,-36 Q239,-93 239,-124 Q239,-209 334,-225 L334,-249 Q282,-250 241,-234 Q200,-218 177.5,-192 Q155,-166 143.5,-138 Q132,-110 132,-85 Q132,-59 145.5,1.5 Q159,62 159,90 Q159,120 148,142 Q137,164 119.5,175 Q102,186 89,190.5 Q76,195 63,197 L63,228 Q96,234 117.5,249 Q139,264 147,285 Q155,306 157,317 Q159,328 159,340 Q159,369 146,426.5 Q133,484 133,508 Q133,517 135,529.5 Q137,542 148,568.5 Q159,595 178.5,616 Q198,637 238.5,654.5 Q279,672 334,674"/> 
            <glyph glyph-name="|" unicode="&#x7C;" horiz-adv-x="377" d=" M248,662 L377,662 L377,-236 L248,-236"/> 
            <glyph glyph-name="}" unicode="&#x7D;" horiz-adv-x="333" d=" M62,-249 L62,-226 Q157,-207 157,-129 Q157,-103 145.5,-43 Q134,17 134,43 Q134,97 173.5,146.5 Q213,196 297,212 Q224,230 178.5,273.5 Q133,317 133,382 Q133,404 145,461 Q157,518 157,549 Q157,634 62,650 L62,674 Q114,675 155,659 Q196,643 218.5,617 Q241,591 252.5,563 Q264,535 264,510 Q264,484 250.5,423.5 Q237,363 237,335 Q237,305 248,283 Q259,261 276.5,250 Q294,239 307,234.5 Q320,230 333,228 L333,197 Q300,191 278.5,176 Q257,161 249,140 Q241,119 239,108 Q237,97 237,85 Q237,56 250,-1.5 Q263,-59 263,-83 Q263,-92 261,-104.5 Q259,-117 248,-143.5 Q237,-170 217.5,-191 Q198,-212 157.5,-229.5 Q117,-247 62,-249"/> 
            <glyph glyph-name="~" unicode="&#x7E;" horiz-adv-x="609" d=" M570,426 L609,426 Q609,347 570.5,289.5 Q532,232 457,232 Q422,232 386,243.5 Q350,255 272,289 Q210,316 176,316 Q108,316 97,232 L58,232 Q68,426 208,426 Q270,426 395,371 Q463,341 491,341 Q524,341 545,363 Q566,385 570,426"/> 
            <glyph glyph-name="¡" unicode="&#xA1;" horiz-adv-x="255" d=" M255,394 Q255,320 229,294.5 Q203,269 166,269 Q130,269 104,294.5 Q78,320 78,357 Q78,394 104,420 Q130,446 166,446 Q202,446 255,394 M194,212 L237,-86 Q245,-142 245,-169 Q245,-183 243.5,-192.5 Q242,-202 235.5,-215.5 Q229,-229 211.5,-236.5 Q194,-244 167,-244 Q141,-244 124,-236.5 Q107,-229 100.5,-215.5 Q94,-202 92,-192.5 Q90,-183 90,-169 Q90,-159 99,-96 L140,212"/> 
            <glyph glyph-name="¢" unicode="&#xA2;" horiz-adv-x="470" d=" M254,-16 L220,-189 L167,-189 L203,-9 Q118,10 75.5,65 Q33,120 33,191 Q33,282 98.5,346.5 Q164,411 287,416 L326,609 L379,609 L339,413 Q379,407 406,394 Q433,381 444,365 Q455,349 458.5,338.5 Q462,328 462,319 Q462,293 443.5,274.5 Q425,256 398,256 Q378,256 363.5,264.5 Q349,273 341.5,290.5 Q334,308 331.5,318 Q329,328 325,347 L268,55 Q289,49 308,49 Q386,49 419,123 L470,101 Q448,46 392,13.5 Q336,-19 254,-16 M224,93 L277,363 Q200,353 200,225 Q200,132 224,93"/> 
            <glyph glyph-name="£" unicode="&#xA3;" horiz-adv-x="695" d=" M182,93 L35,93 L55,169 L199,169 Q201,179 215.5,256.5 Q230,334 233,348 Q272,510 347,591 Q422,672 538,672 Q607,672 651,645 Q695,618 695,579 Q695,555 677,537.5 Q659,520 635,520 Q596,520 567,571 Q544,613 504,613 Q462,613 442,574.5 Q422,536 405,446 Q368,249 335,169 L493,169 L475,93 L303,93 Q276,35 238,-19 Q265,-7 291,-7 Q319,-7 346.5,-19.5 Q374,-32 391.5,-45.5 Q409,-59 437,-85 Q500,-142 536,-142 Q560,-142 572,-128.5 Q584,-115 584,-100 Q584,-91 573,-63.5 Q562,-36 562,-16 Q562,11 576.5,27 Q591,43 616,43 Q647,43 664.5,21.5 Q682,0 682,-29 Q682,-101 617,-162 Q552,-223 466,-223 Q430,-223 397.5,-209.5 Q365,-196 348.5,-183.5 Q332,-171 307,-147 Q252,-96 224,-96 Q211,-96 197,-103 Q195,-107 188.5,-122 Q182,-137 178.5,-145 Q175,-153 167.5,-167 Q160,-181 153.5,-189 Q147,-197 138,-206 Q129,-215 118.5,-219 Q108,-223 96,-223 Q75,-223 53.5,-208 Q32,-193 32,-169 Q32,-115 139,-53 Q166,16 182,93"/> 
            <glyph glyph-name="¤" unicode="&#xA4;" horiz-adv-x="461" d=" M461,176 L419,132 L351,197 Q289,160 234,160 Q179,160 118,197 L50,132 L8,176 L73,239 Q37,304 37,354 Q37,405 73,469 L8,533 L50,577 L118,512 Q181,549 234,549 Q289,549 351,512 L419,577 L461,533 L396,469 Q433,405 433,354 Q433,306 396,239 M371,355 Q371,411 329.5,450 Q288,489 234,489 Q178,489 139,449.5 Q100,410 100,355 Q100,300 139.5,260 Q179,220 234,220 Q290,220 330.5,260 Q371,300 371,355"/> 
            <glyph glyph-name="¥" unicode="&#xA5;" horiz-adv-x="568" d=" M149,331 L47,521 Q32,549 25,560.5 Q18,572 6,585.5 Q-6,599 -18,603.5 Q-30,608 -48,608 L-48,662 L250,662 L250,608 Q202,608 202,579 Q202,562 220,530 L318,350 L403,510 Q421,543 421,564 Q421,608 364,608 L364,662 L568,662 L568,608 Q519,608 471,520 L366,331 L532,331 L532,282 L339,282 L339,214 L532,214 L532,165 L339,165 L339,135 Q339,88 353,71 Q367,54 419,54 L419,0 L100,0 L100,54 Q151,54 166,71.5 Q181,89 181,135 L181,165 L-9,165 L-9,214 L181,214 L181,271 L176,282 L-9,282 L-9,331"/> 
            <glyph glyph-name="¦" unicode="&#xA6;" horiz-adv-x="377" d=" M248,150 L377,150 L377,-236 L248,-236 M248,662 L377,662 L377,276 L248,276"/> 
            <glyph glyph-name="§" unicode="&#xA7;" horiz-adv-x="480" d=" M191,-119 Q202,-157 217.5,-173.5 Q233,-190 266,-190 Q295,-190 316,-174 Q337,-158 337,-133 Q337,-119 332.5,-107 Q328,-95 322,-86 Q316,-77 300,-64.5 Q284,-52 272,-44 Q260,-36 232,-17.5 Q204,1 184,15 Q100,73 64.5,121.5 Q29,170 29,227 Q29,245 33,263 Q37,281 48.5,303 Q60,325 85.5,343 Q111,361 148,369 Q64,429 64,512 Q64,586 125,629 Q186,672 270,672 Q347,672 397.5,636.5 Q448,601 448,557 Q448,528 427.5,510.5 Q407,493 382,493 Q362,493 349,503 Q336,513 331,523.5 Q326,534 319,556 Q309,587 293.5,602.5 Q278,618 245,618 Q211,618 190.5,600.5 Q170,583 170,560 Q170,529 195.5,506 Q221,483 292,438 Q394,374 437,326.5 Q480,279 480,202 Q480,163 469,135 Q458,107 437.5,91 Q417,75 403.5,68.5 Q390,62 368,55 Q406,27 426,-11.5 Q446,-50 446,-89 Q446,-162 384,-203.5 Q322,-245 243,-245 Q170,-245 117.5,-211.5 Q65,-178 65,-127 Q65,-94 85.5,-78 Q106,-62 128,-62 Q175,-62 191,-119 M383,149 Q383,190 304,259.5 Q225,329 177,329 Q152,329 138.5,313.5 Q125,298 125,280 Q125,241 202,171 Q279,101 333,101 Q355,101 369,117 Q383,133 383,149"/> 
            <glyph glyph-name="¨" unicode="&#xA8;" horiz-adv-x="340" d=" M-6,536 Q-6,592 14,612.5 Q34,633 63,633 Q92,633 112,613 Q132,593 132,564 Q132,535 112,515 Q92,495 63,495 Q35,495 -6,536 M202,535 Q202,593 222,613 Q242,633 271,633 Q300,633 320,612.5 Q340,592 340,564 Q340,536 320,515.5 Q300,495 271,495 Q243,495 202,535"/> 
            <glyph glyph-name="©" unicode="&#xA9;" horiz-adv-x="722" d=" M539,537 L539,408 L520,408 Q514,441 498.5,463.5 Q483,486 463.5,496 Q444,506 428.5,510 Q413,514 400,514 Q361,514 334,495.5 Q307,477 295,447 Q283,417 278.5,390.5 Q274,364 274,336 Q274,240 302,204 Q341,153 398,153 Q472,153 525,221 L525,186 Q466,124 370,124 Q286,124 225,176 Q164,228 164,323 Q164,419 226.5,478.5 Q289,538 379,538 Q415,538 454.5,525 Q494,512 498,512 Q516,512 520,537 M375,674 Q518,674 620,573 Q722,472 722,328 Q722,185 620,83.5 Q518,-18 375,-18 Q232,-18 130.5,83.5 Q29,185 29,328 Q29,472 131,573 Q233,674 375,674 M375,631 Q251,631 162,542.5 Q73,454 73,328 Q73,203 161.5,114 Q250,25 375,25 Q500,25 589,114 Q678,203 678,328 Q678,454 589,542.5 Q500,631 375,631"/> 
            <glyph glyph-name="ª" unicode="&#xAA;" horiz-adv-x="363" d=" M200,583 L200,605 Q200,642 159,642 Q140,642 130,637 Q120,632 118,627 Q116,622 114,611 Q109,579 72,579 Q55,579 44,587.5 Q33,596 33,609 Q33,618 39.5,627.5 Q46,637 60.5,648.5 Q75,660 107,667 Q139,674 183,674 Q255,674 278.5,654.5 Q302,635 302,598 L302,487 Q302,461 319,461 Q333,461 337,478 L363,478 Q358,419 282,419 Q228,419 206,450 Q159,419 105,419 Q31,419 31,473 Q31,487 37.5,499 Q44,511 60,522 Q76,533 88,540.5 Q100,548 125.5,557.5 Q151,567 161.5,570.5 Q172,574 200,583 M200,482 L200,550 Q177,540 165,534.5 Q153,529 141,517 Q129,505 129,491 Q129,462 157,462 Q180,462 200,482"/> 
            <glyph glyph-name="«" unicode="&#xAB;" horiz-adv-x="537" d=" M196,215 L274,0 L218,0 L24,215 L217,430 L273,430 M460,215 L537,0 L482,0 L287,215 L480,430 L537,430"/> 
            <glyph glyph-name="¬" unicode="&#xAC;" horiz-adv-x="604" d=" M62,497 L604,497 L604,163 L502,163 L502,395 L62,395"/> 
            <glyph glyph-name="­" unicode="&#xAD;" horiz-adv-x="317" d=" M28,133 L28,265 L317,265 L317,133"/> 
            <glyph glyph-name="®" unicode="&#xAE;" horiz-adv-x="722" d=" M190,529 L367,529 Q368,529 372,529 Q540,532 540,422 Q540,345 453,321 L520,199 Q543,156 571,151 L571,134 L453,134 L353,314 L330,314 L330,217 Q330,177 340.5,164.5 Q351,152 389,151 L389,134 L182,134 L182,151 Q210,150 221.5,161.5 Q233,173 233,217 L233,448 Q233,486 225.5,498 Q218,510 190,512 M330,508 L330,339 Q344,337 356,337 Q387,337 411,359.5 Q435,382 435,424 Q435,508 349,508 M375,674 Q518,674 620,573 Q722,472 722,328 Q722,185 620,83.5 Q518,-18 375,-18 Q232,-18 130.5,83.5 Q29,185 29,328 Q29,472 131,573 Q233,674 375,674 M375,631 Q251,631 162,542.5 Q73,454 73,328 Q73,203 161.5,114 Q250,25 375,25 Q500,25 589,114 Q678,203 678,328 Q678,454 589,542.5 Q500,631 375,631"/> 
            <glyph glyph-name="¯" unicode="&#xAF;" horiz-adv-x="343" d=" M-11,511 L-11,622 L343,622 L343,511"/> 
            <glyph glyph-name="°" unicode="&#xB0;" horiz-adv-x="377" d=" M155,600 Q241,600 271,570 Q301,540 301,497 Q301,454 271,424 Q241,394 198,394 Q155,394 125,424 Q95,454 95,497 Q95,540 155,600 M272,676 Q124,676 71.5,623.5 Q19,571 19,497 Q19,423 71.5,370.5 Q124,318 198,318 Q272,318 324.5,370.5 Q377,423 377,497 Q377,571 272,676"/> 
            <glyph glyph-name="±" unicode="&#xB1;" horiz-adv-x="604" d=" M62,102 L604,102 L604,0 L62,0 M62,497 L282,497 L282,717 L384,717 L384,497 L604,497 L604,395 L384,395 L384,175 L282,175 L282,395 L62,395"/> 
            <glyph glyph-name="²" unicode="&#xB2;" horiz-adv-x="303" d=" M35,323 L35,350 Q106,409 148,463.5 Q190,518 190,575 Q190,601 178,618 Q166,635 144,635 Q124,635 114,623.5 Q104,612 104,598 Q104,590 110,577 Q116,564 116,563 Q116,560 103,555 L75,544 Q63,540 57,540 Q46,540 39.5,556.5 Q33,573 33,588 Q33,621 70,646.5 Q107,672 165,672 Q220,672 259,647 Q298,622 298,578 Q298,550 281,524.5 Q264,499 220,456 Q202,439 188.5,425.5 Q175,412 170,407 Q165,402 159,397 L141,380 L303,380 L287,303 L244,303 Q248,317 246,320 Q244,323 231,323"/> 
            <glyph glyph-name="³" unicode="&#xB3;" horiz-adv-x="294" d=" M131,522 Q183,552 183,594 Q183,618 170.5,627 Q158,636 144,636 Q130,636 117,627.5 Q104,619 104,605 Q104,595 111.5,587 Q119,579 119,577 Q119,572 109,569 L78,558 Q66,553 57,553 Q43,553 37,567 Q31,581 31,592 Q31,621 70.5,646.5 Q110,672 169,672 Q218,672 251.5,655 Q285,638 285,607 Q285,566 209,526 Q253,522 273.5,498.5 Q294,475 294,442 Q294,385 242,350.5 Q190,316 121,316 Q72,316 43.5,332 Q15,348 15,370 Q15,383 27.5,394.5 Q40,406 58,406 Q86,406 101,375 Q108,360 115.5,355 Q123,350 137,350 Q159,350 172.5,370.5 Q186,391 186,431 Q186,493 163,493 Q154,493 141,482 Q129,472 117,472 Q109,472 102.5,478.5 Q96,485 96,492 Q96,494 97,496 Q98,498 99,499.5 Q100,501 102,503 Q104,505 106,506.5 Q108,508 111.5,510 Q115,512 117,513.5 Q119,515 123.5,517.5 Q128,520 131,522"/> 
            <glyph glyph-name="´" unicode="&#xB4;" horiz-adv-x="343" d=" M74,482 L145,639 L343,639 L116,482"/> 
            <glyph glyph-name="µ" unicode="&#xB5;" horiz-adv-x="547" d=" M62,400 L198,400 L198,157 Q198,123 198.5,108.5 Q199,94 203,78.5 Q207,63 215.5,58 Q224,53 240,53 Q284,53 320,113 L320,400 L456,400 L456,151 Q456,126 456.5,114 Q457,102 460,87 Q463,72 470,66 Q477,60 489,60 Q519,60 526,130 L547,130 Q546,90 533,61 Q520,32 504.5,18 Q489,4 469,-4 Q449,-12 439,-13 Q429,-14 421,-14 Q347,-14 324,63 Q256,-14 182,-14 Q163,-14 150,-9.5 Q137,-5 124,4 Q111,13 109,14 Q108,-53 119,-102 Q121,-109 126,-126 Q131,-143 134,-157 Q137,-171 137,-184 Q137,-213 122,-231 Q107,-249 79,-249 Q27,-249 27,-191 Q27,-171 46,-97 Q54,-66 57.5,-31.5 Q61,3 61.5,27.5 Q62,52 62,127"/> 
            <glyph glyph-name="¶" unicode="&#xB6;" horiz-adv-x="542" d=" M312,625 L312,-249 L263,-249 L263,210 Q125,216 62,277 Q1,338 1,441 Q1,555 91,621 Q122,644 168,653 Q214,662 327,662 L542,662 L542,641 L520,641 Q494,641 479,635 Q464,629 458,612.5 Q452,596 450.5,583 Q449,570 449,541 L449,-249 L401,-249 L401,625"/> 
            <glyph glyph-name="·" unicode="&#xB7;" horiz-adv-x="234" d=" M57,293 Q57,367 83,392.5 Q109,418 146,418 Q182,418 208,392.5 Q234,367 234,330 Q234,293 208,267 Q182,241 146,241 Q110,241 57,293"/> 
            <glyph glyph-name="¸" unicode="&#xB8;" horiz-adv-x="271" d=" M129,3 L184,3 Q180,-26 176,-46 Q203,-49 222.5,-58.5 Q242,-68 251,-78.5 Q260,-89 265,-103 Q270,-117 270.5,-123 Q271,-129 271,-135 Q271,-184 226.5,-210 Q182,-236 113,-236 Q65,-236 30,-223 Q36,-191 38,-173 Q82,-184 117,-184 Q162,-184 162,-150 Q162,-115 108,-110 Q127,-60 129,3"/> 
            <glyph glyph-name="¹" unicode="&#xB9;" horiz-adv-x="272" d=" M68,323 L68,357 L88,357 Q107,357 112.5,362 Q118,367 118,384 L118,573 Q118,600 109.5,605 Q101,610 62,610 L62,643 Q135,643 185,673 L223,673 L223,386 Q223,374 224,369 Q225,364 231.5,360.5 Q238,357 252,357 L272,357 L272,323"/> 
            <glyph glyph-name="º" unicode="&#xBA;" horiz-adv-x="341" d=" M24,545 Q24,608 72,641 Q120,674 182,674 Q207,674 232.5,667.5 Q258,661 283.5,647.5 Q309,634 325,607 Q341,580 341,545 Q341,483 293.5,449 Q246,415 182,415 Q161,415 137.5,420 Q114,425 86.5,438 Q59,451 41.5,478.5 Q24,506 24,545 M132,548 Q132,518 133.5,501 Q135,484 147,465.5 Q159,447 183,447 Q200,447 211,456 Q222,465 226.5,482 Q231,499 232,512 Q233,525 233,545 Q233,566 232,578 Q231,590 227,607.5 Q223,625 211.5,633.5 Q200,642 182,642 Q164,642 153,633 Q142,624 138,607 Q134,590 133,578.5 Q132,567 132,548"/> 
            <glyph glyph-name="»" unicode="&#xBB;" horiz-adv-x="538" d=" M366,215 L288,430 L344,430 L538,215 L345,0 L289,0 M102,215 L25,430 L80,430 L275,215 L82,0 L25,0"/> 
            <glyph glyph-name="¼" unicode="&#xBC;" horiz-adv-x="866" d=" M710,115 L578,115 L578,157 L756,348 L815,348 L815,156 L866,156 L866,115 L815,115 L815,68 Q815,54 816,48.5 Q817,43 824,38.5 Q831,34 846,34 L866,34 L866,0 L657,0 L657,34 L678,34 Q694,34 700.5,37.5 Q707,41 708.5,46.5 Q710,52 710,66 M289,0 L630,664 L700,664 L360,0 M630,156 L710,156 L710,241 M138,323 L138,357 L158,357 Q177,357 182.5,362 Q188,367 188,384 L188,573 Q188,600 179.5,605 Q171,610 132,610 L132,643 Q205,643 255,673 L293,673 L293,386 Q293,374 294,369 Q295,364 301.5,360.5 Q308,357 322,357 L342,357 L342,323"/> 
            <glyph glyph-name="½" unicode="&#xBD;" horiz-adv-x="886" d=" M138,323 L138,357 L158,357 Q177,357 182.5,362 Q188,367 188,384 L188,573 Q188,600 179.5,605 Q171,610 132,610 L132,643 Q205,643 255,673 L293,673 L293,386 Q293,374 294,369 Q295,364 301.5,360.5 Q308,357 322,357 L342,357 L342,323 M293,0 L633,664 L704,664 L363,0 M618,0 L618,27 Q689,86 731,140.5 Q773,195 773,252 Q773,312 727,312 Q710,312 698,300.5 Q686,289 686,277 Q686,268 692.5,255 Q699,242 699,240 Q699,237 686,232 L658,221 Q646,217 640,217 Q629,217 622.5,233.5 Q616,250 616,265 Q616,301 655,325 Q694,349 748,349 Q803,349 842,324 Q881,299 881,255 Q881,227 864,201.5 Q847,176 803,133 Q785,116 771.5,102.5 Q758,89 753,84 Q748,79 742,74 L724,57 L886,57 L870,-20 L827,-20 Q831,-5 829,-3 Q827,0 814,0"/> 
            <glyph glyph-name="¾" unicode="&#xBE;" horiz-adv-x="866" d=" M710,115 L578,115 L578,157 L756,348 L815,348 L815,156 L866,156 L866,115 L815,115 L815,68 Q815,54 816,48.5 Q817,43 824,38.5 Q831,34 846,34 L866,34 L866,0 L657,0 L657,34 L678,34 Q694,34 700.5,37.5 Q707,41 708.5,46.5 Q710,52 710,66 M289,0 L630,664 L700,664 L360,0 M630,156 L710,156 L710,241 M224,522 Q276,552 276,594 Q276,618 263.5,627 Q251,636 237,636 Q223,636 210,627.5 Q197,619 197,605 Q197,595 204.5,587 Q212,579 212,577 Q212,572 202,569 L171,558 Q158,553 150,553 Q136,553 130,567 Q124,581 124,592 Q124,621 163.5,646.5 Q203,672 262,672 Q311,672 344.5,655 Q378,638 378,607 Q378,566 302,526 Q346,522 366.5,498.5 Q387,475 387,442 Q387,385 335,350.5 Q283,316 214,316 Q165,316 136.5,332 Q108,348 108,370 Q108,383 120.5,394.5 Q133,406 151,406 Q179,406 194,375 Q201,360 208.5,355 Q216,350 230,350 Q252,350 265.5,370.5 Q279,391 279,431 Q279,493 256,493 Q247,493 234,482 Q222,472 210,472 Q202,472 195.5,478.5 Q189,485 189,492 Q189,494 190,496 Q191,498 192,499.5 Q193,501 195,503 Q197,505 199,506.5 Q201,508 204.5,510 Q208,512 210,513.5 Q212,515 216.5,517.5 Q221,520 224,522"/> 
            <glyph glyph-name="¿" unicode="&#xBF;" horiz-adv-x="439" d=" M337,210 L337,48 L290,48 Q277,65 256,65 Q236,65 223,52.5 Q210,40 205,20 Q200,0 199,-11 Q198,-22 198,-33 Q198,-189 275,-189 Q316,-189 327,-145 Q337,-106 355,-95 Q367,-88 385,-88 Q404,-88 421.5,-101.5 Q439,-115 439,-136 Q439,-175 390,-209.5 Q341,-244 261,-244 Q157,-244 99.5,-186.5 Q42,-129 42,-44 Q42,41 95.5,86 Q149,131 213,131 Q243,131 276,120 L276,210 M395,394 Q395,320 369,294.5 Q343,269 306,269 Q270,269 244,294.5 Q218,320 218,357 Q218,394 244,420 Q270,446 306,446 Q342,446 395,394"/> 
            <glyph glyph-name="À" unicode="&#xC0;" horiz-adv-x="654" d=" M153,179 L141,148 Q127,113 127,97 Q127,77 140,67 Q153,57 164.5,55.5 Q176,54 196,54 L196,0 L-23,0 L-23,54 Q14,54 41,89.5 Q68,125 82,161 L286,674 L343,674 L550,161 Q560,136 567,122 Q574,108 586.5,89.5 Q599,71 616,62.5 Q633,54 654,54 L654,0 L326,0 L326,54 Q346,54 357,55 Q368,56 379.5,63 Q391,70 391,84 Q391,92 388.5,99.5 Q386,107 381.5,116 Q377,125 376,129 L357,179 M253,433 L174,235 L335,235 M408,702 L366,702 L139,857 L139,859 L337,859"/> 
            <glyph glyph-name="Á" unicode="&#xC1;" horiz-adv-x="654" d=" M153,179 L141,148 Q127,113 127,97 Q127,77 140,67 Q153,57 164.5,55.5 Q176,54 196,54 L196,0 L-23,0 L-23,54 Q14,54 41,89.5 Q68,125 82,161 L286,674 L343,674 L550,161 Q560,136 567,122 Q574,108 586.5,89.5 Q599,71 616,62.5 Q633,54 654,54 L654,0 L326,0 L326,54 Q346,54 357,55 Q368,56 379.5,63 Q391,70 391,84 Q391,92 388.5,99.5 Q386,107 381.5,116 Q377,125 376,129 L357,179 M253,433 L174,235 L335,235 M223,702 L294,859 L492,859 L265,702"/> 
            <glyph glyph-name="Â" unicode="&#xC2;" horiz-adv-x="654" d=" M153,179 L141,148 Q127,113 127,97 Q127,77 140,67 Q153,57 164.5,55.5 Q176,54 196,54 L196,0 L-23,0 L-23,54 Q14,54 41,89.5 Q68,125 82,161 L286,674 L343,674 L550,161 Q560,136 567,122 Q574,108 586.5,89.5 Q599,71 616,62.5 Q633,54 654,54 L654,0 L326,0 L326,54 Q346,54 357,55 Q368,56 379.5,63 Q391,70 391,84 Q391,92 388.5,99.5 Q386,107 381.5,116 Q377,125 376,129 L357,179 M253,433 L174,235 L335,235 M318,789 L194,699 L150,699 L246,875 L392,875 L481,699 L434,699"/> 
            <glyph glyph-name="Ã" unicode="&#xC3;" horiz-adv-x="654" d=" M153,179 L141,148 Q127,113 127,97 Q127,77 140,67 Q153,57 164.5,55.5 Q176,54 196,54 L196,0 L-23,0 L-23,54 Q14,54 41,89.5 Q68,125 82,161 L286,674 L343,674 L550,161 Q560,136 567,122 Q574,108 586.5,89.5 Q599,71 616,62.5 Q633,54 654,54 L654,0 L326,0 L326,54 Q346,54 357,55 Q368,56 379.5,63 Q391,70 391,84 Q391,92 388.5,99.5 Q386,107 381.5,116 Q377,125 376,129 L357,179 M253,433 L174,235 L335,235 M441,856 L483,856 Q488,797 461,750 Q434,703 381,703 Q350,703 287,722 Q242,735 223,735 Q195,735 186,703 L146,703 Q144,752 154,776 Q167,808 193.5,826 Q220,844 252,844 Q277,844 347,825 Q389,814 401,814 Q437,814 441,856"/> 
            <glyph glyph-name="Ä" unicode="&#xC4;" horiz-adv-x="654" d=" M153,179 L141,148 Q127,113 127,97 Q127,77 140,67 Q153,57 164.5,55.5 Q176,54 196,54 L196,0 L-23,0 L-23,54 Q14,54 41,89.5 Q68,125 82,161 L286,674 L343,674 L550,161 Q560,136 567,122 Q574,108 586.5,89.5 Q599,71 616,62.5 Q633,54 654,54 L654,0 L326,0 L326,54 Q346,54 357,55 Q368,56 379.5,63 Q391,70 391,84 Q391,92 388.5,99.5 Q386,107 381.5,116 Q377,125 376,129 L357,179 M253,433 L174,235 L335,235 M143,756 Q143,812 163.5,832.5 Q184,853 212,853 Q241,853 261,833 Q281,813 281,784 Q281,755 261,735 Q241,715 212,715 Q184,715 143,756 M351,755 Q351,813 371,833 Q391,853 420,853 Q448,853 468.5,832.5 Q489,812 489,784 Q489,756 468.5,735.5 Q448,715 420,715 Q392,715 351,755"/> 
            <glyph glyph-name="Å" unicode="&#xC5;" horiz-adv-x="654" d=" M153,179 L141,148 Q127,113 127,97 Q127,77 140,67 Q153,57 164.5,55.5 Q176,54 196,54 L196,0 L-23,0 L-23,54 Q14,54 41,89.5 Q68,125 82,161 L286,674 L343,674 L550,161 Q560,136 567,122 Q574,108 586.5,89.5 Q599,71 616,62.5 Q633,54 654,54 L654,0 L326,0 L326,54 Q346,54 357,55 Q368,56 379.5,63 Q391,70 391,84 Q391,92 388.5,99.5 Q386,107 381.5,116 Q377,125 376,129 L357,179 M253,433 L174,235 L335,235 M339,853 Q291,853 274.5,836 Q258,819 258,795 Q258,771 274.5,754 Q291,737 315,737 Q339,737 356,754 Q373,771 373,795 Q373,819 339,853 M275,890 Q355,890 383,862.5 Q411,835 411,795 Q411,755 383,727 Q355,699 315,699 Q275,699 247,727 Q219,755 219,795 Q219,835 275,890"/> 
            <glyph glyph-name="Æ" unicode="&#xC6;" horiz-adv-x="917" d=" M399,316 L237,316 L147,149 Q125,108 125,92 Q125,54 178,54 L178,0 L-28,0 L-28,54 Q4,58 30.5,81.5 Q57,105 96,178 L280,523 Q304,568 304,584 Q304,599 294,603.5 Q284,608 246,608 L220,608 L220,662 L871,662 L882,490 L827,490 Q803,557 780.5,580 Q758,603 707,603 L572,603 L572,375 L632,375 Q673,375 688,389.5 Q703,404 707,456 L762,456 L762,234 L707,234 Q705,280 693,298 Q681,316 642,316 L572,316 L572,152 Q572,121 574,108 Q576,95 586.5,81 Q597,67 619.5,63 Q642,59 683,59 Q707,59 720,60 Q733,61 758,69 Q783,77 799,92.5 Q815,108 833,140 Q851,172 862,218 L917,218 L912,0 L307,0 L307,54 Q365,54 382,70.5 Q399,87 399,135 M270,375 L399,375 L399,623"/> 
            <glyph glyph-name="Ç" unicode="&#xC7;" horiz-adv-x="685" d=" M419,-12 L414,-44 Q465,-45 496.5,-70.5 Q528,-96 528,-133 Q528,-173 491,-204.5 Q454,-236 371,-236 Q317,-236 271,-225 Q278,-206 280,-171 Q302,-175 324,-175 Q384,-175 384,-139 Q384,-110 337,-110 Q354,-60 359,-13 Q261,-7 187.5,45 Q114,97 79.5,170 Q45,243 45,325 Q45,384 65.5,443.5 Q86,503 126,555.5 Q166,608 235,641 Q304,674 390,674 Q509,674 595,594 Q608,628 615,653 L669,653 L675,409 L622,409 Q621,418 616,436.5 Q611,455 595.5,486.5 Q580,518 558.5,544.5 Q537,571 499,590.5 Q461,610 414,610 Q379,610 351.5,598.5 Q324,587 306.5,570 Q289,553 276.5,526.5 Q264,500 257.5,477 Q251,454 247.5,422.5 Q244,391 243.5,373 Q243,355 243,330 Q243,155 293,104 Q347,50 420,50 Q464,50 503,68.5 Q542,87 577.5,135 Q613,183 630,255 L685,255 L685,6 L630,6 Q620,44 602,70 Q532,-3 419,-12"/> 
            <glyph glyph-name="È" unicode="&#xC8;" horiz-adv-x="632" d=" M287,317 L287,153 Q287,122 288.5,109.5 Q290,97 300,82.5 Q310,68 332,63.5 Q354,59 393,59 Q418,59 432,60 Q446,61 472,69 Q498,77 514.5,92.5 Q531,108 549,140 Q567,172 578,217 L632,217 L628,0 L23,0 L23,54 Q80,54 97,70.5 Q114,87 114,135 L114,527 Q114,575 97.5,591.5 Q81,608 23,608 L23,662 L586,662 L596,491 L542,491 Q529,532 515,556 Q501,580 482.5,589.5 Q464,599 451,601 Q438,603 411,603 L287,603 L287,376 L349,376 Q369,376 379.5,378 Q390,380 402,387 Q414,394 419,411.5 Q424,429 424,457 L479,457 L479,233 L424,233 Q424,287 407,302 Q390,317 351,317 M426,702 L384,702 L157,857 L157,859 L355,859"/> 
            <glyph glyph-name="É" unicode="&#xC9;" horiz-adv-x="632" d=" M287,317 L287,153 Q287,122 288.5,109.5 Q290,97 300,82.5 Q310,68 332,63.5 Q354,59 393,59 Q418,59 432,60 Q446,61 472,69 Q498,77 514.5,92.5 Q531,108 549,140 Q567,172 578,217 L632,217 L628,0 L23,0 L23,54 Q80,54 97,70.5 Q114,87 114,135 L114,527 Q114,575 97.5,591.5 Q81,608 23,608 L23,662 L586,662 L596,491 L542,491 Q529,532 515,556 Q501,580 482.5,589.5 Q464,599 451,601 Q438,603 411,603 L287,603 L287,376 L349,376 Q369,376 379.5,378 Q390,380 402,387 Q414,394 419,411.5 Q424,429 424,457 L479,457 L479,233 L424,233 Q424,287 407,302 Q390,317 351,317 M271,702 L342,859 L540,859 L313,702"/> 
            <glyph glyph-name="Ê" unicode="&#xCA;" horiz-adv-x="632" d=" M287,317 L287,153 Q287,122 288.5,109.5 Q290,97 300,82.5 Q310,68 332,63.5 Q354,59 393,59 Q418,59 432,60 Q446,61 472,69 Q498,77 514.5,92.5 Q531,108 549,140 Q567,172 578,217 L632,217 L628,0 L23,0 L23,54 Q80,54 97,70.5 Q114,87 114,135 L114,527 Q114,575 97.5,591.5 Q81,608 23,608 L23,662 L586,662 L596,491 L542,491 Q529,532 515,556 Q501,580 482.5,589.5 Q464,599 451,601 Q438,603 411,603 L287,603 L287,376 L349,376 Q369,376 379.5,378 Q390,380 402,387 Q414,394 419,411.5 Q424,429 424,457 L479,457 L479,233 L424,233 Q424,287 407,302 Q390,317 351,317 M336,789 L212,699 L168,699 L264,875 L410,875 L499,699 L452,699"/> 
            <glyph glyph-name="Ë" unicode="&#xCB;" horiz-adv-x="632" d=" M287,317 L287,153 Q287,122 288.5,109.5 Q290,97 300,82.5 Q310,68 332,63.5 Q354,59 393,59 Q418,59 432,60 Q446,61 472,69 Q498,77 514.5,92.5 Q531,108 549,140 Q567,172 578,217 L632,217 L628,0 L23,0 L23,54 Q80,54 97,70.5 Q114,87 114,135 L114,527 Q114,575 97.5,591.5 Q81,608 23,608 L23,662 L586,662 L596,491 L542,491 Q529,532 515,556 Q501,580 482.5,589.5 Q464,599 451,601 Q438,603 411,603 L287,603 L287,376 L349,376 Q369,376 379.5,378 Q390,380 402,387 Q414,394 419,411.5 Q424,429 424,457 L479,457 L479,233 L424,233 Q424,287 407,302 Q390,317 351,317 M161,756 Q161,812 181.5,832.5 Q202,853 230,853 Q259,853 279,833 Q299,813 299,784 Q299,755 279,735 Q259,715 230,715 Q202,715 161,756 M369,755 Q369,813 389,833 Q409,853 438,853 Q466,853 486.5,832.5 Q507,812 507,784 Q507,756 486.5,735.5 Q466,715 438,715 Q410,715 369,755"/> 
            <glyph glyph-name="Ì" unicode="&#xCC;" horiz-adv-x="378" d=" M27,608 L27,662 L378,662 L378,608 Q321,608 304.5,591 Q288,574 288,527 L288,135 Q288,88 304,71 Q320,54 378,54 L378,0 L27,0 L27,54 Q83,54 99,71.5 Q115,89 115,135 L115,527 Q115,572 99.5,590 Q84,608 27,608 M296,702 L254,702 L27,857 L27,859 L225,859"/> 
            <glyph glyph-name="Í" unicode="&#xCD;" horiz-adv-x="380" d=" M27,608 L27,662 L378,662 L378,608 Q321,608 304.5,591 Q288,574 288,527 L288,135 Q288,88 304,71 Q320,54 378,54 L378,0 L27,0 L27,54 Q83,54 99,71.5 Q115,89 115,135 L115,527 Q115,572 99.5,590 Q84,608 27,608 M111,702 L182,859 L380,859 L153,702"/> 
            <glyph glyph-name="Î" unicode="&#xCE;" horiz-adv-x="378" d=" M27,608 L27,662 L378,662 L378,608 Q321,608 304.5,591 Q288,574 288,527 L288,135 Q288,88 304,71 Q320,54 378,54 L378,0 L27,0 L27,54 Q83,54 99,71.5 Q115,89 115,135 L115,527 Q115,572 99.5,590 Q84,608 27,608 M206,789 L82,699 L38,699 L134,875 L280,875 L369,699 L322,699"/> 
            <glyph glyph-name="Ï" unicode="&#xCF;" horiz-adv-x="378" d=" M27,608 L27,662 L378,662 L378,608 Q321,608 304.5,591 Q288,574 288,527 L288,135 Q288,88 304,71 Q320,54 378,54 L378,0 L27,0 L27,54 Q83,54 99,71.5 Q115,89 115,135 L115,527 Q115,572 99.5,590 Q84,608 27,608 M31,756 Q31,812 51.5,832.5 Q72,853 100,853 Q129,853 149,833 Q169,813 169,784 Q169,755 149,735 Q129,715 100,715 Q72,715 31,756 M239,755 Q239,813 259,833 Q279,853 308,853 Q336,853 356.5,832.5 Q377,812 377,784 Q377,756 356.5,735.5 Q336,715 308,715 Q280,715 239,755"/> 
            <glyph glyph-name="Ð" unicode="&#xD0;" horiz-adv-x="751" d=" M116,364 L116,527 Q116,573 100.5,590.5 Q85,608 29,608 L29,662 Q31,663 79.5,664 Q128,665 193,666.5 Q258,668 297,668 Q418,668 487.5,655 Q557,642 615,601 Q751,504 751,327 Q751,220 697.5,141.5 Q644,63 553,27 Q513,11 455.5,5.5 Q398,0 268,0 L29,0 L29,54 Q84,54 100,72 Q116,90 116,135 L116,305 L21,305 L21,364 M289,305 L289,154 Q289,125 290.5,112.5 Q292,100 299,85 Q306,70 323,64.5 Q340,59 370,59 Q553,59 553,328 Q553,386 542.5,432.5 Q532,479 517,508 Q502,537 476.5,558 Q451,579 431,589 Q411,599 379.5,604.5 Q348,610 332,610.5 Q316,611 289,611 L289,364 L420,364 L420,305"/> 
            <glyph glyph-name="Ñ" unicode="&#xD1;" horiz-adv-x="757" d=" M181,474 L181,169 Q181,150 181.5,139.5 Q182,129 187,110.5 Q192,92 201.5,81.5 Q211,71 230,62.5 Q249,54 276,54 L276,0 L27,0 L27,54 Q122,54 119,165 Q119,168 119,169 L119,507 Q119,608 24,608 L24,662 L247,662 L611,257 L611,499 Q611,608 519,608 L519,662 L757,662 L757,608 Q673,608 673,498 L673,-11 L610,-11 M516,856 L558,856 Q563,797 536,750 Q509,703 456,703 Q425,703 362,722 Q317,735 298,735 Q270,735 261,703 L221,703 Q219,752 229,776 Q242,808 268.5,826 Q295,844 327,844 Q352,844 422,825 Q464,814 476,814 Q512,814 516,856"/> 
            <glyph glyph-name="Ò" unicode="&#xD2;" horiz-adv-x="787" d=" M46,333 Q46,391 68,449.5 Q90,508 133,559 Q176,610 249,642 Q322,674 413,674 Q492,674 557.5,652 Q623,630 664.5,594.5 Q706,559 734.5,512.5 Q763,466 775,420 Q787,374 787,328 Q787,266 765,207 Q743,148 699.5,97.5 Q656,47 583,16.5 Q510,-14 418,-14 Q246,-14 146,83.5 Q46,181 46,333 M248,338 Q248,50 413,50 Q502,50 543,114.5 Q584,179 584,329 Q584,482 540.5,546 Q497,610 415,610 Q248,610 248,338 M509,702 L467,702 L240,857 L240,859 L438,859"/> 
            <glyph glyph-name="Ó" unicode="&#xD3;" horiz-adv-x="787" d=" M46,333 Q46,391 68,449.5 Q90,508 133,559 Q176,610 249,642 Q322,674 413,674 Q492,674 557.5,652 Q623,630 664.5,594.5 Q706,559 734.5,512.5 Q763,466 775,420 Q787,374 787,328 Q787,266 765,207 Q743,148 699.5,97.5 Q656,47 583,16.5 Q510,-14 418,-14 Q246,-14 146,83.5 Q46,181 46,333 M248,338 Q248,50 413,50 Q502,50 543,114.5 Q584,179 584,329 Q584,482 540.5,546 Q497,610 415,610 Q248,610 248,338 M324,702 L395,859 L593,859 L366,702"/> 
            <glyph glyph-name="Ô" unicode="&#xD4;" horiz-adv-x="787" d=" M46,333 Q46,391 68,449.5 Q90,508 133,559 Q176,610 249,642 Q322,674 413,674 Q492,674 557.5,652 Q623,630 664.5,594.5 Q706,559 734.5,512.5 Q763,466 775,420 Q787,374 787,328 Q787,266 765,207 Q743,148 699.5,97.5 Q656,47 583,16.5 Q510,-14 418,-14 Q246,-14 146,83.5 Q46,181 46,333 M248,338 Q248,50 413,50 Q502,50 543,114.5 Q584,179 584,329 Q584,482 540.5,546 Q497,610 415,610 Q248,610 248,338 M419,789 L295,699 L251,699 L347,875 L493,875 L582,699 L535,699"/> 
            <glyph glyph-name="Õ" unicode="&#xD5;" horiz-adv-x="787" d=" M46,333 Q46,391 68,449.5 Q90,508 133,559 Q176,610 249,642 Q322,674 413,674 Q492,674 557.5,652 Q623,630 664.5,594.5 Q706,559 734.5,512.5 Q763,466 775,420 Q787,374 787,328 Q787,266 765,207 Q743,148 699.5,97.5 Q656,47 583,16.5 Q510,-14 418,-14 Q246,-14 146,83.5 Q46,181 46,333 M248,338 Q248,50 413,50 Q502,50 543,114.5 Q584,179 584,329 Q584,482 540.5,546 Q497,610 415,610 Q248,610 248,338 M542,856 L584,856 Q589,797 562,750 Q535,703 482,703 Q451,703 388,722 Q343,735 324,735 Q296,735 287,703 L247,703 Q245,752 255,776 Q268,808 294.5,826 Q321,844 353,844 Q378,844 448,825 Q490,814 502,814 Q538,814 542,856"/> 
            <glyph glyph-name="Ö" unicode="&#xD6;" horiz-adv-x="787" d=" M46,333 Q46,391 68,449.5 Q90,508 133,559 Q176,610 249,642 Q322,674 413,674 Q492,674 557.5,652 Q623,630 664.5,594.5 Q706,559 734.5,512.5 Q763,466 775,420 Q787,374 787,328 Q787,266 765,207 Q743,148 699.5,97.5 Q656,47 583,16.5 Q510,-14 418,-14 Q246,-14 146,83.5 Q46,181 46,333 M248,338 Q248,50 413,50 Q502,50 543,114.5 Q584,179 584,329 Q584,482 540.5,546 Q497,610 415,610 Q248,610 248,338 M244,756 Q244,812 264,832.5 Q284,853 313,853 Q342,853 362,833 Q382,813 382,784 Q382,755 362,735 Q342,715 313,715 Q285,715 244,756 M452,755 Q452,813 472,833 Q492,853 521,853 Q550,853 570,832.5 Q590,812 590,784 Q590,756 570,735.5 Q550,715 521,715 Q493,715 452,755"/> 
            <glyph glyph-name="×" unicode="&#xD7;" horiz-adv-x="590" d=" M78,513 L150,585 L334,401 L518,585 L590,513 L406,329 L589,146 L517,75 L334,257 L152,75 L80,146 L262,329"/> 
            <glyph glyph-name="Ø" unicode="&#xD8;" horiz-adv-x="787" d=" M261,195 L552,525 Q510,610 415,610 Q327,610 287.5,541 Q248,472 248,338 Q248,247 261,195 M199,43 L151,-13 L109,22 L155,75 Q46,176 46,333 Q46,390 68.5,448 Q91,506 134,557.5 Q177,609 250,641.5 Q323,674 413,674 Q533,674 633,617 L684,675 L723,639 L675,584 Q689,571 703.5,554 Q718,537 739.5,504.5 Q761,472 774,426 Q787,380 787,328 Q787,266 765,207 Q743,148 700,97.5 Q657,47 584,16.5 Q511,-14 418,-14 Q302,-14 199,43 M281,136 Q324,50 413,50 Q502,50 543,114.5 Q584,179 584,329 Q584,410 571,465"/> 
            <glyph glyph-name="Ù" unicode="&#xD9;" horiz-adv-x="753" d=" M17,608 L17,662 L367,662 L367,608 Q310,608 293.5,591 Q277,574 277,527 L277,266 Q277,180 295,139 Q312,99 350.5,77 Q389,55 435,55 Q484,55 527.5,79 Q571,103 587,143 Q606,190 606,284 L606,506 Q606,608 508,608 L508,662 L753,662 L753,608 Q668,608 668,508 L668,282 Q668,234 666,207.5 Q664,181 650.5,141.5 Q637,102 610,71 Q575,31 515,8.5 Q455,-14 390,-14 Q358,-14 324,-8 Q290,-2 252,11.5 Q214,25 181.5,52.5 Q149,80 131,119 Q118,146 112,173 Q106,200 105,216.5 Q104,233 104,266 L104,527 Q104,572 88.5,590 Q73,608 17,608 M478,702 L436,702 L209,857 L209,859 L407,859"/> 
            <glyph glyph-name="Ú" unicode="&#xDA;" horiz-adv-x="753" d=" M17,608 L17,662 L367,662 L367,608 Q310,608 293.5,591 Q277,574 277,527 L277,266 Q277,180 295,139 Q312,99 350.5,77 Q389,55 435,55 Q484,55 527.5,79 Q571,103 587,143 Q606,190 606,284 L606,506 Q606,608 508,608 L508,662 L753,662 L753,608 Q668,608 668,508 L668,282 Q668,234 666,207.5 Q664,181 650.5,141.5 Q637,102 610,71 Q575,31 515,8.5 Q455,-14 390,-14 Q358,-14 324,-8 Q290,-2 252,11.5 Q214,25 181.5,52.5 Q149,80 131,119 Q118,146 112,173 Q106,200 105,216.5 Q104,233 104,266 L104,527 Q104,572 88.5,590 Q73,608 17,608 M333,702 L404,859 L602,859 L375,702"/> 
            <glyph glyph-name="Û" unicode="&#xDB;" horiz-adv-x="753" d=" M17,608 L17,662 L367,662 L367,608 Q310,608 293.5,591 Q277,574 277,527 L277,266 Q277,180 295,139 Q312,99 350.5,77 Q389,55 435,55 Q484,55 527.5,79 Q571,103 587,143 Q606,190 606,284 L606,506 Q606,608 508,608 L508,662 L753,662 L753,608 Q668,608 668,508 L668,282 Q668,234 666,207.5 Q664,181 650.5,141.5 Q637,102 610,71 Q575,31 515,8.5 Q455,-14 390,-14 Q358,-14 324,-8 Q290,-2 252,11.5 Q214,25 181.5,52.5 Q149,80 131,119 Q118,146 112,173 Q106,200 105,216.5 Q104,233 104,266 L104,527 Q104,572 88.5,590 Q73,608 17,608 M388,789 L264,699 L220,699 L316,875 L462,875 L551,699 L504,699"/> 
            <glyph glyph-name="Ü" unicode="&#xDC;" horiz-adv-x="753" d=" M17,608 L17,662 L367,662 L367,608 Q310,608 293.5,591 Q277,574 277,527 L277,266 Q277,180 295,139 Q312,99 350.5,77 Q389,55 435,55 Q484,55 527.5,79 Q571,103 587,143 Q606,190 606,284 L606,506 Q606,608 508,608 L508,662 L753,662 L753,608 Q668,608 668,508 L668,282 Q668,234 666,207.5 Q664,181 650.5,141.5 Q637,102 610,71 Q575,31 515,8.5 Q455,-14 390,-14 Q358,-14 324,-8 Q290,-2 252,11.5 Q214,25 181.5,52.5 Q149,80 131,119 Q118,146 112,173 Q106,200 105,216.5 Q104,233 104,266 L104,527 Q104,572 88.5,590 Q73,608 17,608 M213,756 Q213,812 233.5,832.5 Q254,853 282,853 Q311,853 331,833 Q351,813 351,784 Q351,755 331,735 Q311,715 282,715 Q254,715 213,756 M421,755 Q421,813 441,833 Q461,853 490,853 Q518,853 538.5,832.5 Q559,812 559,784 Q559,756 538.5,735.5 Q518,715 490,715 Q462,715 421,755"/> 
            <glyph glyph-name="Ý" unicode="&#xDD;" horiz-adv-x="686" d=" M257,271 L107,521 Q77,571 56.5,589.5 Q36,608 1,608 L1,662 L333,662 L333,608 Q279,608 279,579 Q279,562 299,530 L408,350 L499,502 Q523,543 523,563 Q523,608 459,608 L459,662 L686,662 L686,608 Q658,608 633.5,588 Q609,568 577,518 L430,282 L430,135 Q430,89 446,71.5 Q462,54 521,54 L521,0 L166,0 L166,54 Q226,54 241.5,72 Q257,90 257,134 M292,702 L363,859 L561,859 L334,702"/> 
            <glyph glyph-name="Þ" unicode="&#xDE;" horiz-adv-x="632" d=" M378,662 L378,608 L363,608 Q334,608 317,602.5 Q300,597 293,582 Q286,567 284.5,555.5 Q283,544 283,518 Q387,518 434.5,513.5 Q482,509 525,490 Q574,469 603,427.5 Q632,386 632,329 Q632,270 597,225.5 Q562,181 496,160 Q443,143 332,143 L283,143 Q283,118 284.5,106.5 Q286,95 293,80 Q300,65 317,59.5 Q334,54 363,54 L378,54 L378,0 L19,0 L19,54 Q76,54 93,70.5 Q110,87 110,135 L110,527 Q110,547 108.5,557.5 Q107,568 100.5,582 Q94,596 76.5,602 Q59,608 31,608 L15,608 L15,662 M283,459 L283,202 L316,202 Q335,202 348.5,203.5 Q362,205 382,212 Q402,219 414.5,231 Q427,243 436,268 Q445,293 445,327 Q445,365 434,391.5 Q423,418 409.5,431 Q396,444 370,450.5 Q344,457 328.5,458 Q313,459 283,459"/> 
            <glyph glyph-name="ß" unicode="&#xDF;" horiz-adv-x="589" d=" M314,340 L314,392 Q333,394 343.5,396.5 Q354,399 371,409 Q388,419 396.5,443.5 Q405,468 405,505 Q405,620 324,620 Q301,620 286,613 Q271,606 263,597.5 Q255,589 251,571 Q247,553 246.5,541.5 Q246,530 246,507 L246,106 Q246,91 247,84 Q248,77 251.5,68 Q255,59 264,55.5 Q273,52 288,52 L288,0 L25,0 L25,52 Q48,52 61.5,55.5 Q75,59 80.5,69.5 Q86,80 87,88.5 Q88,97 88,117 L88,429 Q88,431 88,435 Q88,459 88.5,472 Q89,485 91.5,510 Q94,535 100.5,550.5 Q107,566 117.5,587.5 Q128,609 146,622.5 Q164,636 188,649 Q212,662 247,668 Q282,674 325,674 Q444,674 500.5,627 Q557,580 557,512 Q557,476 539.5,447.5 Q522,419 496.5,403 Q471,387 451,379 Q431,371 417,368 Q589,325 589,169 Q589,90 540.5,40.5 Q492,-9 420,-9 Q365,-9 342,15.5 Q319,40 319,64 Q319,77 326,85 Q333,93 343,93 Q358,93 360,77 Q366,39 391,39 Q403,39 410.5,46 Q418,53 421,69 Q424,85 424.5,97 Q425,109 425,131 Q425,156 424.5,170 Q424,184 422,209.5 Q420,235 416,250.5 Q412,266 404,285.5 Q396,305 384.5,315.5 Q373,326 355,333.5 Q337,341 314,340"/> 
            <glyph glyph-name="à" unicode="&#xE0;" horiz-adv-x="559" d=" M307,264 L307,300 L307,304 Q307,309 307,312 Q307,315 306.5,320.5 Q306,326 304.5,330 Q303,334 300,339.5 Q297,345 292.5,349 Q288,353 281.5,356 Q275,359 265.5,361 Q256,363 245,363 Q223,363 208.5,358 Q194,353 188,343 Q182,333 180,328.5 Q178,324 177,315 Q168,257 112,257 Q82,257 66.5,272.5 Q51,288 51,307 Q51,353 110,384.5 Q169,416 279,416 Q341,416 381,406 Q421,396 438,375.5 Q455,355 460,336.5 Q465,318 465,289 L465,104 Q465,61 491,61 Q513,61 518,89 L559,89 Q556,33 513,9 Q482,-9 437,-9 Q352,-9 316,42 Q244,-9 161,-9 Q97,-9 72.5,19 Q48,47 48,79 Q48,102 56.5,121.5 Q65,141 85,158 Q105,175 124,187.5 Q143,200 178.5,215 Q214,230 238.5,239 Q263,248 307,264 M307,95 L307,209 Q253,186 225.5,163.5 Q198,141 198,111 Q198,93 209.5,77.5 Q221,62 243,62 Q276,62 307,95 M374,462 L332,462 L105,617 L105,619 L303,619"/> 
            <glyph glyph-name="á" unicode="&#xE1;" horiz-adv-x="559" d=" M307,264 L307,300 L307,304 Q307,309 307,312 Q307,315 306.5,320.5 Q306,326 304.5,330 Q303,334 300,339.5 Q297,345 292.5,349 Q288,353 281.5,356 Q275,359 265.5,361 Q256,363 245,363 Q223,363 208.5,358 Q194,353 188,343 Q182,333 180,328.5 Q178,324 177,315 Q168,257 112,257 Q82,257 66.5,272.5 Q51,288 51,307 Q51,353 110,384.5 Q169,416 279,416 Q341,416 381,406 Q421,396 438,375.5 Q455,355 460,336.5 Q465,318 465,289 L465,104 Q465,61 491,61 Q513,61 518,89 L559,89 Q556,33 513,9 Q482,-9 437,-9 Q352,-9 316,42 Q244,-9 161,-9 Q97,-9 72.5,19 Q48,47 48,79 Q48,102 56.5,121.5 Q65,141 85,158 Q105,175 124,187.5 Q143,200 178.5,215 Q214,230 238.5,239 Q263,248 307,264 M307,95 L307,209 Q253,186 225.5,163.5 Q198,141 198,111 Q198,93 209.5,77.5 Q221,62 243,62 Q276,62 307,95 M189,462 L260,619 L458,619 L231,462"/> 
            <glyph glyph-name="â" unicode="&#xE2;" horiz-adv-x="559" d=" M307,264 L307,300 L307,304 Q307,309 307,312 Q307,315 306.5,320.5 Q306,326 304.5,330 Q303,334 300,339.5 Q297,345 292.5,349 Q288,353 281.5,356 Q275,359 265.5,361 Q256,363 245,363 Q223,363 208.5,358 Q194,353 188,343 Q182,333 180,328.5 Q178,324 177,315 Q168,257 112,257 Q82,257 66.5,272.5 Q51,288 51,307 Q51,353 110,384.5 Q169,416 279,416 Q341,416 381,406 Q421,396 438,375.5 Q455,355 460,336.5 Q465,318 465,289 L465,104 Q465,61 491,61 Q513,61 518,89 L559,89 Q556,33 513,9 Q482,-9 437,-9 Q352,-9 316,42 Q244,-9 161,-9 Q97,-9 72.5,19 Q48,47 48,79 Q48,102 56.5,121.5 Q65,141 85,158 Q105,175 124,187.5 Q143,200 178.5,215 Q214,230 238.5,239 Q263,248 307,264 M307,95 L307,209 Q253,186 225.5,163.5 Q198,141 198,111 Q198,93 209.5,77.5 Q221,62 243,62 Q276,62 307,95 M254,549 L130,459 L86,459 L182,635 L328,635 L417,459 L370,459"/> 
            <glyph glyph-name="ã" unicode="&#xE3;" horiz-adv-x="559" d=" M307,264 L307,300 L307,304 Q307,309 307,312 Q307,315 306.5,320.5 Q306,326 304.5,330 Q303,334 300,339.5 Q297,345 292.5,349 Q288,353 281.5,356 Q275,359 265.5,361 Q256,363 245,363 Q223,363 208.5,358 Q194,353 188,343 Q182,333 180,328.5 Q178,324 177,315 Q168,257 112,257 Q82,257 66.5,272.5 Q51,288 51,307 Q51,353 110,384.5 Q169,416 279,416 Q341,416 381,406 Q421,396 438,375.5 Q455,355 460,336.5 Q465,318 465,289 L465,104 Q465,61 491,61 Q513,61 518,89 L559,89 Q556,33 513,9 Q482,-9 437,-9 Q352,-9 316,42 Q244,-9 161,-9 Q97,-9 72.5,19 Q48,47 48,79 Q48,102 56.5,121.5 Q65,141 85,158 Q105,175 124,187.5 Q143,200 178.5,215 Q214,230 238.5,239 Q263,248 307,264 M307,95 L307,209 Q253,186 225.5,163.5 Q198,141 198,111 Q198,93 209.5,77.5 Q221,62 243,62 Q276,62 307,95 M407,616 L449,616 Q454,557 427,510 Q400,463 347,463 Q316,463 253,482 Q208,495 189,495 Q161,495 152,463 L112,463 Q110,512 120,536 Q133,568 159.5,586 Q186,604 218,604 Q243,604 313,585 Q355,574 367,574 Q403,574 407,616"/> 
            <glyph glyph-name="ä" unicode="&#xE4;" horiz-adv-x="559" d=" M307,264 L307,300 L307,304 Q307,309 307,312 Q307,315 306.5,320.5 Q306,326 304.5,330 Q303,334 300,339.5 Q297,345 292.5,349 Q288,353 281.5,356 Q275,359 265.5,361 Q256,363 245,363 Q223,363 208.5,358 Q194,353 188,343 Q182,333 180,328.5 Q178,324 177,315 Q168,257 112,257 Q82,257 66.5,272.5 Q51,288 51,307 Q51,353 110,384.5 Q169,416 279,416 Q341,416 381,406 Q421,396 438,375.5 Q455,355 460,336.5 Q465,318 465,289 L465,104 Q465,61 491,61 Q513,61 518,89 L559,89 Q556,33 513,9 Q482,-9 437,-9 Q352,-9 316,42 Q244,-9 161,-9 Q97,-9 72.5,19 Q48,47 48,79 Q48,102 56.5,121.5 Q65,141 85,158 Q105,175 124,187.5 Q143,200 178.5,215 Q214,230 238.5,239 Q263,248 307,264 M307,95 L307,209 Q253,186 225.5,163.5 Q198,141 198,111 Q198,93 209.5,77.5 Q221,62 243,62 Q276,62 307,95 M79,516 Q79,572 99.5,592.5 Q120,613 148,613 Q177,613 197,593 Q217,573 217,544 Q217,515 197,495 Q177,475 148,475 Q120,475 79,516 M287,515 Q287,573 307,593 Q327,613 356,613 Q384,613 404.5,592.5 Q425,572 425,544 Q425,516 404.5,495.5 Q384,475 356,475 Q328,475 287,515"/> 
            <glyph glyph-name="å" unicode="&#xE5;" horiz-adv-x="559" d=" M307,264 L307,300 L307,304 Q307,309 307,312 Q307,315 306.5,320.5 Q306,326 304.5,330 Q303,334 300,339.5 Q297,345 292.5,349 Q288,353 281.5,356 Q275,359 265.5,361 Q256,363 245,363 Q223,363 208.5,358 Q194,353 188,343 Q182,333 180,328.5 Q178,324 177,315 Q168,257 112,257 Q82,257 66.5,272.5 Q51,288 51,307 Q51,353 110,384.5 Q169,416 279,416 Q341,416 381,406 Q421,396 438,375.5 Q455,355 460,336.5 Q465,318 465,289 L465,104 Q465,61 491,61 Q513,61 518,89 L559,89 Q556,33 513,9 Q482,-9 437,-9 Q352,-9 316,42 Q244,-9 161,-9 Q97,-9 72.5,19 Q48,47 48,79 Q48,102 56.5,121.5 Q65,141 85,158 Q105,175 124,187.5 Q143,200 178.5,215 Q214,230 238.5,239 Q263,248 307,264 M307,95 L307,209 Q253,186 225.5,163.5 Q198,141 198,111 Q198,93 209.5,77.5 Q221,62 243,62 Q276,62 307,95 M305,613 Q257,613 240.5,596 Q224,579 224,555 Q224,531 240.5,514 Q257,497 281,497 Q305,497 322,514 Q339,531 339,555 Q339,579 305,613 M241,650 Q321,650 349,622.5 Q377,595 377,555 Q377,515 349,487 Q321,459 281,459 Q241,459 213,487 Q185,515 185,555 Q185,595 241,650"/> 
            <glyph glyph-name="æ" unicode="&#xE6;" horiz-adv-x="718" d=" M295,264 L295,291 Q295,305 293.5,313.5 Q292,322 287,335 Q282,348 267.5,355 Q253,362 231,362 Q212,362 200,358.5 Q188,355 182.5,346 Q177,337 175,330 Q173,323 171,309 Q163,260 109,260 Q81,260 64,273.5 Q47,287 47,308 Q47,358 109.5,387 Q172,416 261,416 Q346,416 410,392 Q459,416 514,416 Q544,416 575.5,407 Q607,398 640,376.5 Q673,355 695,310.5 Q717,266 718,205 L453,205 Q453,52 557,52 Q609,52 657,104 L703,76 Q642,-9 514,-9 Q409,-9 333,61 Q230,-9 156,-9 Q107,-9 75.5,17 Q44,43 44,82 Q44,104 54,124 Q64,144 85.5,161.5 Q107,179 127.5,192.5 Q148,206 182,220.5 Q216,235 237.5,243 Q259,251 295,264 M295,95 L295,210 Q271,198 261.5,193 Q252,188 231,174.5 Q210,161 201,146 Q192,131 192,113 Q192,94 204,79.5 Q216,65 234,65 Q265,65 295,95 M456,254 L572,254 Q571,276 569.5,289.5 Q568,303 562.5,323 Q557,343 544,353 Q531,363 512,363 Q452,363 456,254"/> 
            <glyph glyph-name="ç" unicode="&#xE7;" horiz-adv-x="468" d=" M287,-15 L283,-42 Q327,-46 346.5,-70.5 Q366,-95 366,-125 Q366,-173 325.5,-203.5 Q285,-234 218,-234 Q182,-234 151,-225 L157,-176 Q184,-185 215,-185 Q236,-185 248.5,-177.5 Q261,-170 264,-163 Q267,-156 267,-149 Q267,-142 264,-135 Q261,-128 249,-120.5 Q237,-113 217,-113 L231,-13 Q153,-7 93,47 Q33,101 33,191 Q33,293 108,354.5 Q183,416 296,416 Q323,416 349,411.5 Q375,407 400.5,397 Q426,387 442,367 Q458,347 458,319 Q458,294 442,275 Q426,256 398,256 Q344,256 329,331 Q321,364 286,364 Q200,364 200,225 Q200,131 226,89.5 Q252,48 308,48 Q334,48 355,56.5 Q376,65 389.5,81 Q403,97 407.5,103.5 Q412,110 418,123 L468,101 Q428,-2 287,-15"/> 
            <glyph glyph-name="è" unicode="&#xE8;" horiz-adv-x="488" d=" M429,103 L475,76 Q445,34 393.5,9 Q342,-16 280,-16 Q180,-16 113,44.5 Q46,105 46,202 Q46,301 112.5,358.5 Q179,416 274,416 Q309,416 343,406.5 Q377,397 411.5,375.5 Q446,354 467,310 Q488,266 488,205 L213,205 Q213,45 324,45 Q382,45 429,103 M213,254 L338,254 Q335,362 275,362 Q213,362 213,254 M355,462 L313,462 L86,617 L86,619 L284,619"/> 
            <glyph glyph-name="é" unicode="&#xE9;" horiz-adv-x="488" d=" M429,103 L475,76 Q445,34 393.5,9 Q342,-16 280,-16 Q180,-16 113,44.5 Q46,105 46,202 Q46,301 112.5,358.5 Q179,416 274,416 Q309,416 343,406.5 Q377,397 411.5,375.5 Q446,354 467,310 Q488,266 488,205 L213,205 Q213,45 324,45 Q382,45 429,103 M213,254 L338,254 Q335,362 275,362 Q213,362 213,254 M170,462 L241,619 L439,619 L212,462"/> 
            <glyph glyph-name="ê" unicode="&#xEA;" horiz-adv-x="488" d=" M429,103 L475,76 Q445,34 393.5,9 Q342,-16 280,-16 Q180,-16 113,44.5 Q46,105 46,202 Q46,301 112.5,358.5 Q179,416 274,416 Q309,416 343,406.5 Q377,397 411.5,375.5 Q446,354 467,310 Q488,266 488,205 L213,205 Q213,45 324,45 Q382,45 429,103 M213,254 L338,254 Q335,362 275,362 Q213,362 213,254 M265,549 L141,459 L97,459 L193,635 L339,635 L428,459 L381,459"/> 
            <glyph glyph-name="ë" unicode="&#xEB;" horiz-adv-x="488" d=" M429,103 L475,76 Q445,34 393.5,9 Q342,-16 280,-16 Q180,-16 113,44.5 Q46,105 46,202 Q46,301 112.5,358.5 Q179,416 274,416 Q309,416 343,406.5 Q377,397 411.5,375.5 Q446,354 467,310 Q488,266 488,205 L213,205 Q213,45 324,45 Q382,45 429,103 M213,254 L338,254 Q335,362 275,362 Q213,362 213,254 M90,516 Q90,572 110,592.5 Q130,613 159,613 Q188,613 208,593 Q228,573 228,544 Q228,515 208,495 Q188,475 159,475 Q131,475 90,516 M298,515 Q298,573 318,593 Q338,613 367,613 Q396,613 416,592.5 Q436,572 436,544 Q436,516 416,495.5 Q396,475 367,475 Q339,475 298,515"/> 
            <glyph glyph-name="ì" unicode="&#xEC;" horiz-adv-x="316" d=" M250,416 L250,117 Q250,92 253,80.5 Q256,69 270.5,60.5 Q285,52 316,52 L316,0 L18,0 L18,52 Q65,52 78.5,64 Q92,76 92,117 L92,262 Q92,302 79,314.5 Q66,327 18,327 L18,379 M259,462 L217,462 L-10,617 L-10,619 L188,619"/> 
            <glyph glyph-name="í" unicode="&#xED;" horiz-adv-x="343" d=" M250,416 L250,117 Q250,92 253,80.5 Q256,69 270.5,60.5 Q285,52 316,52 L316,0 L18,0 L18,52 Q65,52 78.5,64 Q92,76 92,117 L92,262 Q92,302 79,314.5 Q66,327 18,327 L18,379 M74,462 L145,619 L343,619 L116,462"/> 
            <glyph glyph-name="î" unicode="&#xEE;" horiz-adv-x="332" d=" M250,416 L250,117 Q250,92 253,80.5 Q256,69 270.5,60.5 Q285,52 316,52 L316,0 L18,0 L18,52 Q65,52 78.5,64 Q92,76 92,117 L92,262 Q92,302 79,314.5 Q66,327 18,327 L18,379 M169,549 L45,459 L1,459 L97,635 L243,635 L332,459 L285,459"/> 
            <glyph glyph-name="ï" unicode="&#xEF;" horiz-adv-x="340" d=" M250,416 L250,117 Q250,92 253,80.5 Q256,69 270.5,60.5 Q285,52 316,52 L316,0 L18,0 L18,52 Q65,52 78.5,64 Q92,76 92,117 L92,262 Q92,302 79,314.5 Q66,327 18,327 L18,379 M-6,516 Q-6,572 14,592.5 Q34,613 63,613 Q92,613 112,593 Q132,573 132,544 Q132,515 112,495 Q92,475 63,475 Q35,475 -6,516 M202,515 Q202,573 222,593 Q242,613 271,613 Q300,613 320,592.5 Q340,572 340,544 Q340,516 320,495.5 Q300,475 271,475 Q243,475 202,515"/> 
            <glyph glyph-name="ð" unicode="&#xF0;" horiz-adv-x="530" d=" M279,526 L176,457 L148,502 L243,566 Q218,590 161,628 L218,674 Q276,656 321,618 L403,674 L434,631 L363,583 Q530,433 530,241 Q530,192 516.5,148 Q503,104 475.5,66.5 Q448,29 399,6.5 Q350,-16 285,-16 Q166,-16 101.5,46.5 Q37,109 37,200 Q37,271 73.5,322 Q110,373 160,394.5 Q210,416 265,416 Q307,416 345,397 Q332,456 279,526 M204,206 Q204,177 204.5,161 Q205,145 209,118 Q213,91 220.5,76 Q228,61 244,49.5 Q260,38 282,38 Q308,38 324.5,52.5 Q341,67 348,95.5 Q355,124 356.5,145.5 Q358,167 358,200 Q358,223 357.5,236 Q357,249 355,271.5 Q353,294 348,307 Q343,320 335,334.5 Q327,349 313.5,355.5 Q300,362 281,362 Q259,362 243.5,350.5 Q228,339 220.5,324.5 Q213,310 209,284.5 Q205,259 204.5,244.5 Q204,230 204,206"/> 
            <glyph glyph-name="ñ" unicode="&#xF1;" horiz-adv-x="592" d=" M237,275 L237,116 Q237,98 239.5,86 Q242,74 253.5,63 Q265,52 287,52 L287,0 L13,0 L13,52 Q57,52 68,65.5 Q79,79 79,116 L79,253 Q79,272 77.5,281 Q76,290 70,300 Q64,310 50,313.5 Q36,317 13,317 L13,369 L230,405 Q238,383 240,346 Q306,416 381,416 Q451,416 489.5,377 Q528,338 528,275 L528,116 Q528,98 529,89.5 Q530,81 535.5,70.5 Q541,60 555,56 Q569,52 592,52 L592,0 L320,0 L320,52 Q343,52 354.5,63 Q366,74 368,85 Q370,96 370,116 L370,262 Q370,332 325,332 Q284,332 237,275 M428,616 L470,616 Q475,557 448,510 Q421,463 368,463 Q337,463 274,482 Q229,495 210,495 Q182,495 173,463 L133,463 Q131,512 141,536 Q154,568 180.5,586 Q207,604 239,604 Q264,604 334,585 Q376,574 388,574 Q424,574 428,616"/> 
            <glyph glyph-name="ò" unicode="&#xF2;" horiz-adv-x="525" d=" M37,201 Q37,246 52,283.5 Q67,321 91.5,345 Q116,369 148.5,385.5 Q181,402 214,409 Q247,416 280,416 Q318,416 357.5,405.5 Q397,395 436,372 Q475,349 500,304.5 Q525,260 525,201 Q525,130 487,79 Q449,28 395,6 Q341,-16 281,-16 Q256,-16 228,-11.5 Q200,-7 164.5,7.5 Q129,22 102,44.5 Q75,67 56,108 Q37,149 37,201 M204,206 Q204,177 204.5,161 Q205,145 209,118 Q213,91 220.5,76 Q228,61 244,49.5 Q260,38 282,38 Q308,38 324.5,52.5 Q341,67 348,95.5 Q355,124 356.5,145.5 Q358,167 358,200 Q358,223 357.5,236 Q357,249 355,271.5 Q353,294 348,307 Q343,320 335,334.5 Q327,349 313.5,355.5 Q300,362 281,362 Q259,362 243.5,350.5 Q228,339 220.5,324.5 Q213,310 209,284.5 Q205,259 204.5,244.5 Q204,230 204,206 M374,462 L332,462 L105,617 L105,619 L303,619"/> 
            <glyph glyph-name="ó" unicode="&#xF3;" horiz-adv-x="525" d=" M37,201 Q37,246 52,283.5 Q67,321 91.5,345 Q116,369 148.5,385.5 Q181,402 214,409 Q247,416 280,416 Q318,416 357.5,405.5 Q397,395 436,372 Q475,349 500,304.5 Q525,260 525,201 Q525,130 487,79 Q449,28 395,6 Q341,-16 281,-16 Q256,-16 228,-11.5 Q200,-7 164.5,7.5 Q129,22 102,44.5 Q75,67 56,108 Q37,149 37,201 M204,206 Q204,177 204.5,161 Q205,145 209,118 Q213,91 220.5,76 Q228,61 244,49.5 Q260,38 282,38 Q308,38 324.5,52.5 Q341,67 348,95.5 Q355,124 356.5,145.5 Q358,167 358,200 Q358,223 357.5,236 Q357,249 355,271.5 Q353,294 348,307 Q343,320 335,334.5 Q327,349 313.5,355.5 Q300,362 281,362 Q259,362 243.5,350.5 Q228,339 220.5,324.5 Q213,310 209,284.5 Q205,259 204.5,244.5 Q204,230 204,206 M189,462 L260,619 L458,619 L231,462"/> 
            <glyph glyph-name="ô" unicode="&#xF4;" horiz-adv-x="525" d=" M37,201 Q37,246 52,283.5 Q67,321 91.5,345 Q116,369 148.5,385.5 Q181,402 214,409 Q247,416 280,416 Q318,416 357.5,405.5 Q397,395 436,372 Q475,349 500,304.5 Q525,260 525,201 Q525,130 487,79 Q449,28 395,6 Q341,-16 281,-16 Q256,-16 228,-11.5 Q200,-7 164.5,7.5 Q129,22 102,44.5 Q75,67 56,108 Q37,149 37,201 M204,206 Q204,177 204.5,161 Q205,145 209,118 Q213,91 220.5,76 Q228,61 244,49.5 Q260,38 282,38 Q308,38 324.5,52.5 Q341,67 348,95.5 Q355,124 356.5,145.5 Q358,167 358,200 Q358,223 357.5,236 Q357,249 355,271.5 Q353,294 348,307 Q343,320 335,334.5 Q327,349 313.5,355.5 Q300,362 281,362 Q259,362 243.5,350.5 Q228,339 220.5,324.5 Q213,310 209,284.5 Q205,259 204.5,244.5 Q204,230 204,206 M284,549 L160,459 L116,459 L212,635 L358,635 L447,459 L400,459"/> 
            <glyph glyph-name="õ" unicode="&#xF5;" horiz-adv-x="525" d=" M37,201 Q37,246 52,283.5 Q67,321 91.5,345 Q116,369 148.5,385.5 Q181,402 214,409 Q247,416 280,416 Q318,416 357.5,405.5 Q397,395 436,372 Q475,349 500,304.5 Q525,260 525,201 Q525,130 487,79 Q449,28 395,6 Q341,-16 281,-16 Q256,-16 228,-11.5 Q200,-7 164.5,7.5 Q129,22 102,44.5 Q75,67 56,108 Q37,149 37,201 M204,206 Q204,177 204.5,161 Q205,145 209,118 Q213,91 220.5,76 Q228,61 244,49.5 Q260,38 282,38 Q308,38 324.5,52.5 Q341,67 348,95.5 Q355,124 356.5,145.5 Q358,167 358,200 Q358,223 357.5,236 Q357,249 355,271.5 Q353,294 348,307 Q343,320 335,334.5 Q327,349 313.5,355.5 Q300,362 281,362 Q259,362 243.5,350.5 Q228,339 220.5,324.5 Q213,310 209,284.5 Q205,259 204.5,244.5 Q204,230 204,206 M407,616 L449,616 Q454,557 427,510 Q400,463 347,463 Q316,463 253,482 Q208,495 189,495 Q161,495 152,463 L112,463 Q110,512 120,536 Q133,568 159.5,586 Q186,604 218,604 Q243,604 313,585 Q355,574 367,574 Q403,574 407,616"/> 
            <glyph glyph-name="ö" unicode="&#xF6;" horiz-adv-x="525" d=" M37,201 Q37,246 52,283.5 Q67,321 91.5,345 Q116,369 148.5,385.5 Q181,402 214,409 Q247,416 280,416 Q318,416 357.5,405.5 Q397,395 436,372 Q475,349 500,304.5 Q525,260 525,201 Q525,130 487,79 Q449,28 395,6 Q341,-16 281,-16 Q256,-16 228,-11.5 Q200,-7 164.5,7.5 Q129,22 102,44.5 Q75,67 56,108 Q37,149 37,201 M204,206 Q204,177 204.5,161 Q205,145 209,118 Q213,91 220.5,76 Q228,61 244,49.5 Q260,38 282,38 Q308,38 324.5,52.5 Q341,67 348,95.5 Q355,124 356.5,145.5 Q358,167 358,200 Q358,223 357.5,236 Q357,249 355,271.5 Q353,294 348,307 Q343,320 335,334.5 Q327,349 313.5,355.5 Q300,362 281,362 Q259,362 243.5,350.5 Q228,339 220.5,324.5 Q213,310 209,284.5 Q205,259 204.5,244.5 Q204,230 204,206 M109,516 Q109,572 129.5,592.5 Q150,613 178,613 Q207,613 227,593 Q247,573 247,544 Q247,515 227,495 Q207,475 178,475 Q150,475 109,516 M317,515 Q317,573 337,593 Q357,613 386,613 Q414,613 434.5,592.5 Q455,572 455,544 Q455,516 434.5,495.5 Q414,475 386,475 Q358,475 317,515"/> 
            <glyph glyph-name="÷" unicode="&#xF7;" horiz-adv-x="604" d=" M394,150 Q394,100 376,82 Q358,64 333,64 Q308,64 290,82 Q272,100 272,125 Q272,150 290,168 Q308,186 333,186 Q358,186 394,150 M394,560 Q394,510 376,492 Q358,474 333,474 Q308,474 290,492 Q272,510 272,535 Q272,560 290,578 Q308,596 333,596 Q358,596 394,560 M62,381 L604,381 L604,279 L62,279"/> 
            <glyph glyph-name="ø" unicode="&#xF8;" horiz-adv-x="525" d=" M205,155 L345,315 Q329,362 281,362 Q254,362 237,347.5 Q220,333 213.5,304.5 Q207,276 205.5,257 Q204,238 204,206 Q204,171 205,155 M216,87 Q238,38 282,38 Q308,38 324.5,52.5 Q341,67 348,95.5 Q355,124 356.5,145.5 Q358,167 358,200 Q358,239 357,248 M106,41 Q37,105 37,201 Q37,257 60,300.5 Q83,344 119.5,368 Q156,392 197,404 Q238,416 280,416 Q352,416 408,387 L454,439 L493,404 L454,359 Q525,298 525,201 Q525,130 487,79 Q449,28 395.5,6 Q342,-16 281,-16 Q210,-16 152,13 L108,-38 L68,-3"/> 
            </font>
</defs>
</svg>
